M48
; DRILL file {KiCad (5.1.4)-1} date 9/11/2019 9:05:31 AM
; FORMAT={-:-/ absolute / metric / decimal}
; #@! TF.CreationDate,2019-09-11T09:05:31+07:00
; #@! TF.GenerationSoftware,Kicad,Pcbnew,(5.1.4)-1
; #@! TF.FileFunction,NonPlated,1,2,NPTH
FMAT,2
METRIC
T1C1.702
T2C2.500
T3C3.048
T4C3.988
%
G90
G05
T1
X156.845Y-19.05
X167.005Y-19.05
X2.064Y-38.1
X12.224Y-38.1
X261.62Y0.0
X271.78Y0.0
X142.558Y-38.1
X152.718Y-38.1
X44.926Y-76.2
X55.086Y-76.2
X128.27Y-76.2
X138.43Y-76.2
X194.945Y-19.05
X205.105Y-19.05
X13.97Y0.0
X24.13Y0.0
X204.47Y0.0
X214.63Y0.0
X61.595Y-19.05
X71.755Y-19.05
X71.12Y0.0
X81.28Y0.0
X147.32Y0.0
X157.48Y0.0
X66.358Y-38.1
X76.517Y-38.1
X99.695Y-19.05
X109.855Y-19.05
X161.607Y-38.1
X171.767Y-38.1
X33.02Y0.0
X43.18Y0.0
X166.37Y0.0
X176.53Y0.0
X223.52Y0.0
X233.68Y0.0
X259.239Y-76.2
X269.399Y-76.2
X213.995Y-19.05
X224.155Y-19.05
X218.757Y-38.1
X228.917Y-38.1
X21.114Y-76.2
X31.274Y-76.2
X109.22Y0.0
X119.38Y0.0
X187.801Y-76.2
X197.961Y-76.2
X113.983Y-57.15
X124.142Y-57.15
X256.858Y-19.05
X267.017Y-19.05
X133.032Y-57.15
X143.192Y-57.15
X42.545Y-19.05
X52.705Y-19.05
X23.495Y-76.2
X33.655Y-76.2
X175.895Y-19.05
X186.055Y-19.05
X52.07Y0.0
X62.23Y0.0
X199.707Y-38.1
X209.867Y-38.1
X23.495Y-19.05
X33.655Y-19.05
X256.858Y-76.2
X267.017Y-76.2
X6.826Y-57.15
X16.986Y-57.15
X90.17Y0.0
X100.33Y0.0
X123.507Y-38.1
X133.667Y-38.1
X-5.08Y0.0
X5.08Y0.0
X37.782Y-57.15
X47.942Y-57.15
X171.132Y-57.15
X181.292Y-57.15
X104.457Y-38.1
X114.617Y-38.1
X190.183Y-57.15
X200.343Y-57.15
X244.951Y-57.15
X255.111Y-57.15
X233.045Y-19.05
X243.205Y-19.05
X242.57Y0.0
X252.73Y0.0
X80.645Y-19.05
X90.805Y-19.05
X180.657Y-38.1
X190.817Y-38.1
X137.795Y-19.05
X147.955Y-19.05
X249.714Y-38.1
X259.874Y-38.1
X116.364Y-76.2
X126.524Y-76.2
X47.307Y-38.1
X57.467Y-38.1
X47.307Y-76.2
X57.467Y-76.2
X209.232Y-76.2
X219.392Y-76.2
X-0.318Y-19.05
X9.842Y-19.05
X-2.699Y-38.1
X7.461Y-38.1
X209.232Y-57.15
X219.392Y-57.15
X-2.699Y-76.2
X7.461Y-76.2
X75.882Y-57.15
X86.042Y-57.15
X118.745Y-19.05
X128.905Y-19.05
X-0.318Y-76.2
X9.842Y-76.2
X94.932Y-57.15
X105.093Y-57.15
X128.27Y0.0
X138.43Y0.0
X233.045Y-76.2
X243.205Y-76.2
X85.407Y-38.1
X95.567Y-38.1
X152.082Y-57.15
X162.243Y-57.15
X252.095Y0.0
X262.255Y0.0
X28.258Y-38.1
X38.417Y-38.1
X185.42Y0.0
X195.58Y0.0
X235.426Y-76.2
X245.586Y-76.2
X261.62Y-57.15
X271.78Y-57.15
X211.614Y-76.2
X221.774Y-76.2
X56.832Y-57.15
X66.992Y-57.15
X235.426Y-57.15
X245.586Y-57.15
T3
X261.968Y-64.135
X242.855Y-45.085
X238.092Y-64.135
X266.731Y-45.085
X245.237Y6.985
X190.461Y-83.185
X23.844Y-64.135
X76.161Y-83.185
X269.113Y6.985
X-0.032Y-64.135
X71.404Y-83.185
X171.404Y-83.185
T4
X245.237Y-8.255
X216.694Y-76.2
X61.912Y-57.15
X240.506Y-57.15
X161.925Y-19.05
X7.144Y-38.1
X266.7Y0.0
X147.637Y-38.1
X50.006Y-76.2
X133.35Y-76.2
X200.025Y-19.05
X19.05Y0.0
X209.55Y0.0
X66.675Y-19.05
X190.461Y-67.945
X76.2Y0.0
X152.4Y0.0
X71.438Y-38.1
X104.775Y-19.05
X166.688Y-38.1
X38.1Y0.0
X171.45Y0.0
X23.844Y-48.895
X228.6Y0.0
X264.319Y-76.2
X219.075Y-19.05
X76.161Y-67.945
X223.837Y-38.1
X26.194Y-76.2
X114.3Y0.0
X269.113Y-8.255
X192.881Y-76.2
X119.062Y-57.15
X261.938Y-19.05
X138.112Y-57.15
X47.625Y-19.05
X28.575Y-76.2
X180.975Y-19.05
X57.15Y0.0
X204.787Y-38.1
X28.575Y-19.05
X261.938Y-76.2
X11.906Y-57.15
X-0.032Y-48.895
X95.25Y0.0
X71.404Y-67.945
X128.588Y-38.1
X0.0Y0.0
X42.862Y-57.15
X171.404Y-67.945
X176.213Y-57.15
X109.537Y-38.1
X195.262Y-57.15
X250.031Y-57.15
X238.125Y-19.05
X247.65Y0.0
X85.725Y-19.05
X185.737Y-38.1
X142.875Y-19.05
X254.794Y-38.1
X121.444Y-76.2
X52.387Y-38.1
X52.387Y-76.2
X214.312Y-76.2
X4.763Y-19.05
X2.381Y-38.1
X214.312Y-57.15
X2.381Y-76.2
X80.962Y-57.15
X261.968Y-48.895
X123.825Y-19.05
X4.763Y-76.2
X242.855Y-29.845
X100.012Y-57.15
X238.092Y-48.895
X133.35Y0.0
X238.125Y-76.2
X90.487Y-38.1
X157.162Y-57.15
X257.175Y0.0
X33.337Y-38.1
X190.5Y0.0
X266.731Y-29.845
X240.506Y-76.2
X266.7Y-57.15
T2
G00X39.295Y-86.5
M15
G01X39.295Y-82.5
M16
G05
G00X227.481Y-86.5
M15
G01X227.481Y-82.5
M16
G05
G00X271.676Y-47.302
M15
G01X275.676Y-47.302
M16
G05
G00X179.18Y-76.201
M15
G01X183.18Y-76.201
M16
G05
G00X14.4Y-19.05
M15
G01X18.4Y-19.05
M16
G05
G00X248.5Y-19.05
M15
G01X252.5Y-19.05
M16
G05
G00X-9.3Y-47.548
M15
G01X-5.3Y-47.548
M16
G05
G00X121.824Y-8.525
M15
G01X125.824Y-8.525
M16
G05
G00X117.062Y-38.1
M15
G01X121.062Y-38.1
M16
G05
T0
M30
