G04 #@! TF.GenerationSoftware,KiCad,Pcbnew,(5.1.4)-1*
G04 #@! TF.CreationDate,2019-09-11T09:05:26+07:00*
G04 #@! TF.ProjectId,PCB,5043422e-6b69-4636-9164-5f7063625858,b*
G04 #@! TF.SameCoordinates,Original*
G04 #@! TF.FileFunction,Legend,Top*
G04 #@! TF.FilePolarity,Positive*
%FSLAX46Y46*%
G04 Gerber Fmt 4.6, Leading zero omitted, Abs format (unit mm)*
G04 Created by KiCad (PCBNEW (5.1.4)-1) date 2019-09-11 09:05:26*
%MOMM*%
%LPD*%
G04 APERTURE LIST*
%ADD10C,0.120000*%
%ADD11C,0.150000*%
G04 APERTURE END LIST*
D10*
X265393350Y-51150300D02*
X258543350Y-51150300D01*
X265393350Y-62150300D02*
X258543350Y-62150300D01*
X265393350Y-62150300D02*
X265393350Y-51150300D01*
X258543350Y-51150300D02*
X258543350Y-62150300D01*
X241517350Y-51150300D02*
X234667350Y-51150300D01*
X241517350Y-62150300D02*
X234667350Y-62150300D01*
X241517350Y-62150300D02*
X241517350Y-51150300D01*
X234667350Y-51150300D02*
X234667350Y-62150300D01*
X74829159Y-70200300D02*
X67979159Y-70200300D01*
X74829159Y-81200300D02*
X67979159Y-81200300D01*
X74829159Y-81200300D02*
X74829159Y-70200300D01*
X67979159Y-70200300D02*
X67979159Y-81200300D01*
X174829159Y-70200300D02*
X167979159Y-70200300D01*
X174829159Y-81200300D02*
X167979159Y-81200300D01*
X174829159Y-81200300D02*
X174829159Y-70200300D01*
X167979159Y-70200300D02*
X167979159Y-81200300D01*
X27269249Y-51150300D02*
X20419249Y-51150300D01*
X27269249Y-62150300D02*
X20419249Y-62150300D01*
X27269249Y-62150300D02*
X27269249Y-51150300D01*
X20419249Y-51150300D02*
X20419249Y-62150300D01*
X270156350Y-32100300D02*
X263306350Y-32100300D01*
X270156350Y-43100300D02*
X263306350Y-43100300D01*
X270156350Y-43100300D02*
X270156350Y-32100300D01*
X263306350Y-32100300D02*
X263306350Y-43100300D01*
X193886159Y-70200300D02*
X187036159Y-70200300D01*
X193886159Y-81200300D02*
X187036159Y-81200300D01*
X193886159Y-81200300D02*
X193886159Y-70200300D01*
X187036159Y-70200300D02*
X187036159Y-81200300D01*
X3393250Y-51150300D02*
X-3456750Y-51150300D01*
X3393250Y-62150300D02*
X-3456750Y-62150300D01*
X3393250Y-62150300D02*
X3393250Y-51150300D01*
X-3456750Y-51150300D02*
X-3456750Y-62150300D01*
X246280350Y-32100300D02*
X239430350Y-32100300D01*
X246280350Y-43100300D02*
X239430350Y-43100300D01*
X246280350Y-43100300D02*
X246280350Y-32100300D01*
X239430350Y-32100300D02*
X239430350Y-43100300D01*
X79586359Y-70200300D02*
X72736359Y-70200300D01*
X79586359Y-81200300D02*
X72736359Y-81200300D01*
X79586359Y-81200300D02*
X79586359Y-70200300D01*
X72736359Y-70200300D02*
X72736359Y-81200300D01*
X241812350Y-6000300D02*
X248662350Y-6000300D01*
X241812350Y4999700D02*
X248662350Y4999700D01*
X241812350Y4999700D02*
X241812350Y-6000300D01*
X248662350Y-6000300D02*
X248662350Y4999700D01*
X265688350Y-6000300D02*
X272538350Y-6000300D01*
X265688350Y4999700D02*
X272538350Y4999700D01*
X265688350Y4999700D02*
X265688350Y-6000300D01*
X272538350Y-6000300D02*
X272538350Y4999700D01*
X109060000Y-79810000D02*
X105440000Y-79810000D01*
X109060000Y-73690000D02*
X109060000Y-79810000D01*
X105440000Y-73690000D02*
X109060000Y-73690000D01*
X105440000Y-79810000D02*
X105440000Y-73690000D01*
D11*
X110702380Y-77988095D02*
X110226190Y-78321428D01*
X110702380Y-78559523D02*
X109702380Y-78559523D01*
X109702380Y-78178571D01*
X109750000Y-78083333D01*
X109797619Y-78035714D01*
X109892857Y-77988095D01*
X110035714Y-77988095D01*
X110130952Y-78035714D01*
X110178571Y-78083333D01*
X110226190Y-78178571D01*
X110226190Y-78559523D01*
X110654761Y-77178571D02*
X110702380Y-77273809D01*
X110702380Y-77464285D01*
X110654761Y-77559523D01*
X110559523Y-77607142D01*
X110178571Y-77607142D01*
X110083333Y-77559523D01*
X110035714Y-77464285D01*
X110035714Y-77273809D01*
X110083333Y-77178571D01*
X110178571Y-77130952D01*
X110273809Y-77130952D01*
X110369047Y-77607142D01*
X110654761Y-76750000D02*
X110702380Y-76654761D01*
X110702380Y-76464285D01*
X110654761Y-76369047D01*
X110559523Y-76321428D01*
X110511904Y-76321428D01*
X110416666Y-76369047D01*
X110369047Y-76464285D01*
X110369047Y-76607142D01*
X110321428Y-76702380D01*
X110226190Y-76750000D01*
X110178571Y-76750000D01*
X110083333Y-76702380D01*
X110035714Y-76607142D01*
X110035714Y-76464285D01*
X110083333Y-76369047D01*
X110654761Y-75511904D02*
X110702380Y-75607142D01*
X110702380Y-75797619D01*
X110654761Y-75892857D01*
X110559523Y-75940476D01*
X110178571Y-75940476D01*
X110083333Y-75892857D01*
X110035714Y-75797619D01*
X110035714Y-75607142D01*
X110083333Y-75511904D01*
X110178571Y-75464285D01*
X110273809Y-75464285D01*
X110369047Y-75940476D01*
X110035714Y-75178571D02*
X110035714Y-74797619D01*
X109702380Y-75035714D02*
X110559523Y-75035714D01*
X110654761Y-74988095D01*
X110702380Y-74892857D01*
X110702380Y-74797619D01*
M02*
