M48
; DRILL file {KiCad (5.1.4)-1} date 9/11/2019 9:05:31 AM
; FORMAT={-:-/ absolute / metric / decimal}
; #@! TF.CreationDate,2019-09-11T09:05:31+07:00
; #@! TF.GenerationSoftware,Kicad,Pcbnew,(5.1.4)-1
; #@! TF.FileFunction,Plated,1,2,PTH
FMAT,2
METRIC
T1C0.300
T2C0.400
T3C0.650
T4C0.700
T5C0.800
T6C1.100
T7C1.700
T8C1.800
T9C2.200
%
G90
G05
T1
X-1.928Y-44.734
X8.786Y-45.276
X8.995Y-0.414
X9.538Y-3.241
X9.652Y-2.466
X11.902Y-3.238
X12.423Y-2.466
X14.575Y7.13
X20.043Y-22.291
X20.086Y-40.564
X20.477Y-21.521
X22.537Y-22.291
X22.916Y-21.521
X24.348Y-40.564
X38.678Y-47.267
X38.785Y-46.325
X66.18Y-47.717
X66.432Y-48.316
X67.48Y-59.614
X67.762Y-60.391
X68.725Y-70.896
X72.748Y-41.341
X74.82Y-79.442
X75.029Y-60.391
X75.161Y-78.666
X75.225Y-59.616
X75.631Y-22.291
X76.071Y-40.566
X76.835Y-71.956
X77.445Y-21.516
X77.478Y-72.514
X77.643Y-3.241
X77.93Y-71.455
X79.416Y-21.516
X79.459Y-22.291
X79.855Y-47.201
X79.878Y-69.525
X80.264Y-81.912
X80.279Y-81.267
X80.287Y-80.667
X80.293Y-80.067
X80.416Y-41.341
X80.434Y-83.177
X80.462Y-43.137
X80.495Y-82.58
X80.495Y-83.853
X80.746Y-40.566
X81.488Y-79.617
X81.567Y-3.241
X87.381Y-65.938
X87.811Y-77.973
X87.849Y-78.689
X89.809Y-70.927
X91.607Y-73.302
X91.7Y-75.402
X92.245Y-68.642
X92.73Y-68.247
X93.113Y-74.515
X93.113Y-75.515
X93.396Y-67.782
X94.113Y-73.515
X94.113Y-74.515
X94.113Y-75.515
X94.211Y-70.955
X95.113Y-73.515
X95.113Y-74.515
X95.113Y-75.515
X95.133Y-71.252
X95.55Y-83.381
X96.061Y-73.111
X96.113Y-74.515
X96.113Y-75.515
X96.113Y-76.515
X96.695Y-83.333
X97.113Y-74.515
X97.113Y-75.515
X97.113Y-76.515
X97.113Y-77.515
X97.52Y-71.794
X98.113Y-75.515
X98.113Y-76.515
X98.113Y-77.515
X101.643Y-82.687
X101.694Y-59.627
X102.958Y-83.706
X103.071Y-83.162
X103.302Y-61.029
X108.966Y-67.143
X109.644Y-67.593
X110.068Y-68.118
X110.668Y-68.654
X124.553Y-77.664
X137.808Y-65.664
X138.232Y-65.166
X159.149Y-65.166
X178.783Y-63.652
X197.933Y-64.109
X216.983Y-64.571
X234.578Y-65.033
X244.528Y-11.514
X259.338Y-65.98
X265.258Y-60.386
X274.374Y-60.462
T2
X122.554Y-6.938
X122.554Y-10.112
X123.824Y-6.938
X123.824Y-10.112
X125.094Y-6.938
X125.094Y-10.112
X227.743Y-55.849
X228.227Y-54.682
X228.227Y-57.016
X229.393Y-54.199
X229.393Y-57.499
X230.56Y-54.682
X230.56Y-57.016
X231.043Y-55.849
X117.792Y-36.512
X117.792Y-39.688
X119.062Y-36.512
X119.062Y-39.688
X120.332Y-36.512
X120.332Y-39.688
X37.707Y-83.23
X37.707Y-84.5
X37.707Y-85.77
X40.882Y-83.23
X40.882Y-84.5
X40.882Y-85.77
X225.894Y-83.23
X225.894Y-84.5
X225.894Y-85.77
X229.069Y-83.23
X229.069Y-84.5
X229.069Y-85.77
X272.406Y-45.714
X272.406Y-48.889
X273.676Y-45.714
X273.676Y-48.889
X274.946Y-45.714
X274.946Y-48.889
X179.91Y-74.613
X179.91Y-77.788
X181.18Y-74.613
X181.18Y-77.788
X182.45Y-74.613
X182.45Y-77.788
X-4.921Y-57.95
X-4.437Y-56.784
X-4.437Y-59.117
X-3.271Y-56.3
X-3.271Y-59.6
X-2.104Y-56.784
X-2.104Y-59.117
X-1.621Y-57.95
X15.13Y-17.462
X15.13Y-20.637
X16.4Y-17.462
X16.4Y-20.637
X17.67Y-17.462
X17.67Y-20.637
X249.23Y-17.462
X249.23Y-20.637
X250.5Y-17.462
X250.5Y-20.637
X251.77Y-17.462
X251.77Y-20.637
X-8.57Y-45.96
X-8.57Y-49.135
X-7.3Y-45.96
X-7.3Y-49.135
X-6.03Y-45.96
X-6.03Y-49.135
X237.085Y-35.801
X237.569Y-34.634
X237.569Y-36.967
X238.735Y-34.151
X238.735Y-37.451
X239.902Y-34.634
X239.902Y-36.967
X240.385Y-35.801
T4
X7.4Y2.7
X8.2Y3.9
X9.0Y2.7
X9.8Y3.9
X10.6Y2.7
T5
X108.904Y-74.77
X108.904Y-77.31
X108.904Y-79.85
X111.444Y-74.77
X111.444Y-77.31
X111.444Y-79.85
T6
X108.267Y-43.18
X110.807Y-43.18
X253.524Y-43.18
X256.064Y-43.18
X3.492Y-24.13
X6.032Y-24.13
X117.792Y-62.23
X120.332Y-62.23
X215.503Y-81.28
X217.964Y-81.28
X10.636Y-62.23
X13.176Y-62.23
X132.08Y-5.08
X134.62Y-5.08
X55.88Y-5.08
X58.42Y-5.08
X213.042Y-62.23
X215.582Y-62.23
X5.874Y-43.18
X8.414Y-43.18
X160.655Y-24.13
X163.195Y-24.13
X227.33Y-5.08
X229.87Y-5.08
X193.992Y-62.23
X196.532Y-62.23
X17.78Y-5.08
X20.32Y-5.08
X141.605Y-24.13
X144.145Y-24.13
X74.93Y-5.08
X77.47Y-5.08
X248.761Y-62.23
X251.301Y-62.23
X265.43Y-62.23
X267.97Y-62.23
X189.23Y-5.08
X191.77Y-5.08
X60.642Y-62.23
X63.182Y-62.23
X151.13Y-5.08
X153.67Y-5.08
X98.742Y-62.23
X101.282Y-62.23
X213.042Y-81.28
X215.503Y-81.28
X236.855Y-24.13
X239.395Y-24.13
X51.197Y-81.28
X53.657Y-81.28
X36.83Y-5.08
X39.37Y-5.08
X127.317Y-43.18
X129.857Y-43.18
X260.667Y-24.13
X263.207Y-24.13
X27.305Y-24.13
X29.845Y-24.13
X170.18Y-5.08
X172.72Y-5.08
X239.316Y-81.28
X241.776Y-81.28
X70.167Y-43.18
X72.707Y-43.18
X103.505Y-24.13
X106.045Y-24.13
X217.805Y-24.13
X220.345Y-24.13
X174.942Y-62.23
X177.482Y-62.23
X1.111Y-81.28
X3.572Y-81.28
X136.843Y-62.23
X139.382Y-62.23
X24.924Y-81.28
X27.384Y-81.28
X146.368Y-43.18
X148.907Y-43.18
X84.455Y-24.13
X86.995Y-24.13
X255.905Y-5.08
X258.445Y-5.08
X1.111Y-43.18
X3.651Y-43.18
X263.128Y-81.28
X265.589Y-81.28
X265.43Y-5.08
X267.97Y-5.08
X-1.27Y-5.08
X1.27Y-5.08
X179.705Y-24.13
X182.245Y-24.13
X246.38Y-5.08
X248.92Y-5.08
X203.517Y-43.18
X206.058Y-43.18
X208.28Y-5.08
X210.82Y-5.08
X260.667Y-81.28
X263.128Y-81.28
X48.736Y-81.28
X51.197Y-81.28
X132.08Y-81.28
X134.62Y-81.28
X65.405Y-24.13
X67.945Y-24.13
X113.03Y-5.08
X115.57Y-5.08
X41.593Y-62.23
X44.133Y-62.23
X191.611Y-81.28
X194.151Y-81.28
X239.236Y-62.23
X241.776Y-62.23
X89.218Y-43.18
X91.757Y-43.18
X122.555Y-24.13
X125.095Y-24.13
X51.117Y-43.18
X53.657Y-43.18
X236.855Y-81.28
X239.316Y-81.28
X3.572Y-81.28
X6.032Y-81.28
X27.384Y-81.28
X29.845Y-81.28
X120.174Y-81.28
X122.714Y-81.28
X79.692Y-62.23
X82.233Y-62.23
X155.892Y-62.23
X158.433Y-62.23
X184.468Y-43.18
X187.007Y-43.18
X198.755Y-24.13
X201.295Y-24.13
X46.355Y-24.13
X48.895Y-24.13
X165.417Y-43.18
X167.957Y-43.18
X93.98Y-5.08
X96.52Y-5.08
X222.567Y-43.18
X225.107Y-43.18
X32.067Y-43.18
X34.608Y-43.18
T7
X102.552Y-52.07
X135.89Y5.08
X240.665Y-71.12
X93.027Y-33.02
X159.702Y-52.07
X259.715Y5.08
X35.877Y-33.02
X193.04Y5.08
X243.046Y-71.12
X269.24Y-52.07
X219.234Y-71.12
X64.453Y-52.07
X243.046Y-52.07
X164.465Y-13.97
X9.684Y-33.02
X269.24Y5.08
X150.177Y-33.02
X52.546Y-71.12
X135.89Y-71.12
X202.565Y-13.97
X21.59Y5.08
X212.09Y5.08
X69.215Y-13.97
X78.74Y5.08
X154.94Y5.08
X73.977Y-33.02
X107.315Y-13.97
X169.227Y-33.02
X40.64Y5.08
X173.99Y5.08
X231.14Y5.08
X266.859Y-71.12
X221.615Y-13.97
X226.377Y-33.02
X28.734Y-71.12
X116.84Y5.08
X195.421Y-71.12
X121.602Y-52.07
X264.477Y-13.97
X140.653Y-52.07
X50.165Y-13.97
X31.115Y-71.12
X183.515Y-13.97
X59.69Y5.08
X207.327Y-33.02
X31.115Y-13.97
X264.477Y-71.12
X14.446Y-52.07
X97.79Y5.08
X131.127Y-33.02
X2.54Y5.08
X45.402Y-52.07
X178.752Y-52.07
X112.078Y-33.02
X197.802Y-52.07
X252.571Y-52.07
X240.665Y-13.97
X250.19Y5.08
X88.265Y-13.97
X188.278Y-33.02
X145.415Y-13.97
X257.334Y-33.02
X123.984Y-71.12
X54.927Y-33.02
X54.927Y-71.12
X216.852Y-71.12
X7.302Y-13.97
X4.921Y-33.02
X216.852Y-52.07
X4.921Y-71.12
X83.502Y-52.07
X126.365Y-13.97
X7.302Y-71.12
T8
X258.127Y-16.51
X134.302Y-54.61
X43.815Y-16.51
X24.765Y-73.66
X177.165Y-16.51
X53.34Y2.54
X200.977Y-35.56
X24.765Y-16.51
X258.127Y-73.66
X8.096Y-54.61
X91.44Y2.54
X124.777Y-35.56
X-3.81Y2.54
X39.052Y-54.61
X172.403Y-54.61
X105.727Y-35.56
X191.452Y-54.61
X246.221Y-54.61
X234.315Y-16.51
X243.84Y2.54
X81.915Y-16.51
X181.927Y-35.56
X139.065Y-16.51
X250.984Y-35.56
X117.634Y-73.66
X48.578Y-35.56
X48.578Y-73.66
X210.502Y-73.66
X0.952Y-16.51
X-1.429Y-35.56
X210.502Y-54.61
X-1.429Y-73.66
X77.153Y-54.61
X120.015Y-16.51
X0.952Y-73.66
X96.203Y-54.61
X129.54Y2.54
X234.315Y-73.66
X86.677Y-35.56
X153.352Y-54.61
X253.365Y2.54
X29.527Y-35.56
X186.69Y2.54
X236.696Y-73.66
X262.89Y-54.61
X212.884Y-73.66
X58.102Y-54.61
X236.696Y-54.61
X158.115Y-16.51
X3.334Y-35.56
X262.89Y2.54
X143.827Y-35.56
X46.196Y-73.66
X129.54Y-73.66
X196.215Y-16.51
X15.24Y2.54
X205.74Y2.54
X62.865Y-16.51
X72.39Y2.54
X148.59Y2.54
X67.627Y-35.56
X100.965Y-16.51
X162.877Y-35.56
X34.29Y2.54
X167.64Y2.54
X224.79Y2.54
X260.509Y-73.66
X215.265Y-16.51
X220.028Y-35.56
X22.384Y-73.66
X110.49Y2.54
X189.071Y-73.66
X115.252Y-54.61
T9
X238.735Y-35.801
X229.393Y-55.849
X-3.271Y-57.95
T3
G00X103.996Y-71.368
M15
G01X104.126Y-71.293
M16
G05
G00X104.631Y-72.468
M15
G01X104.761Y-72.393
M16
G05
G00X105.266Y-73.568
M15
G01X105.396Y-73.493
M16
G05
G00X105.901Y-74.668
M15
G01X106.031Y-74.593
M16
G05
T5
G00X5.3Y8.9
M15
G01X5.3Y7.8
M16
G05
G00X5.3Y4.15
M15
G01X5.3Y3.05
M16
G05
G00X12.7Y8.9
M15
G01X12.7Y7.8
M16
G05
G00X12.7Y4.15
M15
G01X12.7Y3.05
M16
G05
T0
M30
