G04 #@! TF.GenerationSoftware,KiCad,Pcbnew,(5.1.2)-2*
G04 #@! TF.CreationDate,2019-07-11T11:24:39+07:00*
G04 #@! TF.ProjectId,PCB,5043422e-6b69-4636-9164-5f7063625858,a*
G04 #@! TF.SameCoordinates,Original*
G04 #@! TF.FileFunction,Legend,Top*
G04 #@! TF.FilePolarity,Positive*
%FSLAX46Y46*%
G04 Gerber Fmt 4.6, Leading zero omitted, Abs format (unit mm)*
G04 Created by KiCad (PCBNEW (5.1.2)-2) date 2019-07-11 11:24:39*
%MOMM*%
%LPD*%
G04 APERTURE LIST*
%ADD10C,0.150000*%
G04 APERTURE END LIST*
D10*
X423459764Y-45958546D02*
X423459764Y-45387118D01*
X423459764Y-45672832D02*
X424459764Y-45672832D01*
X424316906Y-45577594D01*
X424221668Y-45482356D01*
X424174049Y-45387118D01*
X424459764Y-46291880D02*
X424459764Y-46910927D01*
X424078811Y-46577594D01*
X424078811Y-46720451D01*
X424031192Y-46815689D01*
X423983573Y-46863308D01*
X423888335Y-46910927D01*
X423650240Y-46910927D01*
X423555002Y-46863308D01*
X423507383Y-46815689D01*
X423459764Y-46720451D01*
X423459764Y-46434737D01*
X423507383Y-46339499D01*
X423555002Y-46291880D01*
X424459764Y-47768070D02*
X424459764Y-47577594D01*
X424412145Y-47482356D01*
X424364525Y-47434737D01*
X424221668Y-47339499D01*
X424031192Y-47291880D01*
X423650240Y-47291880D01*
X423555002Y-47339499D01*
X423507383Y-47387118D01*
X423459764Y-47482356D01*
X423459764Y-47672832D01*
X423507383Y-47768070D01*
X423555002Y-47815689D01*
X423650240Y-47863308D01*
X423888335Y-47863308D01*
X423983573Y-47815689D01*
X424031192Y-47768070D01*
X424078811Y-47672832D01*
X424078811Y-47482356D01*
X424031192Y-47387118D01*
X423983573Y-47339499D01*
X423888335Y-47291880D01*
X423555002Y-48291880D02*
X423507383Y-48339499D01*
X423459764Y-48291880D01*
X423507383Y-48244261D01*
X423555002Y-48291880D01*
X423459764Y-48291880D01*
X424459764Y-48958546D02*
X424459764Y-49053785D01*
X424412145Y-49149023D01*
X424364525Y-49196642D01*
X424269287Y-49244261D01*
X424078811Y-49291880D01*
X423840716Y-49291880D01*
X423650240Y-49244261D01*
X423555002Y-49196642D01*
X423507383Y-49149023D01*
X423459764Y-49053785D01*
X423459764Y-48958546D01*
X423507383Y-48863308D01*
X423555002Y-48815689D01*
X423650240Y-48768070D01*
X423840716Y-48720451D01*
X424078811Y-48720451D01*
X424269287Y-48768070D01*
X424364525Y-48815689D01*
X424412145Y-48863308D01*
X424459764Y-48958546D01*
X423459764Y-50244261D02*
X423459764Y-49672832D01*
X423459764Y-49958546D02*
X424459764Y-49958546D01*
X424316906Y-49863308D01*
X424221668Y-49768070D01*
X424174049Y-49672832D01*
X424364525Y-50625213D02*
X424412145Y-50672832D01*
X424459764Y-50768070D01*
X424459764Y-51006166D01*
X424412145Y-51101404D01*
X424364525Y-51149023D01*
X424269287Y-51196642D01*
X424174049Y-51196642D01*
X424031192Y-51149023D01*
X423459764Y-50577594D01*
X423459764Y-51196642D01*
X423459764Y-52387118D02*
X424126430Y-52387118D01*
X424031192Y-52387118D02*
X424078811Y-52434737D01*
X424126430Y-52529975D01*
X424126430Y-52672832D01*
X424078811Y-52768070D01*
X423983573Y-52815689D01*
X423459764Y-52815689D01*
X423983573Y-52815689D02*
X424078811Y-52863308D01*
X424126430Y-52958546D01*
X424126430Y-53101404D01*
X424078811Y-53196642D01*
X423983573Y-53244261D01*
X423459764Y-53244261D01*
X423459764Y-53720451D02*
X424126430Y-53720451D01*
X424031192Y-53720451D02*
X424078811Y-53768070D01*
X424126430Y-53863308D01*
X424126430Y-54006166D01*
X424078811Y-54101404D01*
X423983573Y-54149023D01*
X423459764Y-54149023D01*
X423983573Y-54149023D02*
X424078811Y-54196642D01*
X424126430Y-54291880D01*
X424126430Y-54434737D01*
X424078811Y-54529975D01*
X423983573Y-54577594D01*
X423459764Y-54577594D01*
X422612145Y17999990D02*
X422612145Y-118012323D01*
X336612145Y17999990D02*
X423198566Y17999990D01*
X336612145Y-118012323D02*
X423198566Y-118012323D01*
X422612145Y-118012323D02*
X422025724Y-116885819D01*
X422612145Y-118012323D02*
X423198566Y-116885819D01*
X422612145Y17999990D02*
X422025724Y16873486D01*
X422612145Y17999990D02*
X423198566Y16873486D01*
X159639802Y21847590D02*
X160258849Y21847590D01*
X159925516Y21466637D01*
X160068373Y21466637D01*
X160163611Y21419018D01*
X160211230Y21371399D01*
X160258849Y21276161D01*
X160258849Y21038066D01*
X160211230Y20942828D01*
X160163611Y20895209D01*
X160068373Y20847590D01*
X159782659Y20847590D01*
X159687421Y20895209D01*
X159639802Y20942828D01*
X161115992Y21514256D02*
X161115992Y20847590D01*
X160877897Y21895209D02*
X160639802Y21180923D01*
X161258849Y21180923D01*
X162068373Y21514256D02*
X162068373Y20847590D01*
X161830278Y21895209D02*
X161592183Y21180923D01*
X162211230Y21180923D01*
X162592183Y20942828D02*
X162639802Y20895209D01*
X162592183Y20847590D01*
X162544564Y20895209D01*
X162592183Y20942828D01*
X162592183Y20847590D01*
X163496945Y21847590D02*
X163306469Y21847590D01*
X163211230Y21799971D01*
X163163611Y21752351D01*
X163068373Y21609494D01*
X163020754Y21419018D01*
X163020754Y21038066D01*
X163068373Y20942828D01*
X163115992Y20895209D01*
X163211230Y20847590D01*
X163401707Y20847590D01*
X163496945Y20895209D01*
X163544564Y20942828D01*
X163592183Y21038066D01*
X163592183Y21276161D01*
X163544564Y21371399D01*
X163496945Y21419018D01*
X163401707Y21466637D01*
X163211230Y21466637D01*
X163115992Y21419018D01*
X163068373Y21371399D01*
X163020754Y21276161D01*
X164544564Y20847590D02*
X163973135Y20847590D01*
X164258849Y20847590D02*
X164258849Y21847590D01*
X164163611Y21704732D01*
X164068373Y21609494D01*
X163973135Y21561875D01*
X165496945Y20847590D02*
X164925516Y20847590D01*
X165211230Y20847590D02*
X165211230Y21847590D01*
X165115992Y21704732D01*
X165020754Y21609494D01*
X164925516Y21561875D01*
X166687421Y20847590D02*
X166687421Y21514256D01*
X166687421Y21419018D02*
X166735040Y21466637D01*
X166830278Y21514256D01*
X166973135Y21514256D01*
X167068373Y21466637D01*
X167115992Y21371399D01*
X167115992Y20847590D01*
X167115992Y21371399D02*
X167163611Y21466637D01*
X167258849Y21514256D01*
X167401707Y21514256D01*
X167496945Y21466637D01*
X167544564Y21371399D01*
X167544564Y20847590D01*
X168020754Y20847590D02*
X168020754Y21514256D01*
X168020754Y21419018D02*
X168068373Y21466637D01*
X168163611Y21514256D01*
X168306469Y21514256D01*
X168401707Y21466637D01*
X168449326Y21371399D01*
X168449326Y20847590D01*
X168449326Y21371399D02*
X168496945Y21466637D01*
X168592183Y21514256D01*
X168735040Y21514256D01*
X168830278Y21466637D01*
X168877897Y21371399D01*
X168877897Y20847590D01*
X-7999208Y19999971D02*
X336612147Y19999971D01*
X-7999208Y2999971D02*
X-7999208Y20586392D01*
X336612147Y2999971D02*
X336612147Y20586392D01*
X336612147Y19999971D02*
X335485643Y19413550D01*
X336612147Y19999971D02*
X335485643Y20586392D01*
X-7999208Y19999971D02*
X-6872704Y19413550D01*
X-7999208Y19999971D02*
X-6872704Y20586392D01*
X353459766Y-45952409D02*
X353459766Y-45380981D01*
X353459766Y-45666695D02*
X354459766Y-45666695D01*
X354316908Y-45571457D01*
X354221670Y-45476219D01*
X354174051Y-45380981D01*
X353459766Y-46904790D02*
X353459766Y-46333362D01*
X353459766Y-46619076D02*
X354459766Y-46619076D01*
X354316908Y-46523838D01*
X354221670Y-46428600D01*
X354174051Y-46333362D01*
X354459766Y-47761933D02*
X354459766Y-47571457D01*
X354412147Y-47476219D01*
X354364527Y-47428600D01*
X354221670Y-47333362D01*
X354031194Y-47285743D01*
X353650242Y-47285743D01*
X353555004Y-47333362D01*
X353507385Y-47380981D01*
X353459766Y-47476219D01*
X353459766Y-47666695D01*
X353507385Y-47761933D01*
X353555004Y-47809552D01*
X353650242Y-47857171D01*
X353888337Y-47857171D01*
X353983575Y-47809552D01*
X354031194Y-47761933D01*
X354078813Y-47666695D01*
X354078813Y-47476219D01*
X354031194Y-47380981D01*
X353983575Y-47333362D01*
X353888337Y-47285743D01*
X353555004Y-48285743D02*
X353507385Y-48333362D01*
X353459766Y-48285743D01*
X353507385Y-48238124D01*
X353555004Y-48285743D01*
X353459766Y-48285743D01*
X354459766Y-48952409D02*
X354459766Y-49047648D01*
X354412147Y-49142886D01*
X354364527Y-49190505D01*
X354269289Y-49238124D01*
X354078813Y-49285743D01*
X353840718Y-49285743D01*
X353650242Y-49238124D01*
X353555004Y-49190505D01*
X353507385Y-49142886D01*
X353459766Y-49047648D01*
X353459766Y-48952409D01*
X353507385Y-48857171D01*
X353555004Y-48809552D01*
X353650242Y-48761933D01*
X353840718Y-48714314D01*
X354078813Y-48714314D01*
X354269289Y-48761933D01*
X354364527Y-48809552D01*
X354412147Y-48857171D01*
X354459766Y-48952409D01*
X354459766Y-49904790D02*
X354459766Y-50000029D01*
X354412147Y-50095267D01*
X354364527Y-50142886D01*
X354269289Y-50190505D01*
X354078813Y-50238124D01*
X353840718Y-50238124D01*
X353650242Y-50190505D01*
X353555004Y-50142886D01*
X353507385Y-50095267D01*
X353459766Y-50000029D01*
X353459766Y-49904790D01*
X353507385Y-49809552D01*
X353555004Y-49761933D01*
X353650242Y-49714314D01*
X353840718Y-49666695D01*
X354078813Y-49666695D01*
X354269289Y-49714314D01*
X354364527Y-49761933D01*
X354412147Y-49809552D01*
X354459766Y-49904790D01*
X354459766Y-50857171D02*
X354459766Y-50952409D01*
X354412147Y-51047648D01*
X354364527Y-51095267D01*
X354269289Y-51142886D01*
X354078813Y-51190505D01*
X353840718Y-51190505D01*
X353650242Y-51142886D01*
X353555004Y-51095267D01*
X353507385Y-51047648D01*
X353459766Y-50952409D01*
X353459766Y-50857171D01*
X353507385Y-50761933D01*
X353555004Y-50714314D01*
X353650242Y-50666695D01*
X353840718Y-50619076D01*
X354078813Y-50619076D01*
X354269289Y-50666695D01*
X354364527Y-50714314D01*
X354412147Y-50761933D01*
X354459766Y-50857171D01*
X353459766Y-52380981D02*
X354126432Y-52380981D01*
X354031194Y-52380981D02*
X354078813Y-52428600D01*
X354126432Y-52523838D01*
X354126432Y-52666695D01*
X354078813Y-52761933D01*
X353983575Y-52809552D01*
X353459766Y-52809552D01*
X353983575Y-52809552D02*
X354078813Y-52857171D01*
X354126432Y-52952409D01*
X354126432Y-53095267D01*
X354078813Y-53190505D01*
X353983575Y-53238124D01*
X353459766Y-53238124D01*
X353459766Y-53714314D02*
X354126432Y-53714314D01*
X354031194Y-53714314D02*
X354078813Y-53761933D01*
X354126432Y-53857171D01*
X354126432Y-54000029D01*
X354078813Y-54095267D01*
X353983575Y-54142886D01*
X353459766Y-54142886D01*
X353983575Y-54142886D02*
X354078813Y-54190505D01*
X354126432Y-54285743D01*
X354126432Y-54428600D01*
X354078813Y-54523838D01*
X353983575Y-54571457D01*
X353459766Y-54571457D01*
X352612147Y7999971D02*
X352612147Y-108000029D01*
X331612147Y7999971D02*
X353198568Y7999971D01*
X331612147Y-108000029D02*
X353198568Y-108000029D01*
X352612147Y-108000029D02*
X352025726Y-106873525D01*
X352612147Y-108000029D02*
X353198568Y-106873525D01*
X352612147Y7999971D02*
X352025726Y6873467D01*
X352612147Y7999971D02*
X353198568Y6873467D01*
X276874051Y5671590D02*
X276874051Y4862066D01*
X276921670Y4766828D01*
X276969289Y4719209D01*
X277064527Y4671590D01*
X277255004Y4671590D01*
X277350242Y4719209D01*
X277397861Y4766828D01*
X277445480Y4862066D01*
X277445480Y5671590D01*
X277874051Y4719209D02*
X278016908Y4671590D01*
X278255004Y4671590D01*
X278350242Y4719209D01*
X278397861Y4766828D01*
X278445480Y4862066D01*
X278445480Y4957304D01*
X278397861Y5052542D01*
X278350242Y5100161D01*
X278255004Y5147780D01*
X278064527Y5195399D01*
X277969289Y5243018D01*
X277921670Y5290637D01*
X277874051Y5385875D01*
X277874051Y5481113D01*
X277921670Y5576351D01*
X277969289Y5623971D01*
X278064527Y5671590D01*
X278302623Y5671590D01*
X278445480Y5623971D01*
X279207385Y5195399D02*
X279350242Y5147780D01*
X279397861Y5100161D01*
X279445480Y5004923D01*
X279445480Y4862066D01*
X279397861Y4766828D01*
X279350242Y4719209D01*
X279255004Y4671590D01*
X278874051Y4671590D01*
X278874051Y5671590D01*
X279207385Y5671590D01*
X279302623Y5623971D01*
X279350242Y5576351D01*
X279397861Y5481113D01*
X279397861Y5385875D01*
X279350242Y5290637D01*
X279302623Y5243018D01*
X279207385Y5195399D01*
X278874051Y5195399D01*
X280397861Y4671590D02*
X279826432Y4671590D01*
X280112147Y4671590D02*
X280112147Y5671590D01*
X280016908Y5528732D01*
X279921670Y5433494D01*
X279826432Y5385875D01*
M02*
