G04 #@! TF.GenerationSoftware,KiCad,Pcbnew,(5.1.2)-2*
G04 #@! TF.CreationDate,2019-07-11T11:24:39+07:00*
G04 #@! TF.ProjectId,PCB,5043422e-6b69-4636-9164-5f7063625858,a*
G04 #@! TF.SameCoordinates,Original*
G04 #@! TF.FileFunction,Legend,Bot*
G04 #@! TF.FilePolarity,Positive*
%FSLAX46Y46*%
G04 Gerber Fmt 4.6, Leading zero omitted, Abs format (unit mm)*
G04 Created by KiCad (PCBNEW (5.1.2)-2) date 2019-07-11 11:24:39*
%MOMM*%
%LPD*%
G04 APERTURE LIST*
%ADD10C,0.150000*%
%ADD11C,0.203200*%
%ADD12C,0.120000*%
%ADD13C,0.050000*%
%ADD14C,0.200000*%
G04 APERTURE END LIST*
D10*
X281784124Y-1650010D02*
X281850791Y-1616676D01*
X281950791Y-1616676D01*
X282050791Y-1650010D01*
X282117457Y-1716676D01*
X282150791Y-1783343D01*
X282184124Y-1916676D01*
X282184124Y-2016676D01*
X282150791Y-2150010D01*
X282117457Y-2216676D01*
X282050791Y-2283343D01*
X281950791Y-2316676D01*
X281884124Y-2316676D01*
X281784124Y-2283343D01*
X281750791Y-2250010D01*
X281750791Y-2016676D01*
X281884124Y-2016676D01*
X281450791Y-2316676D02*
X281450791Y-1616676D01*
X281050791Y-2316676D01*
X281050791Y-1616676D01*
X280717457Y-2316676D02*
X280717457Y-1616676D01*
X280550791Y-1616676D01*
X280450791Y-1650010D01*
X280384124Y-1716676D01*
X280350791Y-1783343D01*
X280317457Y-1916676D01*
X280317457Y-2016676D01*
X280350791Y-2150010D01*
X280384124Y-2216676D01*
X280450791Y-2283343D01*
X280550791Y-2316676D01*
X280717457Y-2316676D01*
X279117457Y-2316676D02*
X279117457Y-1616676D01*
X278950791Y-1616676D01*
X278850791Y-1650010D01*
X278784124Y-1716676D01*
X278750791Y-1783343D01*
X278717457Y-1916676D01*
X278717457Y-2016676D01*
X278750791Y-2150010D01*
X278784124Y-2216676D01*
X278850791Y-2283343D01*
X278950791Y-2316676D01*
X279117457Y-2316676D01*
X278417457Y-2050010D02*
X277884124Y-2050010D01*
X278150791Y-2316676D02*
X278150791Y-1783343D01*
X276617457Y-2316676D02*
X276617457Y-1616676D01*
X276450791Y-1616676D01*
X276350791Y-1650010D01*
X276284124Y-1716676D01*
X276250791Y-1783343D01*
X276217457Y-1916676D01*
X276217457Y-2016676D01*
X276250791Y-2150010D01*
X276284124Y-2216676D01*
X276350791Y-2283343D01*
X276450791Y-2316676D01*
X276617457Y-2316676D01*
X275917457Y-2050010D02*
X275384124Y-2050010D01*
X274684124Y-1616676D02*
X274450791Y-2316676D01*
X274217457Y-1616676D01*
X273584124Y-2250010D02*
X273617457Y-2283343D01*
X273717457Y-2316676D01*
X273784124Y-2316676D01*
X273884124Y-2283343D01*
X273950791Y-2216676D01*
X273984124Y-2150010D01*
X274017457Y-2016676D01*
X274017457Y-1916676D01*
X273984124Y-1783343D01*
X273950791Y-1716676D01*
X273884124Y-1650010D01*
X273784124Y-1616676D01*
X273717457Y-1616676D01*
X273617457Y-1650010D01*
X273584124Y-1683343D01*
X272884124Y-2250010D02*
X272917457Y-2283343D01*
X273017457Y-2316676D01*
X273084124Y-2316676D01*
X273184124Y-2283343D01*
X273250791Y-2216676D01*
X273284124Y-2150010D01*
X273317457Y-2016676D01*
X273317457Y-1916676D01*
X273284124Y-1783343D01*
X273250791Y-1716676D01*
X273184124Y-1650010D01*
X273084124Y-1616676D01*
X273017457Y-1616676D01*
X272917457Y-1650010D01*
X272884124Y-1683343D01*
D11*
X5176780Y-88065907D02*
X5129161Y-87970669D01*
X5033923Y-87923050D01*
X4176780Y-87923050D01*
X5176780Y-88875431D02*
X4652971Y-88875431D01*
X4557733Y-88827812D01*
X4510114Y-88732574D01*
X4510114Y-88542098D01*
X4557733Y-88446860D01*
X5129161Y-88875431D02*
X5176780Y-88780193D01*
X5176780Y-88542098D01*
X5129161Y-88446860D01*
X5033923Y-88399240D01*
X4938685Y-88399240D01*
X4843447Y-88446860D01*
X4795828Y-88542098D01*
X4795828Y-88780193D01*
X4748209Y-88875431D01*
X4510114Y-89256383D02*
X5176780Y-89494479D01*
X4510114Y-89732574D02*
X5176780Y-89494479D01*
X5414876Y-89399240D01*
X5462495Y-89351621D01*
X5510114Y-89256383D01*
X5176780Y-90256383D02*
X5129161Y-90161145D01*
X5081542Y-90113526D01*
X4986304Y-90065907D01*
X4700590Y-90065907D01*
X4605352Y-90113526D01*
X4557733Y-90161145D01*
X4510114Y-90256383D01*
X4510114Y-90399240D01*
X4557733Y-90494479D01*
X4605352Y-90542098D01*
X4700590Y-90589717D01*
X4986304Y-90589717D01*
X5081542Y-90542098D01*
X5129161Y-90494479D01*
X5176780Y-90399240D01*
X5176780Y-90256383D01*
X4510114Y-91446860D02*
X5176780Y-91446860D01*
X4510114Y-91018288D02*
X5033923Y-91018288D01*
X5129161Y-91065907D01*
X5176780Y-91161145D01*
X5176780Y-91304002D01*
X5129161Y-91399240D01*
X5081542Y-91446860D01*
X4510114Y-91780193D02*
X4510114Y-92161145D01*
X4176780Y-91923050D02*
X5033923Y-91923050D01*
X5129161Y-91970669D01*
X5176780Y-92065907D01*
X5176780Y-92161145D01*
X5176780Y-93018288D02*
X5176780Y-92446860D01*
X5176780Y-92732574D02*
X4176780Y-92732574D01*
X4319638Y-92637336D01*
X4414876Y-92542098D01*
X4462495Y-92446860D01*
X7541520Y-88086227D02*
X7493901Y-87990989D01*
X7398663Y-87943370D01*
X6541520Y-87943370D01*
X7541520Y-88895751D02*
X7017711Y-88895751D01*
X6922473Y-88848132D01*
X6874854Y-88752894D01*
X6874854Y-88562418D01*
X6922473Y-88467180D01*
X7493901Y-88895751D02*
X7541520Y-88800513D01*
X7541520Y-88562418D01*
X7493901Y-88467180D01*
X7398663Y-88419560D01*
X7303425Y-88419560D01*
X7208187Y-88467180D01*
X7160568Y-88562418D01*
X7160568Y-88800513D01*
X7112949Y-88895751D01*
X6874854Y-89276703D02*
X7541520Y-89514799D01*
X6874854Y-89752894D02*
X7541520Y-89514799D01*
X7779616Y-89419560D01*
X7827235Y-89371941D01*
X7874854Y-89276703D01*
X7541520Y-90276703D02*
X7493901Y-90181465D01*
X7446282Y-90133846D01*
X7351044Y-90086227D01*
X7065330Y-90086227D01*
X6970092Y-90133846D01*
X6922473Y-90181465D01*
X6874854Y-90276703D01*
X6874854Y-90419560D01*
X6922473Y-90514799D01*
X6970092Y-90562418D01*
X7065330Y-90610037D01*
X7351044Y-90610037D01*
X7446282Y-90562418D01*
X7493901Y-90514799D01*
X7541520Y-90419560D01*
X7541520Y-90276703D01*
X6874854Y-91467180D02*
X7541520Y-91467180D01*
X6874854Y-91038608D02*
X7398663Y-91038608D01*
X7493901Y-91086227D01*
X7541520Y-91181465D01*
X7541520Y-91324322D01*
X7493901Y-91419560D01*
X7446282Y-91467180D01*
X6874854Y-91800513D02*
X6874854Y-92181465D01*
X6541520Y-91943370D02*
X7398663Y-91943370D01*
X7493901Y-91990989D01*
X7541520Y-92086227D01*
X7541520Y-92181465D01*
X6541520Y-92419560D02*
X6541520Y-93038608D01*
X6922473Y-92705275D01*
X6922473Y-92848132D01*
X6970092Y-92943370D01*
X7017711Y-92990989D01*
X7112949Y-93038608D01*
X7351044Y-93038608D01*
X7446282Y-92990989D01*
X7493901Y-92943370D01*
X7541520Y-92848132D01*
X7541520Y-92562418D01*
X7493901Y-92467180D01*
X7446282Y-92419560D01*
X29255980Y-88065907D02*
X29208361Y-87970669D01*
X29113123Y-87923050D01*
X28255980Y-87923050D01*
X29255980Y-88875431D02*
X28732171Y-88875431D01*
X28636933Y-88827812D01*
X28589314Y-88732574D01*
X28589314Y-88542098D01*
X28636933Y-88446860D01*
X29208361Y-88875431D02*
X29255980Y-88780193D01*
X29255980Y-88542098D01*
X29208361Y-88446860D01*
X29113123Y-88399240D01*
X29017885Y-88399240D01*
X28922647Y-88446860D01*
X28875028Y-88542098D01*
X28875028Y-88780193D01*
X28827409Y-88875431D01*
X28589314Y-89256383D02*
X29255980Y-89494479D01*
X28589314Y-89732574D02*
X29255980Y-89494479D01*
X29494076Y-89399240D01*
X29541695Y-89351621D01*
X29589314Y-89256383D01*
X29255980Y-90256383D02*
X29208361Y-90161145D01*
X29160742Y-90113526D01*
X29065504Y-90065907D01*
X28779790Y-90065907D01*
X28684552Y-90113526D01*
X28636933Y-90161145D01*
X28589314Y-90256383D01*
X28589314Y-90399240D01*
X28636933Y-90494479D01*
X28684552Y-90542098D01*
X28779790Y-90589717D01*
X29065504Y-90589717D01*
X29160742Y-90542098D01*
X29208361Y-90494479D01*
X29255980Y-90399240D01*
X29255980Y-90256383D01*
X28589314Y-91446860D02*
X29255980Y-91446860D01*
X28589314Y-91018288D02*
X29113123Y-91018288D01*
X29208361Y-91065907D01*
X29255980Y-91161145D01*
X29255980Y-91304002D01*
X29208361Y-91399240D01*
X29160742Y-91446860D01*
X28589314Y-91780193D02*
X28589314Y-92161145D01*
X28255980Y-91923050D02*
X29113123Y-91923050D01*
X29208361Y-91970669D01*
X29255980Y-92065907D01*
X29255980Y-92161145D01*
X29255980Y-93018288D02*
X29255980Y-92446860D01*
X29255980Y-92732574D02*
X28255980Y-92732574D01*
X28398838Y-92637336D01*
X28494076Y-92542098D01*
X28541695Y-92446860D01*
X31620720Y-88086227D02*
X31573101Y-87990989D01*
X31477863Y-87943370D01*
X30620720Y-87943370D01*
X31620720Y-88895751D02*
X31096911Y-88895751D01*
X31001673Y-88848132D01*
X30954054Y-88752894D01*
X30954054Y-88562418D01*
X31001673Y-88467180D01*
X31573101Y-88895751D02*
X31620720Y-88800513D01*
X31620720Y-88562418D01*
X31573101Y-88467180D01*
X31477863Y-88419560D01*
X31382625Y-88419560D01*
X31287387Y-88467180D01*
X31239768Y-88562418D01*
X31239768Y-88800513D01*
X31192149Y-88895751D01*
X30954054Y-89276703D02*
X31620720Y-89514799D01*
X30954054Y-89752894D02*
X31620720Y-89514799D01*
X31858816Y-89419560D01*
X31906435Y-89371941D01*
X31954054Y-89276703D01*
X31620720Y-90276703D02*
X31573101Y-90181465D01*
X31525482Y-90133846D01*
X31430244Y-90086227D01*
X31144530Y-90086227D01*
X31049292Y-90133846D01*
X31001673Y-90181465D01*
X30954054Y-90276703D01*
X30954054Y-90419560D01*
X31001673Y-90514799D01*
X31049292Y-90562418D01*
X31144530Y-90610037D01*
X31430244Y-90610037D01*
X31525482Y-90562418D01*
X31573101Y-90514799D01*
X31620720Y-90419560D01*
X31620720Y-90276703D01*
X30954054Y-91467180D02*
X31620720Y-91467180D01*
X30954054Y-91038608D02*
X31477863Y-91038608D01*
X31573101Y-91086227D01*
X31620720Y-91181465D01*
X31620720Y-91324322D01*
X31573101Y-91419560D01*
X31525482Y-91467180D01*
X30954054Y-91800513D02*
X30954054Y-92181465D01*
X30620720Y-91943370D02*
X31477863Y-91943370D01*
X31573101Y-91990989D01*
X31620720Y-92086227D01*
X31620720Y-92181465D01*
X30620720Y-92419560D02*
X30620720Y-93038608D01*
X31001673Y-92705275D01*
X31001673Y-92848132D01*
X31049292Y-92943370D01*
X31096911Y-92990989D01*
X31192149Y-93038608D01*
X31430244Y-93038608D01*
X31525482Y-92990989D01*
X31573101Y-92943370D01*
X31620720Y-92848132D01*
X31620720Y-92562418D01*
X31573101Y-92467180D01*
X31525482Y-92419560D01*
X43380920Y-88111627D02*
X43333301Y-88016389D01*
X43238063Y-87968770D01*
X42380920Y-87968770D01*
X43380920Y-88921151D02*
X42857111Y-88921151D01*
X42761873Y-88873532D01*
X42714254Y-88778294D01*
X42714254Y-88587818D01*
X42761873Y-88492580D01*
X43333301Y-88921151D02*
X43380920Y-88825913D01*
X43380920Y-88587818D01*
X43333301Y-88492580D01*
X43238063Y-88444960D01*
X43142825Y-88444960D01*
X43047587Y-88492580D01*
X42999968Y-88587818D01*
X42999968Y-88825913D01*
X42952349Y-88921151D01*
X42714254Y-89302103D02*
X43380920Y-89540199D01*
X42714254Y-89778294D02*
X43380920Y-89540199D01*
X43619016Y-89444960D01*
X43666635Y-89397341D01*
X43714254Y-89302103D01*
X43380920Y-90302103D02*
X43333301Y-90206865D01*
X43285682Y-90159246D01*
X43190444Y-90111627D01*
X42904730Y-90111627D01*
X42809492Y-90159246D01*
X42761873Y-90206865D01*
X42714254Y-90302103D01*
X42714254Y-90444960D01*
X42761873Y-90540199D01*
X42809492Y-90587818D01*
X42904730Y-90635437D01*
X43190444Y-90635437D01*
X43285682Y-90587818D01*
X43333301Y-90540199D01*
X43380920Y-90444960D01*
X43380920Y-90302103D01*
X42714254Y-91492580D02*
X43380920Y-91492580D01*
X42714254Y-91064008D02*
X43238063Y-91064008D01*
X43333301Y-91111627D01*
X43380920Y-91206865D01*
X43380920Y-91349722D01*
X43333301Y-91444960D01*
X43285682Y-91492580D01*
X42714254Y-91825913D02*
X42714254Y-92206865D01*
X42380920Y-91968770D02*
X43238063Y-91968770D01*
X43333301Y-92016389D01*
X43380920Y-92111627D01*
X43380920Y-92206865D01*
X42476159Y-92492580D02*
X42428540Y-92540199D01*
X42380920Y-92635437D01*
X42380920Y-92873532D01*
X42428540Y-92968770D01*
X42476159Y-93016389D01*
X42571397Y-93064008D01*
X42666635Y-93064008D01*
X42809492Y-93016389D01*
X43380920Y-92444960D01*
X43380920Y-93064008D01*
X53043080Y-88091307D02*
X52995461Y-87996069D01*
X52900223Y-87948450D01*
X52043080Y-87948450D01*
X53043080Y-88900831D02*
X52519271Y-88900831D01*
X52424033Y-88853212D01*
X52376414Y-88757974D01*
X52376414Y-88567498D01*
X52424033Y-88472260D01*
X52995461Y-88900831D02*
X53043080Y-88805593D01*
X53043080Y-88567498D01*
X52995461Y-88472260D01*
X52900223Y-88424640D01*
X52804985Y-88424640D01*
X52709747Y-88472260D01*
X52662128Y-88567498D01*
X52662128Y-88805593D01*
X52614509Y-88900831D01*
X52376414Y-89281783D02*
X53043080Y-89519879D01*
X52376414Y-89757974D02*
X53043080Y-89519879D01*
X53281176Y-89424640D01*
X53328795Y-89377021D01*
X53376414Y-89281783D01*
X53043080Y-90281783D02*
X52995461Y-90186545D01*
X52947842Y-90138926D01*
X52852604Y-90091307D01*
X52566890Y-90091307D01*
X52471652Y-90138926D01*
X52424033Y-90186545D01*
X52376414Y-90281783D01*
X52376414Y-90424640D01*
X52424033Y-90519879D01*
X52471652Y-90567498D01*
X52566890Y-90615117D01*
X52852604Y-90615117D01*
X52947842Y-90567498D01*
X52995461Y-90519879D01*
X53043080Y-90424640D01*
X53043080Y-90281783D01*
X52376414Y-91472260D02*
X53043080Y-91472260D01*
X52376414Y-91043688D02*
X52900223Y-91043688D01*
X52995461Y-91091307D01*
X53043080Y-91186545D01*
X53043080Y-91329402D01*
X52995461Y-91424640D01*
X52947842Y-91472260D01*
X52376414Y-91805593D02*
X52376414Y-92186545D01*
X52043080Y-91948450D02*
X52900223Y-91948450D01*
X52995461Y-91996069D01*
X53043080Y-92091307D01*
X53043080Y-92186545D01*
X53043080Y-93043688D02*
X53043080Y-92472260D01*
X53043080Y-92757974D02*
X52043080Y-92757974D01*
X52185938Y-92662736D01*
X52281176Y-92567498D01*
X52328795Y-92472260D01*
X55514500Y-88098927D02*
X55466881Y-88003689D01*
X55371643Y-87956070D01*
X54514500Y-87956070D01*
X55514500Y-88908451D02*
X54990691Y-88908451D01*
X54895453Y-88860832D01*
X54847834Y-88765594D01*
X54847834Y-88575118D01*
X54895453Y-88479880D01*
X55466881Y-88908451D02*
X55514500Y-88813213D01*
X55514500Y-88575118D01*
X55466881Y-88479880D01*
X55371643Y-88432260D01*
X55276405Y-88432260D01*
X55181167Y-88479880D01*
X55133548Y-88575118D01*
X55133548Y-88813213D01*
X55085929Y-88908451D01*
X54847834Y-89289403D02*
X55514500Y-89527499D01*
X54847834Y-89765594D02*
X55514500Y-89527499D01*
X55752596Y-89432260D01*
X55800215Y-89384641D01*
X55847834Y-89289403D01*
X55514500Y-90289403D02*
X55466881Y-90194165D01*
X55419262Y-90146546D01*
X55324024Y-90098927D01*
X55038310Y-90098927D01*
X54943072Y-90146546D01*
X54895453Y-90194165D01*
X54847834Y-90289403D01*
X54847834Y-90432260D01*
X54895453Y-90527499D01*
X54943072Y-90575118D01*
X55038310Y-90622737D01*
X55324024Y-90622737D01*
X55419262Y-90575118D01*
X55466881Y-90527499D01*
X55514500Y-90432260D01*
X55514500Y-90289403D01*
X54847834Y-91479880D02*
X55514500Y-91479880D01*
X54847834Y-91051308D02*
X55371643Y-91051308D01*
X55466881Y-91098927D01*
X55514500Y-91194165D01*
X55514500Y-91337022D01*
X55466881Y-91432260D01*
X55419262Y-91479880D01*
X54847834Y-91813213D02*
X54847834Y-92194165D01*
X54514500Y-91956070D02*
X55371643Y-91956070D01*
X55466881Y-92003689D01*
X55514500Y-92098927D01*
X55514500Y-92194165D01*
X54514500Y-92432260D02*
X54514500Y-93051308D01*
X54895453Y-92717975D01*
X54895453Y-92860832D01*
X54943072Y-92956070D01*
X54990691Y-93003689D01*
X55085929Y-93051308D01*
X55324024Y-93051308D01*
X55419262Y-93003689D01*
X55466881Y-92956070D01*
X55514500Y-92860832D01*
X55514500Y-92575118D01*
X55466881Y-92479880D01*
X55419262Y-92432260D01*
X67709040Y-88114167D02*
X67661421Y-88018929D01*
X67566183Y-87971310D01*
X66709040Y-87971310D01*
X67709040Y-88923691D02*
X67185231Y-88923691D01*
X67089993Y-88876072D01*
X67042374Y-88780834D01*
X67042374Y-88590358D01*
X67089993Y-88495120D01*
X67661421Y-88923691D02*
X67709040Y-88828453D01*
X67709040Y-88590358D01*
X67661421Y-88495120D01*
X67566183Y-88447500D01*
X67470945Y-88447500D01*
X67375707Y-88495120D01*
X67328088Y-88590358D01*
X67328088Y-88828453D01*
X67280469Y-88923691D01*
X67042374Y-89304643D02*
X67709040Y-89542739D01*
X67042374Y-89780834D02*
X67709040Y-89542739D01*
X67947136Y-89447500D01*
X67994755Y-89399881D01*
X68042374Y-89304643D01*
X67709040Y-90304643D02*
X67661421Y-90209405D01*
X67613802Y-90161786D01*
X67518564Y-90114167D01*
X67232850Y-90114167D01*
X67137612Y-90161786D01*
X67089993Y-90209405D01*
X67042374Y-90304643D01*
X67042374Y-90447500D01*
X67089993Y-90542739D01*
X67137612Y-90590358D01*
X67232850Y-90637977D01*
X67518564Y-90637977D01*
X67613802Y-90590358D01*
X67661421Y-90542739D01*
X67709040Y-90447500D01*
X67709040Y-90304643D01*
X67042374Y-91495120D02*
X67709040Y-91495120D01*
X67042374Y-91066548D02*
X67566183Y-91066548D01*
X67661421Y-91114167D01*
X67709040Y-91209405D01*
X67709040Y-91352262D01*
X67661421Y-91447500D01*
X67613802Y-91495120D01*
X67042374Y-91828453D02*
X67042374Y-92209405D01*
X66709040Y-91971310D02*
X67566183Y-91971310D01*
X67661421Y-92018929D01*
X67709040Y-92114167D01*
X67709040Y-92209405D01*
X66804279Y-92495120D02*
X66756660Y-92542739D01*
X66709040Y-92637977D01*
X66709040Y-92876072D01*
X66756660Y-92971310D01*
X66804279Y-93018929D01*
X66899517Y-93066548D01*
X66994755Y-93066548D01*
X67137612Y-93018929D01*
X67709040Y-92447500D01*
X67709040Y-93066548D01*
X124429780Y-88124327D02*
X124382161Y-88029089D01*
X124286923Y-87981470D01*
X123429780Y-87981470D01*
X124429780Y-88933851D02*
X123905971Y-88933851D01*
X123810733Y-88886232D01*
X123763114Y-88790994D01*
X123763114Y-88600518D01*
X123810733Y-88505280D01*
X124382161Y-88933851D02*
X124429780Y-88838613D01*
X124429780Y-88600518D01*
X124382161Y-88505280D01*
X124286923Y-88457660D01*
X124191685Y-88457660D01*
X124096447Y-88505280D01*
X124048828Y-88600518D01*
X124048828Y-88838613D01*
X124001209Y-88933851D01*
X123763114Y-89314803D02*
X124429780Y-89552899D01*
X123763114Y-89790994D02*
X124429780Y-89552899D01*
X124667876Y-89457660D01*
X124715495Y-89410041D01*
X124763114Y-89314803D01*
X124429780Y-90314803D02*
X124382161Y-90219565D01*
X124334542Y-90171946D01*
X124239304Y-90124327D01*
X123953590Y-90124327D01*
X123858352Y-90171946D01*
X123810733Y-90219565D01*
X123763114Y-90314803D01*
X123763114Y-90457660D01*
X123810733Y-90552899D01*
X123858352Y-90600518D01*
X123953590Y-90648137D01*
X124239304Y-90648137D01*
X124334542Y-90600518D01*
X124382161Y-90552899D01*
X124429780Y-90457660D01*
X124429780Y-90314803D01*
X123763114Y-91505280D02*
X124429780Y-91505280D01*
X123763114Y-91076708D02*
X124286923Y-91076708D01*
X124382161Y-91124327D01*
X124429780Y-91219565D01*
X124429780Y-91362422D01*
X124382161Y-91457660D01*
X124334542Y-91505280D01*
X123763114Y-91838613D02*
X123763114Y-92219565D01*
X123429780Y-91981470D02*
X124286923Y-91981470D01*
X124382161Y-92029089D01*
X124429780Y-92124327D01*
X124429780Y-92219565D01*
X124429780Y-93076708D02*
X124429780Y-92505280D01*
X124429780Y-92790994D02*
X123429780Y-92790994D01*
X123572638Y-92695756D01*
X123667876Y-92600518D01*
X123715495Y-92505280D01*
X136136640Y-88124327D02*
X136089021Y-88029089D01*
X135993783Y-87981470D01*
X135136640Y-87981470D01*
X136136640Y-88933851D02*
X135612831Y-88933851D01*
X135517593Y-88886232D01*
X135469974Y-88790994D01*
X135469974Y-88600518D01*
X135517593Y-88505280D01*
X136089021Y-88933851D02*
X136136640Y-88838613D01*
X136136640Y-88600518D01*
X136089021Y-88505280D01*
X135993783Y-88457660D01*
X135898545Y-88457660D01*
X135803307Y-88505280D01*
X135755688Y-88600518D01*
X135755688Y-88838613D01*
X135708069Y-88933851D01*
X135469974Y-89314803D02*
X136136640Y-89552899D01*
X135469974Y-89790994D02*
X136136640Y-89552899D01*
X136374736Y-89457660D01*
X136422355Y-89410041D01*
X136469974Y-89314803D01*
X136136640Y-90314803D02*
X136089021Y-90219565D01*
X136041402Y-90171946D01*
X135946164Y-90124327D01*
X135660450Y-90124327D01*
X135565212Y-90171946D01*
X135517593Y-90219565D01*
X135469974Y-90314803D01*
X135469974Y-90457660D01*
X135517593Y-90552899D01*
X135565212Y-90600518D01*
X135660450Y-90648137D01*
X135946164Y-90648137D01*
X136041402Y-90600518D01*
X136089021Y-90552899D01*
X136136640Y-90457660D01*
X136136640Y-90314803D01*
X135469974Y-91505280D02*
X136136640Y-91505280D01*
X135469974Y-91076708D02*
X135993783Y-91076708D01*
X136089021Y-91124327D01*
X136136640Y-91219565D01*
X136136640Y-91362422D01*
X136089021Y-91457660D01*
X136041402Y-91505280D01*
X135469974Y-91838613D02*
X135469974Y-92219565D01*
X135136640Y-91981470D02*
X135993783Y-91981470D01*
X136089021Y-92029089D01*
X136136640Y-92124327D01*
X136136640Y-92219565D01*
X135136640Y-92457660D02*
X135136640Y-93076708D01*
X135517593Y-92743375D01*
X135517593Y-92886232D01*
X135565212Y-92981470D01*
X135612831Y-93029089D01*
X135708069Y-93076708D01*
X135946164Y-93076708D01*
X136041402Y-93029089D01*
X136089021Y-92981470D01*
X136136640Y-92886232D01*
X136136640Y-92600518D01*
X136089021Y-92505280D01*
X136041402Y-92457660D01*
X146052800Y-88124327D02*
X146005181Y-88029089D01*
X145909943Y-87981470D01*
X145052800Y-87981470D01*
X146052800Y-88933851D02*
X145528991Y-88933851D01*
X145433753Y-88886232D01*
X145386134Y-88790994D01*
X145386134Y-88600518D01*
X145433753Y-88505280D01*
X146005181Y-88933851D02*
X146052800Y-88838613D01*
X146052800Y-88600518D01*
X146005181Y-88505280D01*
X145909943Y-88457660D01*
X145814705Y-88457660D01*
X145719467Y-88505280D01*
X145671848Y-88600518D01*
X145671848Y-88838613D01*
X145624229Y-88933851D01*
X145386134Y-89314803D02*
X146052800Y-89552899D01*
X145386134Y-89790994D02*
X146052800Y-89552899D01*
X146290896Y-89457660D01*
X146338515Y-89410041D01*
X146386134Y-89314803D01*
X146052800Y-90314803D02*
X146005181Y-90219565D01*
X145957562Y-90171946D01*
X145862324Y-90124327D01*
X145576610Y-90124327D01*
X145481372Y-90171946D01*
X145433753Y-90219565D01*
X145386134Y-90314803D01*
X145386134Y-90457660D01*
X145433753Y-90552899D01*
X145481372Y-90600518D01*
X145576610Y-90648137D01*
X145862324Y-90648137D01*
X145957562Y-90600518D01*
X146005181Y-90552899D01*
X146052800Y-90457660D01*
X146052800Y-90314803D01*
X145386134Y-91505280D02*
X146052800Y-91505280D01*
X145386134Y-91076708D02*
X145909943Y-91076708D01*
X146005181Y-91124327D01*
X146052800Y-91219565D01*
X146052800Y-91362422D01*
X146005181Y-91457660D01*
X145957562Y-91505280D01*
X145386134Y-91838613D02*
X145386134Y-92219565D01*
X145052800Y-91981470D02*
X145909943Y-91981470D01*
X146005181Y-92029089D01*
X146052800Y-92124327D01*
X146052800Y-92219565D01*
X145148039Y-92505280D02*
X145100420Y-92552899D01*
X145052800Y-92648137D01*
X145052800Y-92886232D01*
X145100420Y-92981470D01*
X145148039Y-93029089D01*
X145243277Y-93076708D01*
X145338515Y-93076708D01*
X145481372Y-93029089D01*
X146052800Y-92457660D01*
X146052800Y-93076708D01*
X195836800Y-88119247D02*
X195789181Y-88024009D01*
X195693943Y-87976390D01*
X194836800Y-87976390D01*
X195836800Y-88928771D02*
X195312991Y-88928771D01*
X195217753Y-88881152D01*
X195170134Y-88785914D01*
X195170134Y-88595438D01*
X195217753Y-88500200D01*
X195789181Y-88928771D02*
X195836800Y-88833533D01*
X195836800Y-88595438D01*
X195789181Y-88500200D01*
X195693943Y-88452580D01*
X195598705Y-88452580D01*
X195503467Y-88500200D01*
X195455848Y-88595438D01*
X195455848Y-88833533D01*
X195408229Y-88928771D01*
X195170134Y-89309723D02*
X195836800Y-89547819D01*
X195170134Y-89785914D02*
X195836800Y-89547819D01*
X196074896Y-89452580D01*
X196122515Y-89404961D01*
X196170134Y-89309723D01*
X195836800Y-90309723D02*
X195789181Y-90214485D01*
X195741562Y-90166866D01*
X195646324Y-90119247D01*
X195360610Y-90119247D01*
X195265372Y-90166866D01*
X195217753Y-90214485D01*
X195170134Y-90309723D01*
X195170134Y-90452580D01*
X195217753Y-90547819D01*
X195265372Y-90595438D01*
X195360610Y-90643057D01*
X195646324Y-90643057D01*
X195741562Y-90595438D01*
X195789181Y-90547819D01*
X195836800Y-90452580D01*
X195836800Y-90309723D01*
X195170134Y-91500200D02*
X195836800Y-91500200D01*
X195170134Y-91071628D02*
X195693943Y-91071628D01*
X195789181Y-91119247D01*
X195836800Y-91214485D01*
X195836800Y-91357342D01*
X195789181Y-91452580D01*
X195741562Y-91500200D01*
X195170134Y-91833533D02*
X195170134Y-92214485D01*
X194836800Y-91976390D02*
X195693943Y-91976390D01*
X195789181Y-92024009D01*
X195836800Y-92119247D01*
X195836800Y-92214485D01*
X195836800Y-93071628D02*
X195836800Y-92500200D01*
X195836800Y-92785914D02*
X194836800Y-92785914D01*
X194979658Y-92690676D01*
X195074896Y-92595438D01*
X195122515Y-92500200D01*
X205534520Y-88124327D02*
X205486901Y-88029089D01*
X205391663Y-87981470D01*
X204534520Y-87981470D01*
X205534520Y-88933851D02*
X205010711Y-88933851D01*
X204915473Y-88886232D01*
X204867854Y-88790994D01*
X204867854Y-88600518D01*
X204915473Y-88505280D01*
X205486901Y-88933851D02*
X205534520Y-88838613D01*
X205534520Y-88600518D01*
X205486901Y-88505280D01*
X205391663Y-88457660D01*
X205296425Y-88457660D01*
X205201187Y-88505280D01*
X205153568Y-88600518D01*
X205153568Y-88838613D01*
X205105949Y-88933851D01*
X204867854Y-89314803D02*
X205534520Y-89552899D01*
X204867854Y-89790994D02*
X205534520Y-89552899D01*
X205772616Y-89457660D01*
X205820235Y-89410041D01*
X205867854Y-89314803D01*
X205534520Y-90314803D02*
X205486901Y-90219565D01*
X205439282Y-90171946D01*
X205344044Y-90124327D01*
X205058330Y-90124327D01*
X204963092Y-90171946D01*
X204915473Y-90219565D01*
X204867854Y-90314803D01*
X204867854Y-90457660D01*
X204915473Y-90552899D01*
X204963092Y-90600518D01*
X205058330Y-90648137D01*
X205344044Y-90648137D01*
X205439282Y-90600518D01*
X205486901Y-90552899D01*
X205534520Y-90457660D01*
X205534520Y-90314803D01*
X204867854Y-91505280D02*
X205534520Y-91505280D01*
X204867854Y-91076708D02*
X205391663Y-91076708D01*
X205486901Y-91124327D01*
X205534520Y-91219565D01*
X205534520Y-91362422D01*
X205486901Y-91457660D01*
X205439282Y-91505280D01*
X204867854Y-91838613D02*
X204867854Y-92219565D01*
X204534520Y-91981470D02*
X205391663Y-91981470D01*
X205486901Y-92029089D01*
X205534520Y-92124327D01*
X205534520Y-92219565D01*
X204629759Y-92505280D02*
X204582140Y-92552899D01*
X204534520Y-92648137D01*
X204534520Y-92886232D01*
X204582140Y-92981470D01*
X204629759Y-93029089D01*
X204724997Y-93076708D01*
X204820235Y-93076708D01*
X204963092Y-93029089D01*
X205534520Y-92457660D01*
X205534520Y-93076708D01*
X217307420Y-90150107D02*
X217307420Y-89578679D01*
X217307420Y-89864393D02*
X216307420Y-89864393D01*
X216450278Y-89769155D01*
X216545516Y-89673917D01*
X216593135Y-89578679D01*
X217212182Y-90578679D02*
X217259801Y-90626298D01*
X217307420Y-90578679D01*
X217259801Y-90531060D01*
X217212182Y-90578679D01*
X217307420Y-90578679D01*
X216307420Y-91531060D02*
X216307420Y-91054869D01*
X216783611Y-91007250D01*
X216735992Y-91054869D01*
X216688373Y-91150107D01*
X216688373Y-91388202D01*
X216735992Y-91483440D01*
X216783611Y-91531060D01*
X216878849Y-91578679D01*
X217116944Y-91578679D01*
X217212182Y-91531060D01*
X217259801Y-91483440D01*
X217307420Y-91388202D01*
X217307420Y-91150107D01*
X217259801Y-91054869D01*
X217212182Y-91007250D01*
X216640754Y-92435821D02*
X217307420Y-92435821D01*
X216640754Y-92007250D02*
X217164563Y-92007250D01*
X217259801Y-92054869D01*
X217307420Y-92150107D01*
X217307420Y-92292964D01*
X217259801Y-92388202D01*
X217212182Y-92435821D01*
X219611200Y-89686617D02*
X219611200Y-89115188D01*
X219611200Y-89400902D02*
X218611200Y-89400902D01*
X218754058Y-89305664D01*
X218849296Y-89210426D01*
X218896915Y-89115188D01*
X219515962Y-90115188D02*
X219563581Y-90162807D01*
X219611200Y-90115188D01*
X219563581Y-90067569D01*
X219515962Y-90115188D01*
X219611200Y-90115188D01*
X218706439Y-90543760D02*
X218658820Y-90591379D01*
X218611200Y-90686617D01*
X218611200Y-90924712D01*
X218658820Y-91019950D01*
X218706439Y-91067569D01*
X218801677Y-91115188D01*
X218896915Y-91115188D01*
X219039772Y-91067569D01*
X219611200Y-90496140D01*
X219611200Y-91115188D01*
X218611200Y-92019950D02*
X218611200Y-91543760D01*
X219087391Y-91496140D01*
X219039772Y-91543760D01*
X218992153Y-91638998D01*
X218992153Y-91877093D01*
X219039772Y-91972331D01*
X219087391Y-92019950D01*
X219182629Y-92067569D01*
X219420724Y-92067569D01*
X219515962Y-92019950D01*
X219563581Y-91972331D01*
X219611200Y-91877093D01*
X219611200Y-91638998D01*
X219563581Y-91543760D01*
X219515962Y-91496140D01*
X218944534Y-92924712D02*
X219611200Y-92924712D01*
X218944534Y-92496140D02*
X219468343Y-92496140D01*
X219563581Y-92543760D01*
X219611200Y-92638998D01*
X219611200Y-92781855D01*
X219563581Y-92877093D01*
X219515962Y-92924712D01*
X229161600Y-89696777D02*
X229161600Y-89125348D01*
X229161600Y-89411062D02*
X228161600Y-89411062D01*
X228304458Y-89315824D01*
X228399696Y-89220586D01*
X228447315Y-89125348D01*
X229066362Y-90125348D02*
X229113981Y-90172967D01*
X229161600Y-90125348D01*
X229113981Y-90077729D01*
X229066362Y-90125348D01*
X229161600Y-90125348D01*
X228256839Y-90553920D02*
X228209220Y-90601539D01*
X228161600Y-90696777D01*
X228161600Y-90934872D01*
X228209220Y-91030110D01*
X228256839Y-91077729D01*
X228352077Y-91125348D01*
X228447315Y-91125348D01*
X228590172Y-91077729D01*
X229161600Y-90506300D01*
X229161600Y-91125348D01*
X228161600Y-92030110D02*
X228161600Y-91553920D01*
X228637791Y-91506300D01*
X228590172Y-91553920D01*
X228542553Y-91649158D01*
X228542553Y-91887253D01*
X228590172Y-91982491D01*
X228637791Y-92030110D01*
X228733029Y-92077729D01*
X228971124Y-92077729D01*
X229066362Y-92030110D01*
X229113981Y-91982491D01*
X229161600Y-91887253D01*
X229161600Y-91649158D01*
X229113981Y-91553920D01*
X229066362Y-91506300D01*
X228494934Y-92934872D02*
X229161600Y-92934872D01*
X228494934Y-92506300D02*
X229018743Y-92506300D01*
X229113981Y-92553920D01*
X229161600Y-92649158D01*
X229161600Y-92792015D01*
X229113981Y-92887253D01*
X229066362Y-92934872D01*
X226915196Y-96122240D02*
X226677100Y-97122240D01*
X226486624Y-96407955D01*
X226296148Y-97122240D01*
X226058053Y-96122240D01*
X225677100Y-97122240D02*
X225677100Y-96122240D01*
X225200910Y-97122240D02*
X225200910Y-96122240D01*
X224629481Y-97122240D01*
X224629481Y-96122240D01*
X241109760Y-91113313D02*
X241109760Y-90541884D01*
X241109760Y-90827599D02*
X240109760Y-90827599D01*
X240252618Y-90732360D01*
X240347856Y-90637122D01*
X240395475Y-90541884D01*
X240443094Y-91970456D02*
X241109760Y-91970456D01*
X240443094Y-91541884D02*
X240966903Y-91541884D01*
X241062141Y-91589503D01*
X241109760Y-91684741D01*
X241109760Y-91827599D01*
X241062141Y-91922837D01*
X241014522Y-91970456D01*
X243530380Y-89706937D02*
X243530380Y-89135508D01*
X243530380Y-89421222D02*
X242530380Y-89421222D01*
X242673238Y-89325984D01*
X242768476Y-89230746D01*
X242816095Y-89135508D01*
X243435142Y-90135508D02*
X243482761Y-90183127D01*
X243530380Y-90135508D01*
X243482761Y-90087889D01*
X243435142Y-90135508D01*
X243530380Y-90135508D01*
X242625619Y-90564080D02*
X242578000Y-90611699D01*
X242530380Y-90706937D01*
X242530380Y-90945032D01*
X242578000Y-91040270D01*
X242625619Y-91087889D01*
X242720857Y-91135508D01*
X242816095Y-91135508D01*
X242958952Y-91087889D01*
X243530380Y-90516460D01*
X243530380Y-91135508D01*
X242530380Y-92040270D02*
X242530380Y-91564080D01*
X243006571Y-91516460D01*
X242958952Y-91564080D01*
X242911333Y-91659318D01*
X242911333Y-91897413D01*
X242958952Y-91992651D01*
X243006571Y-92040270D01*
X243101809Y-92087889D01*
X243339904Y-92087889D01*
X243435142Y-92040270D01*
X243482761Y-91992651D01*
X243530380Y-91897413D01*
X243530380Y-91659318D01*
X243482761Y-91564080D01*
X243435142Y-91516460D01*
X242863714Y-92945032D02*
X243530380Y-92945032D01*
X242863714Y-92516460D02*
X243387523Y-92516460D01*
X243482761Y-92564080D01*
X243530380Y-92659318D01*
X243530380Y-92802175D01*
X243482761Y-92897413D01*
X243435142Y-92945032D01*
X264909560Y-90406647D02*
X264909560Y-89835219D01*
X264909560Y-90120933D02*
X263909560Y-90120933D01*
X264052418Y-90025695D01*
X264147656Y-89930457D01*
X264195275Y-89835219D01*
X264814322Y-90835219D02*
X264861941Y-90882838D01*
X264909560Y-90835219D01*
X264861941Y-90787600D01*
X264814322Y-90835219D01*
X264909560Y-90835219D01*
X263909560Y-91787600D02*
X263909560Y-91311409D01*
X264385751Y-91263790D01*
X264338132Y-91311409D01*
X264290513Y-91406647D01*
X264290513Y-91644742D01*
X264338132Y-91739980D01*
X264385751Y-91787600D01*
X264480989Y-91835219D01*
X264719084Y-91835219D01*
X264814322Y-91787600D01*
X264861941Y-91739980D01*
X264909560Y-91644742D01*
X264909560Y-91406647D01*
X264861941Y-91311409D01*
X264814322Y-91263790D01*
X264242894Y-92692361D02*
X264909560Y-92692361D01*
X264242894Y-92263790D02*
X264766703Y-92263790D01*
X264861941Y-92311409D01*
X264909560Y-92406647D01*
X264909560Y-92549504D01*
X264861941Y-92644742D01*
X264814322Y-92692361D01*
X267568940Y-89856797D02*
X267568940Y-89285368D01*
X267568940Y-89571082D02*
X266568940Y-89571082D01*
X266711798Y-89475844D01*
X266807036Y-89380606D01*
X266854655Y-89285368D01*
X267473702Y-90285368D02*
X267521321Y-90332987D01*
X267568940Y-90285368D01*
X267521321Y-90237749D01*
X267473702Y-90285368D01*
X267568940Y-90285368D01*
X266664179Y-90713940D02*
X266616560Y-90761559D01*
X266568940Y-90856797D01*
X266568940Y-91094892D01*
X266616560Y-91190130D01*
X266664179Y-91237749D01*
X266759417Y-91285368D01*
X266854655Y-91285368D01*
X266997512Y-91237749D01*
X267568940Y-90666320D01*
X267568940Y-91285368D01*
X266568940Y-92190130D02*
X266568940Y-91713940D01*
X267045131Y-91666320D01*
X266997512Y-91713940D01*
X266949893Y-91809178D01*
X266949893Y-92047273D01*
X266997512Y-92142511D01*
X267045131Y-92190130D01*
X267140369Y-92237749D01*
X267378464Y-92237749D01*
X267473702Y-92190130D01*
X267521321Y-92142511D01*
X267568940Y-92047273D01*
X267568940Y-91809178D01*
X267521321Y-91713940D01*
X267473702Y-91666320D01*
X266902274Y-93094892D02*
X267568940Y-93094892D01*
X266902274Y-92666320D02*
X267426083Y-92666320D01*
X267521321Y-92713940D01*
X267568940Y-92809178D01*
X267568940Y-92952035D01*
X267521321Y-93047273D01*
X267473702Y-93094892D01*
X5115592Y-79688347D02*
X4968065Y-79658158D01*
X4761868Y-79539110D01*
X4703199Y-79450252D01*
X4685769Y-79385203D01*
X4692149Y-79278915D01*
X4739768Y-79196436D01*
X4828627Y-79137767D01*
X4893675Y-79120337D01*
X4999964Y-79126717D01*
X5188730Y-79180716D01*
X5295018Y-79187096D01*
X5360067Y-79169666D01*
X5448926Y-79110997D01*
X5496545Y-79028518D01*
X5502924Y-78922230D01*
X5485495Y-78857181D01*
X5426826Y-78768323D01*
X5220629Y-78649275D01*
X5073102Y-78619086D01*
X4225757Y-79229586D02*
X4725757Y-78363561D01*
X3854604Y-79015301D02*
X4116508Y-78561668D01*
X4205367Y-78502999D01*
X4311655Y-78509379D01*
X4435373Y-78580807D01*
X4494042Y-78669666D01*
X4511472Y-78734715D01*
X3442211Y-78777205D02*
X3775544Y-78199855D01*
X3942211Y-77911180D02*
X3959640Y-77976229D01*
X3894592Y-77993658D01*
X3877162Y-77928610D01*
X3942211Y-77911180D01*
X3894592Y-77993658D01*
X3486869Y-78033188D02*
X3156954Y-77842712D01*
X3029818Y-78539110D02*
X3458389Y-77796803D01*
X3464769Y-77690514D01*
X3406100Y-77601656D01*
X3323621Y-77554037D01*
X2991997Y-77747474D02*
X2662083Y-77556998D01*
X3034946Y-77387370D02*
X2606374Y-78129678D01*
X2517516Y-78188347D01*
X2411228Y-78181967D01*
X2328749Y-78134348D01*
X1380245Y-77586729D02*
X1880245Y-76720704D01*
X1032901Y-77331204D02*
X885374Y-77301015D01*
X679177Y-77181967D01*
X620508Y-77093109D01*
X603078Y-77028060D01*
X609458Y-76921772D01*
X657077Y-76839293D01*
X745935Y-76780624D01*
X810984Y-76763194D01*
X917272Y-76769574D01*
X1106039Y-76823573D01*
X1212327Y-76829953D01*
X1277376Y-76812523D01*
X1366234Y-76753854D01*
X1413854Y-76671375D01*
X1420233Y-76565087D01*
X1402803Y-76500038D01*
X1344134Y-76411180D01*
X1137938Y-76292132D01*
X990410Y-76261943D01*
X478109Y-75911180D02*
X313152Y-75815942D01*
X206864Y-75809562D01*
X76766Y-75844422D01*
X-59710Y-75985569D01*
X-226377Y-76274244D01*
X-280376Y-76463011D01*
X-245516Y-76593109D01*
X-186847Y-76681967D01*
X-21890Y-76777205D01*
X84397Y-76783585D01*
X214495Y-76748725D01*
X350972Y-76607578D01*
X517639Y-76318903D01*
X571638Y-76130136D01*
X536778Y-76000038D01*
X478109Y-75911180D01*
X1853700Y-56071401D02*
X1710843Y-56119020D01*
X1472748Y-56119020D01*
X1377510Y-56071401D01*
X1329891Y-56023782D01*
X1282272Y-55928544D01*
X1282272Y-55833306D01*
X1329891Y-55738068D01*
X1377510Y-55690449D01*
X1472748Y-55642830D01*
X1663224Y-55595211D01*
X1758462Y-55547592D01*
X1806081Y-55499973D01*
X1853700Y-55404735D01*
X1853700Y-55309497D01*
X1806081Y-55214259D01*
X1758462Y-55166640D01*
X1663224Y-55119020D01*
X1425129Y-55119020D01*
X1282272Y-55166640D01*
X996558Y-55452354D02*
X615605Y-55452354D01*
X853700Y-55119020D02*
X853700Y-55976163D01*
X806081Y-56071401D01*
X710843Y-56119020D01*
X615605Y-56119020D01*
X-98680Y-56071401D02*
X-3441Y-56119020D01*
X187034Y-56119020D01*
X282272Y-56071401D01*
X329891Y-55976163D01*
X329891Y-55595211D01*
X282272Y-55499973D01*
X187034Y-55452354D01*
X-3441Y-55452354D01*
X-98680Y-55499973D01*
X-146299Y-55595211D01*
X-146299Y-55690449D01*
X329891Y-55785687D01*
X-574870Y-55452354D02*
X-574870Y-56452354D01*
X-574870Y-55499973D02*
X-670108Y-55452354D01*
X-860584Y-55452354D01*
X-955822Y-55499973D01*
X-1003441Y-55547592D01*
X-1051060Y-55642830D01*
X-1051060Y-55928544D01*
X-1003441Y-56023782D01*
X-955822Y-56071401D01*
X-860584Y-56119020D01*
X-670108Y-56119020D01*
X-574870Y-56071401D01*
D12*
X276035607Y2224379D02*
X276035607Y2746883D01*
X277455607Y2224379D02*
X277455607Y2746883D01*
X279373167Y3451199D02*
X279373167Y3973703D01*
X280793167Y3451199D02*
X280793167Y3973703D01*
D13*
X74547860Y-101542017D02*
X74166860Y-101097517D01*
X74928860Y-101097517D02*
X74547860Y-101542017D01*
X74166860Y-101097517D02*
X74928860Y-101097517D01*
X74166860Y-101542017D02*
X74928860Y-101542017D01*
X112266860Y-63442017D02*
X113028860Y-63442017D01*
X112266860Y-62997517D02*
X113028860Y-62997517D01*
X113028860Y-62997517D02*
X112647860Y-63442017D01*
X112647860Y-63442017D02*
X112266860Y-62997517D01*
X178941860Y-99160767D02*
X179703860Y-99160767D01*
X178941860Y-98716267D02*
X179703860Y-98716267D01*
X179703860Y-98716267D02*
X179322860Y-99160767D01*
X179322860Y-99160767D02*
X178941860Y-98716267D01*
X312672860Y-25342017D02*
X312291860Y-24897517D01*
X313053860Y-24897517D02*
X312672860Y-25342017D01*
X312291860Y-24897517D02*
X313053860Y-24897517D01*
X312291860Y-25342017D02*
X313053860Y-25342017D01*
X55497860Y-63442017D02*
X55116860Y-62997517D01*
X55878860Y-62997517D02*
X55497860Y-63442017D01*
X55116860Y-62997517D02*
X55878860Y-62997517D01*
X55116860Y-63442017D02*
X55878860Y-63442017D01*
X98360360Y-1529517D02*
X97979360Y-1085017D01*
X98741360Y-1085017D02*
X98360360Y-1529517D01*
X97979360Y-1085017D02*
X98741360Y-1085017D01*
X97979360Y-1529517D02*
X98741360Y-1529517D01*
X26541860Y-82492017D02*
X27303860Y-82492017D01*
X26541860Y-82047517D02*
X27303860Y-82047517D01*
X27303860Y-82047517D02*
X26922860Y-82492017D01*
X26922860Y-82492017D02*
X26541860Y-82047517D01*
X76929110Y-101542017D02*
X76548110Y-101097517D01*
X77310110Y-101097517D02*
X76929110Y-101542017D01*
X76548110Y-101097517D02*
X77310110Y-101097517D01*
X76548110Y-101542017D02*
X77310110Y-101542017D01*
X40829360Y-25342017D02*
X41591360Y-25342017D01*
X40829360Y-24897517D02*
X41591360Y-24897517D01*
X41591360Y-24897517D02*
X41210360Y-25342017D01*
X41210360Y-25342017D02*
X40829360Y-24897517D01*
X88835360Y-44392017D02*
X88454360Y-43947517D01*
X89216360Y-43947517D02*
X88835360Y-44392017D01*
X88454360Y-43947517D02*
X89216360Y-43947517D01*
X88454360Y-44392017D02*
X89216360Y-44392017D01*
X293622860Y-25342017D02*
X293241860Y-24897517D01*
X294003860Y-24897517D02*
X293622860Y-25342017D01*
X293241860Y-24897517D02*
X294003860Y-24897517D01*
X293241860Y-25342017D02*
X294003860Y-25342017D01*
X93597860Y-63442017D02*
X93216860Y-62997517D01*
X93978860Y-62997517D02*
X93597860Y-63442017D01*
X93216860Y-62997517D02*
X93978860Y-62997517D01*
X93216860Y-63442017D02*
X93978860Y-63442017D01*
X50354360Y-44392017D02*
X51116360Y-44392017D01*
X50354360Y-43947517D02*
X51116360Y-43947517D01*
X51116360Y-43947517D02*
X50735360Y-44392017D01*
X50735360Y-44392017D02*
X50354360Y-43947517D01*
X45591860Y-82492017D02*
X46353860Y-82492017D01*
X45591860Y-82047517D02*
X46353860Y-82047517D01*
X46353860Y-82047517D02*
X45972860Y-82492017D01*
X45972860Y-82492017D02*
X45591860Y-82047517D01*
X181704110Y-99160767D02*
X181323110Y-98716267D01*
X182085110Y-98716267D02*
X181704110Y-99160767D01*
X181323110Y-98716267D02*
X182085110Y-98716267D01*
X181323110Y-99160767D02*
X182085110Y-99160767D01*
X212660360Y-25342017D02*
X212279360Y-24897517D01*
X213041360Y-24897517D02*
X212660360Y-25342017D01*
X212279360Y-24897517D02*
X213041360Y-24897517D01*
X212279360Y-25342017D02*
X213041360Y-25342017D01*
X79310360Y-1529517D02*
X78929360Y-1085017D01*
X79691360Y-1085017D02*
X79310360Y-1529517D01*
X78929360Y-1085017D02*
X79691360Y-1085017D01*
X78929360Y-1529517D02*
X79691360Y-1529517D01*
X222185360Y-44392017D02*
X221804360Y-43947517D01*
X222566360Y-43947517D02*
X222185360Y-44392017D01*
X221804360Y-43947517D02*
X222566360Y-43947517D01*
X221804360Y-44392017D02*
X222566360Y-44392017D01*
X312291860Y-1529517D02*
X313053860Y-1529517D01*
X312291860Y-1085017D02*
X313053860Y-1085017D01*
X313053860Y-1085017D02*
X312672860Y-1529517D01*
X312672860Y-1529517D02*
X312291860Y-1085017D01*
X267429110Y-63442017D02*
X267048110Y-62997517D01*
X267810110Y-62997517D02*
X267429110Y-63442017D01*
X267048110Y-62997517D02*
X267810110Y-62997517D01*
X267048110Y-63442017D02*
X267810110Y-63442017D01*
X65022860Y-82492017D02*
X64641860Y-82047517D01*
X65403860Y-82047517D02*
X65022860Y-82492017D01*
X64641860Y-82047517D02*
X65403860Y-82047517D01*
X64641860Y-82492017D02*
X65403860Y-82492017D01*
X36066860Y-63442017D02*
X36828860Y-63442017D01*
X36066860Y-62997517D02*
X36828860Y-62997517D01*
X36828860Y-62997517D02*
X36447860Y-63442017D01*
X36447860Y-63442017D02*
X36066860Y-62997517D01*
X59879360Y-1529517D02*
X60641360Y-1529517D01*
X59879360Y-1085017D02*
X60641360Y-1085017D01*
X60641360Y-1085017D02*
X60260360Y-1529517D01*
X60260360Y-1529517D02*
X59879360Y-1085017D01*
X250379360Y-1529517D02*
X251141360Y-1529517D01*
X250379360Y-1085017D02*
X251141360Y-1085017D01*
X251141360Y-1085017D02*
X250760360Y-1529517D01*
X250760360Y-1529517D02*
X250379360Y-1085017D01*
X78929360Y-25342017D02*
X79691360Y-25342017D01*
X78929360Y-24897517D02*
X79691360Y-24897517D01*
X79691360Y-24897517D02*
X79310360Y-25342017D01*
X79310360Y-25342017D02*
X78929360Y-24897517D01*
X107504360Y-44392017D02*
X108266360Y-44392017D01*
X107504360Y-43947517D02*
X108266360Y-43947517D01*
X108266360Y-43947517D02*
X107885360Y-44392017D01*
X107885360Y-44392017D02*
X107504360Y-43947517D01*
X103122860Y-82492017D02*
X102741860Y-82047517D01*
X103503860Y-82047517D02*
X103122860Y-82492017D01*
X102741860Y-82047517D02*
X103503860Y-82047517D01*
X102741860Y-82492017D02*
X103503860Y-82492017D01*
X331341860Y-1529517D02*
X332103860Y-1529517D01*
X331341860Y-1085017D02*
X332103860Y-1085017D01*
X332103860Y-1085017D02*
X331722860Y-1529517D01*
X331722860Y-1529517D02*
X331341860Y-1085017D01*
X126935360Y-1529517D02*
X126554360Y-1085017D01*
X127316360Y-1085017D02*
X126935360Y-1529517D01*
X126554360Y-1085017D02*
X127316360Y-1085017D01*
X126554360Y-1529517D02*
X127316360Y-1529517D01*
X122172860Y-82492017D02*
X121791860Y-82047517D01*
X122553860Y-82047517D02*
X122172860Y-82492017D01*
X121791860Y-82047517D02*
X122553860Y-82047517D01*
X121791860Y-82492017D02*
X122553860Y-82492017D01*
X245997860Y-63442017D02*
X245616860Y-62997517D01*
X246378860Y-62997517D02*
X245997860Y-63442017D01*
X245616860Y-62997517D02*
X246378860Y-62997517D01*
X245616860Y-63442017D02*
X246378860Y-63442017D01*
X176560610Y-99160767D02*
X177322610Y-99160767D01*
X176560610Y-98716267D02*
X177322610Y-98716267D01*
X177322610Y-98716267D02*
X176941610Y-99160767D01*
X176941610Y-99160767D02*
X176560610Y-98716267D01*
X331341860Y-25342017D02*
X332103860Y-25342017D01*
X331341860Y-24897517D02*
X332103860Y-24897517D01*
X332103860Y-24897517D02*
X331722860Y-25342017D01*
X331722860Y-25342017D02*
X331341860Y-24897517D01*
X226566860Y-63442017D02*
X227328860Y-63442017D01*
X226566860Y-62997517D02*
X227328860Y-62997517D01*
X227328860Y-62997517D02*
X226947860Y-63442017D01*
X226947860Y-63442017D02*
X226566860Y-62997517D01*
X184085360Y-99160767D02*
X183704360Y-98716267D01*
X184466360Y-98716267D02*
X184085360Y-99160767D01*
X183704360Y-98716267D02*
X184466360Y-98716267D01*
X183704360Y-99160767D02*
X184466360Y-99160767D01*
X117029360Y-25342017D02*
X117791360Y-25342017D01*
X117029360Y-24897517D02*
X117791360Y-24897517D01*
X117791360Y-24897517D02*
X117410360Y-25342017D01*
X117410360Y-25342017D02*
X117029360Y-24897517D01*
X131697860Y-63442017D02*
X131316860Y-62997517D01*
X132078860Y-62997517D02*
X131697860Y-63442017D01*
X131316860Y-62997517D02*
X132078860Y-62997517D01*
X131316860Y-63442017D02*
X132078860Y-63442017D01*
X136079360Y-25342017D02*
X136841360Y-25342017D01*
X136079360Y-24897517D02*
X136841360Y-24897517D01*
X136841360Y-24897517D02*
X136460360Y-25342017D01*
X136460360Y-25342017D02*
X136079360Y-24897517D01*
X312672860Y-44392017D02*
X312291860Y-43947517D01*
X313053860Y-43947517D02*
X312672860Y-44392017D01*
X312291860Y-43947517D02*
X313053860Y-43947517D01*
X312291860Y-44392017D02*
X313053860Y-44392017D01*
X293622860Y-44392017D02*
X293241860Y-43947517D01*
X294003860Y-43947517D02*
X293622860Y-44392017D01*
X293241860Y-43947517D02*
X294003860Y-43947517D01*
X293241860Y-44392017D02*
X294003860Y-44392017D01*
X207516860Y-63442017D02*
X208278860Y-63442017D01*
X207516860Y-62997517D02*
X208278860Y-62997517D01*
X208278860Y-62997517D02*
X207897860Y-63442017D01*
X207897860Y-63442017D02*
X207516860Y-62997517D01*
X165035360Y-1529517D02*
X164654360Y-1085017D01*
X165416360Y-1085017D02*
X165035360Y-1529517D01*
X164654360Y-1085017D02*
X165416360Y-1085017D01*
X164654360Y-1529517D02*
X165416360Y-1529517D01*
X155129360Y-25342017D02*
X155891360Y-25342017D01*
X155129360Y-24897517D02*
X155891360Y-24897517D01*
X155891360Y-24897517D02*
X155510360Y-25342017D01*
X155510360Y-25342017D02*
X155129360Y-24897517D01*
X165035360Y-44392017D02*
X164654360Y-43947517D01*
X165416360Y-43947517D02*
X165035360Y-44392017D01*
X164654360Y-43947517D02*
X165416360Y-43947517D01*
X164654360Y-44392017D02*
X165416360Y-44392017D01*
X126935360Y-44392017D02*
X126554360Y-43947517D01*
X127316360Y-43947517D02*
X126935360Y-44392017D01*
X126554360Y-43947517D02*
X127316360Y-43947517D01*
X126554360Y-44392017D02*
X127316360Y-44392017D01*
X145985360Y-1529517D02*
X145604360Y-1085017D01*
X146366360Y-1085017D02*
X145985360Y-1529517D01*
X145604360Y-1085017D02*
X146366360Y-1085017D01*
X145604360Y-1529517D02*
X146366360Y-1529517D01*
X169797860Y-63442017D02*
X169416860Y-62997517D01*
X170178860Y-62997517D02*
X169797860Y-63442017D01*
X169416860Y-62997517D02*
X170178860Y-62997517D01*
X169416860Y-63442017D02*
X170178860Y-63442017D01*
X312672860Y-82492017D02*
X312291860Y-82047517D01*
X313053860Y-82047517D02*
X312672860Y-82492017D01*
X312291860Y-82047517D02*
X313053860Y-82047517D01*
X312291860Y-82492017D02*
X313053860Y-82492017D01*
X269429360Y-25342017D02*
X270191360Y-25342017D01*
X269429360Y-24897517D02*
X270191360Y-24897517D01*
X270191360Y-24897517D02*
X269810360Y-25342017D01*
X269810360Y-25342017D02*
X269429360Y-24897517D01*
X183704360Y-1529517D02*
X184466360Y-1529517D01*
X183704360Y-1085017D02*
X184466360Y-1085017D01*
X184466360Y-1085017D02*
X184085360Y-1529517D01*
X184085360Y-1529517D02*
X183704360Y-1085017D01*
X273700000Y-82492017D02*
X273319000Y-82047517D01*
X274081000Y-82047517D02*
X273700000Y-82492017D01*
X273319000Y-82047517D02*
X274081000Y-82047517D01*
X273319000Y-82492017D02*
X274081000Y-82492017D01*
X179322860Y-82492017D02*
X178941860Y-82047517D01*
X179703860Y-82047517D02*
X179322860Y-82492017D01*
X178941860Y-82047517D02*
X179703860Y-82047517D01*
X178941860Y-82492017D02*
X179703860Y-82492017D01*
X188466860Y-63442017D02*
X189228860Y-63442017D01*
X188466860Y-62997517D02*
X189228860Y-62997517D01*
X189228860Y-62997517D02*
X188847860Y-63442017D01*
X188847860Y-63442017D02*
X188466860Y-62997517D01*
X229889000Y-82492017D02*
X230651000Y-82492017D01*
X229889000Y-82047517D02*
X230651000Y-82047517D01*
X230651000Y-82047517D02*
X230270000Y-82492017D01*
X230270000Y-82492017D02*
X229889000Y-82047517D01*
X160272860Y-82492017D02*
X159891860Y-82047517D01*
X160653860Y-82047517D02*
X160272860Y-82492017D01*
X159891860Y-82047517D02*
X160653860Y-82047517D01*
X159891860Y-82492017D02*
X160653860Y-82492017D01*
X312291860Y-101542017D02*
X313053860Y-101542017D01*
X312291860Y-101097517D02*
X313053860Y-101097517D01*
X313053860Y-101097517D02*
X312672860Y-101542017D01*
X312672860Y-101542017D02*
X312291860Y-101097517D01*
X217041860Y-82492017D02*
X217803860Y-82492017D01*
X217041860Y-82047517D02*
X217803860Y-82047517D01*
X217803860Y-82047517D02*
X217422860Y-82492017D01*
X217422860Y-82492017D02*
X217041860Y-82047517D01*
X293622860Y-101542017D02*
X293241860Y-101097517D01*
X294003860Y-101097517D02*
X293622860Y-101542017D01*
X293241860Y-101097517D02*
X294003860Y-101097517D01*
X293241860Y-101542017D02*
X294003860Y-101542017D01*
X212660360Y-1529517D02*
X212279360Y-1085017D01*
X213041360Y-1085017D02*
X212660360Y-1529517D01*
X212279360Y-1085017D02*
X213041360Y-1085017D01*
X212279360Y-1529517D02*
X213041360Y-1529517D01*
X183704360Y-44392017D02*
X184466360Y-44392017D01*
X183704360Y-43947517D02*
X184466360Y-43947517D01*
X184466360Y-43947517D02*
X184085360Y-44392017D01*
X184085360Y-44392017D02*
X183704360Y-43947517D01*
X174179360Y-25342017D02*
X174941360Y-25342017D01*
X174179360Y-24897517D02*
X174941360Y-24897517D01*
X174941360Y-24897517D02*
X174560360Y-25342017D01*
X174560360Y-25342017D02*
X174179360Y-24897517D01*
X197991860Y-82492017D02*
X198753860Y-82492017D01*
X197991860Y-82047517D02*
X198753860Y-82047517D01*
X198753860Y-82047517D02*
X198372860Y-82492017D01*
X198372860Y-82492017D02*
X197991860Y-82047517D01*
X331722860Y-101542017D02*
X331341860Y-101097517D01*
X332103860Y-101097517D02*
X331722860Y-101542017D01*
X331341860Y-101097517D02*
X332103860Y-101097517D01*
X331341860Y-101542017D02*
X332103860Y-101542017D01*
D11*
X268086840Y-86128860D02*
X268086840Y-91208860D01*
X268086840Y-91208860D02*
X280786840Y-91208860D01*
X280786840Y-86128860D02*
X268086840Y-86128860D01*
D14*
X275736840Y-85318860D02*
X275736840Y-86118860D01*
X273186840Y-85318860D02*
X275736840Y-85318860D01*
X273186840Y-86118860D02*
X273186840Y-85318860D01*
D11*
X280786840Y-91208860D02*
X280786840Y-86128860D01*
D12*
X299822675Y-78083280D02*
X299822675Y-79013280D01*
X299822675Y-81243280D02*
X299822675Y-80313280D01*
X299822675Y-81243280D02*
X297662675Y-81243280D01*
X299822675Y-78083280D02*
X298362675Y-78083280D01*
D10*
X301137675Y-81738280D02*
X301087675Y-81738280D01*
X301137675Y-77588280D02*
X300992675Y-77588280D01*
X295987675Y-77588280D02*
X296132675Y-77588280D01*
X295987675Y-81738280D02*
X296132675Y-81738280D01*
X301137675Y-81738280D02*
X301137675Y-77588280D01*
X295987675Y-81738280D02*
X295987675Y-77588280D01*
X301087675Y-81738280D02*
X301087675Y-83138280D01*
D12*
X-4227325Y-4316252D02*
X-4227325Y-3793748D01*
X-5647325Y-4316252D02*
X-5647325Y-3793748D01*
X277790000Y-12469372D02*
X277790000Y-11946868D01*
X279210000Y-12469372D02*
X279210000Y-11946868D01*
X276710000Y-12469372D02*
X276710000Y-11946868D01*
X275290000Y-12469372D02*
X275290000Y-11946868D01*
X33872675Y-4316252D02*
X33872675Y-3793748D01*
X32452675Y-4316252D02*
X32452675Y-3793748D01*
X52922675Y-4316252D02*
X52922675Y-3793748D01*
X51502675Y-4316252D02*
X51502675Y-3793748D01*
X71972675Y-4316252D02*
X71972675Y-3793748D01*
X70552675Y-4316252D02*
X70552675Y-3793748D01*
X273400000Y-6892573D02*
X269150000Y-6892573D01*
X273400000Y-8992573D02*
X269150000Y-8992573D01*
X273400000Y-6892573D02*
X273400000Y-8992573D01*
D13*
X2729360Y-25342017D02*
X3491360Y-25342017D01*
X2729360Y-24897517D02*
X3491360Y-24897517D01*
X3491360Y-24897517D02*
X3110360Y-25342017D01*
X3110360Y-25342017D02*
X2729360Y-24897517D01*
X7491860Y-44392017D02*
X8253860Y-44392017D01*
X7491860Y-43947517D02*
X8253860Y-43947517D01*
X8253860Y-43947517D02*
X7872860Y-44392017D01*
X7872860Y-44392017D02*
X7491860Y-43947517D01*
X193610360Y-25342017D02*
X193229360Y-24897517D01*
X193991360Y-24897517D02*
X193610360Y-25342017D01*
X193229360Y-24897517D02*
X193991360Y-24897517D01*
X193229360Y-25342017D02*
X193991360Y-25342017D01*
X202754360Y-44392017D02*
X203516360Y-44392017D01*
X202754360Y-43947517D02*
X203516360Y-43947517D01*
X203516360Y-43947517D02*
X203135360Y-44392017D01*
X203135360Y-44392017D02*
X202754360Y-43947517D01*
X40829360Y-1529517D02*
X41591360Y-1529517D01*
X40829360Y-1085017D02*
X41591360Y-1085017D01*
X41591360Y-1085017D02*
X41210360Y-1529517D01*
X41210360Y-1529517D02*
X40829360Y-1085017D01*
X21779360Y-25342017D02*
X22541360Y-25342017D01*
X21779360Y-24897517D02*
X22541360Y-24897517D01*
X22541360Y-24897517D02*
X22160360Y-25342017D01*
X22160360Y-25342017D02*
X21779360Y-24897517D01*
X79310360Y-101542017D02*
X78929360Y-101097517D01*
X79691360Y-101097517D02*
X79310360Y-101542017D01*
X78929360Y-101097517D02*
X79691360Y-101097517D01*
X78929360Y-101542017D02*
X79691360Y-101542017D01*
X10254110Y-63442017D02*
X9873110Y-62997517D01*
X10635110Y-62997517D02*
X10254110Y-63442017D01*
X9873110Y-62997517D02*
X10635110Y-62997517D01*
X9873110Y-63442017D02*
X10635110Y-63442017D01*
D12*
X289989700Y-71654917D02*
X284239700Y-71654917D01*
X284239700Y-71654917D02*
X284239700Y-68054917D01*
X284239700Y-68054917D02*
X289989700Y-68054917D01*
D10*
X282524700Y-84809917D02*
X282524700Y-84234917D01*
X292874700Y-84809917D02*
X292874700Y-84134917D01*
X292874700Y-74459917D02*
X292874700Y-75134917D01*
X282524700Y-74459917D02*
X282524700Y-75134917D01*
X282524700Y-84809917D02*
X283199700Y-84809917D01*
X282524700Y-74459917D02*
X283199700Y-74459917D01*
X292874700Y-74459917D02*
X292199700Y-74459917D01*
X292874700Y-84809917D02*
X292199700Y-84809917D01*
X282524700Y-84234917D02*
X281249700Y-84234917D01*
D13*
X231710360Y-25342017D02*
X231329360Y-24897517D01*
X232091360Y-24897517D02*
X231710360Y-25342017D01*
X231329360Y-24897517D02*
X232091360Y-24897517D01*
X231329360Y-25342017D02*
X232091360Y-25342017D01*
X244540000Y-25342017D02*
X244159000Y-24897517D01*
X244921000Y-24897517D02*
X244540000Y-25342017D01*
X244159000Y-24897517D02*
X244921000Y-24897517D01*
X244159000Y-25342017D02*
X244921000Y-25342017D01*
X74166860Y-63442017D02*
X74928860Y-63442017D01*
X74166860Y-62997517D02*
X74928860Y-62997517D01*
X74928860Y-62997517D02*
X74547860Y-63442017D01*
X74547860Y-63442017D02*
X74166860Y-62997517D01*
X59879360Y-25342017D02*
X60641360Y-25342017D01*
X59879360Y-24897517D02*
X60641360Y-24897517D01*
X60641360Y-24897517D02*
X60260360Y-25342017D01*
X60260360Y-25342017D02*
X59879360Y-24897517D01*
X265047860Y-44392017D02*
X264666860Y-43947517D01*
X265428860Y-43947517D02*
X265047860Y-44392017D01*
X264666860Y-43947517D02*
X265428860Y-43947517D01*
X264666860Y-44392017D02*
X265428860Y-44392017D01*
X84072860Y-82492017D02*
X83691860Y-82047517D01*
X84453860Y-82047517D02*
X84072860Y-82492017D01*
X83691860Y-82047517D02*
X84453860Y-82047517D01*
X83691860Y-82492017D02*
X84453860Y-82492017D01*
X241235360Y-44392017D02*
X240854360Y-43947517D01*
X241616360Y-43947517D02*
X241235360Y-44392017D01*
X240854360Y-43947517D02*
X241616360Y-43947517D01*
X240854360Y-44392017D02*
X241616360Y-44392017D01*
X69785360Y-44392017D02*
X69404360Y-43947517D01*
X70166360Y-43947517D02*
X69785360Y-44392017D01*
X69404360Y-43947517D02*
X70166360Y-43947517D01*
X69404360Y-44392017D02*
X70166360Y-44392017D01*
X269429360Y-1529517D02*
X270191360Y-1529517D01*
X269429360Y-1085017D02*
X270191360Y-1085017D01*
X270191360Y-1085017D02*
X269810360Y-1529517D01*
X269810360Y-1529517D02*
X269429360Y-1085017D01*
X293241860Y-1529517D02*
X294003860Y-1529517D01*
X293241860Y-1085017D02*
X294003860Y-1085017D01*
X294003860Y-1085017D02*
X293622860Y-1529517D01*
X293622860Y-1529517D02*
X293241860Y-1085017D01*
X145985360Y-101542017D02*
X145604360Y-101097517D01*
X146366360Y-101097517D02*
X145985360Y-101542017D01*
X145604360Y-101097517D02*
X146366360Y-101097517D01*
X145604360Y-101542017D02*
X146366360Y-101542017D01*
X97979360Y-25342017D02*
X98741360Y-25342017D01*
X97979360Y-24897517D02*
X98741360Y-24897517D01*
X98741360Y-24897517D02*
X98360360Y-25342017D01*
X98360360Y-25342017D02*
X97979360Y-24897517D01*
X145604360Y-44392017D02*
X146366360Y-44392017D01*
X145604360Y-43947517D02*
X146366360Y-43947517D01*
X146366360Y-43947517D02*
X145985360Y-44392017D01*
X145985360Y-44392017D02*
X145604360Y-43947517D01*
X140841860Y-82492017D02*
X141603860Y-82492017D01*
X140841860Y-82047517D02*
X141603860Y-82047517D01*
X141603860Y-82047517D02*
X141222860Y-82492017D01*
X141222860Y-82492017D02*
X140841860Y-82047517D01*
X150366860Y-63442017D02*
X151128860Y-63442017D01*
X150366860Y-62997517D02*
X151128860Y-62997517D01*
X151128860Y-62997517D02*
X150747860Y-63442017D01*
X150747860Y-63442017D02*
X150366860Y-62997517D01*
X331341860Y-44392017D02*
X332103860Y-44392017D01*
X331341860Y-43947517D02*
X332103860Y-43947517D01*
X332103860Y-43947517D02*
X331722860Y-44392017D01*
X331722860Y-44392017D02*
X331341860Y-43947517D01*
X2729360Y-1529517D02*
X3491360Y-1529517D01*
X2729360Y-1085017D02*
X3491360Y-1085017D01*
X3491360Y-1085017D02*
X3110360Y-1529517D01*
X3110360Y-1529517D02*
X2729360Y-1085017D01*
X15016610Y-82492017D02*
X14635610Y-82047517D01*
X15397610Y-82047517D02*
X15016610Y-82492017D01*
X14635610Y-82047517D02*
X15397610Y-82047517D01*
X14635610Y-82492017D02*
X15397610Y-82492017D01*
X31304360Y-44392017D02*
X32066360Y-44392017D01*
X31304360Y-43947517D02*
X32066360Y-43947517D01*
X32066360Y-43947517D02*
X31685360Y-44392017D01*
X31685360Y-44392017D02*
X31304360Y-43947517D01*
X231329360Y-1529517D02*
X232091360Y-1529517D01*
X231329360Y-1085017D02*
X232091360Y-1085017D01*
X232091360Y-1085017D02*
X231710360Y-1529517D01*
X231710360Y-1529517D02*
X231329360Y-1085017D01*
D12*
X304301423Y-51203280D02*
X304823927Y-51203280D01*
X304301423Y-52623280D02*
X304823927Y-52623280D01*
X313801423Y-52623280D02*
X314323927Y-52623280D01*
X313801423Y-51203280D02*
X314323927Y-51203280D01*
X323301423Y-51203280D02*
X323823927Y-51203280D01*
X323301423Y-52623280D02*
X323823927Y-52623280D01*
X304823927Y-66203280D02*
X304301423Y-66203280D01*
X304823927Y-67623280D02*
X304301423Y-67623280D01*
X314323927Y-67623280D02*
X313801423Y-67623280D01*
X314323927Y-66203280D02*
X313801423Y-66203280D01*
X323823927Y-66203280D02*
X323301423Y-66203280D01*
X323823927Y-67623280D02*
X323301423Y-67623280D01*
D10*
X297987675Y-58488280D02*
X297987675Y-58438280D01*
X302137675Y-58488280D02*
X302137675Y-58343280D01*
X302137675Y-53338280D02*
X302137675Y-53483280D01*
X297987675Y-53338280D02*
X297987675Y-53483280D01*
X297987675Y-58488280D02*
X302137675Y-58488280D01*
X297987675Y-53338280D02*
X302137675Y-53338280D01*
X297987675Y-58438280D02*
X296587675Y-58438280D01*
X307487675Y-58438280D02*
X306087675Y-58438280D01*
X307487675Y-53338280D02*
X311637675Y-53338280D01*
X307487675Y-58488280D02*
X311637675Y-58488280D01*
X307487675Y-53338280D02*
X307487675Y-53483280D01*
X311637675Y-53338280D02*
X311637675Y-53483280D01*
X311637675Y-58488280D02*
X311637675Y-58343280D01*
X307487675Y-58488280D02*
X307487675Y-58438280D01*
X316987675Y-58488280D02*
X316987675Y-58438280D01*
X321137675Y-58488280D02*
X321137675Y-58343280D01*
X321137675Y-53338280D02*
X321137675Y-53483280D01*
X316987675Y-53338280D02*
X316987675Y-53483280D01*
X316987675Y-58488280D02*
X321137675Y-58488280D01*
X316987675Y-53338280D02*
X321137675Y-53338280D01*
X316987675Y-58438280D02*
X315587675Y-58438280D01*
D12*
X15726500Y-65613017D02*
X15426500Y-65913017D01*
X15126500Y-65613017D02*
X15726500Y-65613017D01*
X15426500Y-65913017D02*
X15126500Y-65613017D01*
X14076500Y-66163017D02*
X14076500Y-68113017D01*
X19576500Y-66163017D02*
X14076500Y-66163017D01*
X19576500Y-68113017D02*
X19576500Y-66163017D01*
X14076500Y-68113017D02*
X19576500Y-68113017D01*
X19649450Y-61507632D02*
X14149450Y-61507632D01*
X14149450Y-61507632D02*
X14149450Y-63457632D01*
X14149450Y-63457632D02*
X19649450Y-63457632D01*
X19649450Y-63457632D02*
X19649450Y-61507632D01*
X18299450Y-63707632D02*
X18599450Y-64007632D01*
X18599450Y-64007632D02*
X17999450Y-64007632D01*
X17999450Y-64007632D02*
X18299450Y-63707632D01*
X297225000Y-5304917D02*
X297525000Y-5604917D01*
X297225000Y-5904917D02*
X297225000Y-5304917D01*
X297525000Y-5604917D02*
X297225000Y-5904917D01*
X297775000Y-6954917D02*
X299725000Y-6954917D01*
X297775000Y-1454917D02*
X297775000Y-6954917D01*
X299725000Y-1454917D02*
X297775000Y-1454917D01*
X299725000Y-6954917D02*
X299725000Y-1454917D01*
X302125000Y-6954917D02*
X302125000Y-1454917D01*
X302125000Y-1454917D02*
X300175000Y-1454917D01*
X300175000Y-1454917D02*
X300175000Y-6954917D01*
X300175000Y-6954917D02*
X302125000Y-6954917D01*
X299925000Y-5604917D02*
X299625000Y-5904917D01*
X299625000Y-5904917D02*
X299625000Y-5304917D01*
X299625000Y-5304917D02*
X299925000Y-5604917D01*
X279532352Y-68620097D02*
X279009848Y-68620097D01*
X279532352Y-70040097D02*
X279009848Y-70040097D01*
X298986252Y-85764917D02*
X298463748Y-85764917D01*
X298986252Y-84344917D02*
X298463748Y-84344917D01*
X-5647325Y-28128752D02*
X-5647325Y-27606248D01*
X-4227325Y-28128752D02*
X-4227325Y-27606248D01*
X535175Y-47178752D02*
X535175Y-46656248D01*
X-884825Y-47178752D02*
X-884825Y-46656248D01*
X-3266075Y-66228752D02*
X-3266075Y-65706248D01*
X-1846075Y-66228752D02*
X-1846075Y-65706248D01*
X7853750Y-85553669D02*
X7853750Y-85031165D01*
X6433750Y-85553669D02*
X6433750Y-85031165D01*
X-1846075Y-104328752D02*
X-1846075Y-103806248D01*
X-3266075Y-104328752D02*
X-3266075Y-103806248D01*
X203902675Y-4316252D02*
X203902675Y-3793748D01*
X205322675Y-4316252D02*
X205322675Y-3793748D01*
X184852675Y-28128752D02*
X184852675Y-27606248D01*
X186272675Y-28128752D02*
X186272675Y-27606248D01*
X194377675Y-47178752D02*
X194377675Y-46656248D01*
X195797675Y-47178752D02*
X195797675Y-46656248D01*
X199140175Y-66228752D02*
X199140175Y-65706248D01*
X200560175Y-66228752D02*
X200560175Y-65706248D01*
X14822675Y-28128752D02*
X14822675Y-27606248D01*
X13402675Y-28128752D02*
X13402675Y-27606248D01*
X22927675Y-47178752D02*
X22927675Y-46656248D01*
X24347675Y-47178752D02*
X24347675Y-46656248D01*
X29110175Y-66228752D02*
X29110175Y-65706248D01*
X27690175Y-66228752D02*
X27690175Y-65706248D01*
X18165175Y-85278752D02*
X18165175Y-84756248D01*
X19585175Y-85278752D02*
X19585175Y-84756248D01*
X20546425Y-104328752D02*
X20546425Y-103806248D01*
X21966425Y-104328752D02*
X21966425Y-103806248D01*
X224372675Y-4316252D02*
X224372675Y-3793748D01*
X222952675Y-4316252D02*
X222952675Y-3793748D01*
X205322675Y-28128752D02*
X205322675Y-27606248D01*
X203902675Y-28128752D02*
X203902675Y-27606248D01*
X214847675Y-47178752D02*
X214847675Y-46656248D01*
X213427675Y-47178752D02*
X213427675Y-46656248D01*
X219610175Y-66228752D02*
X219610175Y-65706248D01*
X218190175Y-66228752D02*
X218190175Y-65706248D01*
X32452675Y-28128752D02*
X32452675Y-27606248D01*
X33872675Y-28128752D02*
X33872675Y-27606248D01*
X43397675Y-47178752D02*
X43397675Y-46656248D01*
X41977675Y-47178752D02*
X41977675Y-46656248D01*
X46740175Y-66228752D02*
X46740175Y-65706248D01*
X48160175Y-66228752D02*
X48160175Y-65706248D01*
X38635175Y-85278752D02*
X38635175Y-84756248D01*
X37215175Y-85278752D02*
X37215175Y-84756248D01*
X60066425Y-104328752D02*
X60066425Y-103806248D01*
X58646425Y-104328752D02*
X58646425Y-103806248D01*
X242002675Y-4316252D02*
X242002675Y-3793748D01*
X243422675Y-4316252D02*
X243422675Y-3793748D01*
X222952675Y-28128752D02*
X222952675Y-27606248D01*
X224372675Y-28128752D02*
X224372675Y-27606248D01*
X232477675Y-47178752D02*
X232477675Y-46656248D01*
X233897675Y-47178752D02*
X233897675Y-46656248D01*
X237240175Y-66228752D02*
X237240175Y-65706248D01*
X238660175Y-66228752D02*
X238660175Y-65706248D01*
X52922675Y-28128752D02*
X52922675Y-27606248D01*
X51502675Y-28128752D02*
X51502675Y-27606248D01*
X61027675Y-47178752D02*
X61027675Y-46656248D01*
X62447675Y-47178752D02*
X62447675Y-46656248D01*
X67210175Y-66228752D02*
X67210175Y-65706248D01*
X65790175Y-66228752D02*
X65790175Y-65706248D01*
X56265175Y-85278752D02*
X56265175Y-84756248D01*
X57685175Y-85278752D02*
X57685175Y-84756248D01*
X138647675Y-104328752D02*
X138647675Y-103806248D01*
X137227675Y-104328752D02*
X137227675Y-103806248D01*
X262472675Y-4316252D02*
X262472675Y-3793748D01*
X261052675Y-4316252D02*
X261052675Y-3793748D01*
X241041425Y-28128752D02*
X241041425Y-27606248D01*
X239621425Y-28128752D02*
X239621425Y-27606248D01*
X257710175Y-47178752D02*
X257710175Y-46656248D01*
X256290175Y-47178752D02*
X256290175Y-46656248D01*
X245803925Y-85278752D02*
X245803925Y-84756248D01*
X244383925Y-85278752D02*
X244383925Y-84756248D01*
X89602675Y-4316252D02*
X89602675Y-3793748D01*
X91022675Y-4316252D02*
X91022675Y-3793748D01*
X70552675Y-28128752D02*
X70552675Y-27606248D01*
X71972675Y-28128752D02*
X71972675Y-27606248D01*
X81497675Y-47178752D02*
X81497675Y-46656248D01*
X80077675Y-47178752D02*
X80077675Y-46656248D01*
X84840175Y-66228752D02*
X84840175Y-65706248D01*
X86260175Y-66228752D02*
X86260175Y-65706248D01*
X76735175Y-85278752D02*
X76735175Y-84756248D01*
X75315175Y-85278752D02*
X75315175Y-84756248D01*
X187233925Y-104328752D02*
X187233925Y-103806248D01*
X188653925Y-104328752D02*
X188653925Y-103806248D01*
X284865175Y-4316252D02*
X284865175Y-3793748D01*
X286285175Y-4316252D02*
X286285175Y-3793748D01*
X261052675Y-28128752D02*
X261052675Y-27606248D01*
X262472675Y-28128752D02*
X262472675Y-27606248D01*
X249146425Y-66228752D02*
X249146425Y-65706248D01*
X250566425Y-66228752D02*
X250566425Y-65706248D01*
X210085175Y-85278752D02*
X210085175Y-84756248D01*
X208665175Y-85278752D02*
X208665175Y-84756248D01*
X91022675Y-28128752D02*
X91022675Y-27606248D01*
X89602675Y-28128752D02*
X89602675Y-27606248D01*
X99127675Y-47178752D02*
X99127675Y-46656248D01*
X100547675Y-47178752D02*
X100547675Y-46656248D01*
X105310175Y-66228752D02*
X105310175Y-65706248D01*
X103890175Y-66228752D02*
X103890175Y-65706248D01*
X94365175Y-85278752D02*
X94365175Y-84756248D01*
X95785175Y-85278752D02*
X95785175Y-84756248D01*
X210085175Y-104328752D02*
X210085175Y-103806248D01*
X208665175Y-104328752D02*
X208665175Y-103806248D01*
X303915175Y-4316252D02*
X303915175Y-3793748D01*
X305335175Y-4316252D02*
X305335175Y-3793748D01*
X286285175Y-28128752D02*
X286285175Y-27606248D01*
X284865175Y-28128752D02*
X284865175Y-27606248D01*
X226753925Y-85278752D02*
X226753925Y-84756248D01*
X225333925Y-85278752D02*
X225333925Y-84756248D01*
X191035175Y-85278752D02*
X191035175Y-84756248D01*
X189615175Y-85278752D02*
X189615175Y-84756248D01*
X118177675Y-4316252D02*
X118177675Y-3793748D01*
X119597675Y-4316252D02*
X119597675Y-3793748D01*
X110072675Y-28128752D02*
X110072675Y-27606248D01*
X108652675Y-28128752D02*
X108652675Y-27606248D01*
X119597675Y-47178752D02*
X119597675Y-46656248D01*
X118177675Y-47178752D02*
X118177675Y-46656248D01*
X122940175Y-66228752D02*
X122940175Y-65706248D01*
X124360175Y-66228752D02*
X124360175Y-65706248D01*
X114835175Y-85278752D02*
X114835175Y-84756248D01*
X113415175Y-85278752D02*
X113415175Y-84756248D01*
X232477675Y-104328752D02*
X232477675Y-103806248D01*
X233897675Y-104328752D02*
X233897675Y-103806248D01*
X322965175Y-4316252D02*
X322965175Y-3793748D01*
X324385175Y-4316252D02*
X324385175Y-3793748D01*
X303915175Y-28128752D02*
X303915175Y-27606248D01*
X305335175Y-28128752D02*
X305335175Y-27606248D01*
X138647675Y-4316252D02*
X138647675Y-3793748D01*
X137227675Y-4316252D02*
X137227675Y-3793748D01*
X129122675Y-28128752D02*
X129122675Y-27606248D01*
X127702675Y-28128752D02*
X127702675Y-27606248D01*
X137227675Y-47178752D02*
X137227675Y-46656248D01*
X138647675Y-47178752D02*
X138647675Y-46656248D01*
X143410175Y-66228752D02*
X143410175Y-65706248D01*
X141990175Y-66228752D02*
X141990175Y-65706248D01*
X132465175Y-85278752D02*
X132465175Y-84756248D01*
X133885175Y-85278752D02*
X133885175Y-84756248D01*
X257710175Y-104328752D02*
X257710175Y-103806248D01*
X256290175Y-104328752D02*
X256290175Y-103806248D01*
X324385175Y-28128752D02*
X324385175Y-27606248D01*
X322965175Y-28128752D02*
X322965175Y-27606248D01*
X303915175Y-47178752D02*
X303915175Y-46656248D01*
X305335175Y-47178752D02*
X305335175Y-46656248D01*
X156277675Y-4316252D02*
X156277675Y-3793748D01*
X157697675Y-4316252D02*
X157697675Y-3793748D01*
X146752675Y-28128752D02*
X146752675Y-27606248D01*
X148172675Y-28128752D02*
X148172675Y-27606248D01*
X156277675Y-47178752D02*
X156277675Y-46656248D01*
X157697675Y-47178752D02*
X157697675Y-46656248D01*
X162460175Y-66228752D02*
X162460175Y-65706248D01*
X161040175Y-66228752D02*
X161040175Y-65706248D01*
X152935175Y-85278752D02*
X152935175Y-84756248D01*
X151515175Y-85278752D02*
X151515175Y-84756248D01*
X284865175Y-104328752D02*
X284865175Y-103806248D01*
X286285175Y-104328752D02*
X286285175Y-103806248D01*
X322965175Y-47178752D02*
X322965175Y-46656248D01*
X324385175Y-47178752D02*
X324385175Y-46656248D01*
X284865175Y-47178752D02*
X284865175Y-46656248D01*
X286285175Y-47178752D02*
X286285175Y-46656248D01*
X176747675Y-4316252D02*
X176747675Y-3793748D01*
X175327675Y-4316252D02*
X175327675Y-3793748D01*
X165802675Y-28128752D02*
X165802675Y-27606248D01*
X167222675Y-28128752D02*
X167222675Y-27606248D01*
X176747675Y-47178752D02*
X176747675Y-46656248D01*
X175327675Y-47178752D02*
X175327675Y-46656248D01*
X180090175Y-66228752D02*
X180090175Y-65706248D01*
X181510175Y-66228752D02*
X181510175Y-65706248D01*
X170565175Y-85278752D02*
X170565175Y-84756248D01*
X171985175Y-85278752D02*
X171985175Y-84756248D01*
X305335175Y-104328752D02*
X305335175Y-103806248D01*
X303915175Y-104328752D02*
X303915175Y-103806248D01*
X324385175Y-104328752D02*
X324385175Y-103806248D01*
X322965175Y-104328752D02*
X322965175Y-103806248D01*
X305335175Y-85278752D02*
X305335175Y-84756248D01*
X303915175Y-85278752D02*
X303915175Y-84756248D01*
D10*
X280350242Y5671590D02*
X280350242Y4862066D01*
X280302623Y4766828D01*
X280255004Y4719209D01*
X280159766Y4671590D01*
X279969289Y4671590D01*
X279874051Y4719209D01*
X279826432Y4766828D01*
X279778813Y4862066D01*
X279778813Y5671590D01*
X279350242Y4719209D02*
X279207385Y4671590D01*
X278969289Y4671590D01*
X278874051Y4719209D01*
X278826432Y4766828D01*
X278778813Y4862066D01*
X278778813Y4957304D01*
X278826432Y5052542D01*
X278874051Y5100161D01*
X278969289Y5147780D01*
X279159766Y5195399D01*
X279255004Y5243018D01*
X279302623Y5290637D01*
X279350242Y5385875D01*
X279350242Y5481113D01*
X279302623Y5576351D01*
X279255004Y5623971D01*
X279159766Y5671590D01*
X278921670Y5671590D01*
X278778813Y5623971D01*
X278016908Y5195399D02*
X277874051Y5147780D01*
X277826432Y5100161D01*
X277778813Y5004923D01*
X277778813Y4862066D01*
X277826432Y4766828D01*
X277874051Y4719209D01*
X277969289Y4671590D01*
X278350242Y4671590D01*
X278350242Y5671590D01*
X278016908Y5671590D01*
X277921670Y5623971D01*
X277874051Y5576351D01*
X277826432Y5481113D01*
X277826432Y5385875D01*
X277874051Y5290637D01*
X277921670Y5243018D01*
X278016908Y5195399D01*
X278350242Y5195399D01*
X276826432Y4671590D02*
X277397861Y4671590D01*
X277112147Y4671590D02*
X277112147Y5671590D01*
X277207385Y5528732D01*
X277302623Y5433494D01*
X277397861Y5385875D01*
X278847987Y2652297D02*
X278371797Y2985631D01*
X278847987Y3223726D02*
X277847987Y3223726D01*
X277847987Y2842773D01*
X277895607Y2747535D01*
X277943226Y2699916D01*
X278038464Y2652297D01*
X278181321Y2652297D01*
X278276559Y2699916D01*
X278324178Y2747535D01*
X278371797Y2842773D01*
X278371797Y3223726D01*
X277847987Y2318964D02*
X277847987Y1699916D01*
X278228940Y2033250D01*
X278228940Y1890392D01*
X278276559Y1795154D01*
X278324178Y1747535D01*
X278419416Y1699916D01*
X278657511Y1699916D01*
X278752749Y1747535D01*
X278800368Y1795154D01*
X278847987Y1890392D01*
X278847987Y2176107D01*
X278800368Y2271345D01*
X278752749Y2318964D01*
X282185547Y3879117D02*
X281709357Y4212451D01*
X282185547Y4450546D02*
X281185547Y4450546D01*
X281185547Y4069593D01*
X281233167Y3974355D01*
X281280786Y3926736D01*
X281376024Y3879117D01*
X281518881Y3879117D01*
X281614119Y3926736D01*
X281661738Y3974355D01*
X281709357Y4069593D01*
X281709357Y4450546D01*
X281280786Y3498165D02*
X281233167Y3450546D01*
X281185547Y3355308D01*
X281185547Y3117212D01*
X281233167Y3021974D01*
X281280786Y2974355D01*
X281376024Y2926736D01*
X281471262Y2926736D01*
X281614119Y2974355D01*
X282185547Y3545784D01*
X282185547Y2926736D01*
X280602380Y-12041453D02*
X280126190Y-11708120D01*
X280602380Y-11470024D02*
X279602380Y-11470024D01*
X279602380Y-11850977D01*
X279650000Y-11946215D01*
X279697619Y-11993834D01*
X279792857Y-12041453D01*
X279935714Y-12041453D01*
X280030952Y-11993834D01*
X280078571Y-11946215D01*
X280126190Y-11850977D01*
X280126190Y-11470024D01*
X279602380Y-12946215D02*
X279602380Y-12470024D01*
X280078571Y-12422405D01*
X280030952Y-12470024D01*
X279983333Y-12565262D01*
X279983333Y-12803358D01*
X280030952Y-12898596D01*
X280078571Y-12946215D01*
X280173809Y-12993834D01*
X280411904Y-12993834D01*
X280507142Y-12946215D01*
X280554761Y-12898596D01*
X280602380Y-12803358D01*
X280602380Y-12565262D01*
X280554761Y-12470024D01*
X280507142Y-12422405D01*
X278102380Y-12041453D02*
X277626190Y-11708120D01*
X278102380Y-11470024D02*
X277102380Y-11470024D01*
X277102380Y-11850977D01*
X277150000Y-11946215D01*
X277197619Y-11993834D01*
X277292857Y-12041453D01*
X277435714Y-12041453D01*
X277530952Y-11993834D01*
X277578571Y-11946215D01*
X277626190Y-11850977D01*
X277626190Y-11470024D01*
X277435714Y-12898596D02*
X278102380Y-12898596D01*
X277054761Y-12660500D02*
X277769047Y-12422405D01*
X277769047Y-13041453D01*
X270916666Y-5749715D02*
X270964285Y-5797334D01*
X271107142Y-5844953D01*
X271202380Y-5844953D01*
X271345238Y-5797334D01*
X271440476Y-5702096D01*
X271488095Y-5606858D01*
X271535714Y-5416382D01*
X271535714Y-5273525D01*
X271488095Y-5083049D01*
X271440476Y-4987811D01*
X271345238Y-4892573D01*
X271202380Y-4844953D01*
X271107142Y-4844953D01*
X270964285Y-4892573D01*
X270916666Y-4940192D01*
X270583333Y-4844953D02*
X269964285Y-4844953D01*
X270297619Y-5225906D01*
X270154761Y-5225906D01*
X270059523Y-5273525D01*
X270011904Y-5321144D01*
X269964285Y-5416382D01*
X269964285Y-5654477D01*
X270011904Y-5749715D01*
X270059523Y-5797334D01*
X270154761Y-5844953D01*
X270440476Y-5844953D01*
X270535714Y-5797334D01*
X270583333Y-5749715D01*
X288461604Y-86537297D02*
X288461604Y-87346821D01*
X288413985Y-87442059D01*
X288366366Y-87489678D01*
X288271128Y-87537297D01*
X288080652Y-87537297D01*
X287985414Y-87489678D01*
X287937795Y-87442059D01*
X287890176Y-87346821D01*
X287890176Y-86537297D01*
X286890176Y-87537297D02*
X287461604Y-87537297D01*
X287175890Y-87537297D02*
X287175890Y-86537297D01*
X287271128Y-86680155D01*
X287366366Y-86775393D01*
X287461604Y-86823012D01*
X289856375Y-81956584D02*
X289620673Y-81720882D01*
X289762094Y-82145146D02*
X290092077Y-81485179D01*
X289432111Y-81815162D01*
X289832805Y-81225907D02*
X289549962Y-80943064D01*
X289196409Y-81579460D02*
X289691384Y-81084485D01*
X288889996Y-81273047D02*
X289384971Y-80778072D01*
X288866426Y-80966634D01*
X289054987Y-80448089D01*
X288560013Y-80943064D01*
X288583583Y-80448089D02*
X288418591Y-80283098D01*
X288088608Y-80471660D02*
X288324310Y-80707362D01*
X288819285Y-80212387D01*
X288583583Y-79976685D01*
X288088608Y-79528850D02*
X288159319Y-79552421D01*
X288230030Y-79623131D01*
X288277170Y-79717412D01*
X288277170Y-79811693D01*
X288253600Y-79882404D01*
X288182889Y-80000255D01*
X288112178Y-80070966D01*
X287994327Y-80141676D01*
X287923617Y-80165247D01*
X287829336Y-80165247D01*
X287735055Y-80118106D01*
X287687914Y-80070966D01*
X287640774Y-79976685D01*
X287640774Y-79929544D01*
X287805766Y-79764553D01*
X287900046Y-79858834D01*
X287546493Y-79646702D02*
X287310791Y-79410999D01*
X287452212Y-79835263D02*
X287782195Y-79175297D01*
X287122229Y-79505280D01*
X287499353Y-78892454D02*
X287192940Y-78586041D01*
X287169369Y-78939595D01*
X287098659Y-78868884D01*
X287027948Y-78845314D01*
X286980808Y-78845314D01*
X286910097Y-78868884D01*
X286792246Y-78986735D01*
X286768676Y-79057446D01*
X286768676Y-79104586D01*
X286792246Y-79175297D01*
X286933667Y-79316718D01*
X287004378Y-79340289D01*
X287051518Y-79340289D01*
X286957237Y-78444620D02*
X286957237Y-78397480D01*
X286933667Y-78326769D01*
X286815816Y-78208918D01*
X286745105Y-78185348D01*
X286697965Y-78185348D01*
X286627254Y-78208918D01*
X286580114Y-78256058D01*
X286532973Y-78350339D01*
X286532973Y-78916025D01*
X286226560Y-78609612D01*
X286509403Y-77902505D02*
X286108709Y-78303199D01*
X286037999Y-78326769D01*
X285990858Y-78326769D01*
X285920147Y-78303199D01*
X285825867Y-78208918D01*
X285802296Y-78138207D01*
X285802296Y-78091067D01*
X285825867Y-78020356D01*
X286226560Y-77619662D01*
X285613734Y-77336819D02*
X285283751Y-77666803D01*
X285920147Y-77266109D02*
X285684445Y-77737513D01*
X285378032Y-77431100D01*
D11*
X682476Y3119428D02*
X349142Y3119428D01*
X206285Y2595619D02*
X682476Y2595619D01*
X682476Y3595619D01*
X206285Y3595619D01*
X-174666Y2643238D02*
X-317523Y2595619D01*
X-555619Y2595619D01*
X-650857Y2643238D01*
X-698476Y2690857D01*
X-746095Y2786095D01*
X-746095Y2881333D01*
X-698476Y2976571D01*
X-650857Y3024190D01*
X-555619Y3071809D01*
X-365142Y3119428D01*
X-269904Y3167047D01*
X-222285Y3214666D01*
X-174666Y3309904D01*
X-174666Y3405142D01*
X-222285Y3500380D01*
X-269904Y3548000D01*
X-365142Y3595619D01*
X-603238Y3595619D01*
X-746095Y3548000D01*
X-1746095Y2690857D02*
X-1698476Y2643238D01*
X-1555619Y2595619D01*
X-1460380Y2595619D01*
X-1317523Y2643238D01*
X-1222285Y2738476D01*
X-1174666Y2833714D01*
X-1127047Y3024190D01*
X-1127047Y3167047D01*
X-1174666Y3357523D01*
X-1222285Y3452761D01*
X-1317523Y3548000D01*
X-1460380Y3595619D01*
X-1555619Y3595619D01*
X-1698476Y3548000D01*
X-1746095Y3500380D01*
X158666Y-20264500D02*
X253904Y-20216880D01*
X396761Y-20216880D01*
X539619Y-20264500D01*
X634857Y-20359738D01*
X682476Y-20454976D01*
X730095Y-20645452D01*
X730095Y-20788309D01*
X682476Y-20978785D01*
X634857Y-21074023D01*
X539619Y-21169261D01*
X396761Y-21216880D01*
X301523Y-21216880D01*
X158666Y-21169261D01*
X111047Y-21121642D01*
X111047Y-20788309D01*
X301523Y-20788309D01*
X-888952Y-21216880D02*
X-555619Y-20740690D01*
X-317523Y-21216880D02*
X-317523Y-20216880D01*
X-698476Y-20216880D01*
X-793714Y-20264500D01*
X-841333Y-20312119D01*
X-888952Y-20407357D01*
X-888952Y-20550214D01*
X-841333Y-20645452D01*
X-793714Y-20693071D01*
X-698476Y-20740690D01*
X-317523Y-20740690D01*
X-1174666Y-20216880D02*
X-1507999Y-21216880D01*
X-1841333Y-20216880D01*
X5468785Y-39266880D02*
X4897357Y-39266880D01*
X5183071Y-40266880D02*
X5183071Y-39266880D01*
X4611642Y-39981166D02*
X4135452Y-39981166D01*
X4706880Y-40266880D02*
X4373547Y-39266880D01*
X4040214Y-40266880D01*
X3373547Y-39743071D02*
X3230690Y-39790690D01*
X3183071Y-39838309D01*
X3135452Y-39933547D01*
X3135452Y-40076404D01*
X3183071Y-40171642D01*
X3230690Y-40219261D01*
X3325928Y-40266880D01*
X3706880Y-40266880D01*
X3706880Y-39266880D01*
X3373547Y-39266880D01*
X3278309Y-39314500D01*
X3230690Y-39362119D01*
X3183071Y-39457357D01*
X3183071Y-39552595D01*
X3230690Y-39647833D01*
X3278309Y-39695452D01*
X3373547Y-39743071D01*
X3706880Y-39743071D01*
X9169898Y-54441362D02*
X9217517Y-54488981D01*
X9360374Y-54536600D01*
X9455612Y-54536600D01*
X9598469Y-54488981D01*
X9693707Y-54393743D01*
X9741326Y-54298505D01*
X9788945Y-54108029D01*
X9788945Y-53965172D01*
X9741326Y-53774696D01*
X9693707Y-53679458D01*
X9598469Y-53584220D01*
X9455612Y-53536600D01*
X9360374Y-53536600D01*
X9217517Y-53584220D01*
X9169898Y-53631839D01*
X8788945Y-54250886D02*
X8312755Y-54250886D01*
X8884183Y-54536600D02*
X8550850Y-53536600D01*
X8217517Y-54536600D01*
X7884183Y-54536600D02*
X7884183Y-53536600D01*
X7503231Y-53536600D01*
X7407993Y-53584220D01*
X7360374Y-53631839D01*
X7312755Y-53727077D01*
X7312755Y-53869934D01*
X7360374Y-53965172D01*
X7407993Y-54012791D01*
X7503231Y-54060410D01*
X7884183Y-54060410D01*
X6931802Y-54488981D02*
X6788945Y-54536600D01*
X6550850Y-54536600D01*
X6455612Y-54488981D01*
X6407993Y-54441362D01*
X6360374Y-54346124D01*
X6360374Y-54250886D01*
X6407993Y-54155648D01*
X6455612Y-54108029D01*
X6550850Y-54060410D01*
X6741326Y-54012791D01*
X6836564Y-53965172D01*
X6884183Y-53917553D01*
X6931802Y-53822315D01*
X6931802Y-53727077D01*
X6884183Y-53631839D01*
X6836564Y-53584220D01*
X6741326Y-53536600D01*
X6503231Y-53536600D01*
X6360374Y-53584220D01*
X12165599Y-78134701D02*
X12530382Y-78440790D01*
X13173170Y-77674746D01*
X12031425Y-78146440D02*
X11447772Y-77656697D01*
X11393685Y-77424826D02*
X11253642Y-77369478D01*
X11071250Y-77216433D01*
X11028902Y-77118737D01*
X11023033Y-77051650D01*
X11047773Y-76948084D01*
X11108990Y-76875127D01*
X11206687Y-76832780D01*
X11273774Y-76826910D01*
X11377339Y-76851650D01*
X11553862Y-76937607D01*
X11657427Y-76962347D01*
X11724514Y-76956478D01*
X11822211Y-76914130D01*
X11883428Y-76841173D01*
X11908168Y-76737608D01*
X11902299Y-76670520D01*
X11859951Y-76572824D01*
X11677559Y-76419780D01*
X11537516Y-76364431D01*
X10597032Y-76818517D02*
X11239820Y-76052472D01*
X10933730Y-76417255D02*
X10495991Y-76049948D01*
X10159292Y-76451210D02*
X10802080Y-75685165D01*
X9794509Y-76145120D02*
X10437297Y-75379076D01*
X9511076Y-75223507D02*
X9766425Y-75437770D01*
X9429726Y-75839031D02*
X10072514Y-75072986D01*
X9707731Y-74766897D01*
X9525339Y-74613852D02*
X9087600Y-74246545D01*
X8663682Y-75196243D02*
X9306469Y-74430199D01*
X228901523Y3119428D02*
X229234857Y3119428D01*
X229234857Y2595619D02*
X229234857Y3595619D01*
X228758666Y3595619D01*
X227853904Y2595619D02*
X228425333Y2595619D01*
X228139619Y2595619D02*
X228139619Y3595619D01*
X228234857Y3452761D01*
X228330095Y3357523D01*
X228425333Y3309904D01*
X227234857Y3595619D02*
X227139619Y3595619D01*
X227044380Y3548000D01*
X226996761Y3500380D01*
X226949142Y3405142D01*
X226901523Y3214666D01*
X226901523Y2976571D01*
X226949142Y2786095D01*
X226996761Y2690857D01*
X227044380Y2643238D01*
X227139619Y2595619D01*
X227234857Y2595619D01*
X227330095Y2643238D01*
X227377714Y2690857D01*
X227425333Y2786095D01*
X227472952Y2976571D01*
X227472952Y3214666D01*
X227425333Y3405142D01*
X227377714Y3500380D01*
X227330095Y3548000D01*
X227234857Y3595619D01*
X37925333Y3119428D02*
X38258666Y3119428D01*
X38258666Y2595619D02*
X38258666Y3595619D01*
X37782476Y3595619D01*
X36877714Y2595619D02*
X37449142Y2595619D01*
X37163428Y2595619D02*
X37163428Y3595619D01*
X37258666Y3452761D01*
X37353904Y3357523D01*
X37449142Y3309904D01*
X190039619Y-20216880D02*
X189944380Y-20216880D01*
X189849142Y-20264500D01*
X189801523Y-20312119D01*
X189753904Y-20407357D01*
X189706285Y-20597833D01*
X189706285Y-20835928D01*
X189753904Y-21026404D01*
X189801523Y-21121642D01*
X189849142Y-21169261D01*
X189944380Y-21216880D01*
X190039619Y-21216880D01*
X190134857Y-21169261D01*
X190182476Y-21121642D01*
X190230095Y-21026404D01*
X190277714Y-20835928D01*
X190277714Y-20597833D01*
X190230095Y-20407357D01*
X190182476Y-20312119D01*
X190134857Y-20264500D01*
X190039619Y-20216880D01*
X199778904Y-40266880D02*
X199778904Y-39266880D01*
X199397952Y-39266880D01*
X199302714Y-39314500D01*
X199255095Y-39362119D01*
X199207476Y-39457357D01*
X199207476Y-39600214D01*
X199255095Y-39695452D01*
X199302714Y-39743071D01*
X199397952Y-39790690D01*
X199778904Y-39790690D01*
X18256285Y-21216880D02*
X18827714Y-21216880D01*
X18542000Y-21216880D02*
X18542000Y-20216880D01*
X18637238Y-20359738D01*
X18732476Y-20454976D01*
X18827714Y-20502595D01*
X27686047Y-40362119D02*
X27781285Y-40314500D01*
X27876523Y-40219261D01*
X28019380Y-40076404D01*
X28114619Y-40028785D01*
X28209857Y-40028785D01*
X28162238Y-40266880D02*
X28257476Y-40219261D01*
X28352714Y-40124023D01*
X28400333Y-39933547D01*
X28400333Y-39600214D01*
X28352714Y-39409738D01*
X28257476Y-39314500D01*
X28162238Y-39266880D01*
X27971761Y-39266880D01*
X27876523Y-39314500D01*
X27781285Y-39409738D01*
X27733666Y-39600214D01*
X27733666Y-39933547D01*
X27781285Y-40124023D01*
X27876523Y-40219261D01*
X27971761Y-40266880D01*
X28162238Y-40266880D01*
X33067595Y-59031166D02*
X32591404Y-59031166D01*
X33162833Y-59316880D02*
X32829500Y-58316880D01*
X32496166Y-59316880D01*
X27481068Y-80097898D02*
X27981068Y-79231872D01*
X26986197Y-79812183D01*
X27486197Y-78946158D01*
X26908846Y-78612825D02*
X26743889Y-78517587D01*
X26637601Y-78511207D01*
X26507503Y-78546066D01*
X26371026Y-78687214D01*
X26204359Y-78975889D01*
X26150361Y-79164656D01*
X26185220Y-79294754D01*
X26243889Y-79383612D01*
X26408846Y-79478850D01*
X26515135Y-79485230D01*
X26645232Y-79450370D01*
X26781710Y-79309223D01*
X26948376Y-79020547D01*
X27002375Y-78831781D01*
X26967516Y-78701683D01*
X26908846Y-78612825D01*
X25666539Y-79050279D02*
X26166539Y-78184253D01*
X25171667Y-78764564D01*
X25671667Y-77898539D01*
X25259274Y-77660444D02*
X24854512Y-78361512D01*
X24765654Y-78420181D01*
X24700605Y-78437611D01*
X24594317Y-78431231D01*
X24429360Y-78335993D01*
X24370691Y-78247135D01*
X24353261Y-78182086D01*
X24359641Y-78075798D01*
X24764403Y-77374729D01*
X23917058Y-77985230D02*
X23769531Y-77955041D01*
X23563334Y-77835993D01*
X23504665Y-77747135D01*
X23487236Y-77682086D01*
X23493615Y-77575798D01*
X23541234Y-77493319D01*
X23630093Y-77434650D01*
X23695142Y-77417220D01*
X23801430Y-77423600D01*
X23990196Y-77477599D01*
X24096485Y-77483978D01*
X24161533Y-77466549D01*
X24250392Y-77407880D01*
X24298011Y-77325401D01*
X24304391Y-77219113D01*
X24286961Y-77154064D01*
X24228292Y-77065206D01*
X24022095Y-76946158D01*
X23874568Y-76915969D01*
X23185801Y-77727995D02*
X22525972Y-77347043D01*
X22340624Y-76525218D02*
X22193097Y-76495028D01*
X22128048Y-76512458D01*
X22039190Y-76571127D01*
X21967761Y-76694845D01*
X21961381Y-76801133D01*
X21978811Y-76866182D01*
X22037480Y-76955041D01*
X22367395Y-77145517D01*
X22867395Y-76279491D01*
X22578719Y-76112825D01*
X22472431Y-76106445D01*
X22407382Y-76123875D01*
X22318524Y-76182544D01*
X22270905Y-76265022D01*
X22264525Y-76371311D01*
X22281955Y-76436359D01*
X22340624Y-76525218D01*
X22629299Y-76691884D01*
X21566418Y-76628087D02*
X21418891Y-76597898D01*
X21212694Y-76478850D01*
X21154025Y-76389992D01*
X21136595Y-76324943D01*
X21142975Y-76218655D01*
X21190594Y-76136176D01*
X21279452Y-76077507D01*
X21344501Y-76060077D01*
X21450789Y-76066457D01*
X21639556Y-76120456D01*
X21745844Y-76126836D01*
X21810893Y-76109406D01*
X21899751Y-76050737D01*
X21947370Y-75968258D01*
X21953750Y-75861970D01*
X21936320Y-75796921D01*
X21877651Y-75708063D01*
X21671455Y-75589015D01*
X21523927Y-75558826D01*
X20264190Y-75931231D02*
X20676583Y-76169326D01*
X21176583Y-75303301D01*
X20159611Y-75540938D02*
X19747218Y-75302843D01*
X20099233Y-75835993D02*
X20310558Y-74803301D01*
X19521883Y-75502660D01*
X19298256Y-75318563D02*
X19150729Y-75288374D01*
X18944532Y-75169326D01*
X18885863Y-75080468D01*
X18868433Y-75015419D01*
X18874813Y-74909131D01*
X18922432Y-74826652D01*
X19011291Y-74767983D01*
X19076339Y-74750553D01*
X19182628Y-74756933D01*
X19371394Y-74810932D01*
X19477682Y-74817312D01*
X19542731Y-74799882D01*
X19631590Y-74741213D01*
X19679209Y-74658734D01*
X19685588Y-74552446D01*
X19668159Y-74487397D01*
X19609489Y-74398539D01*
X19403293Y-74279491D01*
X19255766Y-74249302D01*
X18408421Y-74859802D02*
X18908421Y-73993777D01*
X18670326Y-74406170D02*
X18175454Y-74120456D01*
X17913550Y-74574088D02*
X18413550Y-73708063D01*
X56975333Y3119428D02*
X57308666Y3119428D01*
X57308666Y2595619D02*
X57308666Y3595619D01*
X56832476Y3595619D01*
X56499142Y3500380D02*
X56451523Y3548000D01*
X56356285Y3595619D01*
X56118190Y3595619D01*
X56022952Y3548000D01*
X55975333Y3500380D01*
X55927714Y3405142D01*
X55927714Y3309904D01*
X55975333Y3167047D01*
X56546761Y2595619D01*
X55927714Y2595619D01*
X247951523Y3119428D02*
X248284857Y3119428D01*
X248284857Y2595619D02*
X248284857Y3595619D01*
X247808666Y3595619D01*
X246903904Y2595619D02*
X247475333Y2595619D01*
X247189619Y2595619D02*
X247189619Y3595619D01*
X247284857Y3452761D01*
X247380095Y3357523D01*
X247475333Y3309904D01*
X245951523Y2595619D02*
X246522952Y2595619D01*
X246237238Y2595619D02*
X246237238Y3595619D01*
X246332476Y3452761D01*
X246427714Y3357523D01*
X246522952Y3309904D01*
X211137238Y-21216880D02*
X211137238Y-20216880D01*
X210803904Y-20931166D01*
X210470571Y-20216880D01*
X210470571Y-21216880D01*
X209994380Y-21216880D02*
X209994380Y-20216880D01*
X209518190Y-21216880D02*
X209518190Y-20216880D01*
X208946761Y-21216880D01*
X208946761Y-20216880D01*
X208470571Y-20216880D02*
X208470571Y-21026404D01*
X208422952Y-21121642D01*
X208375333Y-21169261D01*
X208280095Y-21216880D01*
X208089619Y-21216880D01*
X207994380Y-21169261D01*
X207946761Y-21121642D01*
X207899142Y-21026404D01*
X207899142Y-20216880D01*
X207470571Y-21169261D02*
X207327714Y-21216880D01*
X207089619Y-21216880D01*
X206994380Y-21169261D01*
X206946761Y-21121642D01*
X206899142Y-21026404D01*
X206899142Y-20931166D01*
X206946761Y-20835928D01*
X206994380Y-20788309D01*
X207089619Y-20740690D01*
X207280095Y-20693071D01*
X207375333Y-20645452D01*
X207422952Y-20597833D01*
X207470571Y-20502595D01*
X207470571Y-20407357D01*
X207422952Y-20312119D01*
X207375333Y-20264500D01*
X207280095Y-20216880D01*
X207042000Y-20216880D01*
X206899142Y-20264500D01*
X219757476Y-40266880D02*
X220233666Y-40266880D01*
X220233666Y-39266880D01*
X219090809Y-39743071D02*
X218947952Y-39790690D01*
X218900333Y-39838309D01*
X218852714Y-39933547D01*
X218852714Y-40076404D01*
X218900333Y-40171642D01*
X218947952Y-40219261D01*
X219043190Y-40266880D01*
X219424142Y-40266880D01*
X219424142Y-39266880D01*
X219090809Y-39266880D01*
X218995571Y-39314500D01*
X218947952Y-39362119D01*
X218900333Y-39457357D01*
X218900333Y-39552595D01*
X218947952Y-39647833D01*
X218995571Y-39695452D01*
X219090809Y-39743071D01*
X219424142Y-39743071D01*
X217852714Y-40266880D02*
X218186047Y-39790690D01*
X218424142Y-40266880D02*
X218424142Y-39266880D01*
X218043190Y-39266880D01*
X217947952Y-39314500D01*
X217900333Y-39362119D01*
X217852714Y-39457357D01*
X217852714Y-39600214D01*
X217900333Y-39695452D01*
X217947952Y-39743071D01*
X218043190Y-39790690D01*
X218424142Y-39790690D01*
X216852714Y-40171642D02*
X216900333Y-40219261D01*
X217043190Y-40266880D01*
X217138428Y-40266880D01*
X217281285Y-40219261D01*
X217376523Y-40124023D01*
X217424142Y-40028785D01*
X217471761Y-39838309D01*
X217471761Y-39695452D01*
X217424142Y-39504976D01*
X217376523Y-39409738D01*
X217281285Y-39314500D01*
X217138428Y-39266880D01*
X217043190Y-39266880D01*
X216900333Y-39314500D01*
X216852714Y-39362119D01*
X37877714Y-20312119D02*
X37830095Y-20264500D01*
X37734857Y-20216880D01*
X37496761Y-20216880D01*
X37401523Y-20264500D01*
X37353904Y-20312119D01*
X37306285Y-20407357D01*
X37306285Y-20502595D01*
X37353904Y-20645452D01*
X37925333Y-21216880D01*
X37306285Y-21216880D01*
X47545571Y-39266880D02*
X47307476Y-40266880D01*
X47117000Y-39552595D01*
X46926523Y-40266880D01*
X46688428Y-39266880D01*
X52165214Y-59269261D02*
X52022357Y-59316880D01*
X51784261Y-59316880D01*
X51689023Y-59269261D01*
X51641404Y-59221642D01*
X51593785Y-59126404D01*
X51593785Y-59031166D01*
X51641404Y-58935928D01*
X51689023Y-58888309D01*
X51784261Y-58840690D01*
X51974738Y-58793071D01*
X52069976Y-58745452D01*
X52117595Y-58697833D01*
X52165214Y-58602595D01*
X52165214Y-58507357D01*
X52117595Y-58412119D01*
X52069976Y-58364500D01*
X51974738Y-58316880D01*
X51736642Y-58316880D01*
X51593785Y-58364500D01*
X42687833Y-77366880D02*
X42021166Y-77366880D01*
X42687833Y-78366880D01*
X42021166Y-78366880D01*
X76025333Y3119428D02*
X76358666Y3119428D01*
X76358666Y2595619D02*
X76358666Y3595619D01*
X75882476Y3595619D01*
X75596761Y3595619D02*
X74977714Y3595619D01*
X75311047Y3214666D01*
X75168190Y3214666D01*
X75072952Y3167047D01*
X75025333Y3119428D01*
X74977714Y3024190D01*
X74977714Y2786095D01*
X75025333Y2690857D01*
X75072952Y2643238D01*
X75168190Y2595619D01*
X75453904Y2595619D01*
X75549142Y2643238D01*
X75596761Y2690857D01*
X49106294Y-95135960D02*
X49582484Y-95135960D01*
X49582484Y-94135960D01*
X49011056Y-95231199D02*
X48249151Y-95231199D01*
X48058675Y-94850246D02*
X47582484Y-94850246D01*
X48153913Y-95135960D02*
X47820580Y-94135960D01*
X47487246Y-95135960D01*
X46677722Y-95135960D02*
X47153913Y-95135960D01*
X47153913Y-94135960D01*
X46487246Y-94135960D02*
X45915818Y-94135960D01*
X46201532Y-95135960D02*
X46201532Y-94135960D01*
X267001523Y3119428D02*
X267334857Y3119428D01*
X267334857Y2595619D02*
X267334857Y3595619D01*
X266858666Y3595619D01*
X265953904Y2595619D02*
X266525333Y2595619D01*
X266239619Y2595619D02*
X266239619Y3595619D01*
X266334857Y3452761D01*
X266430095Y3357523D01*
X266525333Y3309904D01*
X265572952Y3500380D02*
X265525333Y3548000D01*
X265430095Y3595619D01*
X265192000Y3595619D01*
X265096761Y3548000D01*
X265049142Y3500380D01*
X265001523Y3405142D01*
X265001523Y3309904D01*
X265049142Y3167047D01*
X265620571Y2595619D01*
X265001523Y2595619D01*
X230187238Y-20693071D02*
X229853904Y-20693071D01*
X229711047Y-21216880D02*
X230187238Y-21216880D01*
X230187238Y-20216880D01*
X229711047Y-20216880D01*
X228615809Y-21312119D02*
X228711047Y-21264500D01*
X228806285Y-21169261D01*
X228949142Y-21026404D01*
X229044380Y-20978785D01*
X229139619Y-20978785D01*
X229092000Y-21216880D02*
X229187238Y-21169261D01*
X229282476Y-21074023D01*
X229330095Y-20883547D01*
X229330095Y-20550214D01*
X229282476Y-20359738D01*
X229187238Y-20264500D01*
X229092000Y-20216880D01*
X228901523Y-20216880D01*
X228806285Y-20264500D01*
X228711047Y-20359738D01*
X228663428Y-20550214D01*
X228663428Y-20883547D01*
X228711047Y-21074023D01*
X228806285Y-21169261D01*
X228901523Y-21216880D01*
X229092000Y-21216880D01*
X228234857Y-20216880D02*
X228234857Y-21026404D01*
X228187238Y-21121642D01*
X228139619Y-21169261D01*
X228044380Y-21216880D01*
X227853904Y-21216880D01*
X227758666Y-21169261D01*
X227711047Y-21121642D01*
X227663428Y-21026404D01*
X227663428Y-20216880D01*
X227234857Y-20931166D02*
X226758666Y-20931166D01*
X227330095Y-21216880D02*
X226996761Y-20216880D01*
X226663428Y-21216880D01*
X225853904Y-21216880D02*
X226330095Y-21216880D01*
X226330095Y-20216880D01*
X238807476Y-40266880D02*
X239140809Y-39790690D01*
X239378904Y-40266880D02*
X239378904Y-39266880D01*
X238997952Y-39266880D01*
X238902714Y-39314500D01*
X238855095Y-39362119D01*
X238807476Y-39457357D01*
X238807476Y-39600214D01*
X238855095Y-39695452D01*
X238902714Y-39743071D01*
X238997952Y-39790690D01*
X239378904Y-39790690D01*
X238045571Y-39743071D02*
X237902714Y-39790690D01*
X237855095Y-39838309D01*
X237807476Y-39933547D01*
X237807476Y-40076404D01*
X237855095Y-40171642D01*
X237902714Y-40219261D01*
X237997952Y-40266880D01*
X238378904Y-40266880D01*
X238378904Y-39266880D01*
X238045571Y-39266880D01*
X237950333Y-39314500D01*
X237902714Y-39362119D01*
X237855095Y-39457357D01*
X237855095Y-39552595D01*
X237902714Y-39647833D01*
X237950333Y-39695452D01*
X238045571Y-39743071D01*
X238378904Y-39743071D01*
X236807476Y-40266880D02*
X237140809Y-39790690D01*
X237378904Y-40266880D02*
X237378904Y-39266880D01*
X236997952Y-39266880D01*
X236902714Y-39314500D01*
X236855095Y-39362119D01*
X236807476Y-39457357D01*
X236807476Y-39600214D01*
X236855095Y-39695452D01*
X236902714Y-39743071D01*
X236997952Y-39790690D01*
X237378904Y-39790690D01*
X235807476Y-40171642D02*
X235855095Y-40219261D01*
X235997952Y-40266880D01*
X236093190Y-40266880D01*
X236236047Y-40219261D01*
X236331285Y-40124023D01*
X236378904Y-40028785D01*
X236426523Y-39838309D01*
X236426523Y-39695452D01*
X236378904Y-39504976D01*
X236331285Y-39409738D01*
X236236047Y-39314500D01*
X236093190Y-39266880D01*
X235997952Y-39266880D01*
X235855095Y-39314500D01*
X235807476Y-39362119D01*
X56975333Y-20216880D02*
X56356285Y-20216880D01*
X56689619Y-20597833D01*
X56546761Y-20597833D01*
X56451523Y-20645452D01*
X56403904Y-20693071D01*
X56356285Y-20788309D01*
X56356285Y-21026404D01*
X56403904Y-21121642D01*
X56451523Y-21169261D01*
X56546761Y-21216880D01*
X56832476Y-21216880D01*
X56927714Y-21169261D01*
X56975333Y-21121642D01*
X66381285Y-39743071D02*
X66047952Y-39743071D01*
X65905095Y-40266880D02*
X66381285Y-40266880D01*
X66381285Y-39266880D01*
X65905095Y-39266880D01*
X71191404Y-59316880D02*
X71191404Y-58316880D01*
X70953309Y-58316880D01*
X70810452Y-58364500D01*
X70715214Y-58459738D01*
X70667595Y-58554976D01*
X70619976Y-58745452D01*
X70619976Y-58888309D01*
X70667595Y-59078785D01*
X70715214Y-59174023D01*
X70810452Y-59269261D01*
X70953309Y-59316880D01*
X71191404Y-59316880D01*
X95075333Y3119428D02*
X95408666Y3119428D01*
X95408666Y2595619D02*
X95408666Y3595619D01*
X94932476Y3595619D01*
X94122952Y3262285D02*
X94122952Y2595619D01*
X94361047Y3643238D02*
X94599142Y2928952D01*
X93980095Y2928952D01*
X61737833Y-77366880D02*
X61071166Y-78366880D01*
X61071166Y-77366880D02*
X61737833Y-78366880D01*
X135008666Y-97369261D02*
X134865809Y-97416880D01*
X134627714Y-97416880D01*
X134532476Y-97369261D01*
X134484857Y-97321642D01*
X134437238Y-97226404D01*
X134437238Y-97131166D01*
X134484857Y-97035928D01*
X134532476Y-96988309D01*
X134627714Y-96940690D01*
X134818190Y-96893071D01*
X134913428Y-96845452D01*
X134961047Y-96797833D01*
X135008666Y-96702595D01*
X135008666Y-96607357D01*
X134961047Y-96512119D01*
X134913428Y-96464500D01*
X134818190Y-96416880D01*
X134580095Y-96416880D01*
X134437238Y-96464500D01*
X134008666Y-97416880D02*
X134008666Y-96416880D01*
X133627714Y-96416880D01*
X133532476Y-96464500D01*
X133484857Y-96512119D01*
X133437238Y-96607357D01*
X133437238Y-96750214D01*
X133484857Y-96845452D01*
X133532476Y-96893071D01*
X133627714Y-96940690D01*
X134008666Y-96940690D01*
X133056285Y-97131166D02*
X132580095Y-97131166D01*
X133151523Y-97416880D02*
X132818190Y-96416880D01*
X132484857Y-97416880D01*
X131580095Y-97321642D02*
X131627714Y-97369261D01*
X131770571Y-97416880D01*
X131865809Y-97416880D01*
X132008666Y-97369261D01*
X132103904Y-97274023D01*
X132151523Y-97178785D01*
X132199142Y-96988309D01*
X132199142Y-96845452D01*
X132151523Y-96654976D01*
X132103904Y-96559738D01*
X132008666Y-96464500D01*
X131865809Y-96416880D01*
X131770571Y-96416880D01*
X131627714Y-96464500D01*
X131580095Y-96512119D01*
X131151523Y-96893071D02*
X130818190Y-96893071D01*
X130675333Y-97416880D02*
X131151523Y-97416880D01*
X131151523Y-96416880D01*
X130675333Y-96416880D01*
X291742595Y2595619D02*
X291742595Y3595619D01*
X291361642Y3595619D01*
X291266404Y3548000D01*
X291218785Y3500380D01*
X291171166Y3405142D01*
X291171166Y3262285D01*
X291218785Y3167047D01*
X291266404Y3119428D01*
X291361642Y3071809D01*
X291742595Y3071809D01*
X290790214Y2643238D02*
X290647357Y2595619D01*
X290409261Y2595619D01*
X290314023Y2643238D01*
X290266404Y2690857D01*
X290218785Y2786095D01*
X290218785Y2881333D01*
X290266404Y2976571D01*
X290314023Y3024190D01*
X290409261Y3071809D01*
X290599738Y3119428D01*
X290694976Y3167047D01*
X290742595Y3214666D01*
X290790214Y3309904D01*
X290790214Y3405142D01*
X290742595Y3500380D01*
X290694976Y3548000D01*
X290599738Y3595619D01*
X290361642Y3595619D01*
X290218785Y3548000D01*
X289218785Y2690857D02*
X289266404Y2643238D01*
X289409261Y2595619D01*
X289504500Y2595619D01*
X289647357Y2643238D01*
X289742595Y2738476D01*
X289790214Y2833714D01*
X289837833Y3024190D01*
X289837833Y3167047D01*
X289790214Y3357523D01*
X289742595Y3452761D01*
X289647357Y3548000D01*
X289504500Y3595619D01*
X289409261Y3595619D01*
X289266404Y3548000D01*
X289218785Y3500380D01*
X288218785Y2595619D02*
X288552119Y3071809D01*
X288790214Y2595619D02*
X288790214Y3595619D01*
X288409261Y3595619D01*
X288314023Y3548000D01*
X288266404Y3500380D01*
X288218785Y3405142D01*
X288218785Y3262285D01*
X288266404Y3167047D01*
X288314023Y3119428D01*
X288409261Y3071809D01*
X288790214Y3071809D01*
X256677918Y-16227751D02*
X256535060Y-16275370D01*
X256487441Y-16322989D01*
X256439822Y-16418227D01*
X256439822Y-16561084D01*
X256487441Y-16656322D01*
X256535060Y-16703941D01*
X256630299Y-16751560D01*
X257011251Y-16751560D01*
X257011251Y-15751560D01*
X256677918Y-15751560D01*
X256582680Y-15799180D01*
X256535060Y-15846799D01*
X256487441Y-15942037D01*
X256487441Y-16037275D01*
X256535060Y-16132513D01*
X256582680Y-16180132D01*
X256677918Y-16227751D01*
X257011251Y-16227751D01*
X256058870Y-16465846D02*
X255582680Y-16465846D01*
X256154108Y-16751560D02*
X255820775Y-15751560D01*
X255487441Y-16751560D01*
X254582680Y-16656322D02*
X254630299Y-16703941D01*
X254773156Y-16751560D01*
X254868394Y-16751560D01*
X255011251Y-16703941D01*
X255106489Y-16608703D01*
X255154108Y-16513465D01*
X255201727Y-16322989D01*
X255201727Y-16180132D01*
X255154108Y-15989656D01*
X255106489Y-15894418D01*
X255011251Y-15799180D01*
X254868394Y-15751560D01*
X254773156Y-15751560D01*
X254630299Y-15799180D01*
X254582680Y-15846799D01*
X254154108Y-16751560D02*
X254154108Y-15751560D01*
X253582680Y-16751560D02*
X254011251Y-16180132D01*
X253582680Y-15751560D02*
X254154108Y-16322989D01*
X252439822Y-16703941D02*
X252296965Y-16751560D01*
X252058870Y-16751560D01*
X251963632Y-16703941D01*
X251916013Y-16656322D01*
X251868394Y-16561084D01*
X251868394Y-16465846D01*
X251916013Y-16370608D01*
X251963632Y-16322989D01*
X252058870Y-16275370D01*
X252249346Y-16227751D01*
X252344584Y-16180132D01*
X252392203Y-16132513D01*
X252439822Y-16037275D01*
X252439822Y-15942037D01*
X252392203Y-15846799D01*
X252344584Y-15799180D01*
X252249346Y-15751560D01*
X252011251Y-15751560D01*
X251868394Y-15799180D01*
X251439822Y-16751560D02*
X251439822Y-15751560D01*
X251058870Y-15751560D01*
X250963632Y-15799180D01*
X250916013Y-15846799D01*
X250868394Y-15942037D01*
X250868394Y-16084894D01*
X250916013Y-16180132D01*
X250963632Y-16227751D01*
X251058870Y-16275370D01*
X251439822Y-16275370D01*
X250487441Y-16465846D02*
X250011251Y-16465846D01*
X250582680Y-16751560D02*
X250249346Y-15751560D01*
X249916013Y-16751560D01*
X249011251Y-16656322D02*
X249058870Y-16703941D01*
X249201727Y-16751560D01*
X249296965Y-16751560D01*
X249439822Y-16703941D01*
X249535060Y-16608703D01*
X249582680Y-16513465D01*
X249630299Y-16322989D01*
X249630299Y-16180132D01*
X249582680Y-15989656D01*
X249535060Y-15894418D01*
X249439822Y-15799180D01*
X249296965Y-15751560D01*
X249201727Y-15751560D01*
X249058870Y-15799180D01*
X249011251Y-15846799D01*
X248582680Y-16227751D02*
X248249346Y-16227751D01*
X248106489Y-16751560D02*
X248582680Y-16751560D01*
X248582680Y-15751560D01*
X248106489Y-15751560D01*
X262715214Y-39743071D02*
X262572357Y-39790690D01*
X262524738Y-39838309D01*
X262477119Y-39933547D01*
X262477119Y-40076404D01*
X262524738Y-40171642D01*
X262572357Y-40219261D01*
X262667595Y-40266880D01*
X263048547Y-40266880D01*
X263048547Y-39266880D01*
X262715214Y-39266880D01*
X262619976Y-39314500D01*
X262572357Y-39362119D01*
X262524738Y-39457357D01*
X262524738Y-39552595D01*
X262572357Y-39647833D01*
X262619976Y-39695452D01*
X262715214Y-39743071D01*
X263048547Y-39743071D01*
X262096166Y-40219261D02*
X261953309Y-40266880D01*
X261715214Y-40266880D01*
X261619976Y-40219261D01*
X261572357Y-40171642D01*
X261524738Y-40076404D01*
X261524738Y-39981166D01*
X261572357Y-39885928D01*
X261619976Y-39838309D01*
X261715214Y-39790690D01*
X261905690Y-39743071D01*
X262000928Y-39695452D01*
X262048547Y-39647833D01*
X262096166Y-39552595D01*
X262096166Y-39457357D01*
X262048547Y-39362119D01*
X262000928Y-39314500D01*
X261905690Y-39266880D01*
X261667595Y-39266880D01*
X261524738Y-39314500D01*
X260619976Y-40266880D02*
X261096166Y-40266880D01*
X261096166Y-39266880D01*
X260334261Y-40219261D02*
X260191404Y-40266880D01*
X259953309Y-40266880D01*
X259858071Y-40219261D01*
X259810452Y-40171642D01*
X259762833Y-40076404D01*
X259762833Y-39981166D01*
X259810452Y-39885928D01*
X259858071Y-39838309D01*
X259953309Y-39790690D01*
X260143785Y-39743071D01*
X260239023Y-39695452D01*
X260286642Y-39647833D01*
X260334261Y-39552595D01*
X260334261Y-39457357D01*
X260286642Y-39362119D01*
X260239023Y-39314500D01*
X260143785Y-39266880D01*
X259905690Y-39266880D01*
X259762833Y-39314500D01*
X75501523Y-20550214D02*
X75501523Y-21216880D01*
X75739619Y-20169261D02*
X75977714Y-20883547D01*
X75358666Y-20883547D01*
X84907476Y-40266880D02*
X85240809Y-39790690D01*
X85478904Y-40266880D02*
X85478904Y-39266880D01*
X85097952Y-39266880D01*
X85002714Y-39314500D01*
X84955095Y-39362119D01*
X84907476Y-39457357D01*
X84907476Y-39600214D01*
X84955095Y-39695452D01*
X85002714Y-39743071D01*
X85097952Y-39790690D01*
X85478904Y-39790690D01*
X180800333Y3119428D02*
X181133666Y3119428D01*
X181133666Y2595619D02*
X181133666Y3595619D01*
X180657476Y3595619D01*
X180133666Y3167047D02*
X180228904Y3214666D01*
X180276523Y3262285D01*
X180324142Y3357523D01*
X180324142Y3405142D01*
X180276523Y3500380D01*
X180228904Y3548000D01*
X180133666Y3595619D01*
X179943190Y3595619D01*
X179847952Y3548000D01*
X179800333Y3500380D01*
X179752714Y3405142D01*
X179752714Y3357523D01*
X179800333Y3262285D01*
X179847952Y3214666D01*
X179943190Y3167047D01*
X180133666Y3167047D01*
X180228904Y3119428D01*
X180276523Y3071809D01*
X180324142Y2976571D01*
X180324142Y2786095D01*
X180276523Y2690857D01*
X180228904Y2643238D01*
X180133666Y2595619D01*
X179943190Y2595619D01*
X179847952Y2643238D01*
X179800333Y2690857D01*
X179752714Y2786095D01*
X179752714Y2976571D01*
X179800333Y3071809D01*
X179847952Y3119428D01*
X179943190Y3167047D01*
X89836642Y-58793071D02*
X90169976Y-58793071D01*
X90169976Y-59316880D02*
X90169976Y-58316880D01*
X89693785Y-58316880D01*
X80144976Y-78271642D02*
X80192595Y-78319261D01*
X80335452Y-78366880D01*
X80430690Y-78366880D01*
X80573547Y-78319261D01*
X80668785Y-78224023D01*
X80716404Y-78128785D01*
X80764023Y-77938309D01*
X80764023Y-77795452D01*
X80716404Y-77604976D01*
X80668785Y-77509738D01*
X80573547Y-77414500D01*
X80430690Y-77366880D01*
X80335452Y-77366880D01*
X80192595Y-77414500D01*
X80144976Y-77462119D01*
X193658964Y-97416880D02*
X193992297Y-96940690D01*
X194230392Y-97416880D02*
X194230392Y-96416880D01*
X193849440Y-96416880D01*
X193754202Y-96464500D01*
X193706583Y-96512119D01*
X193658964Y-96607357D01*
X193658964Y-96750214D01*
X193706583Y-96845452D01*
X193754202Y-96893071D01*
X193849440Y-96940690D01*
X194230392Y-96940690D01*
X193468488Y-97512119D02*
X192706583Y-97512119D01*
X192516107Y-97131166D02*
X192039916Y-97131166D01*
X192611345Y-97416880D02*
X192278011Y-96416880D01*
X191944678Y-97416880D01*
X191135154Y-97416880D02*
X191611345Y-97416880D01*
X191611345Y-96416880D01*
X190944678Y-96416880D02*
X190373250Y-96416880D01*
X190658964Y-97416880D02*
X190658964Y-96416880D01*
X310744976Y2643238D02*
X310602119Y2595619D01*
X310364023Y2595619D01*
X310268785Y2643238D01*
X310221166Y2690857D01*
X310173547Y2786095D01*
X310173547Y2881333D01*
X310221166Y2976571D01*
X310268785Y3024190D01*
X310364023Y3071809D01*
X310554500Y3119428D01*
X310649738Y3167047D01*
X310697357Y3214666D01*
X310744976Y3309904D01*
X310744976Y3405142D01*
X310697357Y3500380D01*
X310649738Y3548000D01*
X310554500Y3595619D01*
X310316404Y3595619D01*
X310173547Y3548000D01*
X309268785Y2595619D02*
X309744976Y2595619D01*
X309744976Y3595619D01*
X308364023Y2690857D02*
X308411642Y2643238D01*
X308554500Y2595619D01*
X308649738Y2595619D01*
X308792595Y2643238D01*
X308887833Y2738476D01*
X308935452Y2833714D01*
X308983071Y3024190D01*
X308983071Y3167047D01*
X308935452Y3357523D01*
X308887833Y3452761D01*
X308792595Y3548000D01*
X308649738Y3595619D01*
X308554500Y3595619D01*
X308411642Y3548000D01*
X308364023Y3500380D01*
X307935452Y2595619D02*
X307935452Y3595619D01*
X307364023Y2595619D02*
X307792595Y3167047D01*
X307364023Y3595619D02*
X307935452Y3024190D01*
X291004500Y-21216880D02*
X291004500Y-20216880D01*
X290528309Y-21216880D02*
X290528309Y-20216880D01*
X289956880Y-21216880D01*
X289956880Y-20216880D01*
X289528309Y-21169261D02*
X289385452Y-21216880D01*
X289147357Y-21216880D01*
X289052119Y-21169261D01*
X289004500Y-21121642D01*
X288956880Y-21026404D01*
X288956880Y-20931166D01*
X289004500Y-20835928D01*
X289052119Y-20788309D01*
X289147357Y-20740690D01*
X289337833Y-20693071D01*
X289433071Y-20645452D01*
X289480690Y-20597833D01*
X289528309Y-20502595D01*
X289528309Y-20407357D01*
X289480690Y-20312119D01*
X289433071Y-20264500D01*
X289337833Y-20216880D01*
X289099738Y-20216880D01*
X288956880Y-20264500D01*
X255426268Y-56834731D02*
X255092935Y-56834731D01*
X254950078Y-57358540D02*
X255426268Y-57358540D01*
X255426268Y-56358540D01*
X254950078Y-56358540D01*
X254521506Y-57358540D02*
X254521506Y-56358540D01*
X253950078Y-57358540D01*
X253950078Y-56358540D01*
X253616744Y-56358540D02*
X253045316Y-56358540D01*
X253331030Y-57358540D02*
X253331030Y-56358540D01*
X252711982Y-56834731D02*
X252378649Y-56834731D01*
X252235792Y-57358540D02*
X252711982Y-57358540D01*
X252711982Y-56358540D01*
X252235792Y-56358540D01*
X251235792Y-57358540D02*
X251569125Y-56882350D01*
X251807220Y-57358540D02*
X251807220Y-56358540D01*
X251426268Y-56358540D01*
X251331030Y-56406160D01*
X251283411Y-56453779D01*
X251235792Y-56549017D01*
X251235792Y-56691874D01*
X251283411Y-56787112D01*
X251331030Y-56834731D01*
X251426268Y-56882350D01*
X251807220Y-56882350D01*
X94503904Y-20216880D02*
X94980095Y-20216880D01*
X95027714Y-20693071D01*
X94980095Y-20645452D01*
X94884857Y-20597833D01*
X94646761Y-20597833D01*
X94551523Y-20645452D01*
X94503904Y-20693071D01*
X94456285Y-20788309D01*
X94456285Y-21026404D01*
X94503904Y-21121642D01*
X94551523Y-21169261D01*
X94646761Y-21216880D01*
X94884857Y-21216880D01*
X94980095Y-21169261D01*
X95027714Y-21121642D01*
X123650333Y3119428D02*
X123983666Y3119428D01*
X123983666Y2595619D02*
X123983666Y3595619D01*
X123507476Y3595619D01*
X122650333Y3595619D02*
X123126523Y3595619D01*
X123174142Y3119428D01*
X123126523Y3167047D01*
X123031285Y3214666D01*
X122793190Y3214666D01*
X122697952Y3167047D01*
X122650333Y3119428D01*
X122602714Y3024190D01*
X122602714Y2786095D01*
X122650333Y2690857D01*
X122697952Y2643238D01*
X122793190Y2595619D01*
X123031285Y2595619D01*
X123126523Y2643238D01*
X123174142Y2690857D01*
X104552714Y-39266880D02*
X103981285Y-39266880D01*
X104267000Y-40266880D02*
X104267000Y-39266880D01*
X108767595Y-58364500D02*
X108862833Y-58316880D01*
X109005690Y-58316880D01*
X109148547Y-58364500D01*
X109243785Y-58459738D01*
X109291404Y-58554976D01*
X109339023Y-58745452D01*
X109339023Y-58888309D01*
X109291404Y-59078785D01*
X109243785Y-59174023D01*
X109148547Y-59269261D01*
X109005690Y-59316880D01*
X108910452Y-59316880D01*
X108767595Y-59269261D01*
X108719976Y-59221642D01*
X108719976Y-58888309D01*
X108910452Y-58888309D01*
X99837833Y-77366880D02*
X99504500Y-78366880D01*
X99171166Y-77366880D01*
X214185452Y-96893071D02*
X214518785Y-96893071D01*
X214518785Y-97416880D02*
X214518785Y-96416880D01*
X214042595Y-96416880D01*
X213661642Y-97416880D02*
X213661642Y-96416880D01*
X213090214Y-97416880D01*
X213090214Y-96416880D01*
X329794976Y2595619D02*
X329794976Y3595619D01*
X329414023Y3595619D01*
X329318785Y3548000D01*
X329271166Y3500380D01*
X329223547Y3405142D01*
X329223547Y3262285D01*
X329271166Y3167047D01*
X329318785Y3119428D01*
X329414023Y3071809D01*
X329794976Y3071809D01*
X328842595Y2881333D02*
X328366404Y2881333D01*
X328937833Y2595619D02*
X328604500Y3595619D01*
X328271166Y2595619D01*
X327937833Y3595619D02*
X327937833Y2786095D01*
X327890214Y2690857D01*
X327842595Y2643238D01*
X327747357Y2595619D01*
X327556880Y2595619D01*
X327461642Y2643238D01*
X327414023Y2690857D01*
X327366404Y2786095D01*
X327366404Y3595619D01*
X326937833Y2643238D02*
X326794976Y2595619D01*
X326556880Y2595619D01*
X326461642Y2643238D01*
X326414023Y2690857D01*
X326366404Y2786095D01*
X326366404Y2881333D01*
X326414023Y2976571D01*
X326461642Y3024190D01*
X326556880Y3071809D01*
X326747357Y3119428D01*
X326842595Y3167047D01*
X326890214Y3214666D01*
X326937833Y3309904D01*
X326937833Y3405142D01*
X326890214Y3500380D01*
X326842595Y3548000D01*
X326747357Y3595619D01*
X326509261Y3595619D01*
X326366404Y3548000D01*
X310887833Y-21216880D02*
X310887833Y-20216880D01*
X310887833Y-20693071D02*
X310316404Y-20693071D01*
X310316404Y-21216880D02*
X310316404Y-20216880D01*
X309649738Y-20216880D02*
X309459261Y-20216880D01*
X309364023Y-20264500D01*
X309268785Y-20359738D01*
X309221166Y-20550214D01*
X309221166Y-20883547D01*
X309268785Y-21074023D01*
X309364023Y-21169261D01*
X309459261Y-21216880D01*
X309649738Y-21216880D01*
X309744976Y-21169261D01*
X309840214Y-21074023D01*
X309887833Y-20883547D01*
X309887833Y-20550214D01*
X309840214Y-20359738D01*
X309744976Y-20264500D01*
X309649738Y-20216880D01*
X308792595Y-21216880D02*
X308792595Y-20216880D01*
X308459261Y-20931166D01*
X308125928Y-20216880D01*
X308125928Y-21216880D01*
X307649738Y-20693071D02*
X307316404Y-20693071D01*
X307173547Y-21216880D02*
X307649738Y-21216880D01*
X307649738Y-20216880D01*
X307173547Y-20216880D01*
X246161741Y-60870786D02*
X246661741Y-60004761D01*
X245666869Y-60585072D01*
X246166869Y-59719047D01*
X245589519Y-59385713D02*
X245424562Y-59290475D01*
X245318274Y-59284095D01*
X245188176Y-59318955D01*
X245051699Y-59460103D01*
X244885032Y-59748778D01*
X244831033Y-59937545D01*
X244865893Y-60067642D01*
X244924562Y-60156501D01*
X245089519Y-60251739D01*
X245195807Y-60258118D01*
X245325905Y-60223259D01*
X245462382Y-60082111D01*
X245629049Y-59793436D01*
X245683048Y-59604669D01*
X245648188Y-59474572D01*
X245589519Y-59385713D01*
X244347211Y-59823167D02*
X244847211Y-58957142D01*
X243852340Y-59537453D01*
X244352340Y-58671427D01*
X243939947Y-58433332D02*
X243535185Y-59134400D01*
X243446327Y-59193070D01*
X243381278Y-59210499D01*
X243274990Y-59204120D01*
X243110032Y-59108881D01*
X243051363Y-59020023D01*
X243033933Y-58954974D01*
X243040313Y-58848686D01*
X243445075Y-58147618D01*
X242597731Y-58758118D02*
X242450203Y-58727929D01*
X242244007Y-58608881D01*
X242185338Y-58520023D01*
X242167908Y-58454974D01*
X242174288Y-58348686D01*
X242221907Y-58266208D01*
X242310765Y-58207538D01*
X242375814Y-58190109D01*
X242482102Y-58196488D01*
X242670869Y-58250487D01*
X242777157Y-58256867D01*
X242842206Y-58239437D01*
X242931064Y-58180768D01*
X242978683Y-58098289D01*
X242985063Y-57992001D01*
X242967633Y-57926953D01*
X242908964Y-57838094D01*
X242702768Y-57719047D01*
X242555240Y-57688857D01*
X241866473Y-58500884D02*
X241206645Y-58119932D01*
X241048067Y-57918405D02*
X241548067Y-57052380D01*
X241309972Y-57464773D02*
X240815100Y-57179059D01*
X240553195Y-57632691D02*
X241053195Y-56766666D01*
X240324899Y-57170969D02*
X239912506Y-56932874D01*
X240264520Y-57466024D02*
X240475845Y-56433332D01*
X239687170Y-57132691D01*
X239463544Y-56948595D02*
X239316016Y-56918405D01*
X239109820Y-56799358D01*
X239051151Y-56710499D01*
X239033721Y-56645450D01*
X239040101Y-56539162D01*
X239087720Y-56456684D01*
X239176578Y-56398015D01*
X239241627Y-56380585D01*
X239347915Y-56386965D01*
X239536682Y-56440963D01*
X239642970Y-56447343D01*
X239708019Y-56429913D01*
X239796877Y-56371244D01*
X239844496Y-56288766D01*
X239850876Y-56182478D01*
X239833446Y-56117429D01*
X239774777Y-56028570D01*
X239568580Y-55909523D01*
X239421053Y-55879333D01*
X238573709Y-56489834D02*
X239073709Y-55623808D01*
X238835614Y-56036201D02*
X238340742Y-55750487D01*
X238078837Y-56204120D02*
X238578837Y-55338094D01*
D13*
X268832052Y-21903705D02*
X268764709Y-21870033D01*
X268731037Y-21870033D01*
X268680530Y-21886869D01*
X268630022Y-21937377D01*
X268613186Y-21987884D01*
X268613186Y-22021556D01*
X268630022Y-22072064D01*
X268764709Y-22206751D01*
X269118262Y-21853197D01*
X269000411Y-21735346D01*
X268949904Y-21718510D01*
X268916232Y-21718510D01*
X268865724Y-21735346D01*
X268832052Y-21769018D01*
X268815217Y-21819525D01*
X268815217Y-21853197D01*
X268832052Y-21903705D01*
X268949904Y-22021556D01*
X268529007Y-21769018D02*
X268360648Y-21600659D01*
X268461663Y-21903705D02*
X268697365Y-21432300D01*
X268225961Y-21668003D01*
X267939751Y-21314449D02*
X267939751Y-21348121D01*
X267973423Y-21415464D01*
X268007095Y-21449136D01*
X268074438Y-21482808D01*
X268141782Y-21482808D01*
X268192289Y-21465972D01*
X268276469Y-21415464D01*
X268326976Y-21364957D01*
X268377484Y-21280777D01*
X268394320Y-21230270D01*
X268394320Y-21162926D01*
X268360648Y-21095583D01*
X268326976Y-21061911D01*
X268259633Y-21028239D01*
X268225961Y-21028239D01*
X267754556Y-21196598D02*
X268108110Y-20843045D01*
X267552526Y-20994567D02*
X267906079Y-20944060D01*
X267906079Y-20641014D02*
X267906079Y-21045075D01*
X267165301Y-20573671D02*
X267097957Y-20539999D01*
X267013778Y-20455819D01*
X266996942Y-20405312D01*
X266996942Y-20371640D01*
X267013778Y-20321132D01*
X267047450Y-20287461D01*
X267097957Y-20270625D01*
X267131629Y-20270625D01*
X267182137Y-20287461D01*
X267266316Y-20337968D01*
X267316824Y-20354804D01*
X267350495Y-20354804D01*
X267401003Y-20337968D01*
X267434675Y-20304297D01*
X267451511Y-20253789D01*
X267451511Y-20220117D01*
X267434675Y-20169610D01*
X267350495Y-20085430D01*
X267283152Y-20051758D01*
X266794911Y-20236953D02*
X267148465Y-19883400D01*
X267013778Y-19748713D01*
X266963270Y-19731877D01*
X266929598Y-19731877D01*
X266879091Y-19748713D01*
X266828583Y-19799220D01*
X266811747Y-19849728D01*
X266811747Y-19883400D01*
X266828583Y-19933907D01*
X266963270Y-20068594D01*
X266559209Y-19799220D02*
X266390850Y-19630862D01*
X266491866Y-19933907D02*
X266727568Y-19462503D01*
X266256163Y-19698205D01*
X265969954Y-19344652D02*
X265969954Y-19378323D01*
X266003625Y-19445667D01*
X266037297Y-19479339D01*
X266104641Y-19513010D01*
X266171984Y-19513010D01*
X266222492Y-19496175D01*
X266306671Y-19445667D01*
X266357179Y-19395159D01*
X266407686Y-19310980D01*
X266424522Y-19260472D01*
X266424522Y-19193129D01*
X266390850Y-19125785D01*
X266357179Y-19092114D01*
X266289835Y-19058442D01*
X266256163Y-19058442D01*
X265969954Y-19041606D02*
X265852102Y-18923755D01*
X265616400Y-19058442D02*
X265784759Y-19226801D01*
X266138312Y-18873247D01*
X265969954Y-18704888D01*
X265229175Y-18637545D02*
X265161832Y-18603873D01*
X265077652Y-18519694D01*
X265060816Y-18469186D01*
X265060816Y-18435514D01*
X265077652Y-18385007D01*
X265111324Y-18351335D01*
X265161832Y-18334499D01*
X265195503Y-18334499D01*
X265246011Y-18351335D01*
X265330190Y-18401843D01*
X265380698Y-18418679D01*
X265414370Y-18418679D01*
X265464877Y-18401843D01*
X265498549Y-18368171D01*
X265515385Y-18317663D01*
X265515385Y-18283992D01*
X265498549Y-18233484D01*
X265414370Y-18149304D01*
X265347026Y-18115633D01*
X264858786Y-18300827D02*
X265212339Y-17947274D01*
X265077652Y-17812587D01*
X265027144Y-17795751D01*
X264993473Y-17795751D01*
X264942965Y-17812587D01*
X264892457Y-17863095D01*
X264875622Y-17913602D01*
X264875622Y-17947274D01*
X264892457Y-17997782D01*
X265027144Y-18132469D01*
X264336874Y-17778915D02*
X264505232Y-17947274D01*
X264858786Y-17593721D01*
X264219022Y-17661064D02*
X264572576Y-17307511D01*
X264454725Y-17189660D02*
X264252694Y-16987629D01*
X264000156Y-17442198D02*
X264353709Y-17088644D01*
D11*
X142700333Y3119428D02*
X143033666Y3119428D01*
X143033666Y2595619D02*
X143033666Y3595619D01*
X142557476Y3595619D01*
X141747952Y3595619D02*
X141938428Y3595619D01*
X142033666Y3548000D01*
X142081285Y3500380D01*
X142176523Y3357523D01*
X142224142Y3167047D01*
X142224142Y2786095D01*
X142176523Y2690857D01*
X142128904Y2643238D01*
X142033666Y2595619D01*
X141843190Y2595619D01*
X141747952Y2643238D01*
X141700333Y2690857D01*
X141652714Y2786095D01*
X141652714Y3024190D01*
X141700333Y3119428D01*
X141747952Y3167047D01*
X141843190Y3214666D01*
X142033666Y3214666D01*
X142128904Y3167047D01*
X142176523Y3119428D01*
X142224142Y3024190D01*
X113601523Y-20216880D02*
X113792000Y-20216880D01*
X113887238Y-20264500D01*
X113934857Y-20312119D01*
X114030095Y-20454976D01*
X114077714Y-20645452D01*
X114077714Y-21026404D01*
X114030095Y-21121642D01*
X113982476Y-21169261D01*
X113887238Y-21216880D01*
X113696761Y-21216880D01*
X113601523Y-21169261D01*
X113553904Y-21121642D01*
X113506285Y-21026404D01*
X113506285Y-20788309D01*
X113553904Y-20693071D01*
X113601523Y-20645452D01*
X113696761Y-20597833D01*
X113887238Y-20597833D01*
X113982476Y-20645452D01*
X114030095Y-20693071D01*
X114077714Y-20788309D01*
X123317000Y-39790690D02*
X123317000Y-40266880D01*
X123650333Y-39266880D02*
X123317000Y-39790690D01*
X122983666Y-39266880D01*
X128365214Y-59316880D02*
X128365214Y-58316880D01*
X128365214Y-58793071D02*
X127793785Y-58793071D01*
X127793785Y-59316880D02*
X127793785Y-58316880D01*
X118483071Y-77843071D02*
X118340214Y-77890690D01*
X118292595Y-77938309D01*
X118244976Y-78033547D01*
X118244976Y-78176404D01*
X118292595Y-78271642D01*
X118340214Y-78319261D01*
X118435452Y-78366880D01*
X118816404Y-78366880D01*
X118816404Y-77366880D01*
X118483071Y-77366880D01*
X118387833Y-77414500D01*
X118340214Y-77462119D01*
X118292595Y-77557357D01*
X118292595Y-77652595D01*
X118340214Y-77747833D01*
X118387833Y-77795452D01*
X118483071Y-77843071D01*
X118816404Y-77843071D01*
X237709555Y-94908666D02*
X237233364Y-94908666D01*
X237804793Y-95194380D02*
X237471460Y-94194380D01*
X237138126Y-95194380D01*
X236804793Y-95194380D02*
X236804793Y-94194380D01*
X236423840Y-94194380D01*
X236328602Y-94242000D01*
X236280983Y-94289619D01*
X236233364Y-94384857D01*
X236233364Y-94527714D01*
X236280983Y-94622952D01*
X236328602Y-94670571D01*
X236423840Y-94718190D01*
X236804793Y-94718190D01*
X235804793Y-95194380D02*
X235804793Y-94194380D01*
X235423840Y-94194380D01*
X235328602Y-94242000D01*
X235280983Y-94289619D01*
X235233364Y-94384857D01*
X235233364Y-94527714D01*
X235280983Y-94622952D01*
X235328602Y-94670571D01*
X235423840Y-94718190D01*
X235804793Y-94718190D01*
X329890214Y-21216880D02*
X329890214Y-20216880D01*
X329509261Y-20216880D01*
X329414023Y-20264500D01*
X329366404Y-20312119D01*
X329318785Y-20407357D01*
X329318785Y-20550214D01*
X329366404Y-20645452D01*
X329414023Y-20693071D01*
X329509261Y-20740690D01*
X329890214Y-20740690D01*
X328366404Y-20264500D02*
X328461642Y-20216880D01*
X328604500Y-20216880D01*
X328747357Y-20264500D01*
X328842595Y-20359738D01*
X328890214Y-20454976D01*
X328937833Y-20645452D01*
X328937833Y-20788309D01*
X328890214Y-20978785D01*
X328842595Y-21074023D01*
X328747357Y-21169261D01*
X328604500Y-21216880D01*
X328509261Y-21216880D01*
X328366404Y-21169261D01*
X328318785Y-21121642D01*
X328318785Y-20788309D01*
X328509261Y-20788309D01*
X327890214Y-20216880D02*
X327890214Y-21026404D01*
X327842595Y-21121642D01*
X327794976Y-21169261D01*
X327699738Y-21216880D01*
X327509261Y-21216880D01*
X327414023Y-21169261D01*
X327366404Y-21121642D01*
X327318785Y-21026404D01*
X327318785Y-20216880D01*
X326842595Y-21216880D02*
X326842595Y-20216880D01*
X326461642Y-20216880D01*
X326366404Y-20264500D01*
X326318785Y-20312119D01*
X326271166Y-20407357D01*
X326271166Y-20550214D01*
X326318785Y-20645452D01*
X326366404Y-20693071D01*
X326461642Y-20740690D01*
X326842595Y-20740690D01*
X310292595Y-39743071D02*
X309959261Y-39743071D01*
X309816404Y-40266880D02*
X310292595Y-40266880D01*
X310292595Y-39266880D01*
X309816404Y-39266880D01*
X309387833Y-40266880D02*
X309387833Y-39266880D01*
X308816404Y-40266880D01*
X308816404Y-39266880D01*
X308340214Y-40266880D02*
X308340214Y-39266880D01*
X308102119Y-39266880D01*
X307959261Y-39314500D01*
X307864023Y-39409738D01*
X307816404Y-39504976D01*
X307768785Y-39695452D01*
X307768785Y-39838309D01*
X307816404Y-40028785D01*
X307864023Y-40124023D01*
X307959261Y-40219261D01*
X308102119Y-40266880D01*
X308340214Y-40266880D01*
X224377119Y-59412119D02*
X224472357Y-59364500D01*
X224567595Y-59269261D01*
X224710452Y-59126404D01*
X224805690Y-59078785D01*
X224900928Y-59078785D01*
X224853309Y-59316880D02*
X224948547Y-59269261D01*
X225043785Y-59174023D01*
X225091404Y-58983547D01*
X225091404Y-58650214D01*
X225043785Y-58459738D01*
X224948547Y-58364500D01*
X224853309Y-58316880D01*
X224662833Y-58316880D01*
X224567595Y-58364500D01*
X224472357Y-58459738D01*
X224424738Y-58650214D01*
X224424738Y-58983547D01*
X224472357Y-59174023D01*
X224567595Y-59269261D01*
X224662833Y-59316880D01*
X224853309Y-59316880D01*
X223996166Y-58316880D02*
X223996166Y-59126404D01*
X223948547Y-59221642D01*
X223900928Y-59269261D01*
X223805690Y-59316880D01*
X223615214Y-59316880D01*
X223519976Y-59269261D01*
X223472357Y-59221642D01*
X223424738Y-59126404D01*
X223424738Y-58316880D01*
X222758071Y-58316880D02*
X222567595Y-58316880D01*
X222472357Y-58364500D01*
X222377119Y-58459738D01*
X222329500Y-58650214D01*
X222329500Y-58983547D01*
X222377119Y-59174023D01*
X222472357Y-59269261D01*
X222567595Y-59316880D01*
X222758071Y-59316880D01*
X222853309Y-59269261D01*
X222948547Y-59174023D01*
X222996166Y-58983547D01*
X222996166Y-58650214D01*
X222948547Y-58459738D01*
X222853309Y-58364500D01*
X222758071Y-58316880D01*
X222043785Y-58316880D02*
X221472357Y-58316880D01*
X221758071Y-59316880D02*
X221758071Y-58316880D01*
X161750333Y3119428D02*
X162083666Y3119428D01*
X162083666Y2595619D02*
X162083666Y3595619D01*
X161607476Y3595619D01*
X161321761Y3595619D02*
X160655095Y3595619D01*
X161083666Y2595619D01*
X133175333Y-20216880D02*
X132508666Y-20216880D01*
X132937238Y-21216880D01*
X142652714Y-39266880D02*
X142652714Y-40076404D01*
X142605095Y-40171642D01*
X142557476Y-40219261D01*
X142462238Y-40266880D01*
X142271761Y-40266880D01*
X142176523Y-40219261D01*
X142128904Y-40171642D01*
X142081285Y-40076404D01*
X142081285Y-39266880D01*
X146986642Y-58316880D02*
X146986642Y-59031166D01*
X147034261Y-59174023D01*
X147129500Y-59269261D01*
X147272357Y-59316880D01*
X147367595Y-59316880D01*
X137890214Y-78366880D02*
X137890214Y-77366880D01*
X137318785Y-78366880D01*
X137318785Y-77366880D01*
X261142882Y-95191840D02*
X261476216Y-94715650D01*
X261714311Y-95191840D02*
X261714311Y-94191840D01*
X261333359Y-94191840D01*
X261238120Y-94239460D01*
X261190501Y-94287079D01*
X261142882Y-94382317D01*
X261142882Y-94525174D01*
X261190501Y-94620412D01*
X261238120Y-94668031D01*
X261333359Y-94715650D01*
X261714311Y-94715650D01*
X260952406Y-95287079D02*
X260190501Y-95287079D01*
X259380978Y-95096602D02*
X259428597Y-95144221D01*
X259571454Y-95191840D01*
X259666692Y-95191840D01*
X259809549Y-95144221D01*
X259904787Y-95048983D01*
X259952406Y-94953745D01*
X260000025Y-94763269D01*
X260000025Y-94620412D01*
X259952406Y-94429936D01*
X259904787Y-94334698D01*
X259809549Y-94239460D01*
X259666692Y-94191840D01*
X259571454Y-94191840D01*
X259428597Y-94239460D01*
X259380978Y-94287079D01*
X259095263Y-94191840D02*
X258523835Y-94191840D01*
X258809549Y-95191840D02*
X258809549Y-94191840D01*
X257619073Y-95191840D02*
X257952406Y-94715650D01*
X258190501Y-95191840D02*
X258190501Y-94191840D01*
X257809549Y-94191840D01*
X257714311Y-94239460D01*
X257666692Y-94287079D01*
X257619073Y-94382317D01*
X257619073Y-94525174D01*
X257666692Y-94620412D01*
X257714311Y-94668031D01*
X257809549Y-94715650D01*
X258190501Y-94715650D01*
X256714311Y-95191840D02*
X257190501Y-95191840D01*
X257190501Y-94191840D01*
X329890214Y-40266880D02*
X329890214Y-39266880D01*
X329509261Y-39266880D01*
X329414023Y-39314500D01*
X329366404Y-39362119D01*
X329318785Y-39457357D01*
X329318785Y-39600214D01*
X329366404Y-39695452D01*
X329414023Y-39743071D01*
X329509261Y-39790690D01*
X329890214Y-39790690D01*
X328366404Y-39314500D02*
X328461642Y-39266880D01*
X328604500Y-39266880D01*
X328747357Y-39314500D01*
X328842595Y-39409738D01*
X328890214Y-39504976D01*
X328937833Y-39695452D01*
X328937833Y-39838309D01*
X328890214Y-40028785D01*
X328842595Y-40124023D01*
X328747357Y-40219261D01*
X328604500Y-40266880D01*
X328509261Y-40266880D01*
X328366404Y-40219261D01*
X328318785Y-40171642D01*
X328318785Y-39838309D01*
X328509261Y-39838309D01*
X327890214Y-40266880D02*
X327890214Y-39266880D01*
X327652119Y-39266880D01*
X327509261Y-39314500D01*
X327414023Y-39409738D01*
X327366404Y-39504976D01*
X327318785Y-39695452D01*
X327318785Y-39838309D01*
X327366404Y-40028785D01*
X327414023Y-40124023D01*
X327509261Y-40219261D01*
X327652119Y-40266880D01*
X327890214Y-40266880D01*
X326890214Y-40266880D02*
X326890214Y-39266880D01*
X326318785Y-40266880D01*
X326318785Y-39266880D01*
X291123547Y-40266880D02*
X291123547Y-39266880D01*
X290885452Y-39266880D01*
X290742595Y-39314500D01*
X290647357Y-39409738D01*
X290599738Y-39504976D01*
X290552119Y-39695452D01*
X290552119Y-39838309D01*
X290599738Y-40028785D01*
X290647357Y-40124023D01*
X290742595Y-40219261D01*
X290885452Y-40266880D01*
X291123547Y-40266880D01*
X290123547Y-39743071D02*
X289790214Y-39743071D01*
X289647357Y-40266880D02*
X290123547Y-40266880D01*
X290123547Y-39266880D01*
X289647357Y-39266880D01*
X288742595Y-40266880D02*
X289218785Y-40266880D01*
X289218785Y-39266880D01*
X205993785Y-59269261D02*
X205850928Y-59316880D01*
X205612833Y-59316880D01*
X205517595Y-59269261D01*
X205469976Y-59221642D01*
X205422357Y-59126404D01*
X205422357Y-59031166D01*
X205469976Y-58935928D01*
X205517595Y-58888309D01*
X205612833Y-58840690D01*
X205803309Y-58793071D01*
X205898547Y-58745452D01*
X205946166Y-58697833D01*
X205993785Y-58602595D01*
X205993785Y-58507357D01*
X205946166Y-58412119D01*
X205898547Y-58364500D01*
X205803309Y-58316880D01*
X205565214Y-58316880D01*
X205422357Y-58364500D01*
X204422357Y-59221642D02*
X204469976Y-59269261D01*
X204612833Y-59316880D01*
X204708071Y-59316880D01*
X204850928Y-59269261D01*
X204946166Y-59174023D01*
X204993785Y-59078785D01*
X205041404Y-58888309D01*
X205041404Y-58745452D01*
X204993785Y-58554976D01*
X204946166Y-58459738D01*
X204850928Y-58364500D01*
X204708071Y-58316880D01*
X204612833Y-58316880D01*
X204469976Y-58364500D01*
X204422357Y-58412119D01*
X203517595Y-59316880D02*
X203993785Y-59316880D01*
X203993785Y-58316880D01*
X203184261Y-59316880D02*
X203184261Y-58316880D01*
X202612833Y-59316880D01*
X202612833Y-58316880D01*
X249832547Y-75984360D02*
X250165880Y-75508170D01*
X250403976Y-75984360D02*
X250403976Y-74984360D01*
X250023023Y-74984360D01*
X249927785Y-75031980D01*
X249880166Y-75079599D01*
X249832547Y-75174837D01*
X249832547Y-75317694D01*
X249880166Y-75412932D01*
X249927785Y-75460551D01*
X250023023Y-75508170D01*
X250403976Y-75508170D01*
X249642071Y-76079599D02*
X248880166Y-76079599D01*
X248689690Y-75936741D02*
X248546833Y-75984360D01*
X248308738Y-75984360D01*
X248213500Y-75936741D01*
X248165880Y-75889122D01*
X248118261Y-75793884D01*
X248118261Y-75698646D01*
X248165880Y-75603408D01*
X248213500Y-75555789D01*
X248308738Y-75508170D01*
X248499214Y-75460551D01*
X248594452Y-75412932D01*
X248642071Y-75365313D01*
X248689690Y-75270075D01*
X248689690Y-75174837D01*
X248642071Y-75079599D01*
X248594452Y-75031980D01*
X248499214Y-74984360D01*
X248261119Y-74984360D01*
X248118261Y-75031980D01*
X247689690Y-75984360D02*
X247689690Y-74984360D01*
X247689690Y-75460551D02*
X247118261Y-75460551D01*
X247118261Y-75984360D02*
X247118261Y-74984360D01*
X246642071Y-75984360D02*
X246642071Y-74984360D01*
X245832547Y-75460551D02*
X246165880Y-75460551D01*
X246165880Y-75984360D02*
X246165880Y-74984360D01*
X245689690Y-74984360D01*
X245451595Y-74984360D02*
X244880166Y-74984360D01*
X245165880Y-75984360D02*
X245165880Y-74984360D01*
X151987238Y-20645452D02*
X152082476Y-20597833D01*
X152130095Y-20550214D01*
X152177714Y-20454976D01*
X152177714Y-20407357D01*
X152130095Y-20312119D01*
X152082476Y-20264500D01*
X151987238Y-20216880D01*
X151796761Y-20216880D01*
X151701523Y-20264500D01*
X151653904Y-20312119D01*
X151606285Y-20407357D01*
X151606285Y-20454976D01*
X151653904Y-20550214D01*
X151701523Y-20597833D01*
X151796761Y-20645452D01*
X151987238Y-20645452D01*
X152082476Y-20693071D01*
X152130095Y-20740690D01*
X152177714Y-20835928D01*
X152177714Y-21026404D01*
X152130095Y-21121642D01*
X152082476Y-21169261D01*
X151987238Y-21216880D01*
X151796761Y-21216880D01*
X151701523Y-21169261D01*
X151653904Y-21121642D01*
X151606285Y-21026404D01*
X151606285Y-20835928D01*
X151653904Y-20740690D01*
X151701523Y-20693071D01*
X151796761Y-20645452D01*
X161417000Y-40266880D02*
X161417000Y-39266880D01*
X166441404Y-59316880D02*
X166441404Y-58316880D01*
X165869976Y-59316880D02*
X166298547Y-58745452D01*
X165869976Y-58316880D02*
X166441404Y-58888309D01*
X156987833Y-78366880D02*
X156987833Y-77366880D01*
X156654500Y-78081166D01*
X156321166Y-77366880D01*
X156321166Y-78366880D01*
X290956880Y-97416880D02*
X291433071Y-97416880D01*
X291433071Y-96416880D01*
X290623547Y-96893071D02*
X290290214Y-96893071D01*
X290147357Y-97416880D02*
X290623547Y-97416880D01*
X290623547Y-96416880D01*
X290147357Y-96416880D01*
X289385452Y-96893071D02*
X289718785Y-96893071D01*
X289718785Y-97416880D02*
X289718785Y-96416880D01*
X289242595Y-96416880D01*
X289004500Y-96416880D02*
X288433071Y-96416880D01*
X288718785Y-97416880D02*
X288718785Y-96416880D01*
X309840214Y-77366880D02*
X309840214Y-78176404D01*
X309792595Y-78271642D01*
X309744976Y-78319261D01*
X309649738Y-78366880D01*
X309459261Y-78366880D01*
X309364023Y-78319261D01*
X309316404Y-78271642D01*
X309268785Y-78176404D01*
X309268785Y-77366880D01*
X308792595Y-78366880D02*
X308792595Y-77366880D01*
X308411642Y-77366880D01*
X308316404Y-77414500D01*
X308268785Y-77462119D01*
X308221166Y-77557357D01*
X308221166Y-77700214D01*
X308268785Y-77795452D01*
X308316404Y-77843071D01*
X308411642Y-77890690D01*
X308792595Y-77890690D01*
X195921166Y-78366880D02*
X195921166Y-77366880D01*
X195683071Y-77366880D01*
X195540214Y-77414500D01*
X195444976Y-77509738D01*
X195397357Y-77604976D01*
X195349738Y-77795452D01*
X195349738Y-77938309D01*
X195397357Y-78128785D01*
X195444976Y-78224023D01*
X195540214Y-78319261D01*
X195683071Y-78366880D01*
X195921166Y-78366880D01*
X194730690Y-77366880D02*
X194540214Y-77366880D01*
X194444976Y-77414500D01*
X194349738Y-77509738D01*
X194302119Y-77700214D01*
X194302119Y-78033547D01*
X194349738Y-78224023D01*
X194444976Y-78319261D01*
X194540214Y-78366880D01*
X194730690Y-78366880D01*
X194825928Y-78319261D01*
X194921166Y-78224023D01*
X194968785Y-78033547D01*
X194968785Y-77700214D01*
X194921166Y-77509738D01*
X194825928Y-77414500D01*
X194730690Y-77366880D01*
X194016404Y-77366880D02*
X193444976Y-77366880D01*
X193730690Y-78366880D02*
X193730690Y-77366880D01*
X269864531Y-48357731D02*
X269864531Y-48691064D01*
X270388340Y-48833921D02*
X270388340Y-48357731D01*
X269388340Y-48357731D01*
X269388340Y-48833921D01*
X270388340Y-49262493D02*
X269388340Y-49262493D01*
X270388340Y-49833921D01*
X269388340Y-49833921D01*
X269388340Y-50167255D02*
X269388340Y-50738683D01*
X270388340Y-50452969D02*
X269388340Y-50452969D01*
X269864531Y-51072017D02*
X269864531Y-51405350D01*
X270388340Y-51548207D02*
X270388340Y-51072017D01*
X269388340Y-51072017D01*
X269388340Y-51548207D01*
X270388340Y-52548207D02*
X269912150Y-52214874D01*
X270388340Y-51976779D02*
X269388340Y-51976779D01*
X269388340Y-52357731D01*
X269435960Y-52452969D01*
X269483579Y-52500588D01*
X269578817Y-52548207D01*
X269721674Y-52548207D01*
X269816912Y-52500588D01*
X269864531Y-52452969D01*
X269912150Y-52357731D01*
X269912150Y-51976779D01*
X171132476Y-21216880D02*
X170942000Y-21216880D01*
X170846761Y-21169261D01*
X170799142Y-21121642D01*
X170703904Y-20978785D01*
X170656285Y-20788309D01*
X170656285Y-20407357D01*
X170703904Y-20312119D01*
X170751523Y-20264500D01*
X170846761Y-20216880D01*
X171037238Y-20216880D01*
X171132476Y-20264500D01*
X171180095Y-20312119D01*
X171227714Y-20407357D01*
X171227714Y-20645452D01*
X171180095Y-20740690D01*
X171132476Y-20788309D01*
X171037238Y-20835928D01*
X170846761Y-20835928D01*
X170751523Y-20788309D01*
X170703904Y-20740690D01*
X170656285Y-20645452D01*
X180562238Y-39266880D02*
X180371761Y-39266880D01*
X180276523Y-39314500D01*
X180181285Y-39409738D01*
X180133666Y-39600214D01*
X180133666Y-39933547D01*
X180181285Y-40124023D01*
X180276523Y-40219261D01*
X180371761Y-40266880D01*
X180562238Y-40266880D01*
X180657476Y-40219261D01*
X180752714Y-40124023D01*
X180800333Y-39933547D01*
X180800333Y-39600214D01*
X180752714Y-39409738D01*
X180657476Y-39314500D01*
X180562238Y-39266880D01*
X184919976Y-59316880D02*
X185396166Y-59316880D01*
X185396166Y-58316880D01*
X177061642Y-78271642D02*
X177109261Y-78319261D01*
X177252119Y-78366880D01*
X177347357Y-78366880D01*
X177490214Y-78319261D01*
X177585452Y-78224023D01*
X177633071Y-78128785D01*
X177680690Y-77938309D01*
X177680690Y-77795452D01*
X177633071Y-77604976D01*
X177585452Y-77509738D01*
X177490214Y-77414500D01*
X177347357Y-77366880D01*
X177252119Y-77366880D01*
X177109261Y-77414500D01*
X177061642Y-77462119D01*
X176442595Y-77366880D02*
X176252119Y-77366880D01*
X176156880Y-77414500D01*
X176061642Y-77509738D01*
X176014023Y-77700214D01*
X176014023Y-78033547D01*
X176061642Y-78224023D01*
X176156880Y-78319261D01*
X176252119Y-78366880D01*
X176442595Y-78366880D01*
X176537833Y-78319261D01*
X176633071Y-78224023D01*
X176680690Y-78033547D01*
X176680690Y-77700214D01*
X176633071Y-77509738D01*
X176537833Y-77414500D01*
X176442595Y-77366880D01*
X175585452Y-78366880D02*
X175585452Y-77366880D01*
X175252119Y-78081166D01*
X174918785Y-77366880D01*
X174918785Y-78366880D01*
X174442595Y-78366880D02*
X174442595Y-77366880D01*
X174109261Y-78081166D01*
X173775928Y-77366880D01*
X173775928Y-78366880D01*
X310935452Y-97416880D02*
X310935452Y-96416880D01*
X310697357Y-96416880D01*
X310554500Y-96464500D01*
X310459261Y-96559738D01*
X310411642Y-96654976D01*
X310364023Y-96845452D01*
X310364023Y-96988309D01*
X310411642Y-97178785D01*
X310459261Y-97274023D01*
X310554500Y-97369261D01*
X310697357Y-97416880D01*
X310935452Y-97416880D01*
X309744976Y-96416880D02*
X309554500Y-96416880D01*
X309459261Y-96464500D01*
X309364023Y-96559738D01*
X309316404Y-96750214D01*
X309316404Y-97083547D01*
X309364023Y-97274023D01*
X309459261Y-97369261D01*
X309554500Y-97416880D01*
X309744976Y-97416880D01*
X309840214Y-97369261D01*
X309935452Y-97274023D01*
X309983071Y-97083547D01*
X309983071Y-96750214D01*
X309935452Y-96559738D01*
X309840214Y-96464500D01*
X309744976Y-96416880D01*
X308983071Y-96416880D02*
X308744976Y-97416880D01*
X308554500Y-96702595D01*
X308364023Y-97416880D01*
X308125928Y-96416880D01*
X307744976Y-97416880D02*
X307744976Y-96416880D01*
X307173547Y-97416880D01*
X307173547Y-96416880D01*
X329437833Y-97416880D02*
X329771166Y-96940690D01*
X330009261Y-97416880D02*
X330009261Y-96416880D01*
X329628309Y-96416880D01*
X329533071Y-96464500D01*
X329485452Y-96512119D01*
X329437833Y-96607357D01*
X329437833Y-96750214D01*
X329485452Y-96845452D01*
X329533071Y-96893071D01*
X329628309Y-96940690D01*
X330009261Y-96940690D01*
X329009261Y-97416880D02*
X329009261Y-96416880D01*
X328009261Y-96464500D02*
X328104500Y-96416880D01*
X328247357Y-96416880D01*
X328390214Y-96464500D01*
X328485452Y-96559738D01*
X328533071Y-96654976D01*
X328580690Y-96845452D01*
X328580690Y-96988309D01*
X328533071Y-97178785D01*
X328485452Y-97274023D01*
X328390214Y-97369261D01*
X328247357Y-97416880D01*
X328152119Y-97416880D01*
X328009261Y-97369261D01*
X327961642Y-97321642D01*
X327961642Y-96988309D01*
X328152119Y-96988309D01*
X327533071Y-97416880D02*
X327533071Y-96416880D01*
X327533071Y-96893071D02*
X326961642Y-96893071D01*
X326961642Y-97416880D02*
X326961642Y-96416880D01*
X326628309Y-96416880D02*
X326056880Y-96416880D01*
X326342595Y-97416880D02*
X326342595Y-96416880D01*
X268446095Y-83939071D02*
X268779428Y-83939071D01*
X268779428Y-84462880D02*
X268779428Y-83462880D01*
X268303238Y-83462880D01*
X267922285Y-84462880D02*
X267922285Y-83462880D01*
X267350857Y-84462880D01*
X267350857Y-83462880D01*
X267112761Y-84558119D02*
X266350857Y-84558119D01*
X265588952Y-84462880D02*
X266160380Y-84462880D01*
X265874666Y-84462880D02*
X265874666Y-83462880D01*
X265969904Y-83605738D01*
X266065142Y-83700976D01*
X266160380Y-83748595D01*
X215494976Y-78319261D02*
X215352119Y-78366880D01*
X215114023Y-78366880D01*
X215018785Y-78319261D01*
X214971166Y-78271642D01*
X214923547Y-78176404D01*
X214923547Y-78081166D01*
X214971166Y-77985928D01*
X215018785Y-77938309D01*
X215114023Y-77890690D01*
X215304500Y-77843071D01*
X215399738Y-77795452D01*
X215447357Y-77747833D01*
X215494976Y-77652595D01*
X215494976Y-77557357D01*
X215447357Y-77462119D01*
X215399738Y-77414500D01*
X215304500Y-77366880D01*
X215066404Y-77366880D01*
X214923547Y-77414500D01*
X214018785Y-78366880D02*
X214494976Y-78366880D01*
X214494976Y-77366880D01*
X213733071Y-78319261D02*
X213590214Y-78366880D01*
X213352119Y-78366880D01*
X213256880Y-78319261D01*
X213209261Y-78271642D01*
X213161642Y-78176404D01*
X213161642Y-78081166D01*
X213209261Y-77985928D01*
X213256880Y-77938309D01*
X213352119Y-77890690D01*
X213542595Y-77843071D01*
X213637833Y-77795452D01*
X213685452Y-77747833D01*
X213733071Y-77652595D01*
X213733071Y-77557357D01*
X213685452Y-77462119D01*
X213637833Y-77414500D01*
X213542595Y-77366880D01*
X213304500Y-77366880D01*
X213161642Y-77414500D01*
X212733071Y-78366880D02*
X212733071Y-77366880D01*
X212733071Y-77843071D02*
X212161642Y-77843071D01*
X212161642Y-78366880D02*
X212161642Y-77366880D01*
X1958742Y-94236800D02*
X2434933Y-94236800D01*
X2434933Y-93236800D01*
X1863504Y-94332039D02*
X1101599Y-94332039D01*
X292076Y-94141562D02*
X339695Y-94189181D01*
X482552Y-94236800D01*
X577790Y-94236800D01*
X720647Y-94189181D01*
X815885Y-94093943D01*
X863504Y-93998705D01*
X911123Y-93808229D01*
X911123Y-93665372D01*
X863504Y-93474896D01*
X815885Y-93379658D01*
X720647Y-93284420D01*
X577790Y-93236800D01*
X482552Y-93236800D01*
X339695Y-93284420D01*
X292076Y-93332039D01*
X6361Y-93236800D02*
X-565066Y-93236800D01*
X-279352Y-94236800D02*
X-279352Y-93236800D01*
X-1469828Y-94236800D02*
X-1136495Y-93760610D01*
X-898400Y-94236800D02*
X-898400Y-93236800D01*
X-1279352Y-93236800D01*
X-1374590Y-93284420D01*
X-1422209Y-93332039D01*
X-1469828Y-93427277D01*
X-1469828Y-93570134D01*
X-1422209Y-93665372D01*
X-1374590Y-93712991D01*
X-1279352Y-93760610D01*
X-898400Y-93760610D01*
X-2374590Y-94236800D02*
X-1898400Y-94236800D01*
X-1898400Y-93236800D01*
X41306583Y-97416880D02*
X41782773Y-97416880D01*
X41782773Y-96416880D01*
X41211345Y-97512119D02*
X40449440Y-97512119D01*
X39687535Y-96464500D02*
X39782773Y-96416880D01*
X39925630Y-96416880D01*
X40068488Y-96464500D01*
X40163726Y-96559738D01*
X40211345Y-96654976D01*
X40258964Y-96845452D01*
X40258964Y-96988309D01*
X40211345Y-97178785D01*
X40163726Y-97274023D01*
X40068488Y-97369261D01*
X39925630Y-97416880D01*
X39830392Y-97416880D01*
X39687535Y-97369261D01*
X39639916Y-97321642D01*
X39639916Y-96988309D01*
X39830392Y-96988309D01*
X39211345Y-96416880D02*
X39211345Y-97226404D01*
X39163726Y-97321642D01*
X39116107Y-97369261D01*
X39020869Y-97416880D01*
X38830392Y-97416880D01*
X38735154Y-97369261D01*
X38687535Y-97321642D01*
X38639916Y-97226404D01*
X38639916Y-96416880D01*
X38163726Y-97416880D02*
X38163726Y-96416880D01*
X25488733Y-95001340D02*
X25964923Y-95001340D01*
X25964923Y-94001340D01*
X25393495Y-95096579D02*
X24631590Y-95096579D01*
X23869685Y-94048960D02*
X23964923Y-94001340D01*
X24107780Y-94001340D01*
X24250638Y-94048960D01*
X24345876Y-94144198D01*
X24393495Y-94239436D01*
X24441114Y-94429912D01*
X24441114Y-94572769D01*
X24393495Y-94763245D01*
X24345876Y-94858483D01*
X24250638Y-94953721D01*
X24107780Y-95001340D01*
X24012542Y-95001340D01*
X23869685Y-94953721D01*
X23822066Y-94906102D01*
X23822066Y-94572769D01*
X24012542Y-94572769D01*
X23393495Y-94001340D02*
X23393495Y-94810864D01*
X23345876Y-94906102D01*
X23298257Y-94953721D01*
X23203019Y-95001340D01*
X23012542Y-95001340D01*
X22917304Y-94953721D01*
X22869685Y-94906102D01*
X22822066Y-94810864D01*
X22822066Y-94001340D01*
X22345876Y-95001340D02*
X22345876Y-94001340D01*
X63690974Y-95359480D02*
X64167164Y-95359480D01*
X64167164Y-94359480D01*
X63595736Y-95454719D02*
X62833831Y-95454719D01*
X62643355Y-95073766D02*
X62167164Y-95073766D01*
X62738593Y-95359480D02*
X62405260Y-94359480D01*
X62071926Y-95359480D01*
X61262402Y-95359480D02*
X61738593Y-95359480D01*
X61738593Y-94359480D01*
X61071926Y-94359480D02*
X60500498Y-94359480D01*
X60786212Y-95359480D02*
X60786212Y-94359480D01*
X123102416Y-97369261D02*
X122959559Y-97416880D01*
X122721464Y-97416880D01*
X122626226Y-97369261D01*
X122578607Y-97321642D01*
X122530988Y-97226404D01*
X122530988Y-97131166D01*
X122578607Y-97035928D01*
X122626226Y-96988309D01*
X122721464Y-96940690D01*
X122911940Y-96893071D01*
X123007178Y-96845452D01*
X123054797Y-96797833D01*
X123102416Y-96702595D01*
X123102416Y-96607357D01*
X123054797Y-96512119D01*
X123007178Y-96464500D01*
X122911940Y-96416880D01*
X122673845Y-96416880D01*
X122530988Y-96464500D01*
X122102416Y-97416880D02*
X122102416Y-96416880D01*
X121721464Y-96416880D01*
X121626226Y-96464500D01*
X121578607Y-96512119D01*
X121530988Y-96607357D01*
X121530988Y-96750214D01*
X121578607Y-96845452D01*
X121626226Y-96893071D01*
X121721464Y-96940690D01*
X122102416Y-96940690D01*
X121150035Y-97131166D02*
X120673845Y-97131166D01*
X121245273Y-97416880D02*
X120911940Y-96416880D01*
X120578607Y-97416880D01*
X119673845Y-97321642D02*
X119721464Y-97369261D01*
X119864321Y-97416880D01*
X119959559Y-97416880D01*
X120102416Y-97369261D01*
X120197654Y-97274023D01*
X120245273Y-97178785D01*
X120292892Y-96988309D01*
X120292892Y-96845452D01*
X120245273Y-96654976D01*
X120197654Y-96559738D01*
X120102416Y-96464500D01*
X119959559Y-96416880D01*
X119864321Y-96416880D01*
X119721464Y-96464500D01*
X119673845Y-96512119D01*
X119245273Y-96893071D02*
X118911940Y-96893071D01*
X118769083Y-97416880D02*
X119245273Y-97416880D01*
X119245273Y-96416880D01*
X118769083Y-96416880D01*
X144533666Y-97369261D02*
X144390809Y-97416880D01*
X144152714Y-97416880D01*
X144057476Y-97369261D01*
X144009857Y-97321642D01*
X143962238Y-97226404D01*
X143962238Y-97131166D01*
X144009857Y-97035928D01*
X144057476Y-96988309D01*
X144152714Y-96940690D01*
X144343190Y-96893071D01*
X144438428Y-96845452D01*
X144486047Y-96797833D01*
X144533666Y-96702595D01*
X144533666Y-96607357D01*
X144486047Y-96512119D01*
X144438428Y-96464500D01*
X144343190Y-96416880D01*
X144105095Y-96416880D01*
X143962238Y-96464500D01*
X143533666Y-97416880D02*
X143533666Y-96416880D01*
X143152714Y-96416880D01*
X143057476Y-96464500D01*
X143009857Y-96512119D01*
X142962238Y-96607357D01*
X142962238Y-96750214D01*
X143009857Y-96845452D01*
X143057476Y-96893071D01*
X143152714Y-96940690D01*
X143533666Y-96940690D01*
X142581285Y-97131166D02*
X142105095Y-97131166D01*
X142676523Y-97416880D02*
X142343190Y-96416880D01*
X142009857Y-97416880D01*
X141105095Y-97321642D02*
X141152714Y-97369261D01*
X141295571Y-97416880D01*
X141390809Y-97416880D01*
X141533666Y-97369261D01*
X141628904Y-97274023D01*
X141676523Y-97178785D01*
X141724142Y-96988309D01*
X141724142Y-96845452D01*
X141676523Y-96654976D01*
X141628904Y-96559738D01*
X141533666Y-96464500D01*
X141390809Y-96416880D01*
X141295571Y-96416880D01*
X141152714Y-96464500D01*
X141105095Y-96512119D01*
X140676523Y-96893071D02*
X140343190Y-96893071D01*
X140200333Y-97416880D02*
X140676523Y-97416880D01*
X140676523Y-96416880D01*
X140200333Y-96416880D01*
X203183964Y-97416880D02*
X203517297Y-96940690D01*
X203755392Y-97416880D02*
X203755392Y-96416880D01*
X203374440Y-96416880D01*
X203279202Y-96464500D01*
X203231583Y-96512119D01*
X203183964Y-96607357D01*
X203183964Y-96750214D01*
X203231583Y-96845452D01*
X203279202Y-96893071D01*
X203374440Y-96940690D01*
X203755392Y-96940690D01*
X202993488Y-97512119D02*
X202231583Y-97512119D01*
X202041107Y-97131166D02*
X201564916Y-97131166D01*
X202136345Y-97416880D02*
X201803011Y-96416880D01*
X201469678Y-97416880D01*
X200660154Y-97416880D02*
X201136345Y-97416880D01*
X201136345Y-96416880D01*
X200469678Y-96416880D02*
X199898250Y-96416880D01*
X200183964Y-97416880D02*
X200183964Y-96416880D01*
X216566702Y-96893071D02*
X216900035Y-96893071D01*
X216900035Y-97416880D02*
X216900035Y-96416880D01*
X216423845Y-96416880D01*
X216042892Y-97416880D02*
X216042892Y-96416880D01*
X215471464Y-97416880D01*
X215471464Y-96416880D01*
X235108595Y-83939071D02*
X235441928Y-83939071D01*
X235441928Y-84462880D02*
X235441928Y-83462880D01*
X234965738Y-83462880D01*
X234584785Y-84462880D02*
X234584785Y-83462880D01*
X234013357Y-84462880D01*
X234013357Y-83462880D01*
X233775261Y-84558119D02*
X233013357Y-84558119D01*
X232251452Y-84462880D02*
X232822880Y-84462880D01*
X232537166Y-84462880D02*
X232537166Y-83462880D01*
X232632404Y-83605738D01*
X232727642Y-83700976D01*
X232822880Y-83748595D01*
X209375333Y3119428D02*
X209708666Y3119428D01*
X209708666Y2595619D02*
X209708666Y3595619D01*
X209232476Y3595619D01*
X208803904Y2595619D02*
X208613428Y2595619D01*
X208518190Y2643238D01*
X208470571Y2690857D01*
X208375333Y2833714D01*
X208327714Y3024190D01*
X208327714Y3405142D01*
X208375333Y3500380D01*
X208422952Y3548000D01*
X208518190Y3595619D01*
X208708666Y3595619D01*
X208803904Y3548000D01*
X208851523Y3500380D01*
X208899142Y3405142D01*
X208899142Y3167047D01*
X208851523Y3071809D01*
X208803904Y3024190D01*
X208708666Y2976571D01*
X208518190Y2976571D01*
X208422952Y3024190D01*
X208375333Y3071809D01*
X208327714Y3167047D01*
M02*
