G04 #@! TF.GenerationSoftware,KiCad,Pcbnew,(5.1.2)-2*
G04 #@! TF.CreationDate,2019-07-11T11:24:40+07:00*
G04 #@! TF.ProjectId,PCB,5043422e-6b69-4636-9164-5f7063625858,a*
G04 #@! TF.SameCoordinates,Original*
G04 #@! TF.FileFunction,Profile,NP*
%FSLAX46Y46*%
G04 Gerber Fmt 4.6, Leading zero omitted, Abs format (unit mm)*
G04 Created by KiCad (PCBNEW (5.1.2)-2) date 2019-07-11 11:24:40*
%MOMM*%
%LPD*%
G04 APERTURE LIST*
%ADD10C,0.150000*%
%ADD11C,0.200000*%
G04 APERTURE END LIST*
D10*
X3500791Y-110000010D02*
X-7999209Y-110012323D01*
X11000791Y-108000010D02*
X123000791Y-108000010D01*
X132000791Y-108000010D02*
X257500791Y-108000010D01*
X264500791Y-108000010D02*
X300112145Y-108000010D01*
X331612145Y-108012323D02*
X308112145Y-108000010D01*
X308112145Y-110000010D02*
X336612145Y-110012323D01*
X264500791Y-110000010D02*
X300112145Y-110000010D01*
X132000791Y-110000010D02*
X257500791Y-110000010D01*
X11000791Y-110000010D02*
X123000791Y-110000010D01*
X3500791Y-108000010D02*
X-2999209Y-108012323D01*
X264500791Y-110000010D02*
G75*
G02X264500791Y-108000010I0J1000000D01*
G01*
X132000791Y-110000010D02*
G75*
G02X132000791Y-108000010I0J1000000D01*
G01*
X257500791Y-108000010D02*
G75*
G02X257500791Y-110000010I0J-1000000D01*
G01*
X123000791Y-108000010D02*
G75*
G02X123000791Y-110000010I0J-1000000D01*
G01*
X308112145Y-110000010D02*
G75*
G02X308112145Y-108000010I0J1000000D01*
G01*
X300112145Y-108000010D02*
G75*
G02X300112145Y-110000010I0J-1000000D01*
G01*
X11000791Y-110000010D02*
G75*
G02X11000791Y-108000010I0J1000000D01*
G01*
X3500791Y-108000010D02*
G75*
G02X3500791Y-110000010I0J-1000000D01*
G01*
X-7999209Y-118012323D02*
X-7999209Y-110012323D01*
X336612145Y-118012323D02*
X-7999209Y-118012323D01*
X336612145Y-110012323D02*
X336612145Y-118012323D01*
X331612145Y7999990D02*
X308112145Y7999990D01*
X308112145Y9999990D02*
X336612145Y9999990D01*
X308112145Y7999990D02*
G75*
G02X308112145Y9999990I0J1000000D01*
G01*
X300112145Y9999990D02*
G75*
G02X300112145Y7999990I0J-1000000D01*
G01*
X285933399Y9999990D02*
X300112145Y9999990D01*
X285933399Y9999990D02*
G75*
G02X284933399Y10999990I0J1000000D01*
G01*
X284933399Y13907518D02*
X284933399Y10999990D01*
X283933399Y14907518D02*
G75*
G02X284933399Y13907518I0J-1000000D01*
G01*
X273243399Y14907518D02*
X283933399Y14907518D01*
X272243399Y13907518D02*
G75*
G02X273243399Y14907518I1000000J0D01*
G01*
X272243399Y10999990D02*
X272243399Y13907518D01*
X272243399Y10999990D02*
G75*
G02X271243399Y9999990I-1000000J0D01*
G01*
X264500791Y9999990D02*
X271243399Y9999990D01*
X264500791Y7999990D02*
X274243399Y7999990D01*
X264500791Y7999990D02*
G75*
G02X264500791Y9999990I0J1000000D01*
G01*
X257500791Y9999990D02*
G75*
G02X257500791Y7999990I0J-1000000D01*
G01*
X132000791Y7999990D02*
X257500791Y7999990D01*
X132000791Y9999990D02*
X257500791Y9999990D01*
X132000791Y7999990D02*
G75*
G02X132000791Y9999990I0J1000000D01*
G01*
X123000791Y9999990D02*
G75*
G02X123000791Y7999990I0J-1000000D01*
G01*
X3500791Y7999990D02*
X-2999209Y7999990D01*
X11000791Y9999990D02*
X123000791Y9999990D01*
X11000791Y7999990D02*
G75*
G02X11000791Y9999990I0J1000000D01*
G01*
X3500791Y9999990D02*
G75*
G02X3500791Y7999990I0J-1000000D01*
G01*
X-7999209Y9999990D02*
X3500791Y9999990D01*
X336612145Y17999990D02*
X336612145Y9999990D01*
X-7999209Y17999990D02*
X336612145Y17999990D01*
X-7999209Y9999990D02*
X-7999209Y17999990D01*
D11*
X282933399Y12907518D02*
X274243399Y12907518D01*
X282933399Y7999990D02*
X282933399Y12907518D01*
X274243399Y12907518D02*
X274243399Y7999990D01*
X282933399Y7999990D02*
X300112145Y7999990D01*
X-2999209Y-108012323D02*
G75*
G02X-7999209Y-103012323I0J5000000D01*
G01*
X-7999209Y2999990D02*
G75*
G02X-2999209Y7999990I5000000J0D01*
G01*
X336612145Y-103012323D02*
G75*
G02X331612145Y-108012323I-5000000J0D01*
G01*
X331612145Y7999990D02*
G75*
G02X336612145Y2999990I0J-5000000D01*
G01*
X123000791Y7999990D02*
X11000791Y7999990D01*
X336612145Y-103012323D02*
X336612145Y2999990D01*
X-7999209Y2999990D02*
X-7999209Y-103012323D01*
M02*
