M48
; DRILL file {KiCad (5.1.2)-2} date 7/11/2019 11:24:44 AM
; FORMAT={-:-/ absolute / metric / decimal}
; #@! TF.CreationDate,2019-07-11T11:24:44+07:00
; #@! TF.GenerationSoftware,Kicad,Pcbnew,(5.1.2)-2
; #@! TF.FileFunction,Plated,1,2,PTH
FMAT,2
METRIC
T1C0.300
T2C0.400
T3C0.600
T4C0.800
T5C1.100
T6C1.200
T7C1.700
%
G90
G05
T1
X-3.81Y-13.916
X-3.142Y-13.422
X-3.078Y-3.036
X-2.597Y-12.772
X-2.16Y-30.556
X-1.036Y-69.987
X1.571Y-26.849
X1.941Y-93.701
X2.603Y-49.715
X6.573Y-45.892
X8.875Y-84.257
X14.427Y-98.842
X18.915Y-61.023
X19.06Y-65.301
X26.195Y-63.51
X26.952Y-64.856
X33.663Y-13.418
X53.34Y-12.918
X69.357Y-26.104
X72.39Y-12.423
X72.94Y-10.339
X74.125Y-83.254
X77.463Y-44.369
X78.563Y-44.02
X79.114Y-44.365
X83.97Y-64.204
X95.082Y-40.739
X109.548Y7.038
X113.0Y3.0
X114.036Y-41.73
X131.893Y6.655
X133.022Y-41.763
X134.201Y0.208
X152.403Y-41.73
X153.309Y0.061
X171.521Y-41.73
X172.316Y0.076
X182.327Y-87.614
X182.886Y-87.964
X183.49Y-88.314
X184.125Y-88.664
X185.636Y-91.294
X186.274Y-90.87
X186.893Y-90.504
X187.432Y-90.014
X190.937Y-41.763
X195.958Y0.196
X197.571Y-91.622
X197.612Y-90.608
X198.046Y-90.108
X198.046Y-91.122
X205.74Y-13.922
X210.815Y-41.796
X220.248Y0.371
X224.274Y-84.036
X224.79Y-13.423
X230.033Y-41.73
X234.12Y-90.098
X238.989Y0.048
X243.716Y-84.092
X243.84Y-12.923
X250.34Y-41.73
X251.838Y-97.653
X252.885Y-51.755
X257.601Y6.636
X257.894Y-60.653
X258.135Y-91.984
X258.201Y0.46
X259.519Y-63.833
X262.89Y-12.4
X263.482Y-12.923
X263.495Y-11.808
X263.5Y-13.923
X263.543Y-10.339
X263.594Y-4.03
X263.938Y-13.423
X267.597Y-77.683
X268.15Y-65.297
X269.24Y-64.708
X271.981Y-2.87
X272.194Y-67.775
X272.637Y6.558
X273.21Y-38.02
X273.218Y-37.175
X273.223Y-36.344
X273.236Y-35.547
X273.291Y-25.639
X274.589Y4.104
X274.769Y2.073
X275.388Y-25.598
X276.23Y-96.959
X276.641Y-0.148
X277.013Y5.763
X277.68Y-16.829
X278.381Y8.272
X278.894Y5.785
X279.019Y3.296
X279.156Y1.412
X279.88Y-13.773
X280.028Y-83.683
X280.085Y-80.435
X280.134Y-75.635
X280.203Y-0.368
X280.206Y0.902
X280.206Y0.267
X280.271Y-15.806
X280.299Y8.406
X280.337Y-10.873
X280.645Y-13.773
X280.802Y-9.114
X280.83Y-78.036
X280.835Y-77.236
X280.846Y-76.433
X280.852Y-16.097
X280.944Y-67.6
X281.249Y5.485
X282.194Y4.105
X282.621Y2.076
X282.623Y-19.375
X282.761Y-12.773
X282.764Y-16.163
X282.893Y-72.463
X283.413Y-12.273
X283.414Y-16.163
X283.634Y-1.211
X284.064Y-11.871
X284.064Y-16.163
X284.371Y-72.856
X284.541Y-86.738
X284.575Y-84.21
X284.714Y-16.163
X284.714Y-11.47
X284.769Y-9.703
X284.769Y-10.451
X285.022Y-16.916
X285.41Y-17.473
X286.1Y-86.962
X286.548Y-82.702
X286.589Y-75.635
X287.3Y-91.404
X287.698Y-86.91
X287.875Y-102.304
X288.021Y-88.96
X288.049Y-90.038
X288.484Y-89.46
X288.49Y-90.538
X288.498Y-86.913
X289.299Y-86.918
X290.099Y-72.107
X290.099Y-86.931
X290.901Y-72.112
X291.671Y-82.834
X291.681Y-82.036
X291.701Y-72.128
X292.435Y-102.025
X295.169Y-79.636
X295.171Y-78.036
X295.171Y-78.831
X295.171Y-80.433
X295.176Y-77.233
X295.387Y-26.1
X295.659Y-101.289
X298.707Y0.559
X299.794Y0.559
X300.215Y-96.299
X300.881Y0.556
X301.079Y-21.259
X302.347Y-66.09
X302.468Y-5.95
X306.303Y-84.005
X306.989Y-51.951
X307.096Y-103.221
X307.503Y-36.829
X309.123Y-54.011
X316.644Y-51.958
X318.623Y-54.005
X325.461Y-26.964
X325.481Y-25.011
X330.017Y-102.954
X333.002Y-47.384
X333.558Y-46.768
X333.792Y-50.236
X334.15Y-46.154
X334.76Y-45.654
X335.032Y-44.1
X296.838Y-60.113
X296.838Y-61.913
X296.838Y-63.713
X303.238Y-60.113
X303.238Y-61.913
X303.238Y-63.713
X315.862Y-60.113
X315.862Y-61.913
X315.862Y-63.713
X322.262Y-60.113
X322.262Y-61.913
X322.262Y-63.713
X306.363Y-60.113
X306.363Y-61.913
X306.363Y-63.713
X312.763Y-60.113
X312.763Y-61.913
X312.763Y-63.713
T2
X-3.81Y-1.46
X-3.81Y-25.46
X0.952Y-44.273
X0.952Y-93.703
X5.989Y-83.195
X8.666Y-59.37
X15.24Y-25.272
X18.362Y-97.47
X20.002Y-82.272
X24.765Y-44.273
X29.527Y-63.272
X34.29Y-1.46
X34.29Y-25.272
X39.052Y-82.272
X42.273Y-97.47
X43.815Y-44.273
X48.578Y-63.272
X53.34Y-1.46
X53.34Y-25.272
X58.102Y-82.272
X62.865Y-44.273
X67.627Y-63.272
X72.39Y-1.46
X72.39Y-25.272
X77.153Y-82.272
X81.915Y-44.273
X86.677Y-63.272
X91.44Y-1.46
X91.44Y-25.272
X96.203Y-82.272
X100.965Y-44.273
X105.727Y-63.272
X110.49Y-25.272
X115.252Y-82.272
X120.015Y-1.46
X120.015Y-44.273
X124.777Y-63.272
X129.54Y-25.272
X134.302Y-82.272
X139.065Y-1.46
X139.065Y-44.273
X143.827Y-63.272
X148.59Y-25.272
X153.352Y-82.272
X158.115Y-1.46
X158.115Y-44.273
X162.877Y-63.272
X167.64Y-25.272
X172.403Y-82.272
X177.165Y-1.46
X177.165Y-44.273
X181.927Y-63.272
X186.69Y-25.272
X191.452Y-82.272
X196.215Y-44.273
X200.977Y-63.272
X205.74Y-1.46
X205.74Y-25.272
X211.105Y-82.122
X215.265Y-44.273
X220.028Y-63.272
X224.79Y-1.46
X224.79Y-25.272
X234.315Y-44.273
X239.077Y-63.272
X243.84Y-1.46
X250.386Y-21.267
X250.984Y-63.272
X258.408Y-36.678
X262.89Y-1.46
X267.523Y-21.272
X286.695Y-16.5
X286.702Y-44.273
X286.703Y-1.061
X287.188Y-100.985
X305.745Y-36.548
X305.752Y-82.272
X305.752Y-101.272
X324.803Y-1.46
X324.803Y-101.272
X325.181Y-44.363
T3
X83.236Y4.709
X106.728Y5.048
X112.7Y5.175
X130.391Y5.313
X136.235Y5.595
X149.187Y5.45
X155.362Y5.696
X168.465Y5.452
X174.615Y5.46
X191.925Y5.595
X198.488Y5.765
X215.928Y5.539
X222.141Y5.798
X234.726Y5.234
X241.252Y5.699
X253.436Y5.361
X260.385Y5.882
X297.416Y6.379
T4
X269.357Y-87.399
X269.357Y-89.939
X271.897Y-87.399
X271.897Y-89.939
X274.437Y-87.399
X274.437Y-89.939
X276.977Y-87.399
X276.977Y-89.939
X279.517Y-87.399
X279.517Y-89.939
T5
X227.33Y-5.08
X229.87Y-5.08
X10.636Y-86.042
X13.176Y-86.042
X289.243Y-47.942
X291.782Y-47.942
X203.517Y-66.992
X206.058Y-66.992
X-1.27Y-5.08
X1.27Y-5.08
X260.667Y-105.093
X263.128Y-105.093
X308.292Y-5.08
X310.832Y-5.08
X65.405Y-47.942
X67.945Y-47.942
X222.567Y-66.992
X225.107Y-66.992
X232.093Y-75.882
X234.632Y-75.882
X113.03Y-28.892
X115.57Y-28.892
X22.543Y-86.042
X25.082Y-86.042
X89.218Y-66.992
X91.757Y-66.992
X74.93Y-28.892
X77.47Y-28.892
X265.43Y-75.882
X267.97Y-75.882
X84.455Y-47.942
X86.995Y-47.942
X46.355Y-47.942
X48.895Y-47.942
X327.342Y-105.093
X329.882Y-105.093
X132.08Y-28.892
X134.62Y-28.892
X98.742Y-86.042
X101.282Y-86.042
X201.136Y-105.093
X203.676Y-105.093
X179.705Y-47.942
X182.245Y-47.942
X55.88Y-28.892
X58.42Y-28.892
X1.111Y-66.992
X3.651Y-66.992
X165.417Y-66.992
X167.957Y-66.992
X259.239Y-51.117
X259.239Y-53.657
X208.28Y-28.892
X210.82Y-28.892
X308.292Y-86.042
X310.832Y-86.042
X60.642Y-86.042
X63.182Y-86.042
X289.243Y-105.093
X291.782Y-105.093
X289.243Y-28.892
X291.782Y-28.892
X253.524Y-66.992
X256.064Y-66.992
X27.384Y-105.093
X29.845Y-105.093
X239.236Y-86.042
X241.776Y-86.042
X141.605Y-47.942
X144.145Y-47.942
X70.167Y-66.992
X72.707Y-66.992
X-1.27Y-28.892
X1.27Y-28.892
X108.267Y-66.992
X110.807Y-66.992
X136.843Y-86.042
X139.382Y-86.042
X32.067Y-66.992
X34.608Y-66.992
X327.342Y-5.08
X329.882Y-5.08
X17.78Y-28.892
X20.32Y-28.892
X132.08Y-105.093
X134.62Y-105.093
X3.492Y-47.942
X6.032Y-47.942
X127.317Y-66.992
X129.857Y-66.992
X63.024Y-105.093
X65.564Y-105.093
X308.292Y-28.892
X310.832Y-28.892
X224.949Y-105.093
X227.489Y-105.093
X213.042Y-105.093
X215.503Y-105.093
X55.88Y-5.08
X58.42Y-5.08
X151.13Y-28.892
X153.67Y-28.892
X1.111Y-105.093
X3.651Y-105.093
X213.042Y-86.042
X215.582Y-86.042
X248.761Y-86.042
X251.301Y-86.042
X308.292Y-47.942
X310.832Y-47.942
X327.342Y-47.942
X329.882Y-47.942
X263.049Y-66.992
X265.589Y-66.992
X117.792Y-86.042
X120.332Y-86.042
X39.211Y-105.093
X41.751Y-105.093
X36.83Y-5.08
X39.37Y-5.08
X122.555Y-5.08
X125.095Y-5.08
X141.605Y-105.093
X144.145Y-105.093
X93.98Y-5.08
X96.52Y-5.08
X51.197Y-105.093
X53.657Y-105.093
X27.305Y-47.942
X29.845Y-47.942
X246.38Y-28.892
X248.92Y-28.892
X103.505Y-47.942
X106.045Y-47.942
X41.593Y-86.042
X44.133Y-86.042
X198.755Y-47.942
X201.295Y-47.942
X265.43Y-5.08
X267.97Y-5.08
X160.655Y-47.942
X163.195Y-47.942
X120.174Y-105.093
X122.714Y-105.093
X1.111Y-86.042
X3.651Y-86.042
X239.316Y-105.093
X241.776Y-105.093
X189.23Y-28.892
X191.77Y-28.892
X241.617Y-66.992
X244.157Y-66.992
X146.368Y-66.992
X148.907Y-66.992
X227.33Y-28.892
X229.87Y-28.892
X48.736Y-105.093
X51.197Y-105.093
X236.855Y-105.093
X239.316Y-105.093
X184.468Y-66.992
X187.007Y-66.992
X191.611Y-105.093
X194.151Y-105.093
X36.83Y-28.892
X39.37Y-28.892
X174.942Y-86.042
X177.482Y-86.042
X260.667Y-47.942
X263.207Y-47.942
X258.286Y-86.042
X260.826Y-86.042
X217.805Y-47.942
X220.345Y-47.942
X327.342Y-28.892
X329.882Y-28.892
X263.128Y-105.093
X265.589Y-105.093
X255.905Y-28.892
X258.445Y-28.892
X236.855Y-47.942
X239.395Y-47.942
X160.655Y-5.08
X163.195Y-5.08
X122.555Y-47.942
X125.095Y-47.942
X215.503Y-105.093
X217.964Y-105.093
X246.38Y-5.08
X248.92Y-5.08
X170.18Y-28.892
X172.72Y-28.892
X51.117Y-66.992
X53.657Y-66.992
X5.874Y-66.992
X8.414Y-66.992
X155.892Y-86.042
X158.433Y-86.042
X79.692Y-86.042
X82.233Y-86.042
X265.43Y-28.892
X267.97Y-28.892
X308.292Y-105.093
X310.832Y-105.093
X74.93Y-5.08
X77.47Y-5.08
X193.992Y-86.042
X196.532Y-86.042
X289.243Y-5.08
X291.782Y-5.08
X141.605Y-5.08
X144.145Y-5.08
X24.924Y-105.093
X27.384Y-105.093
X208.28Y-5.08
X210.82Y-5.08
X93.98Y-28.892
X96.52Y-28.892
X179.705Y-5.08
X182.245Y-5.08
T6
X273.685Y-5.0
X276.225Y-5.0
X278.765Y-5.0
X281.305Y-5.0
T7
X-3.81Y-21.272
X2.54Y-18.732
X167.64Y-21.272
X173.99Y-18.732
X139.065Y2.54
X145.415Y5.08
X72.39Y2.54
X78.74Y5.08
X212.884Y-97.472
X219.234Y-94.932
X67.627Y-59.372
X73.977Y-56.832
X124.777Y-59.372
X131.127Y-56.832
X20.002Y-78.422
X26.352Y-75.882
X230.822Y-86.042
X237.172Y-83.502
X177.165Y2.54
X183.515Y5.08
X236.696Y-97.472
X243.046Y-94.932
X39.052Y-78.422
X45.402Y-75.882
X246.221Y-78.422
X252.571Y-75.882
X196.215Y-40.322
X202.565Y-37.782
X324.803Y-21.272
X331.152Y-18.732
X53.34Y-21.272
X59.69Y-18.732
X264.16Y-86.042
X270.51Y-83.502
X15.24Y-21.272
X21.59Y-18.732
X158.115Y2.54
X164.465Y5.08
X191.452Y-78.422
X197.802Y-75.882
X81.915Y-40.322
X88.265Y-37.782
X210.502Y-78.422
X216.852Y-75.882
X205.74Y-21.272
X212.09Y-18.732
X258.127Y-97.472
X264.477Y-94.932
X305.752Y-78.422
X312.102Y-75.882
X105.727Y-59.372
X112.078Y-56.832
X258.127Y-40.322
X264.477Y-37.782
X143.827Y-59.372
X150.177Y-56.832
X255.746Y-78.422
X262.096Y-75.882
X239.077Y-59.372
X245.427Y-56.832
X91.44Y2.54
X97.79Y5.08
X236.696Y-78.422
X243.046Y-75.882
X96.203Y-78.422
X102.552Y-75.882
X3.334Y-59.372
X9.684Y-56.832
X222.409Y-97.472
X228.759Y-94.932
X120.015Y-40.322
X126.365Y-37.782
X215.265Y-40.322
X221.615Y-37.782
X234.315Y-97.472
X240.665Y-94.932
X77.153Y-78.422
X83.502Y-75.882
X243.84Y2.54
X250.19Y5.08
X262.89Y2.54
X269.24Y5.08
X262.89Y-21.272
X269.24Y-18.732
X8.096Y-78.422
X14.446Y-75.882
X260.509Y-97.472
X266.859Y-94.932
X72.39Y-21.272
X78.74Y-18.732
X189.071Y-97.472
X195.421Y-94.932
X60.484Y-97.472
X66.834Y-94.932
X224.79Y-21.272
X231.14Y-18.732
X158.115Y-40.322
X164.465Y-37.782
X24.765Y-40.322
X31.115Y-37.782
X305.752Y-40.322
X312.102Y-37.782
X36.671Y-97.472
X43.021Y-94.932
X58.102Y-78.422
X64.453Y-75.882
X153.352Y-78.422
X159.702Y-75.882
X46.196Y-97.472
X52.546Y-94.932
X129.54Y-21.272
X135.89Y-18.732
X266.859Y-48.578
X269.399Y-54.927
X86.677Y-59.372
X93.027Y-56.832
X162.877Y-59.372
X169.227Y-56.832
X62.865Y-40.322
X69.215Y-37.782
X324.803Y-40.322
X331.152Y-37.782
X139.065Y-97.472
X145.415Y-94.932
X210.502Y-97.472
X216.852Y-94.932
X43.815Y-40.322
X50.165Y-37.782
X134.302Y-78.422
X140.653Y-75.882
X0.952Y-40.322
X7.302Y-37.782
X286.702Y-97.472
X293.053Y-94.932
X305.752Y-21.272
X312.102Y-18.732
X129.54Y-97.472
X135.89Y-94.932
X172.403Y-78.422
X178.752Y-75.882
X110.49Y-21.272
X116.84Y-18.732
X34.29Y-21.272
X40.64Y-18.732
X-3.81Y2.54
X2.54Y5.08
X148.59Y-21.272
X154.94Y-18.732
X286.702Y-21.272
X293.053Y-18.732
X24.765Y-97.472
X31.115Y-94.932
X205.74Y2.54
X212.09Y5.08
X100.965Y-40.322
X107.315Y-37.782
X234.315Y-40.322
X240.665Y-37.782
X22.384Y-97.472
X28.734Y-94.932
X34.29Y2.54
X40.64Y5.08
X115.252Y-78.422
X121.602Y-75.882
X0.952Y-97.472
X7.302Y-94.932
X324.803Y-97.472
X331.152Y-94.932
X186.69Y-21.272
X193.04Y-18.732
X120.015Y2.54
X126.365Y5.08
X260.509Y-59.372
X266.859Y-56.832
X48.578Y-59.372
X54.927Y-56.832
X305.752Y-97.472
X312.102Y-94.932
X-1.429Y-78.422
X4.921Y-75.882
X220.028Y-59.372
X226.377Y-56.832
X200.977Y-59.372
X207.327Y-56.832
X286.702Y2.54
X293.053Y5.08
X181.927Y-59.372
X188.278Y-56.832
X29.527Y-59.372
X35.877Y-56.832
X139.065Y-40.322
X145.415Y-37.782
X117.634Y-97.472
X123.984Y-94.932
X250.984Y-59.372
X257.334Y-56.832
X198.596Y-97.472
X204.946Y-94.932
X253.365Y-21.272
X259.715Y-18.732
X286.702Y-40.322
X293.053Y-37.782
X48.578Y-97.472
X54.927Y-94.932
X324.803Y2.54
X331.152Y5.08
X224.79Y2.54
X231.14Y5.08
X243.84Y-21.272
X250.19Y-18.732
X177.165Y-40.322
X183.515Y-37.782
X91.44Y-21.272
X97.79Y-18.732
X-1.429Y-59.372
X4.921Y-56.832
X-1.429Y-97.472
X4.921Y-94.932
X305.752Y2.54
X312.102Y5.08
X53.34Y2.54
X59.69Y5.08
T3
G00X274.292Y11.85
M15
G01X274.292Y12.45
M16
G05
G00X274.292Y7.42
M15
G01X274.292Y8.52
M16
G05
G00X282.932Y11.85
M15
G01X282.932Y12.45
M16
G05
G00X282.932Y7.42
M15
G01X282.932Y8.52
M16
G05
G00X274.292Y12.45
M15
G01X274.292Y11.85
M16
G05
G00X274.292Y8.52
M15
G01X274.292Y7.42
M16
G05
G00X282.932Y12.45
M15
G01X282.932Y11.85
M16
G05
G00X282.932Y8.52
M15
G01X282.932Y7.42
M16
G05
T0
M30
