M48
; DRILL file {KiCad (5.1.2)-2} date 7/11/2019 11:24:44 AM
; FORMAT={-:-/ absolute / metric / decimal}
; #@! TF.CreationDate,2019-07-11T11:24:44+07:00
; #@! TF.GenerationSoftware,Kicad,Pcbnew,(5.1.2)-2
; #@! TF.FileFunction,NonPlated,1,2,NPTH
FMAT,2
METRIC
T1C0.200
T2C0.650
T3C1.000
T4C1.702
T5C2.200
T6C3.048
T7C3.988
%
G90
G05
T2
X275.722Y8.5
X281.502Y8.5
X275.722Y8.5
X281.502Y8.5
T3
X260.001Y-108.0
X307.001Y-108.0
X264.001Y-110.0
X126.501Y8.0
X10.501Y8.0
X301.001Y10.0
X6.501Y8.0
X124.501Y-110.0
X130.501Y-110.0
X264.001Y-108.0
X301.001Y-108.0
X128.501Y8.0
X128.501Y-110.0
X307.001Y10.0
X4.501Y8.0
X6.251Y-108.0
X8.251Y-110.0
X305.001Y10.0
X130.501Y8.0
X307.001Y-110.0
X6.501Y10.0
X303.001Y-110.0
X8.501Y8.0
X130.501Y10.0
X305.001Y-108.0
X260.001Y-110.0
X258.001Y8.0
X126.501Y10.0
X301.001Y-110.0
X10.251Y-110.0
X124.501Y-108.0
X303.001Y8.0
X8.501Y10.0
X126.501Y-110.0
X258.001Y10.0
X130.501Y-108.0
X264.001Y10.0
X303.001Y10.0
X10.251Y-108.0
X124.501Y8.0
X6.251Y-110.0
X303.001Y-108.0
X262.001Y10.0
X258.001Y-108.0
X307.001Y8.0
X260.001Y10.0
X10.501Y10.0
X124.501Y10.0
X262.001Y-110.0
X262.001Y8.0
X301.001Y8.0
X128.501Y10.0
X264.001Y8.0
X262.001Y-108.0
X4.251Y-108.0
X4.501Y10.0
X126.501Y-108.0
X258.001Y-110.0
X128.501Y-108.0
X260.001Y8.0
X4.251Y-110.0
X305.001Y8.0
X8.251Y-108.0
X305.001Y-110.0
T4
X254.476Y-80.962
X264.636Y-80.962
X237.807Y-61.912
X247.968Y-61.912
X90.17Y0.0
X100.33Y0.0
X235.426Y-80.962
X245.586Y-80.962
X94.932Y-80.962
X105.093Y-80.962
X2.064Y-61.912
X12.224Y-61.912
X221.139Y-100.012
X231.299Y-100.012
X118.745Y-42.862
X128.905Y-42.862
X213.995Y-42.862
X224.155Y-42.862
X233.045Y-100.012
X243.205Y-100.012
X75.882Y-80.962
X86.042Y-80.962
X242.57Y0.0
X252.73Y0.0
X261.62Y0.0
X271.78Y0.0
X261.62Y-23.812
X271.78Y-23.812
X6.826Y-80.962
X16.986Y-80.962
X259.239Y-100.012
X269.399Y-100.012
X71.12Y-23.812
X81.28Y-23.812
X187.801Y-100.012
X197.961Y-100.012
X59.214Y-100.012
X69.374Y-100.012
X223.52Y-23.812
X233.68Y-23.812
X156.845Y-42.862
X167.005Y-42.862
X23.495Y-42.862
X33.655Y-42.862
X304.482Y-42.862
X314.642Y-42.862
X35.401Y-100.012
X45.561Y-100.012
X56.832Y-80.962
X66.992Y-80.962
X152.082Y-80.962
X162.243Y-80.962
X44.926Y-100.012
X55.086Y-100.012
X128.27Y-23.812
X138.43Y-23.812
X264.319Y-47.307
X264.319Y-57.467
X85.407Y-61.912
X95.567Y-61.912
X161.607Y-61.912
X171.767Y-61.912
X61.595Y-42.862
X71.755Y-42.862
X323.532Y-42.862
X333.692Y-42.862
X137.795Y-100.012
X147.955Y-100.012
X209.232Y-100.012
X219.392Y-100.012
X42.545Y-42.862
X52.705Y-42.862
X133.032Y-80.962
X143.192Y-80.962
X-0.318Y-42.862
X9.842Y-42.862
X285.433Y-100.012
X295.592Y-100.012
X304.482Y-23.812
X314.642Y-23.812
X128.27Y-100.012
X138.43Y-100.012
X171.132Y-80.962
X181.292Y-80.962
X109.22Y-23.812
X119.38Y-23.812
X33.02Y-23.812
X43.18Y-23.812
X-5.08Y0.0
X5.08Y0.0
X147.32Y-23.812
X157.48Y-23.812
X285.433Y-23.812
X295.592Y-23.812
X23.495Y-100.012
X33.655Y-100.012
X204.47Y0.0
X214.63Y0.0
X99.695Y-42.862
X109.855Y-42.862
X233.045Y-42.862
X243.205Y-42.862
X21.114Y-100.012
X31.274Y-100.012
X33.02Y0.0
X43.18Y0.0
X113.983Y-80.962
X124.142Y-80.962
X-0.318Y-100.012
X9.842Y-100.012
X323.532Y-100.012
X333.692Y-100.012
X185.42Y-23.812
X195.58Y-23.812
X118.745Y0.0
X128.905Y0.0
X259.239Y-61.912
X269.399Y-61.912
X47.307Y-61.912
X57.467Y-61.912
X304.482Y-100.012
X314.642Y-100.012
X-2.699Y-80.962
X7.461Y-80.962
X218.757Y-61.912
X228.917Y-61.912
X199.707Y-61.912
X209.867Y-61.912
X285.433Y0.0
X295.592Y0.0
X180.657Y-61.912
X190.817Y-61.912
X28.258Y-61.912
X38.417Y-61.912
X137.795Y-42.862
X147.955Y-42.862
X116.364Y-100.012
X126.524Y-100.012
X249.714Y-61.912
X259.874Y-61.912
X197.326Y-100.012
X207.486Y-100.012
X252.095Y-23.812
X262.255Y-23.812
X285.433Y-42.862
X295.592Y-42.862
X47.307Y-100.012
X57.467Y-100.012
X323.532Y0.0
X333.692Y0.0
X223.52Y0.0
X233.68Y0.0
X242.57Y-23.812
X252.73Y-23.812
X175.895Y-42.862
X186.055Y-42.862
X90.17Y-23.812
X100.33Y-23.812
X-2.699Y-61.912
X7.461Y-61.912
X-2.699Y-100.012
X7.461Y-100.012
X304.482Y0.0
X314.642Y0.0
X52.07Y0.0
X62.23Y0.0
X-5.08Y-23.812
X5.08Y-23.812
X166.37Y-23.812
X176.53Y-23.812
X137.795Y0.0
X147.955Y0.0
X71.12Y0.0
X81.28Y0.0
X211.614Y-100.012
X221.774Y-100.012
X66.358Y-61.912
X76.517Y-61.912
X123.507Y-61.912
X133.667Y-61.912
X18.732Y-80.962
X28.892Y-80.962
X228.282Y-80.962
X238.442Y-80.962
X175.895Y0.0
X186.055Y0.0
X235.426Y-100.012
X245.586Y-100.012
X37.782Y-80.962
X47.942Y-80.962
X244.951Y-80.962
X255.111Y-80.962
X194.945Y-42.862
X205.105Y-42.862
X323.532Y-23.812
X333.692Y-23.812
X52.07Y-23.812
X62.23Y-23.812
X261.62Y-80.962
X271.78Y-80.962
X13.97Y-23.812
X24.13Y-23.812
X156.845Y0.0
X167.005Y0.0
X190.183Y-80.962
X200.343Y-80.962
X80.645Y-42.862
X90.805Y-42.862
X209.232Y-80.962
X219.392Y-80.962
X204.47Y-23.812
X214.63Y-23.812
X256.858Y-100.012
X267.017Y-100.012
X304.482Y-80.962
X314.642Y-80.962
X104.457Y-61.912
X114.617Y-61.912
X256.858Y-42.862
X267.017Y-42.862
X142.558Y-61.912
X152.718Y-61.912
T5
X332.501Y-114.0
X-1.499Y-114.0
X332.501Y14.0
X-1.499Y14.0
T6
X23.812Y-73.977
X171.45Y-106.997
X261.938Y-73.977
X85.725Y-106.997
X71.438Y-106.997
X269.081Y-16.828
X271.304Y-64.294
X180.975Y-106.997
X245.269Y-16.828
X242.887Y-68.897
X0.0Y-73.977
X76.2Y-106.997
X190.5Y-106.997
X238.125Y-73.977
X266.7Y-68.897
X271.304Y-40.481
T7
X309.562Y-80.962
X109.537Y-61.912
X238.125Y-89.218
X261.938Y-42.862
X147.637Y-61.912
X259.556Y-80.962
X242.887Y-61.912
X95.25Y0.0
X240.506Y-80.962
X100.012Y-80.962
X266.7Y-53.657
X256.064Y-40.481
X7.144Y-61.912
X226.219Y-100.012
X123.825Y-42.862
X23.812Y-89.218
X219.075Y-42.862
X238.125Y-100.012
X80.962Y-80.962
X247.65Y0.0
X266.7Y0.0
X266.7Y-23.812
X11.906Y-80.962
X264.319Y-100.012
X76.2Y-23.812
X192.881Y-100.012
X64.294Y-100.012
X228.6Y-23.812
X171.45Y-91.757
X161.925Y-42.862
X28.575Y-42.862
X309.562Y-42.862
X40.481Y-100.012
X61.912Y-80.962
X157.162Y-80.962
X50.006Y-100.012
X133.35Y-23.812
X261.938Y-89.218
X264.319Y-52.387
X90.487Y-61.912
X166.688Y-61.912
X66.675Y-42.862
X328.613Y-42.862
X142.875Y-100.012
X214.312Y-100.012
X47.625Y-42.862
X138.112Y-80.962
X4.763Y-42.862
X85.725Y-91.757
X290.512Y-100.012
X309.562Y-23.812
X71.438Y-91.757
X133.35Y-100.012
X176.213Y-80.962
X114.3Y-23.812
X269.081Y-32.067
X38.1Y-23.812
X0.0Y0.0
X256.064Y-64.294
X152.4Y-23.812
X290.512Y-23.812
X28.575Y-100.012
X209.55Y0.0
X104.775Y-42.862
X238.125Y-42.862
X180.975Y-91.757
X26.194Y-100.012
X38.1Y0.0
X119.062Y-80.962
X245.269Y-32.067
X4.763Y-100.012
X328.613Y-100.012
X190.5Y-23.812
X123.825Y0.0
X264.319Y-61.912
X52.387Y-61.912
X309.562Y-100.012
X2.381Y-80.962
X223.837Y-61.912
X242.887Y-53.657
X204.787Y-61.912
X290.512Y0.0
X0.0Y-89.218
X185.737Y-61.912
X33.337Y-61.912
X142.875Y-42.862
X121.444Y-100.012
X254.794Y-61.912
X76.2Y-91.757
X202.406Y-100.012
X257.175Y-23.812
X290.512Y-42.862
X52.387Y-100.012
X328.613Y0.0
X228.6Y0.0
X247.65Y-23.812
X180.975Y-42.862
X95.25Y-23.812
X2.381Y-61.912
X2.381Y-100.012
X309.562Y0.0
X57.15Y0.0
X0.0Y-23.812
X171.45Y-23.812
X142.875Y0.0
X76.2Y0.0
X216.694Y-100.012
X71.438Y-61.912
X128.588Y-61.912
X23.812Y-80.962
X233.362Y-80.962
X180.975Y0.0
X240.506Y-100.012
X42.862Y-80.962
X250.031Y-80.962
X200.025Y-42.862
X328.613Y-23.812
X190.5Y-91.757
X57.15Y-23.812
X266.7Y-80.962
X19.05Y-23.812
X161.925Y0.0
X195.262Y-80.962
X85.725Y-42.862
X214.312Y-80.962
X209.55Y-23.812
X261.938Y-100.012
T1
G00X297.663Y-64.288
M15
G01X297.663Y-59.538
M16
G05
G00X302.413Y-59.513
M15
G01X297.663Y-59.513
M16
G05
G00X302.413Y-59.613
M15
G01X297.663Y-59.613
M16
G05
G00X302.413Y-59.713
M15
G01X297.663Y-59.713
M16
G05
G00X302.413Y-59.813
M15
G01X297.663Y-59.813
M16
G05
G00X302.413Y-59.913
M15
G01X297.663Y-59.913
M16
G05
G00X302.413Y-60.013
M15
G01X297.663Y-60.013
M16
G05
G00X302.413Y-60.113
M15
G01X297.663Y-60.113
M16
G05
G00X302.413Y-60.213
M15
G01X297.663Y-60.213
M16
G05
G00X302.413Y-60.313
M15
G01X297.663Y-60.313
M16
G05
G00X302.413Y-60.413
M15
G01X297.663Y-60.413
M16
G05
G00X302.413Y-60.513
M15
G01X297.663Y-60.513
M16
G05
G00X302.413Y-60.613
M15
G01X297.663Y-60.613
M16
G05
G00X302.413Y-60.713
M15
G01X297.663Y-60.713
M16
G05
G00X302.413Y-60.813
M15
G01X297.663Y-60.813
M16
G05
G00X302.413Y-60.913
M15
G01X297.663Y-60.913
M16
G05
G00X302.413Y-61.013
M15
G01X297.663Y-61.013
M16
G05
G00X302.413Y-61.113
M15
G01X297.663Y-61.113
M16
G05
G00X302.413Y-61.213
M15
G01X297.663Y-61.213
M16
G05
G00X302.413Y-61.313
M15
G01X297.663Y-61.313
M16
G05
G00X302.413Y-61.413
M15
G01X297.663Y-61.413
M16
G05
G00X302.413Y-61.513
M15
G01X297.663Y-61.513
M16
G05
G00X302.413Y-61.613
M15
G01X297.663Y-61.613
M16
G05
G00X302.413Y-61.713
M15
G01X297.663Y-61.713
M16
G05
G00X302.413Y-61.813
M15
G01X297.663Y-61.813
M16
G05
G00X302.413Y-61.913
M15
G01X297.663Y-61.913
M16
G05
G00X302.413Y-62.013
M15
G01X297.663Y-62.013
M16
G05
G00X302.413Y-62.113
M15
G01X297.663Y-62.113
M16
G05
G00X302.413Y-62.213
M15
G01X297.663Y-62.213
M16
G05
G00X302.413Y-62.313
M15
G01X297.663Y-62.313
M16
G05
G00X302.413Y-62.413
M15
G01X297.663Y-62.413
M16
G05
G00X302.413Y-62.513
M15
G01X297.663Y-62.513
M16
G05
G00X302.413Y-62.613
M15
G01X297.663Y-62.613
M16
G05
G00X302.413Y-62.713
M15
G01X297.663Y-62.713
M16
G05
G00X302.413Y-62.813
M15
G01X297.663Y-62.813
M16
G05
G00X302.413Y-62.913
M15
G01X297.663Y-62.913
M16
G05
G00X302.413Y-63.013
M15
G01X297.663Y-63.013
M16
G05
G00X302.413Y-63.113
M15
G01X297.663Y-63.113
M16
G05
G00X302.413Y-63.213
M15
G01X297.663Y-63.213
M16
G05
G00X302.413Y-63.313
M15
G01X297.663Y-63.313
M16
G05
G00X302.413Y-63.413
M15
G01X297.663Y-63.413
M16
G05
G00X302.413Y-63.513
M15
G01X297.663Y-63.513
M16
G05
G00X302.413Y-63.613
M15
G01X297.663Y-63.613
M16
G05
G00X302.413Y-63.713
M15
G01X297.663Y-63.713
M16
G05
G00X302.413Y-63.813
M15
G01X297.663Y-63.813
M16
G05
G00X302.413Y-63.913
M15
G01X297.663Y-63.913
M16
G05
G00X302.413Y-64.013
M15
G01X297.663Y-64.013
M16
G05
G00X302.413Y-64.113
M15
G01X297.663Y-64.113
M16
G05
G00X302.413Y-64.213
M15
G01X297.663Y-64.213
M16
G05
G00X302.413Y-64.313
M15
G01X297.663Y-64.313
M16
G05
G00X302.413Y-64.288
M15
G01X302.413Y-59.538
M16
G05
G00X316.687Y-64.288
M15
G01X316.687Y-59.538
M16
G05
G00X321.437Y-59.513
M15
G01X316.687Y-59.513
M16
G05
G00X321.437Y-59.613
M15
G01X316.687Y-59.613
M16
G05
G00X321.437Y-59.713
M15
G01X316.687Y-59.713
M16
G05
G00X321.437Y-59.813
M15
G01X316.687Y-59.813
M16
G05
G00X321.437Y-59.913
M15
G01X316.687Y-59.913
M16
G05
G00X321.437Y-60.013
M15
G01X316.687Y-60.013
M16
G05
G00X321.437Y-60.113
M15
G01X316.687Y-60.113
M16
G05
G00X321.437Y-60.213
M15
G01X316.687Y-60.213
M16
G05
G00X321.437Y-60.313
M15
G01X316.687Y-60.313
M16
G05
G00X321.437Y-60.413
M15
G01X316.687Y-60.413
M16
G05
G00X321.437Y-60.513
M15
G01X316.687Y-60.513
M16
G05
G00X321.437Y-60.613
M15
G01X316.687Y-60.613
M16
G05
G00X321.437Y-60.713
M15
G01X316.687Y-60.713
M16
G05
G00X321.437Y-60.813
M15
G01X316.687Y-60.813
M16
G05
G00X321.437Y-60.913
M15
G01X316.687Y-60.913
M16
G05
G00X321.437Y-61.013
M15
G01X316.687Y-61.013
M16
G05
G00X321.437Y-61.113
M15
G01X316.687Y-61.113
M16
G05
G00X321.437Y-61.213
M15
G01X316.687Y-61.213
M16
G05
G00X321.437Y-61.313
M15
G01X316.687Y-61.313
M16
G05
G00X321.437Y-61.413
M15
G01X316.687Y-61.413
M16
G05
G00X321.437Y-61.513
M15
G01X316.687Y-61.513
M16
G05
G00X321.437Y-61.613
M15
G01X316.687Y-61.613
M16
G05
G00X321.437Y-61.713
M15
G01X316.687Y-61.713
M16
G05
G00X321.437Y-61.813
M15
G01X316.687Y-61.813
M16
G05
G00X321.437Y-61.913
M15
G01X316.687Y-61.913
M16
G05
G00X321.437Y-62.013
M15
G01X316.687Y-62.013
M16
G05
G00X321.437Y-62.113
M15
G01X316.687Y-62.113
M16
G05
G00X321.437Y-62.213
M15
G01X316.687Y-62.213
M16
G05
G00X321.437Y-62.313
M15
G01X316.687Y-62.313
M16
G05
G00X321.437Y-62.413
M15
G01X316.687Y-62.413
M16
G05
G00X321.437Y-62.513
M15
G01X316.687Y-62.513
M16
G05
G00X321.437Y-62.613
M15
G01X316.687Y-62.613
M16
G05
G00X321.437Y-62.713
M15
G01X316.687Y-62.713
M16
G05
G00X321.437Y-62.813
M15
G01X316.687Y-62.813
M16
G05
G00X321.437Y-62.913
M15
G01X316.687Y-62.913
M16
G05
G00X321.437Y-63.013
M15
G01X316.687Y-63.013
M16
G05
G00X321.437Y-63.113
M15
G01X316.687Y-63.113
M16
G05
G00X321.437Y-63.213
M15
G01X316.687Y-63.213
M16
G05
G00X321.437Y-63.313
M15
G01X316.687Y-63.313
M16
G05
G00X321.437Y-63.413
M15
G01X316.687Y-63.413
M16
G05
G00X321.437Y-63.513
M15
G01X316.687Y-63.513
M16
G05
G00X321.437Y-63.613
M15
G01X316.687Y-63.613
M16
G05
G00X321.437Y-63.713
M15
G01X316.687Y-63.713
M16
G05
G00X321.437Y-63.813
M15
G01X316.687Y-63.813
M16
G05
G00X321.437Y-63.913
M15
G01X316.687Y-63.913
M16
G05
G00X321.437Y-64.013
M15
G01X316.687Y-64.013
M16
G05
G00X321.437Y-64.113
M15
G01X316.687Y-64.113
M16
G05
G00X321.437Y-64.213
M15
G01X316.687Y-64.213
M16
G05
G00X321.437Y-64.313
M15
G01X316.687Y-64.313
M16
G05
G00X321.437Y-64.288
M15
G01X321.437Y-59.538
M16
G05
G00X307.188Y-64.288
M15
G01X307.188Y-59.538
M16
G05
G00X311.938Y-59.513
M15
G01X307.188Y-59.513
M16
G05
G00X311.938Y-59.613
M15
G01X307.188Y-59.613
M16
G05
G00X311.938Y-59.713
M15
G01X307.188Y-59.713
M16
G05
G00X311.938Y-59.813
M15
G01X307.188Y-59.813
M16
G05
G00X311.938Y-59.913
M15
G01X307.188Y-59.913
M16
G05
G00X311.938Y-60.013
M15
G01X307.188Y-60.013
M16
G05
G00X311.938Y-60.113
M15
G01X307.188Y-60.113
M16
G05
G00X311.938Y-60.213
M15
G01X307.188Y-60.213
M16
G05
G00X311.938Y-60.313
M15
G01X307.188Y-60.313
M16
G05
G00X311.938Y-60.413
M15
G01X307.188Y-60.413
M16
G05
G00X311.938Y-60.513
M15
G01X307.188Y-60.513
M16
G05
G00X311.938Y-60.613
M15
G01X307.188Y-60.613
M16
G05
G00X311.938Y-60.713
M15
G01X307.188Y-60.713
M16
G05
G00X311.938Y-60.813
M15
G01X307.188Y-60.813
M16
G05
G00X311.938Y-60.913
M15
G01X307.188Y-60.913
M16
G05
G00X311.938Y-61.013
M15
G01X307.188Y-61.013
M16
G05
G00X311.938Y-61.113
M15
G01X307.188Y-61.113
M16
G05
G00X311.938Y-61.213
M15
G01X307.188Y-61.213
M16
G05
G00X311.938Y-61.313
M15
G01X307.188Y-61.313
M16
G05
G00X311.938Y-61.413
M15
G01X307.188Y-61.413
M16
G05
G00X311.938Y-61.513
M15
G01X307.188Y-61.513
M16
G05
G00X311.938Y-61.613
M15
G01X307.188Y-61.613
M16
G05
G00X311.938Y-61.713
M15
G01X307.188Y-61.713
M16
G05
G00X311.938Y-61.813
M15
G01X307.188Y-61.813
M16
G05
G00X311.938Y-61.913
M15
G01X307.188Y-61.913
M16
G05
G00X311.938Y-62.013
M15
G01X307.188Y-62.013
M16
G05
G00X311.938Y-62.113
M15
G01X307.188Y-62.113
M16
G05
G00X311.938Y-62.213
M15
G01X307.188Y-62.213
M16
G05
G00X311.938Y-62.313
M15
G01X307.188Y-62.313
M16
G05
G00X311.938Y-62.413
M15
G01X307.188Y-62.413
M16
G05
G00X311.938Y-62.513
M15
G01X307.188Y-62.513
M16
G05
G00X311.938Y-62.613
M15
G01X307.188Y-62.613
M16
G05
G00X311.938Y-62.713
M15
G01X307.188Y-62.713
M16
G05
G00X311.938Y-62.813
M15
G01X307.188Y-62.813
M16
G05
G00X311.938Y-62.913
M15
G01X307.188Y-62.913
M16
G05
G00X311.938Y-63.013
M15
G01X307.188Y-63.013
M16
G05
G00X311.938Y-63.113
M15
G01X307.188Y-63.113
M16
G05
G00X311.938Y-63.213
M15
G01X307.188Y-63.213
M16
G05
G00X311.938Y-63.313
M15
G01X307.188Y-63.313
M16
G05
G00X311.938Y-63.413
M15
G01X307.188Y-63.413
M16
G05
G00X311.938Y-63.513
M15
G01X307.188Y-63.513
M16
G05
G00X311.938Y-63.613
M15
G01X307.188Y-63.613
M16
G05
G00X311.938Y-63.713
M15
G01X307.188Y-63.713
M16
G05
G00X311.938Y-63.813
M15
G01X307.188Y-63.813
M16
G05
G00X311.938Y-63.913
M15
G01X307.188Y-63.913
M16
G05
G00X311.938Y-64.013
M15
G01X307.188Y-64.013
M16
G05
G00X311.938Y-64.113
M15
G01X307.188Y-64.113
M16
G05
G00X311.938Y-64.213
M15
G01X307.188Y-64.213
M16
G05
G00X311.938Y-64.313
M15
G01X307.188Y-64.313
M16
G05
G00X311.938Y-64.288
M15
G01X311.938Y-59.538
M16
G05
T0
M30
