  0
SECTION
  2
HEADER
  9
$ACADVER
  1
AC1027
  9
$ACADMAINTVER
 70
   125
  9
$DWGCODEPAGE
  3
ANSI_1252
  9
$LASTSAVEDBY
  1
Admin
  9
$REQUIREDVERSIONS
160
                 0
  9
$INSBASE
 10
0.0
 20
0.0
 30
0.0
  9
$EXTMIN
 10
-10.09778408420765
 20
-138.9862231840482
 30
0.0
  9
$EXTMAX
 10
341.9552148130712
 20
150.4911410957331
 30
0.0
  9
$LIMMIN
 10
0.0
 20
0.0
  9
$LIMMAX
 10
12.0
 20
9.0
  9
$ORTHOMODE
 70
     0
  9
$REGENMODE
 70
     1
  9
$FILLMODE
 70
     1
  9
$QTEXTMODE
 70
     0
  9
$MIRRTEXT
 70
     0
  9
$LTSCALE
 40
1.0
  9
$ATTMODE
 70
     1
  9
$TEXTSIZE
 40
0.2
  9
$TRACEWID
 40
0.05
  9
$TEXTSTYLE
  7
STANDARD
  9
$CLAYER
  8
0
  9
$CELTYPE
  6
Continuous
  9
$CECOLOR
 62
   256
  9
$CELTSCALE
 40
1.0
  9
$DISPSILH
 70
     0
  9
$DIMSCALE
 40
1.0
  9
$DIMASZ
 40
0.18
  9
$DIMEXO
 40
0.0625
  9
$DIMDLI
 40
0.38
  9
$DIMRND
 40
0.0
  9
$DIMDLE
 40
0.0
  9
$DIMEXE
 40
0.18
  9
$DIMTP
 40
0.0
  9
$DIMTM
 40
0.0
  9
$DIMTXT
 40
0.18
  9
$DIMCEN
 40
0.09
  9
$DIMTSZ
 40
0.0
  9
$DIMTOL
 70
     0
  9
$DIMLIM
 70
     0
  9
$DIMTIH
 70
     1
  9
$DIMTOH
 70
     1
  9
$DIMSE1
 70
     0
  9
$DIMSE2
 70
     0
  9
$DIMTAD
 70
     0
  9
$DIMZIN
 70
     0
  9
$DIMBLK
  1

  9
$DIMASO
 70
     1
  9
$DIMSHO
 70
     1
  9
$DIMPOST
  1

  9
$DIMAPOST
  1

  9
$DIMALT
 70
     0
  9
$DIMALTD
 70
     2
  9
$DIMALTF
 40
25.4
  9
$DIMLFAC
 40
1.0
  9
$DIMTOFL
 70
     0
  9
$DIMTVP
 40
0.0
  9
$DIMTIX
 70
     0
  9
$DIMSOXD
 70
     0
  9
$DIMSAH
 70
     0
  9
$DIMBLK1
  1

  9
$DIMBLK2
  1

  9
$DIMSTYLE
  2
Standard
  9
$DIMCLRD
 70
     0
  9
$DIMCLRE
 70
     0
  9
$DIMCLRT
 70
     0
  9
$DIMTFAC
 40
1.0
  9
$DIMGAP
 40
0.09
  9
$DIMJUST
 70
     0
  9
$DIMSD1
 70
     0
  9
$DIMSD2
 70
     0
  9
$DIMTOLJ
 70
     1
  9
$DIMTZIN
 70
     0
  9
$DIMALTZ
 70
     0
  9
$DIMALTTZ
 70
     0
  9
$DIMUPT
 70
     0
  9
$DIMDEC
 70
     4
  9
$DIMTDEC
 70
     4
  9
$DIMALTU
 70
     2
  9
$DIMALTTD
 70
     2
  9
$DIMTXSTY
  7
STANDARD
  9
$DIMAUNIT
 70
     0
  9
$DIMADEC
 70
     0
  9
$DIMALTRND
 40
0.0
  9
$DIMAZIN
 70
     0
  9
$DIMDSEP
 70
    46
  9
$DIMATFIT
 70
     3
  9
$DIMFRAC
 70
     0
  9
$DIMLDRBLK
  1

  9
$DIMLUNIT
 70
     2
  9
$DIMLWD
 70
    -2
  9
$DIMLWE
 70
    -2
  9
$DIMTMOVE
 70
     0
  9
$DIMFXL
 40
1.0
  9
$DIMFXLON
 70
     0
  9
$DIMJOGANG
 40
0.7853981633974483
  9
$DIMTFILL
 70
     0
  9
$DIMTFILLCLR
 70
     0
  9
$DIMARCSYM
 70
     0
  9
$DIMLTYPE
  6

  9
$DIMLTEX1
  6

  9
$DIMLTEX2
  6

  9
$DIMTXTDIRECTION
 70
     0
  9
$LUNITS
 70
     2
  9
$LUPREC
 70
     4
  9
$SKETCHINC
 40
0.1
  9
$FILLETRAD
 40
0.5
  9
$AUNITS
 70
     0
  9
$AUPREC
 70
     0
  9
$MENU
  1
.
  9
$ELEVATION
 40
0.0
  9
$PELEVATION
 40
0.0
  9
$THICKNESS
 40
0.0
  9
$LIMCHECK
 70
     0
  9
$CHAMFERA
 40
0.0
  9
$CHAMFERB
 40
0.0
  9
$CHAMFERC
 40
0.0
  9
$CHAMFERD
 40
0.0
  9
$SKPOLY
 70
     0
  9
$TDCREATE
 40
2460453.480243056
  9
$TDUCREATE
 40
2460453.188576389
  9
$TDUPDATE
 40
2460747.581898148
  9
$TDUUPDATE
 40
2460747.290231481
  9
$TDINDWG
 40
0.9510069444
  9
$TDUSRTIMER
 40
0.9510069444
  9
$USRTIMER
 70
     1
  9
$ANGBASE
 50
0.0
  9
$ANGDIR
 70
     0
  9
$PDMODE
 70
     0
  9
$PDSIZE
 40
0.0
  9
$PLINEWID
 40
0.0
  9
$SPLFRAME
 70
     0
  9
$SPLINETYPE
 70
     6
  9
$SPLINESEGS
 70
     8
  9
$HANDSEED
  5
1084A
  9
$SURFTAB1
 70
     6
  9
$SURFTAB2
 70
     6
  9
$SURFTYPE
 70
     6
  9
$SURFU
 70
     6
  9
$SURFV
 70
     6
  9
$UCSBASE
  2

  9
$UCSNAME
  2

  9
$UCSORG
 10
0.0
 20
0.0
 30
0.0
  9
$UCSXDIR
 10
1.0
 20
0.0
 30
0.0
  9
$UCSYDIR
 10
0.0
 20
1.0
 30
0.0
  9
$UCSORTHOREF
  2

  9
$UCSORTHOVIEW
 70
     0
  9
$UCSORGTOP
 10
0.0
 20
0.0
 30
0.0
  9
$UCSORGBOTTOM
 10
0.0
 20
0.0
 30
0.0
  9
$UCSORGLEFT
 10
0.0
 20
0.0
 30
0.0
  9
$UCSORGRIGHT
 10
0.0
 20
0.0
 30
0.0
  9
$UCSORGFRONT
 10
0.0
 20
0.0
 30
0.0
  9
$UCSORGBACK
 10
0.0
 20
0.0
 30
0.0
  9
$PUCSBASE
  2

  9
$PUCSNAME
  2

  9
$PUCSORG
 10
0.0
 20
0.0
 30
0.0
  9
$PUCSXDIR
 10
1.0
 20
0.0
 30
0.0
  9
$PUCSYDIR
 10
0.0
 20
1.0
 30
0.0
  9
$PUCSORTHOREF
  2

  9
$PUCSORTHOVIEW
 70
     0
  9
$PUCSORGTOP
 10
0.0
 20
0.0
 30
0.0
  9
$PUCSORGBOTTOM
 10
0.0
 20
0.0
 30
0.0
  9
$PUCSORGLEFT
 10
0.0
 20
0.0
 30
0.0
  9
$PUCSORGRIGHT
 10
0.0
 20
0.0
 30
0.0
  9
$PUCSORGFRONT
 10
0.0
 20
0.0
 30
0.0
  9
$PUCSORGBACK
 10
0.0
 20
0.0
 30
0.0
  9
$USERI1
 70
     0
  9
$USERI2
 70
     0
  9
$USERI3
 70
     0
  9
$USERI4
 70
     0
  9
$USERI5
 70
     0
  9
$USERR1
 40
0.0
  9
$USERR2
 40
0.0
  9
$USERR3
 40
0.0
  9
$USERR4
 40
0.0
  9
$USERR5
 40
0.0
  9
$WORLDVIEW
 70
     1
  9
$SHADEDGE
 70
     3
  9
$SHADEDIF
 70
    70
  9
$TILEMODE
 70
     1
  9
$MAXACTVP
 70
    64
  9
$PINSBASE
 10
0.0
 20
0.0
 30
0.0
  9
$PLIMCHECK
 70
     0
  9
$PEXTMIN
 10
1.000000000000000E+20
 20
1.000000000000000E+20
 30
1.000000000000000E+20
  9
$PEXTMAX
 10
-1.000000000000000E+20
 20
-1.000000000000000E+20
 30
-1.000000000000000E+20
  9
$PLIMMIN
 10
0.0
 20
0.0
  9
$PLIMMAX
 10
12.0
 20
9.0
  9
$UNITMODE
 70
     0
  9
$VISRETAIN
 70
     1
  9
$PLINEGEN
 70
     0
  9
$PSLTSCALE
 70
     1
  9
$TREEDEPTH
 70
  3020
  9
$CMLSTYLE
  2
Standard
  9
$CMLJUST
 70
     0
  9
$CMLSCALE
 40
1.0
  9
$PROXYGRAPHICS
 70
     1
  9
$MEASUREMENT
 70
     0
  9
$CELWEIGHT
370
    -1
  9
$ENDCAPS
280
     0
  9
$JOINSTYLE
280
     0
  9
$LWDISPLAY
290
     0
  9
$INSUNITS
 70
     4
  9
$HYPERLINKBASE
  1

  9
$STYLESHEET
  1

  9
$XEDIT
290
     1
  9
$CEPSNTYPE
380
     0
  9
$PSTYLEMODE
290
     1
  9
$FINGERPRINTGUID
  2
{0F45AA1D-3064-6040-84D2-85A797BCDAF5}
  9
$VERSIONGUID
  2
{F55F2F78-A882-D34F-806E-525483156DE0}
  9
$EXTNAMES
290
     1
  9
$PSVPSCALE
 40
0.0
  9
$OLESTARTUP
290
     0
  9
$SORTENTS
280
   127
  9
$INDEXCTL
280
     0
  9
$HIDETEXT
280
     0
  9
$XCLIPFRAME
280
     2
  9
$HALOGAP
280
     0
  9
$OBSCOLOR
 70
   257
  9
$OBSLTYPE
280
     0
  9
$INTERSECTIONDISPLAY
280
     0
  9
$INTERSECTIONCOLOR
 70
   257
  9
$DIMASSOC
280
     1
  9
$PROJECTNAME
  1

  9
$CAMERADISPLAY
290
     0
  9
$LENSLENGTH
 40
50.0
  9
$CAMERAHEIGHT
 40
0.0
  9
$STEPSPERSEC
 40
2.0
  9
$STEPSIZE
 40
6.0
  9
$3DDWFPREC
 40
2.0
  9
$PSOLWIDTH
 40
0.25
  9
$PSOLHEIGHT
 40
4.0
  9
$LOFTANG1
 40
1.570795999999999
  9
$LOFTANG2
 40
1.570795999999999
  9
$LOFTMAG1
 40
0.0
  9
$LOFTMAG2
 40
0.0
  9
$LOFTPARAM
 70
     7
  9
$LOFTNORMALS
280
     1
  9
$LATITUDE
 40
37.795
  9
$LONGITUDE
 40
-122.394
  9
$NORTHDIRECTION
 40
0.0
  9
$TIMEZONE
 70
 -8000
  9
$LIGHTGLYPHDISPLAY
280
     1
  9
$TILEMODELIGHTSYNCH
280
     1
  9
$CMATERIAL
347
10005
  9
$SOLIDHIST
280
     0
  9
$SHOWHIST
280
     1
  9
$DWFFRAME
280
     2
  9
$DGNFRAME
280
     0
  9
$REALWORLDSCALE
290
     1
  9
$INTERFERECOLOR
 62
     1
  9
$INTERFEREOBJVS
345
10027
  9
$INTERFEREVPVS
346
10024
  9
$CSHADOW
280
     0
  9
$SHADOWPLANELOCATION
 40
0.0
  0
ENDSEC
  0
SECTION
  2
CLASSES
  0
CLASS
  1
ACDBDICTIONARYWDFLT
  2
AcDbDictionaryWithDefault
  3
ObjectDBX Classes
 90
        0
 91
        1
280
     0
281
     0
  0
CLASS
  1
MATERIAL
  2
AcDbMaterial
  3
ObjectDBX Classes
 90
     1153
 91
        3
280
     0
281
     0
  0
CLASS
  1
VISUALSTYLE
  2
AcDbVisualStyle
  3
ObjectDBX Classes
 90
     4095
 91
       24
280
     0
281
     0
  0
CLASS
  1
TABLESTYLE
  2
AcDbTableStyle
  3
ObjectDBX Classes
 90
     4095
 91
        1
280
     0
281
     0
  0
CLASS
  1
SCALE
  2
AcDbScale
  3
ObjectDBX Classes
 90
     1153
 91
       17
280
     0
281
     0
  0
CLASS
  1
MLEADERSTYLE
  2
AcDbMLeaderStyle
  3
ACDB_MLEADERSTYLE_CLASS
 90
     4095
 91
        1
280
     0
281
     0
  0
CLASS
  1
ACDBSECTIONVIEWSTYLE
  2
AcDbSectionViewStyle
  3
ObjectDBX Classes
 90
     1025
 91
        1
280
     0
281
     0
  0
CLASS
  1
ACDBDETAILVIEWSTYLE
  2
AcDbDetailViewStyle
  3
ObjectDBX Classes
 90
     1025
 91
        1
280
     0
281
     0
  0
CLASS
  1
SORTENTSTABLE
  2
AcDbSortentsTable
  3
ObjectDBX Classes
 90
        0
 91
        1
280
     0
281
     0
  0
CLASS
  1
DICTIONARYVAR
  2
AcDbDictionaryVar
  3
ObjectDBX Classes
 90
        0
 91
        9
280
     0
281
     0
  0
CLASS
  1
CELLSTYLEMAP
  2
AcDbCellStyleMap
  3
ObjectDBX Classes
 90
     1152
 91
        2
280
     0
281
     0
  0
ENDSEC
  0
SECTION
  2
TABLES
  0
TABLE
  2
VPORT
  5
8
330
0
100
AcDbSymbolTable
 70
     1
1001
ACAD
1000
DbSaveVer
1071
      378
  0
VPORT
  5
10059
330
8
100
AcDbSymbolTableRecord
100
AcDbViewportTableRecord
  2
*Active
 70
     0
 10
0.0
 20
0.0
 11
1.0
 21
1.0
 12
98.46078531271679
 22
-93.0803827760817
 13
0.0
 23
0.0
 14
1.0
 24
1.0
 15
0.0
 25
0.0
 16
0.0
 26
0.0
 36
1.0
 17
0.0
 27
0.0
 37
0.0
 40
262.0419520640796
 41
2.941830624465355
 42
50.0
 43
0.0
 44
0.0
 50
0.0
 51
0.0
 71
     0
 72
  1000
 73
     1
 74
     3
 75
     0
 76
     0
 77
     0
 78
     0
281
     0
 65
     1
110
0.0
120
0.0
130
0.0
111
1.0
121
0.0
131
0.0
112
0.0
122
1.0
132
0.0
 79
     0
146
0.0
348
10023
 60
     3
 61
     5
292
     1
282
     1
141
0.0
142
0.0
 63
   250
421
  3355443
1001
ACAD_NAV_VCDISPLAY
1070
     1
  0
ENDTAB
  0
TABLE
  2
LTYPE
  5
5
330
0
100
AcDbSymbolTable
 70
     2
  0
LTYPE
  5
14
330
5
100
AcDbSymbolTableRecord
100
AcDbLinetypeTableRecord
  2
BYBLOCK
 70
     0
  3

 72
    65
 73
     0
 40
0.0
  0
LTYPE
  5
15
330
5
100
AcDbSymbolTableRecord
100
AcDbLinetypeTableRecord
  2
BYLAYER
 70
     0
  3

 72
    65
 73
     0
 40
0.0
  0
LTYPE
  5
10001
330
5
100
AcDbSymbolTableRecord
100
AcDbLinetypeTableRecord
  2
Continuous
 70
     0
  3
Solid line
 72
    65
 73
     0
 40
0.0
  0
ENDTAB
  0
TABLE
  2
LAYER
  5
2
102
{ACAD_XDICTIONARY
360
1005B
102
}
330
0
100
AcDbSymbolTable
 70
     1
  0
LAYER
  5
50
102
{ACAD_XDICTIONARY
360
1036C
102
}
330
2
100
AcDbSymbolTableRecord
100
AcDbLayerTableRecord
  2
0
 70
     0
 62
     7
  6
Continuous
370
    -3
390
10003
347
10015
348
0
  0
ENDTAB
  0
TABLE
  2
STYLE
  5
3
330
0
100
AcDbSymbolTable
 70
     1
  0
STYLE
  5
11
330
3
100
AcDbSymbolTableRecord
100
AcDbTextStyleTableRecord
  2
STANDARD
 70
     0
 40
0.0
 41
1.0
 50
0.0
 71
     0
 42
0.2
  3

  4

  0
ENDTAB
  0
TABLE
  2
VIEW
  5
6
330
0
100
AcDbSymbolTable
 70
     0
  0
ENDTAB
  0
TABLE
  2
UCS
  5
7
330
0
100
AcDbSymbolTable
 70
     0
  0
ENDTAB
  0
TABLE
  2
APPID
  5
9
330
0
100
AcDbSymbolTable
 70
     4
  0
APPID
  5
12
330
9
100
AcDbSymbolTableRecord
100
AcDbRegAppTableRecord
  2
ACAD
 70
     0
  0
APPID
  5
10058
330
9
100
AcDbSymbolTableRecord
100
AcDbRegAppTableRecord
  2
ACAD_NAV_VCDISPLAY
 70
     0
  0
APPID
  5
1016B
330
9
100
AcDbSymbolTableRecord
100
AcDbRegAppTableRecord
  2
ACAD_EXEMPT_FROM_CAD_STANDARDS
 70
     0
  0
APPID
  5
107D2
330
9
100
AcDbSymbolTableRecord
100
AcDbRegAppTableRecord
  2
ACAD_MLEADERVER
 70
     0
  0
ENDTAB
  0
TABLE
  2
DIMSTYLE
  5
A
330
0
100
AcDbSymbolTable
 70
     2
100
AcDbDimStyleTable
 71
     1
340
10053
  0
DIMSTYLE
105
10053
330
A
100
AcDbSymbolTableRecord
100
AcDbDimStyleTableRecord
  2
Standard
 70
     0
340
11
  0
ENDTAB
  0
TABLE
  2
BLOCK_RECORD
  5
1
330
0
100
AcDbSymbolTable
 70
     1
  0
BLOCK_RECORD
  5
1F
102
{ACAD_XDICTIONARY
360
10220
102
}
330
1
100
AcDbSymbolTableRecord
100
AcDbBlockTableRecord
  2
*MODEL_SPACE
340
10055
 70
     0
280
     1
281
     0
  0
BLOCK_RECORD
  5
1B
330
1
100
AcDbSymbolTableRecord
100
AcDbBlockTableRecord
  2
*PAPER_SPACE
340
10056
 70
     0
280
     1
281
     0
  0
ENDTAB
  0
ENDSEC
  0
SECTION
  2
BLOCKS
  0
BLOCK
  5
20
330
1F
100
AcDbEntity
  8
0
100
AcDbBlockBegin
  2
*MODEL_SPACE
 70
     0
 10
0.0
 20
0.0
 30
0.0
  3
*MODEL_SPACE
  1

  0
ENDBLK
  5
21
330
1F
100
AcDbEntity
  8
0
100
AcDbBlockEnd
  0
BLOCK
  5
1C
330
1B
100
AcDbEntity
 67
     1
  8
0
100
AcDbBlockBegin
  2
*PAPER_SPACE
 70
     0
 10
0.0
 20
0.0
 30
0.0
  3
*PAPER_SPACE
  1

  0
ENDBLK
  5
1D
330
1B
100
AcDbEntity
 67
     1
  8
0
100
AcDbBlockEnd
  0
ENDSEC
  0
SECTION
  2
ENTITIES
  0
LWPOLYLINE
  5
100DB
330
1F
100
AcDbEntity
  8
0
 62
     7
420
 16777215
100
AcDbPolyline
 90
        8
 70
     1
 43
0.0
 10
231.172215915792
 20
-88.00047201169688
 10
231.172215915792
 20
-75.05047201169668
 42
0.414213562373103
 10
230.1722159157918
 20
-74.05047201169669
 10
226.8222159157916
 20
-74.05047201169669
 42
0.4142135623730925
 10
225.8222159157915
 20
-75.05047201169668
 10
225.8222159157915
 20
-88.00047201169688
 42
0.4142135623731159
 10
226.8222159157916
 20
-89.00047201169675
 10
230.1722159157918
 20
-89.00047201169678
 42
0.4142135623730744
  0
CIRCLE
  5
100DC
330
1F
100
AcDbEntity
  8
0
 62
     7
420
 16777215
100
AcDbCircle
 10
11.09952591579371
 20
12.85130798830357
 30
0.0
 40
1.599999999999999
  0
CIRCLE
  5
100DD
330
1F
100
AcDbEntity
  8
0
 62
     7
420
 16777215
100
AcDbCircle
 10
117.399525915792
 20
12.85130798830357
 30
0.0
 40
1.6
  0
LWPOLYLINE
  5
100DF
330
1F
100
AcDbEntity
  8
0
 62
     7
420
 16777215
100
AcDbPolyline
 90
        8
 70
     1
 43
0.0
 10
279.9437159157936
 20
6.948027988303522
 42
-0.4142135623729434
 10
280.9437159157925
 20
5.948027988303607
 10
280.9437159157925
 20
-5.998972011696395
 42
-0.4142135623729441
 10
279.9437159157936
 20
-6.998972011696395
 10
277.6627159157935
 20
-6.998972011696395
 42
-0.4142135623731298
 10
276.6627159157918
 20
-5.998972011696395
 10
276.6627159157918
 20
5.948027988303607
 42
-0.4142135623731213
 10
277.6627159157935
 20
6.948027988303522
  0
LWPOLYLINE
  5
100E0
330
1F
100
AcDbEntity
  8
0
 62
     7
420
 16777215
100
AcDbPolyline
 90
       11
 70
     1
 43
0.0
 10
25.00871591579312
 20
6.948027988303522
 42
-0.4142135623730931
 10
26.00871591579312
 20
5.948027988303607
 10
26.00871591579312
 20
-5.998972011696395
 42
-0.4142135623730928
 10
25.00871591579312
 20
-6.998972011696395
 10
13.08171591579161
 20
-6.998972011696395
 42
-0.4142135623730935
 10
12.08171591579343
 20
-5.998972011696395
 10
12.08171591579343
 20
4.348027988303613
 42
-0.4142135623730943
 10
13.08171591579161
 20
5.348027988303613
 10
17.52071591579192
 20
5.348027988303613
 10
17.52071591579192
 20
5.948027988303607
 42
-0.4142135623730959
 10
18.52071591579192
 20
6.948027988303522
  0
LWPOLYLINE
  5
100E1
330
1F
100
AcDbEntity
  8
0
 62
     7
420
 16777215
100
AcDbPolyline
 90
        8
 70
     1
 43
0.0
 10
322.133715915792
 20
-75.07797201169632
 10
322.1337159157922
 20
-88.02497201169627
 42
0.4142135623730839
 10
322.6337159157923
 20
-88.52497201169626
 10
335.6607159157929
 20
-88.52497201169649
 42
0.4142135623730966
 10
336.1607159157929
 20
-88.02497201169652
 10
336.1607159157931
 20
-75.07797201169632
 42
0.4142135623730992
 10
335.6607159157931
 20
-74.57797201169632
 10
322.6337159157921
 20
-74.57797201169632
 42
0.4142135623731005
  0
CIRCLE
  5
100E2
330
1F
100
AcDbEntity
  8
0
 62
     7
420
 16777215
100
AcDbCircle
 10
221.001625915794
 20
-113.8386320116963
 30
0.0
 40
1.6
  0
LWPOLYLINE
  5
100E3
330
1F
100
AcDbEntity
  8
0
 62
     7
420
 16777215
100
AcDbPolyline
 90
        8
 70
     1
 43
0.0
 10
279.9437159157936
 20
-18.6339720116963
 42
-0.4142135623729449
 10
280.9437159157925
 20
-19.6339720116963
 10
280.9437159157925
 20
-109.9599720116963
 42
-0.4142135623729754
 10
279.9437159157936
 20
-110.9599720116963
 10
277.6627159157935
 20
-110.9599720116963
 42
-0.4142135623730951
 10
276.6627159157918
 20
-109.9599720116963
 10
276.6627159157918
 20
-19.6339720116963
 42
-0.4142135623731224
 10
277.6627159157935
 20
-18.6339720116963
  0
CIRCLE
  5
100E4
330
1F
100
AcDbEntity
  8
0
 62
     7
420
 16777215
100
AcDbCircle
 10
212.7995259157935
 20
12.85130798830357
 30
0.0
 40
1.6
  0
LWPOLYLINE
  5
100E5
330
1F
100
AcDbEntity
  8
0
 62
     7
420
 16777215
100
AcDbPolyline
 90
        8
 70
     1
 43
0.0
 10
268.8472159157929
 20
-89.00047201169675
 10
272.1972159157915
 20
-89.0004720116967
 42
0.4142135623730534
 10
273.1972159157915
 20
-88.0004720116967
 10
273.1972159157915
 20
-75.05047201169658
 42
0.4142135623730586
 10
272.1972159157915
 20
-74.05047201169657
 10
268.8472159157929
 20
-74.05047201169658
 42
0.414213562373103
 10
267.847215915793
 20
-75.05047201169658
 10
267.847215915793
 20
-88.0004720116967
 42
0.4142135623730898
  0
CIRCLE
  5
100E7
330
1F
100
AcDbEntity
  8
0
 62
     7
420
 16777215
100
AcDbCircle
 10
295.6016259157942
 20
-113.8386320116963
 30
0.0
 40
1.6
  0
LWPOLYLINE
  5
100E8
330
1F
100
AcDbEntity
  8
0
 62
     7
420
 16777215
100
AcDbPolyline
 90
        8
 70
     1
 43
0.0
 10
23.75355480468557
 20
-68.5004720116966
 10
23.75355480468557
 20
-56.55047201169669
 42
0.4142135623732225
 10
22.75355480468649
 20
-55.5504720116967
 10
18.45355480468628
 20
-55.5504720116967
 42
0.4142135623730937
 10
17.45355480468448
 20
-56.55047201169669
 10
17.45355480468448
 20
-68.50047201169672
 42
0.4142135623730996
 10
18.45355480468627
 20
-69.50047201169671
 10
22.75355480468647
 20
-69.5004720116966
 42
0.4142135623732264
  0
CIRCLE
  5
100E9
330
1F
100
AcDbEntity
  8
0
 62
     7
420
 16777215
100
AcDbCircle
 10
45.46162591579217
 20
-113.8386320116963
 30
0.0
 40
1.6
  0
CIRCLE
  5
100EA
330
1F
100
AcDbEntity
  8
0
 62
     7
420
 16777215
100
AcDbCircle
 10
317.7995259157954
 20
12.85130798830357
 30
0.0
 40
1.6
  0
LWPOLYLINE
  5
100EB
330
1F
100
AcDbEntity
  8
0
 62
     7
420
 16777215
100
AcDbPolyline
 90
       11
 70
     1
 43
0.0
 10
106.2147159157932
 20
-6.998972011696395
 42
-0.414213562373098
 10
105.2147159157932
 20
-5.998972011696395
 10
105.2147159157932
 20
5.948027988303607
 42
-0.4142135623730986
 10
106.2147159157932
 20
6.948027988303522
 10
108.8147159157917
 20
6.948027988303522
 42
-0.4142135623731168
 10
109.8147159157917
 20
5.948027988303607
 10
109.8147159157917
 20
5.498027988303704
 10
112.6587159157927
 20
5.498027988303704
 42
-0.4142135623731161
 10
113.6587159157927
 20
4.498027988303704
 10
113.6587159157927
 20
-5.998972011696395
 42
-0.4142135623730804
 10
112.6587159157927
 20
-6.998972011696395
  0
LWPOLYLINE
  5
100EF
330
1F
100
AcDbEntity
  8
0
 62
     7
420
 16777215
100
AcDbPolyline
 90
        8
 70
     1
 43
0.0
 10
248.6472159157923
 20
-50.50047201169657
 42
-0.4142135623730847
 10
247.6472159157923
 20
-49.5004720116966
 10
247.6472159157923
 20
-37.55047201169669
 42
-0.4142135623731015
 10
248.6472159157923
 20
-36.55047201169669
 10
250.5472159157918
 20
-36.55047201169669
 42
-0.4142135623731094
 10
251.5472159157936
 20
-37.55047201169669
 10
251.5472159157936
 20
-49.5004720116966
 42
-0.4142135623731189
 10
250.5472159157918
 20
-50.5004720116966
  0
LWPOLYLINE
  5
100F0
330
1F
100
AcDbEntity
  8
0
 62
     7
420
 16777215
100
AcDbPolyline
 90
        8
 70
     1
 43
0.0
 10
17.69721591579149
 20
-36.55047201169715
 10
16.29721591579184
 20
-36.55047201169669
 42
0.4142135623730976
 10
15.29721591579368
 20
-37.55047201169669
 10
15.29721591579368
 20
-49.5004720116966
 42
0.4142135623730833
 10
16.29721591579184
 20
-50.5004720116966
 10
17.69721591579149
 20
-50.5004720116966
 42
0.4142135623732253
 10
18.69721591579058
 20
-49.5004720116966
 10
18.69721591579058
 20
-37.55047201169669
 42
0.4142135623732174
  0
LWPOLYLINE
  5
100F1
330
1F
100
AcDbEntity
  8
0
 62
     7
420
 16777215
100
AcDbPolyline
 90
        8
 70
     1
 43
0.0
 10
199.7313159157941
 20
-5.998972011696395
 42
-0.4142135623731046
 10
198.731315915794
 20
-6.998972011696395
 10
191.5601159157953
 20
-6.998972011696395
 42
-0.4142135623730875
 10
190.5601159157934
 20
-5.998972011696395
 10
190.5601159157934
 20
5.948027988303607
 42
-0.4142135623730866
 10
191.5601159157953
 20
6.948027988303522
 10
198.731315915794
 20
6.948027988303522
 42
-0.4142135623731064
 10
199.731315915794
 20
5.948027988303607
  0
LWPOLYLINE
  5
100F2
330
1F
100
AcDbEntity
  8
0
 62
     7
420
 16777215
100
AcDbPolyline
 90
        8
 70
     1
 43
0.0
 10
298.0147159157935
 20
-88.02497201169675
 42
-0.4142135623731066
 10
297.5147159157934
 20
-88.52497201169674
 10
284.5877159157927
 20
-88.52497201169626
 42
-0.4142135623730836
 10
284.0877159157927
 20
-88.02497201169627
 10
284.0877159157927
 20
-75.07797201169632
 42
-0.4142135623730951
 10
284.5877159157927
 20
-74.57797201169632
 10
297.5147159157934
 20
-74.57797201169632
 42
-0.4142135623730951
 10
298.0147159157935
 20
-75.07797201169632
  0
LWPOLYLINE
  5
100F3
330
1F
100
AcDbEntity
  8
0
 62
     7
420
 16777215
100
AcDbPolyline
 90
        8
 70
     1
 43
0.0
 10
6.975000000000018
 20
6.474999999999312
 42
0.41421356237313
 10
6.475000000000018
 20
6.974999999999397
 10
-6.474999999999216
 20
6.974999999999397
 42
0.4142135623730951
 10
-6.974999999999216
 20
6.474999999999397
 10
-6.974999999999234
 20
-6.474999999999681
 42
0.4142135623730953
 10
-6.474999999999237
 20
-6.974999999999695
 10
6.474999999998447
 20
-6.974999999999695
 42
0.4142135623730602
 10
6.974999999998446
 20
-6.474999999999795
  0
LWPOLYLINE
  5
1022C
330
1F
100
AcDbEntity
  8
0
 62
     7
420
 16777215
100
AcDbPolyline
 90
       66
 70
     1
 43
0.0
 10
139.6615749999998
 20
-93.63010600000082
 42
-0.4142135623731284
 10
140.1615749999999
 20
-94.1301060000009
 10
140.1615749999983
 20
-107.2520920116963
 42
0.4142135623731292
 10
140.6615749999983
 20
-107.7520920116963
 10
183.4508817765938
 20
-107.7520920116964
 42
-0.2679491924311609
 10
184.3169071802923
 20
-108.2520920116963
 10
186.7995133379101
 20
-112.5520920116963
 42
0.267949192430943
 10
187.6655387416932
 20
-113.0520920116965
 10
210.5561134072853
 20
-113.0520920116946
 42
-0.6780742074754045
 10
214.5508384242932
 20
-113.0520920116963
 10
217.2577062012926
 20
-113.0520920116965
 42
-0.3976289731692004
 10
218.2560847918195
 20
-113.995169345023
 42
0.9446089312053123
 10
223.7471670397678
 20
-113.9951693450328
 42
-0.3976289731689749
 10
224.7455456302925
 20
-113.0520920116964
 10
291.8577062012921
 20
-113.0520920116965
 42
-0.3976289731684328
 10
292.8560847918183
 20
-113.9951693450279
 42
0.9446089312047858
 10
298.3471670397703
 20
-113.9951693450312
 42
-0.397628973168311
 10
299.3455456302921
 20
-113.0520920116964
 10
323.8561134072817
 20
-113.0520920116946
 42
-0.6780742074759801
 10
327.8508384242942
 20
-113.0520920116962
 10
337.5051659157918
 20
-113.0520920116964
 42
0.4142135623730961
 10
339.5051659157956
 20
-111.0520920116963
 10
339.5051659157947
 20
7.97452798830352
 42
0.4142135623730951
 10
337.5051659157946
 20
9.97452798830352
 10
322.3641642016931
 20
9.97452798830352
 42
-0.3255618721797459
 10
321.4123924130938
 20
10.6677211069034
 10
320.3087500438616
 20
14.09142420936129
 42
0.6869231815075039
 10
315.2279240157953
 20
13.9289522427035
 10
314.1921344004223
 20
10.67150274979499
 42
-0.3266601264783631
 10
313.2391518691941
 20
9.97452798830352
 10
217.3641642015931
 20
9.97452798830352
 42
-0.3255618721797567
 10
216.4123924130937
 20
10.6677211069036
 10
215.3087500438591
 20
14.09142420936129
 42
0.6869231815113525
 10
210.2279240157944
 20
13.92895224270373
 10
209.1921344004243
 20
10.6715027497967
 42
-0.3266601264790796
 10
208.239151869194
 20
9.97452798830352
 10
121.9641642016933
 20
9.97452798830352
 42
-0.3255618721793128
 10
121.0123924130933
 20
10.6677211069034
 10
119.9087500437591
 20
14.0914242093612
 42
0.6869231814952574
 10
114.8279240157928
 20
13.92895224280372
 10
113.7921344004219
 20
10.6715027497967
 42
-0.3266601264790023
 10
112.8391518691926
 20
9.97452798830352
 10
15.66416420169231
 20
9.974527988303407
 42
-0.325561872179171
 10
14.71239241312032
 20
10.66772110690041
 10
13.60875004385819
 20
14.0914242093612
 42
0.6869231815035373
 10
8.52792401579369
 20
13.92895224270373
 10
7.492134400420812
 20
10.6715027497967
 42
-0.3266601264788538
 10
6.539151869194252
 20
9.97452798830352
 10
-8.097784084207676
 20
9.97452798830352
 42
0.4142135623731175
 10
-10.09778408420765
 20
7.97452798830352
 10
-10.09778408420674
 20
-111.0520920116964
 42
0.4142135623728656
 10
-8.097784084208573
 20
-113.0520920116964
 10
1.106113407283587
 20
-113.0520920116947
 42
-0.6780742074754153
 10
5.100838424293438
 20
-113.0520920116963
 10
41.71770620129175
 20
-113.052092011696
 42
-0.397628973167885
 10
42.7160847918178
 20
-113.9951693450326
 42
0.9446089312043142
 10
48.20716703976676
 20
-113.9951693450291
 42
-0.3976289731681506
 10
49.20554563029259
 20
-113.0520920116963
 10
78.99368517709378
 20
-113.0520920116964
 42
0.2679491924313073
 10
79.85971058079417
 20
-112.5520920116962
 10
82.342316738409
 20
-108.2520920116964
 42
-0.2679491924312687
 10
83.20834214219322
 20
-107.7520920116963
 10
125.7115750000006
 20
-107.7520920116963
 42
0.4142135623730951
 10
126.2115750000007
 20
-107.2520920116963
 10
126.2115750000007
 20
-94.13010600000077
 42
-0.4142135623730961
 10
126.7115750000006
 20
-93.63010600000079
  0
LWPOLYLINE
  5
10246
330
1F
100
AcDbEntity
  8
0
 62
     7
420
 16777215
100
AcDbPolyline
 90
        8
 70
     1
 43
0.0
 10
265.3057019999979
 20
-19.0131070000009
 42
-0.4142135623730951
 10
265.8057019999978
 20
-18.5131070000009
 10
271.8057019999978
 20
-18.5131070000009
 42
-0.4142135623730951
 10
272.3057019999978
 20
-19.0131070000009
 10
272.3057019999978
 20
-33.0131070000009
 42
-0.4142135623730951
 10
271.8057019999978
 20
-33.5131070000009
 10
265.8057019999978
 20
-33.5131070000009
 42
-0.4142135623730951
 10
265.3057019999979
 20
-33.0131070000009
  0
LWPOLYLINE
  5
10247
330
1F
100
AcDbEntity
  8
0
 62
     7
420
 16777215
100
AcDbPolyline
 90
        8
 70
     1
 43
0.0
 10
241.9297019999978
 20
-18.5131070000009
 10
247.9297019999978
 20
-18.5131070000009
 42
-0.4142135623730951
 10
248.4297019999978
 20
-19.0131070000009
 10
248.4297019999978
 20
-33.0131070000009
 42
-0.4142135623730951
 10
247.9297019999978
 20
-33.5131070000009
 10
241.9297019999978
 20
-33.5131070000009
 42
-0.4142135623730951
 10
241.4297019999978
 20
-33.0131070000009
 10
241.4297019999978
 20
-19.0131070000009
 42
-0.4142135623730951
  0
LWPOLYLINE
  5
1024A
330
1F
100
AcDbEntity
  8
0
 62
     7
420
 16777215
100
AcDbPolyline
 90
        8
 70
     1
 43
0.0
 10
246.0916240000014
 20
-68.05916899999927
 42
-0.4142135623730951
 10
245.5916240000014
 20
-68.55916899999927
 10
239.5916240000014
 20
-68.55916899999927
 42
-0.4142135623730951
 10
239.0916240000013
 20
-68.05916899999927
 10
239.0916240000013
 20
-54.05916899999924
 42
-0.4142135623730951
 10
239.5916240000014
 20
-53.55916899999929
 10
245.5916240000014
 20
-53.55916899999929
 42
-0.4142135623730951
 10
246.0916240000014
 20
-54.05916899999924
  0
LWPOLYLINE
  5
1024B
330
1F
100
AcDbEntity
  8
0
 62
     7
420
 16777215
100
AcDbPolyline
 90
        8
 70
     1
 43
0.0
 10
269.4676240000013
 20
-68.55916899999927
 10
263.4676240000014
 20
-68.55916899999927
 42
-0.4142135623730951
 10
262.9676240000013
 20
-68.05916899999927
 10
262.9676240000013
 20
-54.05916899999929
 42
-0.4142135623730951
 10
263.4676240000014
 20
-53.55916899999929
 10
269.4676240000013
 20
-53.55916899999929
 42
-0.4142135623730951
 10
269.9676240000014
 20
-54.05916899999929
 10
269.9676240000014
 20
-68.05916899999927
 42
-0.4142135623730951
  0
LWPOLYLINE
  5
1024C
330
1F
100
AcDbEntity
  8
0
 62
     7
420
 16777215
100
AcDbPolyline
 90
        8
 70
     1
 43
0.0
 10
258.3084169999978
 20
-76.08210700000083
 42
-0.4142135623730951
 10
258.8084169999979
 20
-75.58210700000085
 10
264.8084169999979
 20
-75.58210700000085
 42
-0.4142135623730951
 10
265.3084169999979
 20
-76.08210700000083
 10
265.3084169999979
 20
-90.08210700000084
 42
-0.4142135623730951
 10
264.8084169999979
 20
-90.58210700000085
 10
258.8084169999979
 20
-90.58210700000085
 42
-0.4142135623730951
 10
258.3084169999978
 20
-90.08210700000084
  0
LWPOLYLINE
  5
1024D
330
1F
100
AcDbEntity
  8
0
 62
     7
420
 16777215
100
AcDbPolyline
 90
        8
 70
     1
 43
0.0
 10
234.9324169999979
 20
-75.58210700000085
 10
240.9324169999979
 20
-75.58210700000085
 42
-0.4142135623730951
 10
241.4324169999979
 20
-76.08210700000083
 10
241.4324169999979
 20
-90.08210700000084
 42
-0.4142135623730951
 10
240.9324169999979
 20
-90.58210700000085
 10
234.9324169999979
 20
-90.58210700000085
 42
-0.4142135623730951
 10
234.4324169999978
 20
-90.08210700000084
 10
234.4324169999978
 20
-76.08210700000083
 42
-0.4142135623730951
  0
LWPOLYLINE
  5
1024E
330
1F
100
AcDbEntity
  8
0
 62
     7
420
 16777215
100
AcDbPolyline
 90
        8
 70
     1
 43
0.0
 10
20.45200899999787
 20
-76.08287800000084
 42
-0.4142135623730951
 10
20.95200899999787
 20
-75.58287800000084
 10
26.95200899999787
 20
-75.58287800000084
 42
-0.4142135623730951
 10
27.45200899999787
 20
-76.08287800000084
 10
27.45200899999787
 20
-90.08287800000084
 42
-0.4142135623730951
 10
26.95200899999787
 20
-90.58287800000085
 10
20.95200899999787
 20
-90.58287800000085
 42
-0.4142135623730951
 10
20.45200899999787
 20
-90.08287800000084
  0
LWPOLYLINE
  5
1024F
330
1F
100
AcDbEntity
  8
0
 62
     7
420
 16777215
100
AcDbPolyline
 90
        8
 70
     1
 43
0.0
 10
-2.923991000002136
 20
-75.58287800000084
 10
3.076008999997863
 20
-75.58287800000084
 42
-0.4142135623730951
 10
3.576008999997863
 20
-76.08287800000084
 10
3.576008999997863
 20
-90.08287800000084
 42
-0.4142135623730951
 10
3.076008999997863
 20
-90.58287800000085
 10
-2.923991000002136
 20
-90.58287800000085
 42
-0.4142135623730951
 10
-3.423991000002136
 20
-90.08287800000084
 10
-3.423991000002136
 20
-76.08287800000084
 42
-0.4142135623730951
  0
LWPOLYLINE
  5
1025B
330
1F
100
AcDbEntity
  8
0
 62
     7
420
 16777215
100
AcDbPolyline
 90
        8
 70
     1
 43
0.0
 10
186.9870749999984
 20
-95.10510500000052
 42
-0.4142135623730951
 10
187.4870749999984
 20
-94.60510500000053
 10
193.4870749999984
 20
-94.60510500000053
 42
-0.4142135623730951
 10
193.9870749999984
 20
-95.10510500000052
 10
193.9870749999984
 20
-109.1051050000005
 42
-0.4142135623730951
 10
193.4870749999984
 20
-109.6051050000005
 10
187.4870749999984
 20
-109.6051050000005
 42
-0.4142135623730951
 10
186.9870749999984
 20
-109.1051050000005
  0
LWPOLYLINE
  5
1025C
330
1F
100
AcDbEntity
  8
0
 62
     7
420
 16777215
100
AcDbPolyline
 90
        8
 70
     1
 43
0.0
 10
72.44947499999856
 20
-95.1051050000005
 42
-0.4142135623730951
 10
72.94947499999856
 20
-94.60510500000049
 10
78.94947499999855
 20
-94.60510500000049
 42
-0.4142135623730951
 10
79.44947499999855
 20
-95.1051050000005
 10
79.44947499999855
 20
-109.1051050000005
 42
-0.4142135623730951
 10
78.94947499999855
 20
-109.6051050000005
 10
72.94947499999856
 20
-109.6051050000005
 42
-0.4142135623730951
 10
72.44947499999856
 20
-109.1051050000005
  0
LWPOLYLINE
  5
10285
330
1F
100
AcDbEntity
  8
0
 62
     7
420
 16777215
100
AcDbPolyline
 90
       20
 70
     1
 43
0.0
 10
106.3872159157948
 20
-106.5404720116966
 42
0.4142135623730033
 10
107.3872159157948
 20
-105.540472011697
 10
107.3872159157957
 20
-102.5504720116966
 10
121.3472159157929
 20
-102.5504720116966
 42
0.4142135623731159
 10
122.3472159157929
 20
-101.5504720116965
 10
122.3472159157929
 20
-96.60047201169675
 42
0.4142135623731159
 10
121.3472159157929
 20
-95.60047201169671
 10
107.3872159157935
 20
-95.60047201169671
 10
107.3872159157926
 20
-92.61047201169636
 42
0.4142135623730016
 10
106.3872159157926
 20
-91.61047201169669
 10
98.90721591579264
 20
-91.61047201169663
 42
0.4142135623731882
 10
97.90721591579263
 20
-92.61047201169697
 10
97.90721591579353
 20
-95.60047201169671
 10
83.94721591579148
 20
-95.60047201169671
 42
0.4142135623731157
 10
82.94721591579152
 20
-96.60047201169675
 10
82.9472159157933
 20
-101.5504720116965
 42
0.41421356237312
 10
83.94721591579148
 20
-102.5504720116966
 10
97.90721591579572
 20
-102.5504720116966
 10
97.90721591579485
 20
-105.5404720116963
 42
0.4142135623731872
 10
98.90721591579485
 20
-106.5404720116966
  0
LWPOLYLINE
  5
10286
330
1F
100
AcDbEntity
  8
0
 62
     7
420
 16777215
100
AcDbPolyline
 90
       20
 70
     1
 43
0.0
 10
167.5372159157933
 20
-106.5404720116968
 42
0.4142135623730033
 10
168.5372159157933
 20
-105.5404720116972
 10
168.5372159157942
 20
-102.5504720116968
 10
182.4972159157914
 20
-102.5504720116968
 42
0.4142135623731159
 10
183.4972159157914
 20
-101.5504720116967
 10
183.4972159157914
 20
-96.60047201169696
 42
0.4142135623731159
 10
182.4972159157914
 20
-95.60047201169693
 10
168.537215915792
 20
-95.60047201169693
 10
168.5372159157911
 20
-92.61047201169658
 42
0.4142135623730016
 10
167.5372159157911
 20
-91.61047201169692
 10
160.057215915791
 20
-91.61047201169685
 42
0.4142135623731882
 10
159.0572159157911
 20
-92.6104720116972
 10
159.057215915792
 20
-95.60047201169693
 10
145.09721591579
 20
-95.60047201169693
 42
0.4142135623731157
 10
144.09721591579
 20
-96.60047201169696
 10
144.0972159157918
 20
-101.5504720116967
 42
0.41421356237312
 10
145.09721591579
 20
-102.5504720116968
 10
159.0572159157942
 20
-102.5504720116968
 10
159.0572159157933
 20
-105.5404720116965
 42
0.4142135623731872
 10
160.0572159157933
 20
-106.5404720116968
  0
LWPOLYLINE
  5
102A7
330
1F
100
AcDbEntity
  8
0
 62
     7
420
 16777215
100
AcDbPolyline
 90
        8
 70
     1
 43
0.0
 10
273.0863769752443
 20
-50.50047201169694
 42
-0.4142135623732121
 10
272.0863769752453
 20
-49.50047201169697
 10
272.0863769752453
 20
-37.5504720116971
 42
-0.4142135623732589
 10
273.0863769752443
 20
-36.55047201169708
 10
274.486376975244
 20
-36.55047201169708
 42
-0.4142135623731005
 10
275.4863769752441
 20
-37.5504720116971
 10
275.4863769752441
 20
-49.50047201169697
 42
-0.4142135623730898
 10
274.486376975244
 20
-50.50047201169694
  0
LWPOLYLINE
  5
102A8
330
1F
100
AcDbEntity
  8
0
 62
     7
420
 16777215
100
AcDbPolyline
 90
        4
 70
     1
 43
0.0
 10
-8.507784084204779
 20
-94.18547201169646
 42
-1.0
 10
-6.507784084206604
 20
-94.18547201169646
 10
-6.507784084206604
 20
-107.9854720116963
 42
-1.0
 10
-8.507784084204779
 20
-107.9854720116963
  0
LWPOLYLINE
  5
102AD
330
1F
100
AcDbEntity
  8
0
 62
     7
420
 16777215
100
AcDbPolyline
 90
        4
 70
     1
 43
0.0
 10
18.70221591579436
 20
-108.9854720116963
 42
-1.0
 10
18.70221591579434
 20
-110.9854720116963
 10
7.702215915794321
 20
-110.9854720116963
 42
-1.0
 10
7.702215915794341
 20
-108.9854720116963
  0
LWPOLYLINE
  5
102B2
330
1F
100
AcDbEntity
  8
0
 62
     7
420
 16777215
100
AcDbPolyline
 90
        8
 70
     1
 43
0.0
 10
-7.832784084207331
 20
-50.52197201169639
 10
-5.246784084207992
 20
-50.52197201169639
 42
0.4142135623730872
 10
-4.246784084206163
 20
-49.52197201169636
 10
-4.246784084206179
 20
-37.57497201169636
 42
0.4142135623730919
 10
-5.246784084207992
 20
-36.5749720116964
 10
-7.832784084207331
 20
-36.57497201169638
 42
0.4142135623730928
 10
-8.832784084207345
 20
-37.57497201169636
 10
-8.832784084207331
 20
-49.52197201169636
 42
0.414213562373096
  0
LWPOLYLINE
  5
102EC
330
1F
100
AcDbEntity
  8
0
  6
Continuous
 62
     7
420
 16777215
100
AcDbPolyline
 90
        8
 70
     1
 43
0.0
 10
-6.163284084207393
 20
-14.25397201169639
 10
132.2867159157933
 20
-14.25397201169639
 42
0.4142135623730951
 10
132.7867159157933
 20
-13.75397201169639
 10
132.7867159157933
 20
-10.75397201169639
 42
0.4142135623730951
 10
132.2867159157933
 20
-10.25397201169639
 10
-6.163284084207365
 20
-10.25397201169639
 42
0.4142135623730951
 10
-6.663284084207377
 20
-10.75397201169639
 10
-6.663284084207377
 20
-13.75397201169639
 42
0.4142135623730951
  0
LWPOLYLINE
  5
102ED
330
1F
100
AcDbEntity
  8
0
  6
Continuous
 62
     7
420
 16777215
100
AcDbPolyline
 90
        8
 70
     1
 43
0.0
 10
276.8117159157948
 20
-10.25397201169639
 10
138.361715915794
 20
-10.25397201169639
 42
0.4142135623730951
 10
137.861715915794
 20
-10.75397201169639
 10
137.861715915794
 20
-13.75397201169639
 42
0.4142135623730951
 10
138.361715915794
 20
-14.25397201169639
 10
276.8117159157948
 20
-14.25397201169639
 42
0.4142135623730951
 10
277.3117159157948
 20
-13.75397201169639
 10
277.3117159157948
 20
-10.75397201169639
 42
0.4142135623730951
  0
LWPOLYLINE
  5
102EE
330
1F
100
AcDbEntity
  8
0
  6
Continuous
 62
     7
420
 16777215
100
AcDbPolyline
 90
        8
 70
     1
 43
0.0
 10
281.3817159157927
 20
-10.75397201169639
 10
281.3817159157927
 20
-13.75397201169639
 42
0.4142135623730951
 10
281.8817159157928
 20
-14.25397201169639
 10
336.1817159157938
 20
-14.25397201169639
 42
0.4142135623730951
 10
336.6817159157938
 20
-13.75397201169639
 10
336.6817159157938
 20
-10.75397201169639
 42
0.4142135623730951
 10
336.1817159157938
 20
-10.25397201169639
 10
281.8817159157928
 20
-10.25397201169639
 42
0.4142135623730951
  0
LWPOLYLINE
  5
1030D
330
1F
100
AcDbEntity
  8
0
 62
     7
420
 16777215
100
AcDbPolyline
 90
        8
 70
     1
 43
0.0
 10
45.01230199999988
 20
6.461897999999592
 42
0.41421356237313
 10
44.51230199999988
 20
6.961897999999706
 10
31.56230200000068
 20
6.961897999999706
 42
0.4142135623730951
 10
31.06230200000068
 20
6.461897999999706
 10
31.06230200000066
 20
-6.488101999999599
 42
0.4142135623730953
 10
31.56230200000066
 20
-6.9881019999995
 10
44.51230199999833
 20
-6.9881019999995
 42
0.4142135623730602
 10
45.01230199999833
 20
-6.488101999999599
  0
LWPOLYLINE
  5
1030E
330
1F
100
AcDbEntity
  8
0
 62
     7
420
 16777215
100
AcDbPolyline
 90
        8
 70
     1
 43
0.0
 10
64.04533199999992
 20
6.461891999999608
 42
0.41421356237313
 10
63.54533199999991
 20
6.961891999999721
 10
50.59533200000068
 20
6.961891999999721
 42
0.4142135623730951
 10
50.09533200000067
 20
6.461891999999721
 10
50.09533200000063
 20
-6.488107999999499
 42
0.4142135623730953
 10
50.59533200000064
 20
-6.988107999999385
 10
63.54533199999835
 20
-6.988107999999385
 42
0.4142135623730602
 10
64.04533199999836
 20
-6.488107999999499
  0
LWPOLYLINE
  5
1030F
330
1F
100
AcDbEntity
  8
0
 62
     7
420
 16777215
100
AcDbPolyline
 90
        8
 70
     1
 43
0.0
 10
83.0801209999999
 20
6.461895999999597
 42
0.41421356237313
 10
82.58012099999989
 20
6.961895999999711
 10
69.63012100000067
 20
6.961895999999711
 42
0.4142135623730951
 10
69.13012100000067
 20
6.461895999999711
 10
69.13012100000066
 20
-6.488103999999509
 42
0.4142135623730953
 10
69.63012100000065
 20
-6.988103999999395
 10
82.58012099999834
 20
-6.988103999999395
 42
0.4142135623730602
 10
83.08012099999833
 20
-6.488103999999509
  0
LWPOLYLINE
  5
10310
330
1F
100
AcDbEntity
  8
0
 62
     7
420
 16777215
100
AcDbPolyline
 90
        8
 70
     1
 43
0.0
 10
102.1031209999999
 20
6.461895999999597
 42
0.41421356237313
 10
101.6031209999999
 20
6.961895999999711
 10
88.65312100000073
 20
6.961895999999711
 42
0.4142135623730951
 10
88.15312100000072
 20
6.461895999999711
 10
88.15312100000065
 20
-6.488103999999509
 42
0.4142135623730953
 10
88.65312100000066
 20
-6.988103999999395
 10
101.6031209999983
 20
-6.988103999999395
 42
0.4142135623730602
 10
102.1031209999983
 20
-6.488103999999509
  0
LWPOLYLINE
  5
10311
330
1F
100
AcDbEntity
  8
0
 62
     7
420
 16777215
100
AcDbPolyline
 90
        8
 70
     1
 43
0.0
 10
130.7021209999999
 20
6.461895999999597
 42
0.41421356237313
 10
130.2021209999999
 20
6.961895999999711
 10
117.2521210000006
 20
6.961895999999711
 42
0.4142135623730951
 10
116.7521210000006
 20
6.461895999999711
 10
116.7521210000006
 20
-6.488103999999509
 42
0.4142135623730953
 10
117.2521210000006
 20
-6.988103999999395
 10
130.2021209999983
 20
-6.988103999999395
 42
0.4142135623730602
 10
130.7021209999983
 20
-6.488103999999509
  0
LWPOLYLINE
  5
10312
330
1F
100
AcDbEntity
  8
0
 62
     7
420
 16777215
100
AcDbPolyline
 90
        8
 70
     1
 43
0.0
 10
149.7251209999999
 20
6.461895999999597
 42
0.41421356237313
 10
149.2251209999999
 20
6.961895999999711
 10
136.2751210000006
 20
6.961895999999711
 42
0.4142135623730951
 10
135.7751210000007
 20
6.461895999999711
 10
135.7751210000006
 20
-6.488103999999509
 42
0.4142135623730953
 10
136.2751210000006
 20
-6.988103999999395
 10
149.2251209999983
 20
-6.988103999999395
 42
0.4142135623730602
 10
149.7251209999983
 20
-6.488103999999509
  0
LWPOLYLINE
  5
10313
330
1F
100
AcDbEntity
  8
0
 62
     7
420
 16777215
100
AcDbPolyline
 90
        8
 70
     1
 43
0.0
 10
168.7481209999999
 20
6.461895999999597
 42
0.41421356237313
 10
168.2481209999999
 20
6.961895999999711
 10
155.2981210000007
 20
6.961895999999711
 42
0.4142135623730951
 10
154.7981210000007
 20
6.461895999999711
 10
154.7981210000007
 20
-6.488103999999509
 42
0.4142135623730953
 10
155.2981210000007
 20
-6.988103999999395
 10
168.2481209999983
 20
-6.988103999999395
 42
0.4142135623730602
 10
168.7481209999983
 20
-6.488103999999509
  0
LWPOLYLINE
  5
10314
330
1F
100
AcDbEntity
  8
0
 62
     7
420
 16777215
100
AcDbPolyline
 90
        8
 70
     1
 43
0.0
 10
187.7711209999998
 20
6.461895999999597
 42
0.41421356237313
 10
187.2711209999998
 20
6.961895999999711
 10
174.3211210000006
 20
6.961895999999711
 42
0.4142135623730951
 10
173.8211210000006
 20
6.461895999999711
 10
173.8211210000006
 20
-6.488103999999509
 42
0.4142135623730953
 10
174.3211210000006
 20
-6.988103999999395
 10
187.2711209999982
 20
-6.988103999999395
 42
0.4142135623730602
 10
187.7711209999983
 20
-6.488103999999509
  0
LWPOLYLINE
  5
10315
330
1F
100
AcDbEntity
  8
0
 62
     7
420
 16777215
100
AcDbPolyline
 90
        8
 70
     1
 43
0.0
 10
216.452121
 20
6.461895999999597
 42
0.41421356237313
 10
215.9521209999999
 20
6.961895999999711
 10
203.0021210000007
 20
6.961895999999711
 42
0.4142135623730951
 10
202.5021210000007
 20
6.461895999999711
 10
202.5021210000006
 20
-6.488103999999509
 42
0.4142135623730953
 10
203.0021210000007
 20
-6.988103999999395
 10
215.9521209999983
 20
-6.988103999999395
 42
0.4142135623730602
 10
216.4521209999983
 20
-6.488103999999509
  0
LWPOLYLINE
  5
10316
330
1F
100
AcDbEntity
  8
0
 62
     7
420
 16777215
100
AcDbPolyline
 90
        8
 70
     1
 43
0.0
 10
235.4751209999999
 20
6.461895999999597
 42
0.41421356237313
 10
234.9751209999999
 20
6.961895999999711
 10
222.0251210000007
 20
6.961895999999711
 42
0.4142135623730951
 10
221.5251210000007
 20
6.461895999999711
 10
221.5251210000007
 20
-6.488103999999509
 42
0.4142135623730953
 10
222.0251210000007
 20
-6.988103999999395
 10
234.9751209999983
 20
-6.988103999999395
 42
0.4142135623730602
 10
235.4751209999985
 20
-6.488103999999509
  0
LWPOLYLINE
  5
10317
330
1F
100
AcDbEntity
  8
0
 62
     7
420
 16777215
100
AcDbPolyline
 90
        8
 70
     1
 43
0.0
 10
254.4981209999999
 20
6.461895999999597
 42
0.41421356237313
 10
253.9981209999999
 20
6.961895999999711
 10
241.0481210000007
 20
6.961895999999711
 42
0.4142135623730951
 10
240.5481210000008
 20
6.461895999999711
 10
240.5481210000008
 20
-6.488103999999509
 42
0.4142135623730953
 10
241.0481210000007
 20
-6.988103999999395
 10
253.9981209999983
 20
-6.988103999999395
 42
0.4142135623730602
 10
254.4981209999983
 20
-6.488103999999509
  0
LWPOLYLINE
  5
10318
330
1F
100
AcDbEntity
  8
0
 62
     7
420
 16777215
100
AcDbPolyline
 90
        8
 70
     1
 43
0.0
 10
273.4922669999999
 20
6.461896999999595
 42
0.41421356237313
 10
272.9922669999999
 20
6.961896999999709
 10
260.0422670000007
 20
6.961896999999709
 42
0.4142135623730951
 10
259.5422670000007
 20
6.461896999999709
 10
259.5422670000007
 20
-6.488102999999512
 42
0.4142135623730953
 10
260.0422670000007
 20
-6.988102999999497
 10
272.9922669999983
 20
-6.988102999999497
 42
0.4142135623730602
 10
273.4922669999983
 20
-6.488102999999512
  0
LWPOLYLINE
  5
10319
330
1F
100
AcDbEntity
  8
0
 62
     7
420
 16777215
100
AcDbPolyline
 90
        8
 70
     1
 43
0.0
 10
297.9850869999999
 20
6.4618949999996
 42
0.41421356237313
 10
297.485087
 20
6.961894999999714
 10
284.5350870000006
 20
6.961894999999714
 42
0.4142135623730951
 10
284.0350870000006
 20
6.461894999999714
 10
284.0350870000006
 20
-6.488104999999393
 42
0.4142135623730953
 10
284.5350870000006
 20
-6.988104999999393
 10
297.4850869999983
 20
-6.988104999999507
 42
0.4142135623730602
 10
297.9850869999983
 20
-6.488104999999507
  0
LWPOLYLINE
  5
1031A
330
1F
100
AcDbEntity
  8
0
 62
     7
420
 16777215
100
AcDbPolyline
 90
        8
 70
     1
 43
0.0
 10
317.0191720000001
 20
6.461892999999605
 42
0.41421356237313
 10
316.5191720000001
 20
6.961892999999719
 10
303.5691720000007
 20
6.961892999999719
 42
0.4142135623730951
 10
303.0691720000007
 20
6.461892999999719
 10
303.0691720000007
 20
-6.488106999999388
 42
0.4142135623730953
 10
303.5691720000007
 20
-6.988106999999388
 10
316.5191719999985
 20
-6.988106999999388
 42
0.4142135623730602
 10
317.0191719999984
 20
-6.488106999999502
  0
LWPOLYLINE
  5
1031B
330
1F
100
AcDbEntity
  8
0
 62
     7
420
 16777215
100
AcDbPolyline
 90
        8
 70
     1
 43
0.0
 10
336.110025
 20
6.461851999999595
 42
0.41421356237313
 10
335.6100249999999
 20
6.961851999999595
 10
322.6600250000008
 20
6.961851999999709
 42
0.4142135623730951
 10
322.1600250000008
 20
6.461851999999709
 10
322.1600250000008
 20
-6.488147999999512
 42
0.4142135623730953
 10
322.6600250000008
 20
-6.988147999999384
 10
335.6100249999983
 20
-6.988147999999497
 42
0.4142135623730602
 10
336.1100249999983
 20
-6.488147999999512
  0
LWPOLYLINE
  5
1031C
330
1F
100
AcDbEntity
  8
0
 62
     7
420
 16777215
100
AcDbPolyline
 90
        8
 70
     1
 43
0.0
 10
7.005514999999944
 20
-18.0380990000004
 42
0.41421356237313
 10
6.505514999999944
 20
-17.5380990000004
 10
-6.44448499999929
 20
-17.5380990000003
 42
0.4142135623730951
 10
-6.944484999999291
 20
-18.0380990000003
 10
-6.944484999999309
 20
-30.98809899999951
 42
0.4142135623730953
 10
-6.444484999999309
 20
-31.48809899999951
 10
6.505514999998374
 20
-31.48809899999951
 42
0.4142135623730602
 10
7.005514999998374
 20
-30.9880989999996
  0
LWPOLYLINE
  5
1031D
330
1F
100
AcDbEntity
  8
0
 62
     7
420
 16777215
100
AcDbPolyline
 90
        8
 70
     1
 43
0.0
 10
26.03557899999993
 20
-18.0381100000004
 42
0.41421356237313
 10
25.53557899999993
 20
-17.5381100000004
 10
12.58557900000069
 20
-17.5381100000003
 42
0.4142135623730951
 10
12.08557900000069
 20
-18.0381100000003
 10
12.08557900000067
 20
-30.98810999999951
 42
0.4142135623730953
 10
12.58557900000067
 20
-31.48810999999951
 10
25.53557899999836
 20
-31.48810999999951
 42
0.4142135623730602
 10
26.03557899999837
 20
-30.9881099999996
  0
LWPOLYLINE
  5
1031E
330
1F
100
AcDbEntity
  8
0
 62
     7
420
 16777215
100
AcDbPolyline
 90
        8
 70
     1
 43
0.0
 10
45.03412099999988
 20
-18.0381030000004
 42
0.41421356237313
 10
44.53412099999988
 20
-17.5381030000004
 10
31.58412100000067
 20
-17.5381030000003
 42
0.4142135623730951
 10
31.08412100000067
 20
-18.0381030000003
 10
31.08412100000065
 20
-30.98810299999938
 42
0.4142135623730953
 10
31.58412100000065
 20
-31.48810299999939
 10
44.53412099999833
 20
-31.4881029999995
 42
0.4142135623730602
 10
45.03412099999833
 20
-30.9881029999995
  0
LWPOLYLINE
  5
1031F
330
1F
100
AcDbEntity
  8
0
 62
     7
420
 16777215
100
AcDbPolyline
 90
        8
 70
     1
 43
0.0
 10
64.05712099999989
 20
-18.0381030000004
 42
0.41421356237313
 10
63.55712099999991
 20
-17.5381030000004
 10
50.6071210000007
 20
-17.5381030000003
 42
0.4142135623730951
 10
50.1071210000007
 20
-18.0381030000003
 10
50.10712100000066
 20
-30.98810299999938
 42
0.4142135623730953
 10
50.60712100000067
 20
-31.48810299999939
 10
63.55712099999837
 20
-31.4881029999995
 42
0.4142135623730602
 10
64.05712099999838
 20
-30.9881029999995
  0
LWPOLYLINE
  5
10320
330
1F
100
AcDbEntity
  8
0
 62
     7
420
 16777215
100
AcDbPolyline
 90
        8
 70
     1
 43
0.0
 10
83.0801209999999
 20
-18.0381030000004
 42
0.41421356237313
 10
82.58012099999989
 20
-17.5381030000004
 10
69.63012100000067
 20
-17.5381030000003
 42
0.4142135623730951
 10
69.13012100000067
 20
-18.0381030000003
 10
69.13012100000066
 20
-30.98810299999938
 42
0.4142135623730953
 10
69.63012100000065
 20
-31.48810299999939
 10
82.58012099999834
 20
-31.4881029999995
 42
0.4142135623730602
 10
83.08012099999833
 20
-30.9881029999995
  0
LWPOLYLINE
  5
10321
330
1F
100
AcDbEntity
  8
0
 62
     7
420
 16777215
100
AcDbPolyline
 90
        8
 70
     1
 43
0.0
 10
102.1031209999999
 20
-18.0381030000004
 42
0.41421356237313
 10
101.6031209999999
 20
-17.5381030000004
 10
88.65312100000073
 20
-17.5381030000003
 42
0.4142135623730951
 10
88.15312100000072
 20
-18.0381030000003
 10
88.15312100000065
 20
-30.98810299999938
 42
0.4142135623730953
 10
88.65312100000066
 20
-31.48810299999939
 10
101.6031209999983
 20
-31.4881029999995
 42
0.4142135623730602
 10
102.1031209999983
 20
-30.9881029999995
  0
LWPOLYLINE
  5
10322
330
1F
100
AcDbEntity
  8
0
 62
     7
420
 16777215
100
AcDbPolyline
 90
        8
 70
     1
 43
0.0
 10
121.1261209999999
 20
-18.0381030000004
 42
0.41421356237313
 10
120.6261209999999
 20
-17.5381030000004
 10
107.6761210000007
 20
-17.5381030000003
 42
0.4142135623730951
 10
107.1761210000007
 20
-18.0381030000003
 10
107.1761210000006
 20
-30.98810299999938
 42
0.4142135623730953
 10
107.6761210000007
 20
-31.48810299999939
 10
120.6261209999983
 20
-31.4881029999995
 42
0.4142135623730602
 10
121.1261209999983
 20
-30.9881029999995
  0
LWPOLYLINE
  5
10323
330
1F
100
AcDbEntity
  8
0
 62
     7
420
 16777215
100
AcDbPolyline
 90
        8
 70
     1
 43
0.0
 10
140.1540429999998
 20
-18.0381030000004
 42
0.41421356237313
 10
139.6540429999998
 20
-17.5381030000004
 10
126.7040430000006
 20
-17.5381030000003
 42
0.4142135623730951
 10
126.2040430000006
 20
-18.0381030000003
 10
126.2040430000006
 20
-30.98810299999938
 42
0.4142135623730953
 10
126.7040430000006
 20
-31.48810299999939
 10
139.6540429999983
 20
-31.4881029999995
 42
0.4142135623730602
 10
140.1540429999983
 20
-30.9881029999995
  0
LWPOLYLINE
  5
10324
330
1F
100
AcDbEntity
  8
0
 62
     7
420
 16777215
100
AcDbPolyline
 90
        8
 70
     1
 43
0.0
 10
159.1721209999999
 20
-18.0381030000004
 42
0.41421356237313
 10
158.6721209999999
 20
-17.5381030000004
 10
145.7221210000006
 20
-17.5381030000003
 42
0.4142135623730951
 10
145.2221210000007
 20
-18.0381030000003
 10
145.2221210000006
 20
-30.98810299999938
 42
0.4142135623730953
 10
145.7221210000006
 20
-31.48810299999939
 10
158.6721209999983
 20
-31.4881029999995
 42
0.4142135623730602
 10
159.1721209999983
 20
-30.9881029999995
  0
LWPOLYLINE
  5
10325
330
1F
100
AcDbEntity
  8
0
 62
     7
420
 16777215
100
AcDbPolyline
 90
        8
 70
     1
 43
0.0
 10
178.1951209999999
 20
-18.0381030000004
 42
0.41421356237313
 10
177.6951209999999
 20
-17.5381030000004
 10
164.7451210000007
 20
-17.5381030000003
 42
0.4142135623730951
 10
164.2451210000007
 20
-18.0381030000003
 10
164.2451210000007
 20
-30.98810299999938
 42
0.4142135623730953
 10
164.7451210000007
 20
-31.48810299999939
 10
177.6951209999984
 20
-31.4881029999995
 42
0.4142135623730602
 10
178.1951209999983
 20
-30.9881029999995
  0
LWPOLYLINE
  5
10326
330
1F
100
AcDbEntity
  8
0
 62
     7
420
 16777215
100
AcDbPolyline
 90
        8
 70
     1
 43
0.0
 10
197.2181209999999
 20
-18.0381030000004
 42
0.41421356237313
 10
196.7181209999999
 20
-17.5381030000004
 10
183.7681210000007
 20
-17.5381030000003
 42
0.4142135623730951
 10
183.2681210000007
 20
-18.0381030000003
 10
183.2681210000007
 20
-30.98810299999938
 42
0.4142135623730953
 10
183.7681210000007
 20
-31.48810299999939
 10
196.7181209999984
 20
-31.4881029999995
 42
0.4142135623730602
 10
197.2181209999984
 20
-30.9881029999995
  0
LWPOLYLINE
  5
10327
330
1F
100
AcDbEntity
  8
0
 62
     7
420
 16777215
100
AcDbPolyline
 90
        8
 70
     1
 43
0.0
 10
216.257681
 20
-18.0380990000004
 42
0.41421356237313
 10
215.7576809999999
 20
-17.5380990000004
 10
202.8076810000006
 20
-17.5380990000003
 42
0.4142135623730951
 10
202.3076810000008
 20
-18.0380990000003
 10
202.3076810000006
 20
-30.98809899999951
 42
0.4142135623730953
 10
202.8076810000006
 20
-31.48809899999951
 10
215.7576809999984
 20
-31.48809899999951
 42
0.4142135623730602
 10
216.2576809999984
 20
-30.9880989999996
  0
LWPOLYLINE
  5
10328
330
1F
100
AcDbEntity
  8
0
 62
     7
420
 16777215
100
AcDbPolyline
 90
        8
 70
     1
 43
0.0
 10
235.28263
 20
-18.0380990000004
 42
0.41421356237313
 10
234.78263
 20
-17.5380990000004
 10
221.8326300000007
 20
-17.5380990000003
 42
0.4142135623730951
 10
221.3326300000009
 20
-18.0380990000003
 10
221.3326300000009
 20
-30.98809899999951
 42
0.4142135623730953
 10
221.8326300000007
 20
-31.48809899999951
 10
234.7826299999985
 20
-31.48809899999951
 42
0.4142135623730602
 10
235.2826299999985
 20
-30.9880989999996
  0
LWPOLYLINE
  5
10329
330
1F
100
AcDbEntity
  8
0
 62
     7
420
 16777215
100
AcDbPolyline
 90
        8
 70
     1
 43
0.0
 10
263.8427019999999
 20
-18.03810700000039
 42
0.41421356237313
 10
263.3427019999999
 20
-17.53810700000039
 10
250.3927020000006
 20
-17.53810700000031
 42
0.4142135623730951
 10
249.8927020000007
 20
-18.03810700000031
 10
249.8927020000007
 20
-30.9881069999995
 42
0.4142135623730953
 10
250.3927020000006
 20
-31.48810699999951
 10
263.3427019999983
 20
-31.48810699999951
 42
0.4142135623730602
 10
263.8427019999983
 20
-30.9881069999996
  0
LWPOLYLINE
  5
1032A
330
1F
100
AcDbEntity
  8
0
 62
     7
420
 16777215
100
AcDbPolyline
 90
        8
 70
     1
 43
0.0
 10
298.0171209999999
 20
-18.0381030000004
 42
0.41421356237313
 10
297.5171209999999
 20
-17.5381030000004
 10
284.5671210000007
 20
-17.5381030000003
 42
0.4142135623730951
 10
284.0671210000007
 20
-18.0381030000003
 10
284.0671210000007
 20
-30.98810299999938
 42
0.4142135623730953
 10
284.5671210000007
 20
-31.48810299999939
 10
297.5171209999983
 20
-31.4881029999995
 42
0.4142135623730602
 10
298.0171209999983
 20
-30.9881029999995
  0
LWPOLYLINE
  5
1032B
330
1F
100
AcDbEntity
  8
0
 62
     7
420
 16777215
100
AcDbPolyline
 90
        8
 70
     1
 43
0.0
 10
317.0401209999998
 20
-18.0381030000004
 42
0.41421356237313
 10
316.5401209999999
 20
-17.5381030000004
 10
303.5901210000006
 20
-17.5381030000003
 42
0.4142135623730951
 10
303.0901210000006
 20
-18.0381030000003
 10
303.0901210000006
 20
-30.98810299999938
 42
0.4142135623730953
 10
303.5901210000006
 20
-31.48810299999939
 10
316.5401209999983
 20
-31.4881029999995
 42
0.4142135623730602
 10
317.0401209999983
 20
-30.9881029999995
  0
LWPOLYLINE
  5
1032C
330
1F
100
AcDbEntity
  8
0
 62
     7
420
 16777215
100
AcDbPolyline
 90
        8
 70
     1
 43
0.0
 10
336.110025
 20
-18.07608800000039
 42
0.41421356237313
 10
335.6100249999999
 20
-17.5760880000004
 10
322.6600250000008
 20
-17.57608800000031
 42
0.4142135623730951
 10
322.1600250000008
 20
-18.07608800000031
 10
322.1600250000008
 20
-31.02608799999951
 42
0.4142135623730953
 10
322.6600250000008
 20
-31.52608799999939
 10
335.6100249999983
 20
-31.52608799999951
 42
0.4142135623730602
 10
336.1100249999983
 20
-31.02608799999951
  0
LWPOLYLINE
  5
1032D
330
1F
100
AcDbEntity
  8
0
 62
     7
420
 16777215
100
AcDbPolyline
 90
        8
 70
     1
 43
0.0
 10
298.0171209999999
 20
-37.06110300000036
 42
0.41421356237313
 10
297.5171209999999
 20
-36.5611030000003
 10
284.5671210000007
 20
-36.56110300000029
 42
0.4142135623730951
 10
284.0671210000007
 20
-37.06110300000029
 10
284.0671210000007
 20
-50.01110299999942
 42
0.4142135623730953
 10
284.5671210000007
 20
-50.5111029999994
 10
297.5171209999983
 20
-50.51110299999944
 42
0.4142135623730602
 10
298.0171209999983
 20
-50.0111029999995
  0
LWPOLYLINE
  5
1032E
330
1F
100
AcDbEntity
  8
0
 62
     7
420
 16777215
100
AcDbPolyline
 90
        8
 70
     1
 43
0.0
 10
317.040113
 20
-37.06958500000036
 42
0.41421356237313
 10
316.540113
 20
-36.5695850000003
 10
303.5901130000006
 20
-36.56958500000029
 42
0.4142135623730951
 10
303.0901130000006
 20
-37.06958500000029
 10
303.0901130000006
 20
-50.01958499999942
 42
0.4142135623730953
 10
303.5901130000006
 20
-50.5195849999994
 10
316.5401129999983
 20
-50.51958499999944
 42
0.4142135623730602
 10
317.0401129999983
 20
-50.0195849999995
  0
LWPOLYLINE
  5
1032F
330
1F
100
AcDbEntity
  8
0
 62
     7
420
 16777215
100
AcDbPolyline
 90
        8
 70
     1
 43
0.0
 10
336.110028
 20
-37.07526500000039
 42
0.41421356237313
 10
335.610028
 20
-36.5752650000003
 10
322.6600280000007
 20
-36.5752650000003
 42
0.4142135623730951
 10
322.1600280000008
 20
-37.0752650000003
 10
322.1600280000008
 20
-50.02526499999944
 42
0.4142135623730953
 10
322.6600280000007
 20
-50.52526499999942
 10
335.6100279999983
 20
-50.52526499999943
 42
0.4142135623730602
 10
336.1100279999982
 20
-50.02526499999955
  0
LWPOLYLINE
  5
10330
330
1F
100
AcDbEntity
  8
0
 62
     7
420
 16777215
100
AcDbPolyline
 90
        8
 70
     1
 43
0.0
 10
268.611667
 20
-37.05857500000036
 42
0.41421356237313
 10
268.111667
 20
-36.5585750000003
 10
255.1616670000008
 20
-36.55857500000029
 42
0.4142135623730951
 10
254.6616670000008
 20
-37.05857500000031
 10
254.6616670000008
 20
-50.00857499999942
 42
0.4142135623730953
 10
255.1616670000008
 20
-50.50857499999941
 10
268.1116669999985
 20
-50.50857499999944
 42
0.4142135623730602
 10
268.6116669999985
 20
-50.00857499999951
  0
LWPOLYLINE
  5
10331
330
1F
100
AcDbEntity
  8
0
 62
     7
420
 16777215
100
AcDbPolyline
 90
        8
 70
     1
 43
0.0
 10
244.866621
 20
-37.06110300000036
 42
0.41421356237313
 10
244.366621
 20
-36.5611030000003
 10
231.4166210000007
 20
-36.56110300000029
 42
0.4142135623730951
 10
230.9166210000008
 20
-37.06110300000029
 10
230.9166210000007
 20
-50.01110299999942
 42
0.4142135623730953
 10
231.4166210000007
 20
-50.5111029999994
 10
244.3666209999984
 20
-50.51110299999944
 42
0.4142135623730602
 10
244.8666209999984
 20
-50.0111029999995
  0
LWPOLYLINE
  5
10332
330
1F
100
AcDbEntity
  8
0
 62
     7
420
 16777215
100
AcDbPolyline
 90
        8
 70
     1
 43
0.0
 10
225.848905
 20
-37.0611090000004
 42
0.41421356237313
 10
225.3489049999999
 20
-36.5611090000003
 10
212.3989050000006
 20
-36.5611090000003
 42
0.4142135623730951
 10
211.8989050000008
 20
-37.0611090000003
 10
211.8989050000008
 20
-50.01110899999943
 42
0.4142135623730953
 10
212.3989050000006
 20
-50.51110899999944
 10
225.3489049999984
 20
-50.51110899999944
 42
0.4142135623730602
 10
225.8489049999983
 20
-50.01110899999954
  0
LWPOLYLINE
  5
10333
330
1F
100
AcDbEntity
  8
0
 62
     7
420
 16777215
100
AcDbPolyline
 90
        8
 70
     1
 43
0.0
 10
206.8206209999999
 20
-37.06110300000036
 42
0.41421356237313
 10
206.3206209999999
 20
-36.5611030000003
 10
193.3706210000007
 20
-36.56110300000029
 42
0.4142135623730951
 10
192.8706210000007
 20
-37.06110300000029
 10
192.8706210000007
 20
-50.01110299999942
 42
0.4142135623730953
 10
193.3706210000007
 20
-50.5111029999994
 10
206.3206209999983
 20
-50.51110299999944
 42
0.4142135623730602
 10
206.8206209999984
 20
-50.0111029999995
  0
LWPOLYLINE
  5
10334
330
1F
100
AcDbEntity
  8
0
 62
     7
420
 16777215
100
AcDbPolyline
 90
        8
 70
     1
 43
0.0
 10
187.7976209999999
 20
-37.06110300000036
 42
0.41421356237313
 10
187.2976209999999
 20
-36.5611030000003
 10
174.3476210000006
 20
-36.56110300000029
 42
0.4142135623730951
 10
173.8476210000007
 20
-37.06110300000029
 10
173.8476210000006
 20
-50.01110299999942
 42
0.4142135623730953
 10
174.3476210000006
 20
-50.5111029999994
 10
187.2976209999983
 20
-50.51110299999944
 42
0.4142135623730602
 10
187.7976209999983
 20
-50.0111029999995
  0
LWPOLYLINE
  5
10335
330
1F
100
AcDbEntity
  8
0
 62
     7
420
 16777215
100
AcDbPolyline
 90
        8
 70
     1
 43
0.0
 10
168.7746209999998
 20
-37.06110300000036
 42
0.41421356237313
 10
168.2746209999999
 20
-36.5611030000003
 10
155.3246210000006
 20
-36.56110300000029
 42
0.4142135623730951
 10
154.8246210000006
 20
-37.06110300000029
 10
154.8246210000006
 20
-50.01110299999942
 42
0.4142135623730953
 10
155.3246210000006
 20
-50.5111029999994
 10
168.2746209999983
 20
-50.51110299999944
 42
0.4142135623730602
 10
168.7746209999983
 20
-50.0111029999995
  0
LWPOLYLINE
  5
10336
330
1F
100
AcDbEntity
  8
0
 62
     7
420
 16777215
100
AcDbPolyline
 90
        8
 70
     1
 43
0.0
 10
149.7516209999999
 20
-37.06110300000036
 42
0.41421356237313
 10
149.2516209999999
 20
-36.5611030000003
 10
136.3016210000007
 20
-36.56110300000029
 42
0.4142135623730951
 10
135.8016210000007
 20
-37.06110300000029
 10
135.8016210000007
 20
-50.01110299999942
 42
0.4142135623730953
 10
136.3016210000007
 20
-50.5111029999994
 10
149.2516209999984
 20
-50.51110299999944
 42
0.4142135623730602
 10
149.7516209999984
 20
-50.0111029999995
  0
LWPOLYLINE
  5
10337
330
1F
100
AcDbEntity
  8
0
 62
     7
420
 16777215
100
AcDbPolyline
 90
        8
 70
     1
 43
0.0
 10
130.7286209999999
 20
-37.06110300000036
 42
0.41421356237313
 10
130.2286209999999
 20
-36.5611030000003
 10
117.2786210000007
 20
-36.56110300000029
 42
0.4142135623730951
 10
116.7786210000007
 20
-37.06110300000029
 10
116.7786210000007
 20
-50.01110299999942
 42
0.4142135623730953
 10
117.2786210000007
 20
-50.5111029999994
 10
130.2286209999983
 20
-50.51110299999944
 42
0.4142135623730602
 10
130.7286209999984
 20
-50.0111029999995
  0
LWPOLYLINE
  5
10338
330
1F
100
AcDbEntity
  8
0
 62
     7
420
 16777215
100
AcDbPolyline
 90
        8
 70
     1
 43
0.0
 10
111.7056209999999
 20
-37.06110300000036
 42
0.41421356237313
 10
111.2056209999999
 20
-36.5611030000003
 10
98.25562100000064
 20
-36.56110300000029
 42
0.4142135623730951
 10
97.75562100000074
 20
-37.06110300000029
 10
97.75562100000065
 20
-50.01110299999942
 42
0.4142135623730953
 10
98.25562100000064
 20
-50.5111029999994
 10
111.2056209999983
 20
-50.51110299999944
 42
0.4142135623730602
 10
111.7056209999983
 20
-50.0111029999995
  0
LWPOLYLINE
  5
10339
330
1F
100
AcDbEntity
  8
0
 62
     7
420
 16777215
100
AcDbPolyline
 90
        8
 70
     1
 43
0.0
 10
92.68262099999992
 20
-37.06110300000036
 42
0.41421356237313
 10
92.18262099999993
 20
-36.5611030000003
 10
79.23262100000069
 20
-36.56110300000029
 42
0.4142135623730951
 10
78.73262100000072
 20
-37.06110300000029
 10
78.73262100000066
 20
-50.01110299999942
 42
0.4142135623730953
 10
79.23262100000069
 20
-50.5111029999994
 10
92.18262099999837
 20
-50.51110299999944
 42
0.4142135623730602
 10
92.68262099999835
 20
-50.0111029999995
  0
LWPOLYLINE
  5
1033A
330
1F
100
AcDbEntity
  8
0
 62
     7
420
 16777215
100
AcDbPolyline
 90
        8
 70
     1
 43
0.0
 10
73.65962099999993
 20
-37.06110300000036
 42
0.41421356237313
 10
73.15962099999994
 20
-36.5611030000003
 10
60.20962100000072
 20
-36.56110300000029
 42
0.4142135623730951
 10
59.70962100000072
 20
-37.06110300000029
 10
59.70962100000068
 20
-50.01110299999942
 42
0.4142135623730953
 10
60.20962100000069
 20
-50.5111029999994
 10
73.15962099999838
 20
-50.51110299999944
 42
0.4142135623730602
 10
73.65962099999838
 20
-50.0111029999995
  0
LWPOLYLINE
  5
1033B
330
1F
100
AcDbEntity
  8
0
 62
     7
420
 16777215
100
AcDbPolyline
 90
        8
 70
     1
 43
0.0
 10
54.63660499999989
 20
-37.05333500000039
 42
0.41421356237313
 10
54.1366049999999
 20
-36.5533350000003
 10
41.18660500000067
 20
-36.55333500000029
 42
0.4142135623730951
 10
40.68660500000066
 20
-37.0533350000003
 10
40.68660500000064
 20
-50.00333499999941
 42
0.4142135623730953
 10
41.18660500000063
 20
-50.50333499999941
 10
54.13660499999833
 20
-50.50333499999942
 42
0.4142135623730602
 10
54.63660499999833
 20
-50.00333499999951
  0
LWPOLYLINE
  5
1033C
330
1F
100
AcDbEntity
  8
0
 62
     7
420
 16777215
100
AcDbPolyline
 90
        8
 70
     1
 43
0.0
 10
35.61564499999997
 20
-37.06110500000038
 42
0.41421356237313
 10
35.11564499999997
 20
-36.56110500000031
 10
22.16564500000073
 20
-36.56110500000028
 42
0.4142135623730951
 10
21.66564500000075
 20
-37.06110500000028
 10
21.66564500000072
 20
-50.0111049999994
 42
0.4142135623730953
 10
22.16564500000072
 20
-50.5111049999994
 10
35.1156449999984
 20
-50.5111049999994
 42
0.4142135623730602
 10
35.6156449999984
 20
-50.0111049999995
  0
LWPOLYLINE
  5
1033D
330
1F
100
AcDbEntity
  8
0
 62
     7
420
 16777215
100
AcDbPolyline
 90
        8
 70
     1
 43
0.0
 10
11.84522899999996
 20
-37.05371600000038
 42
0.41421356237313
 10
11.34522899999996
 20
-36.55371600000031
 10
-1.604770999999276
 20
-36.55371600000031
 42
0.4142135623730951
 10
-2.104770999999275
 20
-37.0537160000003
 10
-2.104770999999296
 20
-50.00371599999944
 42
0.4142135623730953
 10
-1.604770999999296
 20
-50.50371599999941
 10
11.34522899999839
 20
-50.50371599999945
 42
0.4142135623730602
 10
11.84522899999839
 20
-50.00371599999951
  0
LWPOLYLINE
  5
1033E
330
1F
100
AcDbEntity
  8
0
 62
     7
420
 16777215
100
AcDbPolyline
 90
        8
 70
     1
 43
0.0
 10
40.30670999999993
 20
-56.0841030000004
 42
0.41421356237313
 10
39.80670999999994
 20
-55.58410300000033
 10
26.85671000000072
 20
-55.5841030000003
 42
0.4142135623730951
 10
26.35671000000071
 20
-56.0841030000003
 10
26.3567100000007
 20
-69.03410299999944
 42
0.4142135623730953
 10
26.8567100000007
 20
-69.53410299999942
 10
39.80670999999836
 20
-69.53410299999943
 42
0.4142135623730602
 10
40.30670999999836
 20
-69.03410299999952
  0
LWPOLYLINE
  5
1033F
330
1F
100
AcDbEntity
  8
0
 62
     7
420
 16777215
100
AcDbPolyline
 90
        8
 70
     1
 43
0.0
 10
59.32862099999994
 20
-56.0841030000004
 42
0.41421356237313
 10
58.82862099999993
 20
-55.58410300000033
 10
45.8786210000007
 20
-55.5841030000003
 42
0.4142135623730951
 10
45.3786210000007
 20
-56.0841030000003
 10
45.37862100000068
 20
-69.03410299999944
 42
0.4142135623730953
 10
45.87862100000068
 20
-69.53410299999942
 10
58.82862099999837
 20
-69.53410299999943
 42
0.4142135623730602
 10
59.32862099999837
 20
-69.03410299999952
  0
LWPOLYLINE
  5
10340
330
1F
100
AcDbEntity
  8
0
 62
     7
420
 16777215
100
AcDbPolyline
 90
        8
 70
     1
 43
0.0
 10
78.35162099999992
 20
-56.0841030000004
 42
0.41421356237313
 10
77.85162099999991
 20
-55.58410300000033
 10
64.90162100000066
 20
-55.5841030000003
 42
0.4142135623730951
 10
64.40162100000067
 20
-56.0841030000003
 10
64.40162100000065
 20
-69.03410299999944
 42
0.4142135623730953
 10
64.90162100000066
 20
-69.53410299999942
 10
77.85162099999833
 20
-69.53410299999943
 42
0.4142135623730602
 10
78.35162099999833
 20
-69.03410299999952
  0
LWPOLYLINE
  5
10341
330
1F
100
AcDbEntity
  8
0
 62
     7
420
 16777215
100
AcDbPolyline
 90
        8
 70
     1
 43
0.0
 10
97.37462099999994
 20
-56.0841030000004
 42
0.41421356237313
 10
96.87462099999997
 20
-55.58410300000033
 10
83.92462100000068
 20
-55.5841030000003
 42
0.4142135623730951
 10
83.42462100000069
 20
-56.0841030000003
 10
83.42462100000068
 20
-69.03410299999944
 42
0.4142135623730953
 10
83.92462100000068
 20
-69.53410299999942
 10
96.87462099999837
 20
-69.53410299999943
 42
0.4142135623730602
 10
97.37462099999836
 20
-69.03410299999952
  0
LWPOLYLINE
  5
10342
330
1F
100
AcDbEntity
  8
0
 62
     7
420
 16777215
100
AcDbPolyline
 90
        8
 70
     1
 43
0.0
 10
116.3976209999999
 20
-56.0841030000004
 42
0.41421356237313
 10
115.8976209999999
 20
-55.58410300000033
 10
102.9476210000007
 20
-55.5841030000003
 42
0.4142135623730951
 10
102.4476210000007
 20
-56.0841030000003
 10
102.4476210000006
 20
-69.03410299999944
 42
0.4142135623730953
 10
102.9476210000007
 20
-69.53410299999942
 10
115.8976209999983
 20
-69.53410299999943
 42
0.4142135623730602
 10
116.3976209999983
 20
-69.03410299999952
  0
LWPOLYLINE
  5
10343
330
1F
100
AcDbEntity
  8
0
 62
     7
420
 16777215
100
AcDbPolyline
 90
        8
 70
     1
 43
0.0
 10
135.443621
 20
-56.0841030000004
 42
0.41421356237313
 10
134.9436209999999
 20
-55.58410300000033
 10
121.9936210000007
 20
-55.5841030000003
 42
0.4142135623730951
 10
121.4936210000007
 20
-56.0841030000003
 10
121.4936210000007
 20
-69.03410299999944
 42
0.4142135623730953
 10
121.9936210000007
 20
-69.53410299999942
 10
134.9436209999984
 20
-69.53410299999943
 42
0.4142135623730602
 10
135.4436209999984
 20
-69.03410299999952
  0
LWPOLYLINE
  5
10344
330
1F
100
AcDbEntity
  8
0
 62
     7
420
 16777215
100
AcDbPolyline
 90
        8
 70
     1
 43
0.0
 10
154.443621
 20
-56.0841030000004
 42
0.41421356237313
 10
153.9436209999999
 20
-55.58410300000033
 10
140.9936210000007
 20
-55.5841030000003
 42
0.4142135623730951
 10
140.4936210000007
 20
-56.0841030000003
 10
140.4936210000007
 20
-69.03410299999944
 42
0.4142135623730953
 10
140.9936210000007
 20
-69.53410299999942
 10
153.9436209999984
 20
-69.53410299999943
 42
0.4142135623730602
 10
154.4436209999984
 20
-69.03410299999952
  0
LWPOLYLINE
  5
10345
330
1F
100
AcDbEntity
  8
0
 62
     7
420
 16777215
100
AcDbPolyline
 90
        8
 70
     1
 43
0.0
 10
173.4666209999998
 20
-56.0841030000004
 42
0.41421356237313
 10
172.9666209999999
 20
-55.58410300000033
 10
160.0166210000006
 20
-55.5841030000003
 42
0.4142135623730951
 10
159.5166210000006
 20
-56.0841030000003
 10
159.5166210000006
 20
-69.03410299999944
 42
0.4142135623730953
 10
160.0166210000006
 20
-69.53410299999942
 10
172.9666209999983
 20
-69.53410299999943
 42
0.4142135623730602
 10
173.4666209999983
 20
-69.03410299999952
  0
LWPOLYLINE
  5
10346
330
1F
100
AcDbEntity
  8
0
 62
     7
420
 16777215
100
AcDbPolyline
 90
        8
 70
     1
 43
0.0
 10
192.4896209999999
 20
-56.0841030000004
 42
0.41421356237313
 10
191.9896209999999
 20
-55.58410300000033
 10
179.0396210000006
 20
-55.5841030000003
 42
0.4142135623730951
 10
178.5396210000007
 20
-56.0841030000003
 10
178.5396210000006
 20
-69.03410299999944
 42
0.4142135623730953
 10
179.0396210000006
 20
-69.53410299999942
 10
191.9896209999983
 20
-69.53410299999943
 42
0.4142135623730602
 10
192.4896209999983
 20
-69.03410299999952
  0
LWPOLYLINE
  5
10347
330
1F
100
AcDbEntity
  8
0
 62
     7
420
 16777215
100
AcDbPolyline
 90
        8
 70
     1
 43
0.0
 10
211.5126209999999
 20
-56.0841030000004
 42
0.41421356237313
 10
211.012621
 20
-55.58410300000033
 10
198.0626210000007
 20
-55.5841030000003
 42
0.4142135623730951
 10
197.5626210000007
 20
-56.0841030000003
 10
197.5626210000007
 20
-69.03410299999944
 42
0.4142135623730953
 10
198.0626210000007
 20
-69.53410299999942
 10
211.0126209999985
 20
-69.53410299999943
 42
0.4142135623730602
 10
211.5126209999985
 20
-69.03410299999952
  0
LWPOLYLINE
  5
10348
330
1F
100
AcDbEntity
  8
0
 62
     7
420
 16777215
100
AcDbPolyline
 90
        8
 70
     1
 43
0.0
 10
230.5555029999999
 20
-56.08410600000039
 42
0.41421356237313
 10
230.0555029999999
 20
-55.58410600000032
 10
217.1055030000007
 20
-55.58410600000029
 42
0.4142135623730951
 10
216.6055030000007
 20
-56.08410600000029
 10
216.6055030000006
 20
-69.03410599999945
 42
0.4142135623730953
 10
217.1055030000007
 20
-69.53410599999942
 10
230.0555029999983
 20
-69.53410599999945
 42
0.4142135623730602
 10
230.5555029999983
 20
-69.03410599999952
  0
LWPOLYLINE
  5
10349
330
1F
100
AcDbEntity
  8
0
 62
     7
420
 16777215
100
AcDbPolyline
 90
        8
 70
     1
 43
0.0
 10
261.5046239999994
 20
-56.08416900000069
 42
0.41421356237313
 10
261.0046239999994
 20
-55.58416900000064
 10
248.054624
 20
-55.58416900000061
 42
0.4142135623730951
 10
247.5546240000001
 20
-56.08416900000062
 10
247.554624
 20
-69.03416899999974
 42
0.4142135623730953
 10
248.054624
 20
-69.53416899999973
 10
261.0046239999978
 20
-69.53416899999975
 42
0.4142135623730602
 10
261.5046239999978
 20
-69.03416899999983
  0
LWPOLYLINE
  5
1034A
330
1F
100
AcDbEntity
  8
0
 62
     7
420
 16777215
100
AcDbPolyline
 90
        8
 70
     1
 43
0.0
 10
221.103216
 20
-75.10710700000038
 42
0.41421356237313
 10
220.6032159999999
 20
-74.60710700000032
 10
207.6532160000008
 20
-74.6071070000003
 42
0.4142135623730951
 10
207.1532160000007
 20
-75.10710700000029
 10
207.1532160000007
 20
-88.05710699999947
 42
0.4142135623730953
 10
207.6532160000008
 20
-88.55710699999942
 10
220.6032159999984
 20
-88.55710699999944
 42
0.4142135623730602
 10
221.1032159999984
 20
-88.05710699999954
  0
LWPOLYLINE
  5
1034B
330
1F
100
AcDbEntity
  8
0
 62
     7
420
 16777215
100
AcDbPolyline
 90
        8
 70
     1
 43
0.0
 10
256.8454169999998
 20
-75.10710700000038
 42
0.41421356237313
 10
256.3454169999998
 20
-74.60710700000032
 10
243.3954170000006
 20
-74.6071070000003
 42
0.4142135623730951
 10
242.8954170000007
 20
-75.10710700000029
 10
242.8954170000007
 20
-88.05710699999947
 42
0.4142135623730953
 10
243.3954170000006
 20
-88.55710699999942
 10
256.3454169999982
 20
-88.55710699999944
 42
0.4142135623730602
 10
256.8454169999983
 20
-88.05710699999954
  0
LWPOLYLINE
  5
1034C
330
1F
100
AcDbEntity
  8
0
 62
     7
420
 16777215
100
AcDbPolyline
 90
        8
 70
     1
 43
0.0
 10
202.052121
 20
-75.10710700000038
 42
0.41421356237313
 10
201.5521209999999
 20
-74.60710700000032
 10
188.6021210000007
 20
-74.6071070000003
 42
0.4142135623730951
 10
188.1021210000006
 20
-75.10710700000029
 10
188.1021210000006
 20
-88.05710699999947
 42
0.4142135623730953
 10
188.6021210000007
 20
-88.55710699999942
 10
201.5521209999984
 20
-88.55710699999944
 42
0.4142135623730602
 10
202.0521209999984
 20
-88.05710699999954
  0
LWPOLYLINE
  5
1034D
330
1F
100
AcDbEntity
  8
0
 62
     7
420
 16777215
100
AcDbPolyline
 90
        8
 70
     1
 43
0.0
 10
183.0291209999999
 20
-75.10710300000039
 42
0.41421356237313
 10
182.5291209999999
 20
-74.60710300000034
 10
169.5791210000006
 20
-74.6071030000003
 42
0.4142135623730951
 10
169.0791210000006
 20
-75.10710300000032
 10
169.0791210000006
 20
-88.05710299999946
 42
0.4142135623730953
 10
169.5791210000006
 20
-88.55710299999941
 10
182.5291209999983
 20
-88.55710299999946
 42
0.4142135623730602
 10
183.0291209999983
 20
-88.05710299999953
  0
LWPOLYLINE
  5
1034E
330
1F
100
AcDbEntity
  8
0
 62
     7
420
 16777215
100
AcDbPolyline
 90
        8
 70
     1
 43
0.0
 10
164.006121
 20
-75.10710300000039
 42
0.41421356237313
 10
163.506121
 20
-74.60710300000034
 10
150.5561210000007
 20
-74.6071030000003
 42
0.4142135623730951
 10
150.0561210000007
 20
-75.10710300000032
 10
150.0561210000007
 20
-88.05710299999946
 42
0.4142135623730953
 10
150.5561210000007
 20
-88.55710299999941
 10
163.5061209999984
 20
-88.55710299999946
 42
0.4142135623730602
 10
164.0061209999984
 20
-88.05710299999953
  0
LWPOLYLINE
  5
1034F
330
1F
100
AcDbEntity
  8
0
 62
     7
420
 16777215
100
AcDbPolyline
 90
        8
 70
     1
 43
0.0
 10
144.9831209999999
 20
-75.10710300000039
 42
0.41421356237313
 10
144.4831209999999
 20
-74.60710300000034
 10
131.5331210000007
 20
-74.6071030000003
 42
0.4142135623730951
 10
131.0331210000007
 20
-75.10710300000032
 10
131.0331210000007
 20
-88.05710299999946
 42
0.4142135623730953
 10
131.5331210000007
 20
-88.55710299999941
 10
144.4831209999984
 20
-88.55710299999946
 42
0.4142135623730602
 10
144.9831209999984
 20
-88.05710299999953
  0
LWPOLYLINE
  5
10350
330
1F
100
AcDbEntity
  8
0
 62
     7
420
 16777215
100
AcDbPolyline
 90
        8
 70
     1
 43
0.0
 10
125.9601209999999
 20
-75.10710300000039
 42
0.41421356237313
 10
125.4601209999999
 20
-74.60710300000034
 10
112.5101210000007
 20
-74.6071030000003
 42
0.4142135623730951
 10
112.0101210000007
 20
-75.10710300000032
 10
112.0101210000006
 20
-88.05710299999946
 42
0.4142135623730953
 10
112.5101210000006
 20
-88.55710299999941
 10
125.4601209999983
 20
-88.55710299999946
 42
0.4142135623730602
 10
125.9601209999983
 20
-88.05710299999953
  0
LWPOLYLINE
  5
10351
330
1F
100
AcDbEntity
  8
0
 62
     7
420
 16777215
100
AcDbPolyline
 90
        8
 70
     1
 43
0.0
 10
106.9371209999999
 20
-75.10710300000039
 42
0.41421356237313
 10
106.4371209999999
 20
-74.60710300000034
 10
93.48712100000069
 20
-74.6071030000003
 42
0.4142135623730951
 10
92.98712100000066
 20
-75.10710300000032
 10
92.98712100000066
 20
-88.05710299999946
 42
0.4142135623730953
 10
93.48712100000067
 20
-88.55710299999941
 10
106.4371209999983
 20
-88.55710299999946
 42
0.4142135623730602
 10
106.9371209999983
 20
-88.05710299999953
  0
LWPOLYLINE
  5
10352
330
1F
100
AcDbEntity
  8
0
 62
     7
420
 16777215
100
AcDbPolyline
 90
        8
 70
     1
 43
0.0
 10
87.91412099999993
 20
-75.10710300000039
 42
0.41421356237313
 10
87.41412099999992
 20
-74.60710300000034
 10
74.46412100000066
 20
-74.6071030000003
 42
0.4142135623730951
 10
73.96412100000066
 20
-75.10710300000032
 10
73.96412100000066
 20
-88.05710299999946
 42
0.4142135623730953
 10
74.46412100000066
 20
-88.55710299999941
 10
87.41412099999832
 20
-88.55710299999946
 42
0.4142135623730602
 10
87.91412099999833
 20
-88.05710299999953
  0
LWPOLYLINE
  5
10353
330
1F
100
AcDbEntity
  8
0
 62
     7
420
 16777215
100
AcDbPolyline
 90
        8
 70
     1
 43
0.0
 10
68.89112099999995
 20
-75.10710300000039
 42
0.41421356237313
 10
68.39112099999995
 20
-74.60710300000034
 10
55.4411210000007
 20
-74.6071030000003
 42
0.4142135623730951
 10
54.9411210000007
 20
-75.10710300000032
 10
54.94112100000068
 20
-88.05710299999946
 42
0.4142135623730953
 10
55.44112100000067
 20
-88.55710299999941
 10
68.39112099999839
 20
-88.55710299999946
 42
0.4142135623730602
 10
68.89112099999838
 20
-88.05710299999953
  0
LWPOLYLINE
  5
10354
330
1F
100
AcDbEntity
  8
0
 62
     7
420
 16777215
100
AcDbPolyline
 90
        8
 70
     1
 43
0.0
 10
49.88273699999997
 20
-75.10895800000037
 42
0.41421356237313
 10
49.38273699999996
 20
-74.60895800000031
 10
36.43273700000071
 20
-74.60895800000028
 42
0.4142135623730951
 10
35.93273700000072
 20
-75.10895800000028
 10
35.9327370000007
 20
-88.05895799999943
 42
0.4142135623730953
 10
36.4327370000007
 20
-88.5589579999994
 10
49.38273699999839
 20
-88.5589579999994
 42
0.4142135623730602
 10
49.88273699999838
 20
-88.0589579999995
  0
LWPOLYLINE
  5
10355
330
1F
100
AcDbEntity
  8
0
 62
     7
420
 16777215
100
AcDbPolyline
 90
        8
 70
     1
 43
0.0
 10
18.98900899999995
 20
-75.10787800000038
 42
0.41421356237313
 10
18.48900899999996
 20
-74.60787800000033
 10
5.539009000000716
 20
-74.60787800000031
 42
0.4142135623730951
 10
5.039009000000716
 20
-75.1078780000003
 10
5.039009000000697
 20
-88.05787799999945
 42
0.4142135623730953
 10
5.539009000000693
 20
-88.55787799999943
 10
18.48900899999838
 20
-88.55787799999944
 42
0.4142135623730602
 10
18.98900899999838
 20
-88.05787799999952
  0
LWPOLYLINE
  5
10356
330
1F
100
AcDbEntity
  8
0
 62
     7
420
 16777215
100
AcDbPolyline
 90
        8
 70
     1
 43
0.0
 10
11.65379999999993
 20
-94.09226500000038
 42
0.41421356237313
 10
11.15379999999993
 20
-93.59226500000032
 10
-1.796199999999304
 20
-93.5922650000003
 42
0.4142135623730951
 10
-2.296199999999303
 20
-94.09226500000029
 10
-2.296199999999323
 20
-107.0422649999994
 42
0.4142135623730953
 10
-1.796199999999324
 20
-107.5422649999994
 10
11.15379999999836
 20
-107.5422649999994
 42
0.4142135623730602
 10
11.65379999999836
 20
-107.0422649999995
  0
LWPOLYLINE
  5
10357
330
1F
100
AcDbEntity
  8
0
 62
     7
420
 16777215
100
AcDbPolyline
 90
        8
 70
     1
 43
0.0
 10
35.42225499999995
 20
-94.13011000000038
 42
0.41421356237313
 10
34.92225499999995
 20
-93.63011000000032
 10
21.97225500000071
 20
-93.63011000000032
 42
0.4142135623730951
 10
21.47225500000072
 20
-94.13011000000029
 10
21.4722550000007
 20
-107.0801099999994
 42
0.4142135623730953
 10
21.97225500000069
 20
-107.5801099999994
 10
34.92225499999839
 20
-107.5801099999994
 42
0.4142135623730602
 10
35.42225499999839
 20
-107.0801099999995
  0
LWPOLYLINE
  5
10358
330
1F
100
AcDbEntity
  8
0
 62
     7
420
 16777215
100
AcDbPolyline
 90
        8
 70
     1
 43
0.0
 10
59.23282499999992
 20
-94.13010600000038
 42
0.41421356237313
 10
58.73282499999993
 20
-93.63010600000032
 10
45.78282500000066
 20
-93.63010600000029
 42
0.4142135623730951
 10
45.28282500000068
 20
-94.13010600000029
 10
45.28282500000067
 20
-107.0801059999994
 42
0.4142135623730953
 10
45.78282500000066
 20
-107.5801059999994
 10
58.73282499999835
 20
-107.5801059999994
 42
0.4142135623730602
 10
59.23282499999835
 20
-107.0801059999995
  0
LWPOLYLINE
  5
10359
330
1F
100
AcDbEntity
  8
0
 62
     7
420
 16777215
100
AcDbPolyline
 90
        8
 70
     1
 43
0.0
 10
221.3427539999999
 20
-94.13010700000038
 42
0.41421356237313
 10
220.8427539999999
 20
-93.63010700000032
 10
207.8927540000006
 20
-93.6301070000003
 42
0.4142135623730951
 10
207.3927540000007
 20
-94.13010700000029
 10
207.3927540000006
 20
-107.0801069999994
 42
0.4142135623730953
 10
207.8927540000006
 20
-107.5801069999994
 10
220.8427539999983
 20
-107.5801069999994
 42
0.4142135623730602
 10
221.3427539999983
 20
-107.0801069999995
  0
LWPOLYLINE
  5
1035A
330
1F
100
AcDbEntity
  8
0
 62
     7
420
 16777215
100
AcDbPolyline
 90
        8
 70
     1
 43
0.0
 10
245.123448
 20
-94.13010600000038
 42
0.41421356237313
 10
244.6234479999999
 20
-93.63010600000032
 10
231.6734480000006
 20
-93.63010600000029
 42
0.4142135623730951
 10
231.1734480000008
 20
-94.13010600000029
 10
231.1734480000008
 20
-107.0801059999994
 42
0.4142135623730953
 10
231.6734480000006
 20
-107.5801059999994
 10
244.6234479999985
 20
-107.5801059999994
 42
0.4142135623730602
 10
245.1234479999984
 20
-107.0801059999995
  0
LWPOLYLINE
  5
1035B
330
1F
100
AcDbEntity
  8
0
 62
     7
420
 16777215
100
AcDbPolyline
 90
        8
 70
     1
 43
0.0
 10
268.8856869999999
 20
-94.13010600000038
 42
0.41421356237313
 10
268.385687
 20
-93.63010600000032
 10
255.4356870000008
 20
-93.63010600000029
 42
0.4142135623730951
 10
254.9356870000007
 20
-94.13010600000029
 10
254.9356870000007
 20
-107.0801059999994
 42
0.4142135623730953
 10
255.4356870000008
 20
-107.5801059999994
 10
268.3856869999983
 20
-107.5801059999994
 42
0.4142135623730602
 10
268.8856869999983
 20
-107.0801059999995
  0
LWPOLYLINE
  5
1035C
330
1F
100
AcDbEntity
  8
0
 62
     7
420
 16777215
100
AcDbPolyline
 90
        8
 70
     1
 43
0.0
 10
297.9415109999999
 20
-94.08710200000038
 42
0.41421356237313
 10
297.4415109999998
 20
-93.58710200000031
 10
284.4915110000006
 20
-93.58710200000027
 42
0.4142135623730951
 10
283.9915110000006
 20
-94.08710200000028
 10
283.9915110000006
 20
-107.0371019999994
 42
0.4142135623730953
 10
284.4915110000006
 20
-107.5371019999994
 10
297.4415109999983
 20
-107.5371019999994
 42
0.4142135623730602
 10
297.9415109999983
 20
-107.0371019999995
  0
LWPOLYLINE
  5
1035D
330
1F
100
AcDbEntity
  8
0
 62
     7
420
 16777215
100
AcDbPolyline
 90
        8
 70
     1
 43
0.0
 10
317.001051
 20
-94.08710300000038
 42
0.41421356237313
 10
316.501051
 20
-93.58710300000032
 10
303.5510510000008
 20
-93.5871030000003
 42
0.4142135623730951
 10
303.0510510000008
 20
-94.08710300000029
 10
303.0510510000008
 20
-107.0371029999994
 42
0.4142135623730953
 10
303.5510510000008
 20
-107.5371029999994
 10
316.5010509999983
 20
-107.5371029999994
 42
0.4142135623730602
 10
317.0010509999983
 20
-107.0371029999995
  0
LWPOLYLINE
  5
1035E
330
1F
100
AcDbEntity
  8
0
 62
     7
420
 16777215
100
AcDbPolyline
 90
        8
 70
     1
 43
0.0
 10
317.0401110000001
 20
-75.08011700000041
 42
0.41421356237313
 10
316.5401110000001
 20
-74.58011700000034
 10
303.5901110000007
 20
-74.58011700000032
 42
0.4142135623730951
 10
303.0901110000008
 20
-75.08011700000031
 10
303.0901110000008
 20
-88.03011699999947
 42
0.4142135623730953
 10
303.5901110000007
 20
-88.53011699999946
 10
316.5401109999984
 20
-88.53011699999946
 42
0.4142135623730602
 10
317.0401109999984
 20
-88.03011699999954
  0
LWPOLYLINE
  5
1035F
330
1F
100
AcDbEntity
  8
0
 62
     7
420
 16777215
100
AcDbPolyline
 90
        8
 70
     1
 43
0.0
 10
336.110037
 20
-94.08710300000038
 42
0.41421356237313
 10
335.610037
 20
-93.58710300000032
 10
322.6600370000008
 20
-93.5871030000003
 42
0.4142135623730951
 10
322.1600370000007
 20
-94.08710300000029
 10
322.1600370000007
 20
-107.0371029999994
 42
0.4142135623730953
 10
322.6600370000008
 20
-107.5371029999994
 10
335.6100369999984
 20
-107.5371029999994
 42
0.4142135623730602
 10
336.1100369999984
 20
-107.0371029999995
  0
LWPOLYLINE
  5
1036A
330
1F
100
AcDbEntity
  8
0
 62
     7
420
 16777215
100
AcDbPolyline
 90
        8
 70
     1
 43
0.0
 10
14.22648899999836
 20
-68.94164699999876
 10
14.2264889999999
 20
-55.99164699999967
 42
0.4142135623731294
 10
13.7264889999999
 20
-55.4916469999996
 10
-3.986031000002702
 20
-55.49164699999957
 42
0.4142135623730959
 10
-4.486031000002698
 20
-55.99164699999957
 10
-4.486031000002698
 20
-68.94164699999871
 42
0.4142135623730951
 10
-3.986031000002698
 20
-69.4416469999987
 10
13.72648899999836
 20
-69.44164699999871
 42
0.4142135623730607
  0
LINE
  5
1082B
330
1F
100
AcDbEntity
  8
0
  6
Continuous
 62
     7
420
 16777215
100
AcDbLine
 10
283.5762159157963
 20
-72.57647201169674
 30
0.0
 11
336.6191319086228
 21
-72.57647201169674
 31
0.0
  0
ARC
  5
1082C
330
1F
100
AcDbEntity
  8
0
  6
Continuous
 62
     7
420
 16777215
100
AcDbCircle
 10
336.6191319086228
 20
-72.07647201169674
 30
0.0
 40
0.5
100
AcDbArc
 50
270.0
 51
0.0
  0
LINE
  5
1082D
330
1F
100
AcDbEntity
  8
0
  6
Continuous
 62
     7
420
 16777215
100
AcDbLine
 10
337.1191319086228
 20
-72.07647201169674
 30
0.0
 11
337.1191319086228
 21
-55.5764720116964
 31
0.0
  0
ARC
  5
1082E
330
1F
100
AcDbEntity
  8
0
  6
Continuous
 62
     7
420
 16777215
100
AcDbCircle
 10
336.6191319086228
 20
-55.5764720116964
 30
0.0
 40
0.5
100
AcDbArc
 50
0.0
 51
90.0
  0
LINE
  5
1082F
330
1F
100
AcDbEntity
  8
0
  6
Continuous
 62
     7
420
 16777215
100
AcDbLine
 10
336.6191319086228
 20
-55.07647201169641
 30
0.0
 11
283.5762159157963
 21
-55.07647201169641
 31
0.0
  0
ARC
  5
10830
330
1F
100
AcDbEntity
  8
0
  6
Continuous
 62
     7
420
 16777215
100
AcDbCircle
 10
283.5762159157963
 20
-55.5764720116964
 30
0.0
 40
0.5
100
AcDbArc
 50
90.0
 51
180.0
  0
LINE
  5
10831
330
1F
100
AcDbEntity
  8
0
  6
Continuous
 62
     7
420
 16777215
100
AcDbLine
 10
283.0762159157962
 20
-55.5764720116964
 30
0.0
 11
283.0762159157962
 21
-72.07647201169674
 31
0.0
  0
ARC
  5
10832
330
1F
100
AcDbEntity
  8
0
  6
Continuous
 62
     7
420
 16777215
100
AcDbCircle
 10
283.5762159157963
 20
-72.07647201169674
 30
0.0
 40
0.5
100
AcDbArc
 50
180.0
 51
270.0
  0
ENDSEC
  0
SECTION
  2
OBJECTS
  0
DICTIONARY
  5
C
330
0
100
AcDbDictionary
281
     1
  3
ACAD_CIP_PREVIOUS_PRODUCT_INFO
350
1005A
  3
ACAD_COLOR
350
10036
  3
ACAD_DETAILVIEWSTYLE
350
10051
  3
ACAD_GROUP
350
D
  3
ACAD_LAST_SAVED_VERSION_INFO
350
10843
  3
ACAD_LAYOUT
350
10037
  3
ACAD_MATERIAL
350
10004
  3
ACAD_MLEADERSTYLE
350
1004D
  3
ACAD_MLINESTYLE
350
17
  3
ACAD_PLOTSETTINGS
350
10054
  3
ACAD_PLOTSTYLENAME
350
10002
  3
ACAD_SCALELIST
350
1003B
  3
ACAD_SECTIONVIEWSTYLE
350
1004F
  3
ACAD_TABLESTYLE
350
10038
  3
ACAD_VISUALSTYLE
350
1001D
  3
ACDB_RECOMPOSE_DATA
350
10845
  3
AcDbVariableDictionary
350
1036E
  0
DICTIONARY
  5
1005B
330
2
100
AcDbDictionary
280
     1
281
     1
  3
ACAD_LAYERSTATES
360
1005C
  0
DICTIONARY
  5
1036C
330
50
100
AcDbDictionary
280
     1
281
     1
  3
ADSK_XREC_LAYER_RECONCILED
360
1036D
  0
DICTIONARY
  5
10220
330
1F
100
AcDbDictionary
280
     1
281
     1
  3
ACAD_SORTENTS
360
10221
  0
XRECORD
  5
1005A
102
{ACAD_REACTORS
330
C
102
}
330
C
100
AcDbXrecord
280
     1
300
ACD
300
2025
300

  0
DICTIONARY
  5
10036
102
{ACAD_REACTORS
330
C
102
}
330
C
100
AcDbDictionary
281
     1
  0
DICTIONARY
  5
10051
102
{ACAD_REACTORS
330
C
102
}
330
C
100
AcDbDictionary
281
     1
  3
Imperial24
350
10052
  0
DICTIONARY
  5
D
330
C
100
AcDbDictionary
281
     1
  0
XRECORD
  5
10843
102
{ACAD_REACTORS
330
C
102
}
330
C
100
AcDbXrecord
280
     1
300
{F55F2F78-A882-D34F-806E-525483156DE0}
301
{8356D8FF-775D-FC40-A596-5192D413FCD1}
302
{F55F2F78-A882-D34F-806E-525483156DE0}
303

  0
DICTIONARY
  5
10037
102
{ACAD_REACTORS
330
C
102
}
330
C
100
AcDbDictionary
281
     1
  3
Layout1
350
10056
  3
Model
350
10055
  0
DICTIONARY
  5
10004
102
{ACAD_REACTORS
330
C
102
}
330
C
100
AcDbDictionary
281
     1
  3
ByBlock
350
1000D
  3
ByLayer
350
10005
  3
Global
350
10015
  0
DICTIONARY
  5
1004D
102
{ACAD_REACTORS
330
C
102
}
330
C
100
AcDbDictionary
281
     1
  3
Standard
350
1004E
  0
DICTIONARY
  5
17
330
C
100
AcDbDictionary
281
     1
  3
Standard
350
1003A
  0
DICTIONARY
  5
10054
102
{ACAD_REACTORS
330
C
102
}
330
C
100
AcDbDictionary
281
     1
  0
ACDBDICTIONARYWDFLT
  5
10002
102
{ACAD_REACTORS
330
C
102
}
330
C
100
AcDbDictionary
281
     1
  3
Normal
350
10003
100
AcDbDictionaryWithDefault
340
10003
  0
DICTIONARY
  5
1003B
102
{ACAD_REACTORS
330
C
102
}
330
C
100
AcDbDictionary
281
     1
  3
A0
350
1003C
  3
A1
350
1003D
  3
A2
350
1003E
  3
A3
350
1003F
  3
A4
350
10040
  3
A5
350
10041
  3
A6
350
10042
  3
A7
350
10043
  3
A8
350
10044
  3
A9
350
10045
  3
B0
350
10046
  3
B1
350
10047
  3
B2
350
10048
  3
B3
350
10049
  3
B4
350
1004A
  3
B5
350
1004B
  3
B6
350
1004C
  0
DICTIONARY
  5
1004F
102
{ACAD_REACTORS
330
C
102
}
330
C
100
AcDbDictionary
281
     1
  3
Imperial24
350
10050
  0
DICTIONARY
  5
10038
102
{ACAD_REACTORS
330
C
102
}
330
C
100
AcDbDictionary
281
     1
  3
Standard
350
10039
  0
DICTIONARY
  5
1001D
102
{ACAD_REACTORS
330
C
102
}
330
C
100
AcDbDictionary
281
     1
  3
2dWireframe
350
10023
  3
Basic
350
10022
  3
Brighten
350
10029
  3
ColorChange
350
1002D
  3
Conceptual
350
10026
  3
Dim
350
10028
  3
EdgeColorOff
350
10035
  3
Facepattern
350
1002C
  3
Flat
350
1001E
  3
FlatWithEdges
350
1001F
  3
Gouraud
350
10020
  3
GouraudWithEdges
350
10021
  3
Hidden
350
10025
  3
JitterOff
350
10033
  3
Linepattern
350
1002B
  3
OverhangOff
350
10034
  3
Realistic
350
10027
  3
Shaded
350
10032
  3
Shaded with edges
350
10031
  3
Shades of Gray
350
1002E
  3
Sketchy
350
1002F
  3
Thicken
350
1002A
  3
Wireframe
350
10024
  3
X-Ray
350
10030
  0
XRECORD
  5
10845
102
{ACAD_REACTORS
330
C
102
}
330
C
100
AcDbXrecord
280
     1
 90
        1
330
10039
  0
DICTIONARY
  5
1036E
102
{ACAD_REACTORS
330
C
102
}
330
C
100
AcDbDictionary
281
     1
  3
CANNOSCALE
350
10374
  3
CMLEADERSTYLE
350
10370
  3
CTABLESTYLE
350
1036F
  3
CVIEWDETAILSTYLE
350
10371
  3
CVIEWSECTIONSTYLE
350
10372
  3
LAYEREVAL
350
10376
  3
LAYERNOTIFY
350
10377
  3
LIGHTINGUNITS
350
10375
  3
MSLTSCALE
350
10373
  0
DICTIONARY
  5
1005C
102
{ACAD_REACTORS
330
1005B
102
}
330
1005B
100
AcDbDictionary
281
     1
  0
XRECORD
  5
1036D
102
{ACAD_REACTORS
330
1036C
102
}
330
1036C
100
AcDbXrecord
280
     1
290
     1
  0
SORTENTSTABLE
  5
10221
102
{ACAD_REACTORS
330
10220
102
}
330
10220
100
AcDbSortentsTable
330
1F
331
100DF
  5
100E8
331
100E0
  5
100E9
331
100E1
  5
100EA
331
100E2
  5
100EB
331
100E3
  5
100EC
331
100E4
  5
101DF
331
100E5
  5
101E3
331
100E7
  5
101F3
331
100E8
  5
101F4
331
100E9
  5
101F5
331
100EA
  5
101F6
331
100EB
  5
101F7
331
100EF
  5
101FD
331
100F0
  5
101FE
331
100F1
  5
101FF
331
100F2
  5
10200
331
100F3
  5
10201
331
1022C
  5
102F9
331
10246
  5
102FA
331
10247
  5
102FB
331
1024A
  5
102FC
331
1024B
  5
102FD
331
1024C
  5
102FE
331
1024D
  5
102FF
331
1024E
  5
10300
331
1024F
  5
10301
331
1025B
  5
10302
331
1025C
  5
10303
331
10285
  5
10304
331
10286
  5
10305
331
102A7
  5
10306
331
102A8
  5
10307
331
102AD
  5
10308
331
102B2
  5
10309
331
102EC
  5
1030A
331
102ED
  5
1030B
331
102EE
  5
1030C
  0
ACDBDETAILVIEWSTYLE
  5
10052
102
{ACAD_XDICTIONARY
360
10848
102
}
102
{ACAD_REACTORS
330
10051
102
}
330
10051
100
AcDbModelDocViewStyle
 70
     0
  3
Imperial24
290
     0
100
AcDbDetailViewStyle
 70
     0
 71
     0
 90
        3
 71
     1
340
11
 62
   256
 40
0.24
340
0
 62
   256
 40
0.24
300

 40
0.36
280
     3
 71
     2
340
0
 90
       25
 62
   256
 71
     3
340
11
 62
   256
 40
0.24
 90
        1
 40
0.75
 90
        1
300
%<\AcVar ViewType \f "%tc1">% %<\AcVar ViewDetailId>%\PSCALE %<\AcVar ViewScale \f "%sn">%
 71
     4
340
0
 90
       25
 62
   256
340
0
 90
       25
 62
   256
280
     0
  0
LAYOUT
  5
10056
102
{ACAD_REACTORS
330
10037
102
}
330
10037
100
AcDbPlotSettings
  1

  2
Brother HL-L2360D series Printer
  4

  6

 40
0.0
 41
0.0
 42
0.0
 43
0.0
 44
0.0
 45
0.0
 46
0.0
 47
0.0
 48
0.0
 49
0.0
140
0.0
141
0.0
142
1.0
143
1.0
 70
   688
 72
     0
 73
     0
 74
     5
  7

 75
    16
147
1.0
 76
     0
 77
     2
 78
   300
148
0.0
149
0.0
100
AcDbLayout
  1
Layout1
 70
     1
 71
     1
 10
0.0
 20
0.0
 11
12.0
 21
9.0
 12
0.0
 22
0.0
 32
0.0
 14
1.000000000000000E+20
 24
1.000000000000000E+20
 34
1.000000000000000E+20
 15
-1.000000000000000E+20
 25
-1.000000000000000E+20
 35
-1.000000000000000E+20
146
0.0
 13
0.0
 23
0.0
 33
0.0
 16
1.0
 26
0.0
 36
0.0
 17
0.0
 27
1.0
 37
0.0
 76
     0
330
1B
  0
LAYOUT
  5
10055
102
{ACAD_REACTORS
330
10037
102
}
330
10037
100
AcDbPlotSettings
  1

  2
Brother HL-L2360D series Printer
  4

  6

 40
0.0
 41
0.0
 42
0.0
 43
0.0
 44
0.0
 45
0.0
 46
0.0
 47
0.0
 48
0.0
 49
0.0
140
0.0
141
0.0
142
1.0
143
1.0
 70
  1712
 72
     0
 73
     0
 74
     0
  7

 75
     0
147
1.0
 76
     0
 77
     2
 78
   300
148
0.0
149
0.0
100
AcDbLayout
  1
Model
 70
     1
 71
     0
 10
0.0
 20
0.0
 11
12.0
 21
9.0
 12
0.0
 22
0.0
 32
0.0
 14
0.0
 24
0.0
 34
0.0
 15
0.0
 25
0.0
 35
0.0
146
0.0
 13
0.0
 23
0.0
 33
0.0
 16
1.0
 26
0.0
 36
0.0
 17
0.0
 27
1.0
 37
0.0
 76
     0
330
1F
331
10059
  0
MATERIAL
  5
1000D
102
{ACAD_XDICTIONARY
360
1000E
102
}
102
{ACAD_REACTORS
330
10004
102
}
330
10004
100
AcDbMaterial
  1
ByBlock
 72
     0
 43
0.0008202099737533
 43
0.0
 43
0.0
 43
0.0
 43
0.0
 43
0.0008202099737533
 43
0.0
 43
0.0
 43
0.0
 43
0.0
 43
1.0
 43
0.0
 43
0.0
 43
0.0
 43
0.0
 43
1.0
 77
     0
 47
0.0008202099737533
 47
0.0
 47
0.0
 47
0.0
 47
0.0
 47
0.0008202099737533
 47
0.0
 47
0.0
 47
0.0
 47
0.0
 47
1.0
 47
0.0
 47
0.0
 47
0.0
 47
0.0
 47
1.0
171
     0
 49
0.0008202099737533
 49
0.0
 49
0.0
 49
0.0
 49
0.0
 49
0.0008202099737533
 49
0.0
 49
0.0
 49
0.0
 49
0.0
 49
1.0
 49
0.0
 49
0.0
 49
0.0
 49
0.0
 49
1.0
175
     0
142
0.0008202099737533
142
0.0
142
0.0
142
0.0
142
0.0
142
0.0008202099737533
142
0.0
142
0.0
142
0.0
142
0.0
142
1.0
142
0.0
142
0.0
142
0.0
142
0.0
142
1.0
179
     0
144
0.0008202099737533
144
0.0
144
0.0
144
0.0
144
0.0
144
0.0008202099737533
144
0.0
144
0.0
144
0.0
144
0.0
144
1.0
144
0.0
144
0.0
144
0.0
144
0.0
144
1.0
147
0.0008202099737533
147
0.0
147
0.0
147
0.0
147
0.0
147
0.0008202099737533
147
0.0
147
0.0
147
0.0
147
0.0
147
1.0
147
0.0
147
0.0
147
0.0
147
0.0
147
1.0
  0
MATERIAL
  5
10005
102
{ACAD_XDICTIONARY
360
10006
102
}
102
{ACAD_REACTORS
330
10004
102
}
330
10004
100
AcDbMaterial
  1
ByLayer
 72
     0
 43
0.0008202099737533
 43
0.0
 43
0.0
 43
0.0
 43
0.0
 43
0.0008202099737533
 43
0.0
 43
0.0
 43
0.0
 43
0.0
 43
1.0
 43
0.0
 43
0.0
 43
0.0
 43
0.0
 43
1.0
 77
     0
 47
0.0008202099737533
 47
0.0
 47
0.0
 47
0.0
 47
0.0
 47
0.0008202099737533
 47
0.0
 47
0.0
 47
0.0
 47
0.0
 47
1.0
 47
0.0
 47
0.0
 47
0.0
 47
0.0
 47
1.0
171
     0
 49
0.0008202099737533
 49
0.0
 49
0.0
 49
0.0
 49
0.0
 49
0.0008202099737533
 49
0.0
 49
0.0
 49
0.0
 49
0.0
 49
1.0
 49
0.0
 49
0.0
 49
0.0
 49
0.0
 49
1.0
175
     0
142
0.0008202099737533
142
0.0
142
0.0
142
0.0
142
0.0
142
0.0008202099737533
142
0.0
142
0.0
142
0.0
142
0.0
142
1.0
142
0.0
142
0.0
142
0.0
142
0.0
142
1.0
179
     0
144
0.0008202099737533
144
0.0
144
0.0
144
0.0
144
0.0
144
0.0008202099737533
144
0.0
144
0.0
144
0.0
144
0.0
144
1.0
144
0.0
144
0.0
144
0.0
144
0.0
144
1.0
147
0.0008202099737533
147
0.0
147
0.0
147
0.0
147
0.0
147
0.0008202099737533
147
0.0
147
0.0
147
0.0
147
0.0
147
1.0
147
0.0
147
0.0
147
0.0
147
0.0
147
1.0
  0
MATERIAL
  5
10015
102
{ACAD_XDICTIONARY
360
10016
102
}
102
{ACAD_REACTORS
330
10004
102
}
330
10004
100
AcDbMaterial
  1
Global
 72
     0
 43
0.0008202099737533
 43
0.0
 43
0.0
 43
0.0
 43
0.0
 43
0.0008202099737533
 43
0.0
 43
0.0
 43
0.0
 43
0.0
 43
1.0
 43
0.0
 43
0.0
 43
0.0
 43
0.0
 43
1.0
 77
     0
 47
0.0008202099737533
 47
0.0
 47
0.0
 47
0.0
 47
0.0
 47
0.0008202099737533
 47
0.0
 47
0.0
 47
0.0
 47
0.0
 47
1.0
 47
0.0
 47
0.0
 47
0.0
 47
0.0
 47
1.0
171
     0
 49
0.0008202099737533
 49
0.0
 49
0.0
 49
0.0
 49
0.0
 49
0.0008202099737533
 49
0.0
 49
0.0
 49
0.0
 49
0.0
 49
1.0
 49
0.0
 49
0.0
 49
0.0
 49
0.0
 49
1.0
175
     0
142
0.0008202099737533
142
0.0
142
0.0
142
0.0
142
0.0
142
0.0008202099737533
142
0.0
142
0.0
142
0.0
142
0.0
142
1.0
142
0.0
142
0.0
142
0.0
142
0.0
142
1.0
179
     0
144
0.0008202099737533
144
0.0
144
0.0
144
0.0
144
0.0
144
0.0008202099737533
144
0.0
144
0.0
144
0.0
144
0.0
144
1.0
144
0.0
144
0.0
144
0.0
144
0.0
144
1.0
147
0.0008202099737533
147
0.0
147
0.0
147
0.0
147
0.0
147
0.0008202099737533
147
0.0
147
0.0
147
0.0
147
0.0
147
1.0
147
0.0
147
0.0
147
0.0
147
0.0
147
1.0
  0
MLEADERSTYLE
  5
1004E
102
{ACAD_REACTORS
330
1004D
102
}
330
1004D
100
AcDbMLeaderStyle
179
     2
170
     2
171
     1
172
     0
 90
        2
 40
0.0
 41
0.0
173
     1
 91
-1056964608
340
14
 92
       -2
290
     1
 42
0.09
291
     1
 43
0.36
  3
Standard
 44
0.18
300

342
11
174
     1
178
     6
175
     1
176
     0
 93
-1056964608
 45
0.18
292
     0
297
     0
 46
0.18
 94
-1056964608
 47
1.0
 49
1.0
140
1.0
293
     1
141
0.0
294
     1
177
     0
142
1.0
295
     0
296
     0
143
0.125
271
     0
272
     9
273
     9
298
     0
1001
ACAD_MLEADERVER
1070
     2
  0
MLINESTYLE
  5
1003A
102
{ACAD_REACTORS
330
17
102
}
330
17
100
AcDbMlineStyle
  2
STANDARD
 70
     0
  3

 62
   256
 51
90.0
 52
90.0
 71
     2
 49
0.5
 62
   256
  6
BYLAYER
 49
-0.5
 62
   256
  6
BYLAYER
  0
ACDBPLACEHOLDER
  5
10003
102
{ACAD_REACTORS
330
10002
102
}
330
10002
  0
SCALE
  5
1003C
102
{ACAD_REACTORS
330
1003B
102
}
330
1003B
100
AcDbScale
 70
     0
300
1:1
140
1.0
141
1.0
290
     1
  0
SCALE
  5
1003D
102
{ACAD_REACTORS
330
1003B
102
}
330
1003B
100
AcDbScale
 70
     0
300
1/128" = 1'-0"
140
0.0078125
141
12.0
290
     0
  0
SCALE
  5
1003E
102
{ACAD_REACTORS
330
1003B
102
}
330
1003B
100
AcDbScale
 70
     0
300
1/64" = 1'-0"
140
0.015625
141
12.0
290
     0
  0
SCALE
  5
1003F
102
{ACAD_REACTORS
330
1003B
102
}
330
1003B
100
AcDbScale
 70
     0
300
1/32" = 1'-0"
140
0.03125
141
12.0
290
     0
  0
SCALE
  5
10040
102
{ACAD_REACTORS
330
1003B
102
}
330
1003B
100
AcDbScale
 70
     0
300
1/16" = 1'-0"
140
0.0625
141
12.0
290
     0
  0
SCALE
  5
10041
102
{ACAD_REACTORS
330
1003B
102
}
330
1003B
100
AcDbScale
 70
     0
300
3/32" = 1'-0"
140
0.09375
141
12.0
290
     0
  0
SCALE
  5
10042
102
{ACAD_REACTORS
330
1003B
102
}
330
1003B
100
AcDbScale
 70
     0
300
1/8" = 1'-0"
140
0.125
141
12.0
290
     0
  0
SCALE
  5
10043
102
{ACAD_REACTORS
330
1003B
102
}
330
1003B
100
AcDbScale
 70
     0
300
3/16" = 1'-0"
140
0.1875
141
12.0
290
     0
  0
SCALE
  5
10044
102
{ACAD_REACTORS
330
1003B
102
}
330
1003B
100
AcDbScale
 70
     0
300
1/4" = 1'-0"
140
0.25
141
12.0
290
     0
  0
SCALE
  5
10045
102
{ACAD_REACTORS
330
1003B
102
}
330
1003B
100
AcDbScale
 70
     0
300
3/8" = 1'-0"
140
0.375
141
12.0
290
     0
  0
SCALE
  5
10046
102
{ACAD_REACTORS
330
1003B
102
}
330
1003B
100
AcDbScale
 70
     0
300
1/2" = 1'-0"
140
0.5
141
12.0
290
     0
  0
SCALE
  5
10047
102
{ACAD_REACTORS
330
1003B
102
}
330
1003B
100
AcDbScale
 70
     0
300
3/4" = 1'-0"
140
0.75
141
12.0
290
     0
  0
SCALE
  5
10048
102
{ACAD_REACTORS
330
1003B
102
}
330
1003B
100
AcDbScale
 70
     0
300
1" = 1'-0"
140
1.0
141
12.0
290
     0
  0
SCALE
  5
10049
102
{ACAD_REACTORS
330
1003B
102
}
330
1003B
100
AcDbScale
 70
     0
300
1-1/2" = 1'-0"
140
1.5
141
12.0
290
     0
  0
SCALE
  5
1004A
102
{ACAD_REACTORS
330
1003B
102
}
330
1003B
100
AcDbScale
 70
     0
300
3" = 1'-0"
140
3.0
141
12.0
290
     0
  0
SCALE
  5
1004B
102
{ACAD_REACTORS
330
1003B
102
}
330
1003B
100
AcDbScale
 70
     0
300
6" = 1'-0"
140
6.0
141
12.0
290
     0
  0
SCALE
  5
1004C
102
{ACAD_REACTORS
330
1003B
102
}
330
1003B
100
AcDbScale
 70
     0
300
1'-0" = 1'-0"
140
12.0
141
12.0
290
     0
  0
ACDBSECTIONVIEWSTYLE
  5
10050
102
{ACAD_XDICTIONARY
360
10846
102
}
102
{ACAD_REACTORS
330
1004F
102
}
330
1004F
100
AcDbModelDocViewStyle
 70
     0
  3
Imperial24
290
     0
100
AcDbSectionViewStyle
 70
     0
 71
     0
 90
       78
 71
     1
340
11
 62
   256
 40
0.24
340
0
340
0
 62
   256
 40
0.24
300
I, O, Q, S, X, Z
 40
0.48
 90
        3
 40
0.18
 90
        1
 71
     2
340
0
 90
       25
 62
   256
340
0
 90
       50
 62
   256
 40
0.24
 40
0.0
 40
0.24
 71
     3
340
11
 62
   256
 40
0.24
 90
        1
 40
0.75
 90
        1
300
%<\AcVar ViewType \f "%tc1">% %<\AcVar ViewSectionStartId>%-%<\AcVar ViewSectionEndId>%\PSCALE %<\AcVar ViewScale \f "%sn">%
 71
     4
 62
   256
 62
   257
300
ANSI31
 40
1.0
 90
        0
290
     0
290
     0
 90
        6
 40
0.0
 40
1.570796326794896
 40
0.2617993877991494
 40
1.308996938995747
 40
-0.2617993877991494
 40
1.832595714594044
  0
TABLESTYLE
  5
10039
102
{ACAD_XDICTIONARY
360
10797
102
}
102
{ACAD_REACTORS
330
10038
102
}
330
10038
100
AcDbTableStyle
280
     0
  3
Standard
 70
     0
 71
     0
 40
0.06
 41
0.06
280
     0
281
     0
  7
STANDARD
140
0.18
170
     2
 62
     0
 63
     7
283
     0
 90
      512
 91
        0
  1

274
    -2
284
     1
 64
     0
275
    -2
285
     1
 65
     0
276
    -2
286
     1
 66
     0
277
    -2
287
     1
 67
     0
278
    -2
288
     1
 68
     0
279
    -2
289
     1
 69
     0
  7
STANDARD
140
0.25
170
     5
 62
     0
 63
     7
283
     0
 90
      512
 91
        0
  1

274
    -2
284
     1
 64
     0
275
    -2
285
     1
 65
     0
276
    -2
286
     1
 66
     0
277
    -2
287
     1
 67
     0
278
    -2
288
     1
 68
     0
279
    -2
289
     1
 69
     0
  7
STANDARD
140
0.18
170
     5
 62
     0
 63
     7
283
     0
 90
      512
 91
        0
  1

274
    -2
284
     1
 64
     0
275
    -2
285
     1
 65
     0
276
    -2
286
     1
 66
     0
277
    -2
287
     1
 67
     0
278
    -2
288
     1
 68
     0
279
    -2
289
     1
 69
     0
  0
VISUALSTYLE
  5
10023
102
{ACAD_REACTORS
330
1001D
102
}
330
1001D
100
AcDbVisualStyle
  2

 70
     4
177
     3
291
     0
 70
    58
 90
        0
176
     1
 90
        2
176
     1
 90
        0
176
     1
 90
        0
176
     1
 40
0.6
176
     1
 40
30.0
176
     1
 62
     7
420
 16777215
176
     1
 90
        1
176
     1
 90
        4
176
     1
 62
     7
176
     1
 62
   257
176
     1
 90
        1
176
     1
 90
        1
176
     1
 40
1.0
176
     1
 90
        0
176
     1
 62
   257
176
     1
 40
1.0
176
     1
 90
        1
176
     1
 90
        6
176
     1
 90
        2
176
     1
 62
     7
176
     1
 90
        5
176
     1
 90
        0
176
     1
 90
        0
176
     1
290
     0
176
     1
 90
        1
176
     1
 40
0.0
176
     1
 90
        0
176
     1
290
     1
176
     1
290
     1
176
     1
290
     0
176
     1
290
     0
176
     1
290
     0
176
     1
290
     0
176
     1
290
     0
176
     1
290
     0
176
     1
290
     0
176
     1
 90
       50
176
     1
 40
0.0
176
     1
 40
1.0
176
     1
 90
        0
176
     1
 62
    18
176
     1
 90
       50
176
     1
 90
        3
176
     1
 62
     5
420
      255
176
     1
290
     0
176
     1
 90
       50
176
     1
 90
       50
176
     1
 90
       50
176
     1
290
     0
176
     1
 90
       50
176
     1
 62
   256
176
     0
 40
1.0
176
     0
 90
        2
176
     1
  1
strokes_ogs.tif
176
     1
290
     0
176
     1
 40
1.0
176
     1
 40
1.0
176
     1
1001
ACAD
1000
AcDbSavedByObjectVersion
1070
     0
  0
VISUALSTYLE
  5
10022
102
{ACAD_REACTORS
330
1001D
102
}
330
1001D
100
AcDbVisualStyle
  2

 70
     7
177
     3
291
     1
 70
    58
 90
        1
176
     1
 90
        0
176
     1
 90
        1
176
     1
 90
        0
176
     1
 40
0.6
176
     1
 40
30.0
176
     1
 62
     7
420
 16777215
176
     1
 90
        0
176
     1
 90
        4
176
     1
 62
     7
176
     1
 62
   257
176
     1
 90
        1
176
     1
 90
        1
176
     1
 40
1.0
176
     1
 90
        8
176
     1
 62
     7
176
     1
 40
1.0
176
     1
 90
        1
176
     1
 90
        6
176
     1
 90
        2
176
     1
 62
     7
176
     1
 90
        5
176
     1
 90
        0
176
     1
 90
        0
176
     1
290
     0
176
     1
 90
        1
176
     1
 40
0.0
176
     1
 90
        0
176
     1
290
     0
176
     1
290
     1
176
     1
290
     1
176
     1
290
     0
176
     1
290
     0
176
     1
290
     0
176
     1
290
     0
176
     1
290
     0
176
     1
290
     0
176
     1
 90
       50
176
     1
 40
0.0
176
     1
 40
1.0
176
     1
 90
        0
176
     1
 62
    18
176
     1
 90
       50
176
     1
 90
        3
176
     1
 62
     5
420
      255
176
     1
290
     0
176
     1
 90
       50
176
     1
 90
       50
176
     1
 90
       50
176
     1
290
     0
176
     1
 90
       50
176
     1
 62
   256
176
     0
 40
1.0
176
     0
 90
        2
176
     1
  1
strokes_ogs.tif
176
     1
290
     0
176
     1
 40
1.0
176
     1
 40
1.0
176
     1
1001
ACAD
1000
AcDbSavedByObjectVersion
1070
     0
  0
VISUALSTYLE
  5
10029
102
{ACAD_REACTORS
330
1001D
102
}
330
1001D
100
AcDbVisualStyle
  2

 70
    12
177
     3
291
     1
 70
    58
 90
        2
176
     1
 90
        2
176
     1
 90
        0
176
     1
 90
        0
176
     1
 40
0.6
176
     1
 40
30.0
176
     1
 62
     7
420
 16777215
176
     1
 90
        1
176
     1
 90
        4
176
     1
 62
     7
176
     1
 62
   257
176
     1
 90
        1
176
     1
 90
        1
176
     1
 40
1.0
176
     1
 90
        8
176
     1
 62
     7
176
     1
 40
1.0
176
     1
 90
        1
176
     1
 90
        6
176
     1
 90
        2
176
     1
 62
     7
176
     1
 90
        5
176
     1
 90
        0
176
     1
 90
        0
176
     1
290
     0
176
     1
 90
        1
176
     1
 40
50.0
176
     1
 90
        0
176
     1
290
     0
176
     1
290
     1
176
     1
290
     1
176
     1
290
     0
176
     1
290
     0
176
     1
290
     0
176
     1
290
     0
176
     1
290
     0
176
     1
290
     0
176
     1
 90
       50
176
     1
 40
0.0
176
     1
 40
1.0
176
     1
 90
        0
176
     1
 62
    18
176
     1
 90
       50
176
     1
 90
        3
176
     1
 62
     5
420
      255
176
     1
290
     0
176
     1
 90
       50
176
     1
 90
       50
176
     1
 90
       50
176
     1
290
     0
176
     1
 90
       50
176
     1
 62
   256
176
     0
 40
1.0
176
     0
 90
        2
176
     1
  1
strokes_ogs.tif
176
     1
290
     0
176
     1
 40
1.0
176
     1
 40
1.0
176
     1
1001
ACAD
1000
AcDbSavedByObjectVersion
1070
     0
  0
VISUALSTYLE
  5
1002D
102
{ACAD_REACTORS
330
1001D
102
}
330
1001D
100
AcDbVisualStyle
  2

 70
    16
177
     3
291
     1
 70
    58
 90
        2
176
     1
 90
        2
176
     1
 90
        3
176
     1
 90
        0
176
     1
 40
0.6
176
     1
 40
30.0
176
     1
 62
     8
420
  8421504
176
     1
 90
        1
176
     1
 90
        4
176
     1
 62
     7
176
     1
 62
   257
176
     1
 90
        1
176
     1
 90
        1
176
     1
 40
1.0
176
     1
 90
        8
176
     1
 62
     8
420
  8421504
176
     1
 40
1.0
176
     1
 90
        1
176
     1
 90
        6
176
     1
 90
        2
176
     1
 62
     7
176
     1
 90
        5
176
     1
 90
        0
176
     1
 90
        0
176
     1
290
     0
176
     1
 90
        1
176
     1
 40
0.0
176
     1
 90
        0
176
     1
290
     0
176
     1
290
     1
176
     1
290
     1
176
     1
290
     0
176
     1
290
     0
176
     1
290
     0
176
     1
290
     0
176
     1
290
     0
176
     1
290
     0
176
     1
 90
       50
176
     1
 40
0.0
176
     1
 40
1.0
176
     1
 90
        0
176
     1
 62
    18
176
     1
 90
       50
176
     1
 90
        3
176
     1
 62
     5
420
      255
176
     1
290
     0
176
     1
 90
       50
176
     1
 90
       50
176
     1
 90
       50
176
     1
290
     0
176
     1
 90
       50
176
     1
 62
   256
176
     0
 40
1.0
176
     0
 90
        2
176
     1
  1
strokes_ogs.tif
176
     1
290
     0
176
     1
 40
1.0
176
     1
 40
1.0
176
     1
1001
ACAD
1000
AcDbSavedByObjectVersion
1070
     0
  0
VISUALSTYLE
  5
10026
102
{ACAD_REACTORS
330
1001D
102
}
330
1001D
100
AcDbVisualStyle
  2

 70
     9
177
     3
291
     0
 70
    58
 90
        3
176
     1
 90
        2
176
     1
 90
        0
176
     1
 90
        0
176
     1
 40
0.6
176
     1
 40
30.0
176
     1
 62
     7
420
 16777215
176
     1
 90
        2
176
     1
 90
        2
176
     1
 62
     7
176
     1
 62
   257
176
     1
 90
        1
176
     1
 90
        1
176
     1
 40
179.0
176
     1
 90
        8
176
     1
 62
     7
176
     1
 40
1.0
176
     1
 90
        1
176
     1
 90
        6
176
     1
 90
        2
176
     1
 62
     7
176
     1
 90
        3
176
     1
 90
        0
176
     1
 90
        0
176
     1
290
     0
176
     1
 90
        1
176
     1
 40
0.0
176
     1
 90
        0
176
     1
290
     0
176
     1
290
     1
176
     1
290
     1
176
     1
290
     0
176
     1
290
     0
176
     1
290
     0
176
     1
290
     0
176
     1
290
     0
176
     1
290
     0
176
     1
 90
       50
176
     1
 40
0.0
176
     1
 40
1.0
176
     1
 90
        0
176
     1
 62
    18
176
     1
 90
       50
176
     1
 90
        3
176
     1
 62
     5
420
      255
176
     1
290
     0
176
     1
 90
       50
176
     1
 90
       50
176
     1
 90
       50
176
     1
290
     0
176
     1
 90
       50
176
     1
 62
   256
176
     0
 40
1.0
176
     0
 90
        2
176
     1
  1
strokes_ogs.tif
176
     1
290
     0
176
     1
 40
1.0
176
     1
 40
1.0
176
     1
1001
ACAD
1000
AcDbSavedByObjectVersion
1070
     0
  0
VISUALSTYLE
  5
10028
102
{ACAD_REACTORS
330
1001D
102
}
330
1001D
100
AcDbVisualStyle
  2

 70
    11
177
     3
291
     1
 70
    58
 90
        2
176
     1
 90
        2
176
     1
 90
        0
176
     1
 90
        0
176
     1
 40
0.6
176
     1
 40
30.0
176
     1
 62
     7
420
 16777215
176
     1
 90
        1
176
     1
 90
        4
176
     1
 62
     7
176
     1
 62
   257
176
     1
 90
        1
176
     1
 90
        1
176
     1
 40
1.0
176
     1
 90
        8
176
     1
 62
     7
176
     1
 40
1.0
176
     1
 90
        1
176
     1
 90
        6
176
     1
 90
        2
176
     1
 62
     7
176
     1
 90
        5
176
     1
 90
        0
176
     1
 90
        0
176
     1
290
     0
176
     1
 90
        1
176
     1
 40
-50.0
176
     1
 90
        0
176
     1
290
     0
176
     1
290
     1
176
     1
290
     1
176
     1
290
     0
176
     1
290
     0
176
     1
290
     0
176
     1
290
     0
176
     1
290
     0
176
     1
290
     0
176
     1
 90
       50
176
     1
 40
0.0
176
     1
 40
1.0
176
     1
 90
        0
176
     1
 62
    18
176
     1
 90
       50
176
     1
 90
        3
176
     1
 62
     5
420
      255
176
     1
290
     0
176
     1
 90
       50
176
     1
 90
       50
176
     1
 90
       50
176
     1
290
     0
176
     1
 90
       50
176
     1
 62
   256
176
     0
 40
1.0
176
     0
 90
        2
176
     1
  1
strokes_ogs.tif
176
     1
290
     0
176
     1
 40
1.0
176
     1
 40
1.0
176
     1
1001
ACAD
1000
AcDbSavedByObjectVersion
1070
     0
  0
VISUALSTYLE
  5
10035
102
{ACAD_REACTORS
330
1001D
102
}
330
1001D
100
AcDbVisualStyle
  2

 70
    22
177
     3
291
     1
 70
    58
 90
        2
176
     0
 90
        2
176
     0
 90
        0
176
     0
 90
        0
176
     0
 40
0.6
176
     0
 40
30.0
176
     0
 62
     7
420
 16777215
176
     0
 90
        1
176
     0
 90
        4
176
     0
 62
     7
176
     0
 62
   257
176
     0
 90
        1
176
     0
 90
        1
176
     0
 40
1.0
176
     0
 90
        8
176
     2
 62
     7
176
     0
 40
1.0
176
     0
 90
        1
176
     0
 90
        6
176
     0
 90
        2
176
     0
 62
     7
176
     0
 90
        5
176
     0
 90
        0
176
     0
 90
        0
176
     0
290
     0
176
     0
 90
        1
176
     0
 40
0.0
176
     0
 90
        0
176
     0
290
     0
176
     1
290
     1
176
     1
290
     1
176
     1
290
     0
176
     1
290
     0
176
     1
290
     0
176
     1
290
     0
176
     1
290
     0
176
     1
290
     0
176
     1
 90
       50
176
     0
 40
0.0
176
     0
 40
1.0
176
     0
 90
        0
176
     0
 62
    18
176
     0
 90
       50
176
     0
 90
        3
176
     0
 62
     5
420
      255
176
     0
290
     0
176
     1
 90
       50
176
     0
 90
       50
176
     0
 90
       50
176
     0
290
     0
176
     1
 90
       50
176
     0
 62
   256
176
     0
 40
1.0
176
     0
 90
        2
176
     0
  1
strokes_ogs.tif
176
     0
290
     0
176
     1
 40
1.0
176
     0
 40
1.0
176
     0
1001
ACAD
1000
AcDbSavedByObjectVersion
1070
     0
  0
VISUALSTYLE
  5
1002C
102
{ACAD_REACTORS
330
1001D
102
}
330
1001D
100
AcDbVisualStyle
  2

 70
    15
177
     3
291
     1
 70
    58
 90
        2
176
     1
 90
        2
176
     1
 90
        0
176
     1
 90
        0
176
     1
 40
0.6
176
     1
 40
30.0
176
     1
 62
     7
420
 16777215
176
     1
 90
        1
176
     1
 90
        4
176
     1
 62
     7
176
     1
 62
   257
176
     1
 90
        1
176
     1
 90
        1
176
     1
 40
1.0
176
     1
 90
        8
176
     1
 62
     7
176
     1
 40
1.0
176
     1
 90
        1
176
     1
 90
        6
176
     1
 90
        2
176
     1
 62
     7
176
     1
 90
        5
176
     1
 90
        0
176
     1
 90
        0
176
     1
290
     0
176
     1
 90
        1
176
     1
 40
0.0
176
     1
 90
        0
176
     1
290
     0
176
     1
290
     1
176
     1
290
     1
176
     1
290
     0
176
     1
290
     0
176
     1
290
     0
176
     1
290
     0
176
     1
290
     0
176
     1
290
     0
176
     1
 90
       50
176
     1
 40
0.0
176
     1
 40
1.0
176
     1
 90
        0
176
     1
 62
    18
176
     1
 90
       50
176
     1
 90
        3
176
     1
 62
     5
420
      255
176
     1
290
     0
176
     1
 90
       50
176
     1
 90
       50
176
     1
 90
       50
176
     1
290
     0
176
     1
 90
       50
176
     1
 62
   256
176
     0
 40
1.0
176
     0
 90
        2
176
     1
  1
strokes_ogs.tif
176
     1
290
     0
176
     1
 40
1.0
176
     1
 40
1.0
176
     1
1001
ACAD
1000
AcDbSavedByObjectVersion
1070
     0
  0
VISUALSTYLE
  5
1001E
102
{ACAD_REACTORS
330
1001D
102
}
330
1001D
100
AcDbVisualStyle
  2

 70
     0
177
     3
291
     1
 70
    58
 90
        2
176
     1
 90
        1
176
     1
 90
        1
176
     1
 90
        2
176
     1
 40
0.6
176
     1
 40
30.0
176
     1
 62
     7
420
 16777215
176
     1
 90
        0
176
     1
 90
        0
176
     1
 62
     7
176
     1
 62
   257
176
     1
 90
        1
176
     1
 90
        1
176
     1
 40
1.0
176
     1
 90
        8
176
     1
 62
     7
176
     1
 40
1.0
176
     1
 90
        1
176
     1
 90
        6
176
     1
 90
        2
176
     1
 62
     7
176
     1
 90
        5
176
     1
 90
        0
176
     1
 90
        0
176
     1
290
     0
176
     1
 90
       13
176
     1
 40
0.0
176
     1
 90
        0
176
     1
290
     0
176
     1
290
     1
176
     1
290
     1
176
     1
290
     0
176
     1
290
     0
176
     1
290
     0
176
     1
290
     0
176
     1
290
     0
176
     1
290
     0
176
     1
 90
       50
176
     1
 40
0.0
176
     1
 40
1.0
176
     1
 90
        0
176
     1
 62
    18
176
     1
 90
       50
176
     1
 90
        3
176
     1
 62
     5
420
      255
176
     1
290
     0
176
     1
 90
       50
176
     1
 90
       50
176
     1
 90
       50
176
     1
290
     0
176
     1
 90
       50
176
     1
 62
   256
176
     0
 40
1.0
176
     0
 90
        2
176
     1
  1
strokes_ogs.tif
176
     1
290
     0
176
     1
 40
1.0
176
     1
 40
1.0
176
     1
1001
ACAD
1000
AcDbSavedByObjectVersion
1070
     0
  0
VISUALSTYLE
  5
1001F
102
{ACAD_REACTORS
330
1001D
102
}
330
1001D
100
AcDbVisualStyle
  2

 70
     1
177
     3
291
     1
 70
    58
 90
        2
176
     1
 90
        1
176
     1
 90
        1
176
     1
 90
        2
176
     1
 40
0.6
176
     1
 40
30.0
176
     1
 62
     7
420
 16777215
176
     1
 90
        1
176
     1
 90
        0
176
     1
 62
     7
176
     1
 62
   257
176
     1
 90
        1
176
     1
 90
        1
176
     1
 40
1.0
176
     1
 90
        0
176
     1
 62
   257
176
     1
 40
1.0
176
     1
 90
        1
176
     1
 90
        6
176
     1
 90
        2
176
     1
 62
     7
176
     1
 90
        5
176
     1
 90
        0
176
     1
 90
        0
176
     1
290
     0
176
     1
 90
       13
176
     1
 40
0.0
176
     1
 90
        0
176
     1
290
     0
176
     1
290
     1
176
     1
290
     1
176
     1
290
     0
176
     1
290
     0
176
     1
290
     0
176
     1
290
     0
176
     1
290
     0
176
     1
290
     0
176
     1
 90
       50
176
     1
 40
0.0
176
     1
 40
1.0
176
     1
 90
        0
176
     1
 62
    18
176
     1
 90
       50
176
     1
 90
        3
176
     1
 62
     5
420
      255
176
     1
290
     0
176
     1
 90
       50
176
     1
 90
       50
176
     1
 90
       50
176
     1
290
     0
176
     1
 90
       50
176
     1
 62
   256
176
     0
 40
1.0
176
     0
 90
        2
176
     1
  1
strokes_ogs.tif
176
     1
290
     0
176
     1
 40
1.0
176
     1
 40
1.0
176
     1
1001
ACAD
1000
AcDbSavedByObjectVersion
1070
     0
  0
VISUALSTYLE
  5
10020
102
{ACAD_REACTORS
330
1001D
102
}
330
1001D
100
AcDbVisualStyle
  2

 70
     2
177
     3
291
     1
 70
    58
 90
        2
176
     1
 90
        2
176
     1
 90
        1
176
     1
 90
        2
176
     1
 40
0.6
176
     1
 40
30.0
176
     1
 62
     7
420
 16777215
176
     1
 90
        0
176
     1
 90
        0
176
     1
 62
     7
176
     1
 62
   257
176
     1
 90
        1
176
     1
 90
        1
176
     1
 40
1.0
176
     1
 90
        0
176
     1
 62
     7
176
     1
 40
1.0
176
     1
 90
        1
176
     1
 90
        6
176
     1
 90
        2
176
     1
 62
     7
176
     1
 90
        5
176
     1
 90
        0
176
     1
 90
        0
176
     1
290
     0
176
     1
 90
       13
176
     1
 40
0.0
176
     1
 90
        0
176
     1
290
     0
176
     1
290
     1
176
     1
290
     1
176
     1
290
     0
176
     1
290
     0
176
     1
290
     0
176
     1
290
     0
176
     1
290
     0
176
     1
290
     0
176
     1
 90
       50
176
     1
 40
0.0
176
     1
 40
1.0
176
     1
 90
        0
176
     1
 62
    18
176
     1
 90
       50
176
     1
 90
        3
176
     1
 62
     5
420
      255
176
     1
290
     0
176
     1
 90
       50
176
     1
 90
       50
176
     1
 90
       50
176
     1
290
     0
176
     1
 90
       50
176
     1
 62
   256
176
     0
 40
1.0
176
     0
 90
        2
176
     1
  1
strokes_ogs.tif
176
     1
290
     0
176
     1
 40
1.0
176
     1
 40
1.0
176
     1
1001
ACAD
1000
AcDbSavedByObjectVersion
1070
     0
  0
VISUALSTYLE
  5
10021
102
{ACAD_REACTORS
330
1001D
102
}
330
1001D
100
AcDbVisualStyle
  2

 70
     3
177
     3
291
     1
 70
    58
 90
        2
176
     1
 90
        2
176
     1
 90
        1
176
     1
 90
        2
176
     1
 40
0.6
176
     1
 40
30.0
176
     1
 62
     7
420
 16777215
176
     1
 90
        1
176
     1
 90
        0
176
     1
 62
     7
176
     1
 62
   257
176
     1
 90
        1
176
     1
 90
        1
176
     1
 40
1.0
176
     1
 90
        0
176
     1
 62
   257
176
     1
 40
1.0
176
     1
 90
        1
176
     1
 90
        6
176
     1
 90
        2
176
     1
 62
     7
176
     1
 90
        5
176
     1
 90
        0
176
     1
 90
        0
176
     1
290
     0
176
     1
 90
       13
176
     1
 40
0.0
176
     1
 90
        0
176
     1
290
     0
176
     1
290
     1
176
     1
290
     1
176
     1
290
     0
176
     1
290
     0
176
     1
290
     0
176
     1
290
     0
176
     1
290
     0
176
     1
290
     0
176
     1
 90
       50
176
     1
 40
0.0
176
     1
 40
1.0
176
     1
 90
        0
176
     1
 62
    18
176
     1
 90
       50
176
     1
 90
        3
176
     1
 62
     5
420
      255
176
     1
290
     0
176
     1
 90
       50
176
     1
 90
       50
176
     1
 90
       50
176
     1
290
     0
176
     1
 90
       50
176
     1
 62
   256
176
     0
 40
1.0
176
     0
 90
        2
176
     1
  1
strokes_ogs.tif
176
     1
290
     0
176
     1
 40
1.0
176
     1
 40
1.0
176
     1
1001
ACAD
1000
AcDbSavedByObjectVersion
1070
     0
  0
VISUALSTYLE
  5
10025
102
{ACAD_REACTORS
330
1001D
102
}
330
1001D
100
AcDbVisualStyle
  2

 70
     6
177
     3
291
     0
 70
    58
 90
        1
176
     1
 90
        2
176
     1
 90
        2
176
     1
 90
        0
176
     1
 40
0.6
176
     1
 40
30.0
176
     1
 62
     7
420
 16777215
176
     1
 90
        2
176
     1
 90
        2
176
     1
 62
     7
176
     1
 62
   257
176
     1
 90
        2
176
     1
 90
        1
176
     1
 40
40.0
176
     1
 90
        0
176
     1
 62
   257
176
     1
 40
1.0
176
     1
 90
        1
176
     1
 90
        6
176
     1
 90
        2
176
     1
 62
     7
176
     1
 90
        3
176
     1
 90
        0
176
     1
 90
        0
176
     1
290
     0
176
     1
 90
        1
176
     1
 40
0.0
176
     1
 90
        0
176
     1
290
     0
176
     1
290
     1
176
     1
290
     1
176
     1
290
     0
176
     1
290
     0
176
     1
290
     0
176
     1
290
     0
176
     1
290
     0
176
     1
290
     0
176
     1
 90
       50
176
     1
 40
0.0
176
     1
 40
1.0
176
     1
 90
        0
176
     1
 62
    18
176
     1
 90
       50
176
     1
 90
        3
176
     1
 62
     5
420
      255
176
     1
290
     0
176
     1
 90
       50
176
     1
 90
       50
176
     1
 90
       50
176
     1
290
     0
176
     1
 90
       50
176
     1
 62
   256
176
     0
 40
1.0
176
     0
 90
        2
176
     1
  1
strokes_ogs.tif
176
     1
290
     0
176
     1
 40
1.0
176
     1
 40
1.0
176
     1
1001
ACAD
1000
AcDbSavedByObjectVersion
1070
     0
  0
VISUALSTYLE
  5
10033
102
{ACAD_REACTORS
330
1001D
102
}
330
1001D
100
AcDbVisualStyle
  2

 70
    20
177
     3
291
     1
 70
    58
 90
        2
176
     0
 90
        2
176
     0
 90
        0
176
     0
 90
        0
176
     0
 40
0.6
176
     0
 40
30.0
176
     0
 62
     7
420
 16777215
176
     0
 90
        1
176
     0
 90
        4
176
     0
 62
     7
176
     0
 62
   257
176
     0
 90
        1
176
     0
 90
        1
176
     0
 40
1.0
176
     0
 90
       10
176
     2
 62
     7
176
     0
 40
1.0
176
     0
 90
        1
176
     0
 90
        6
176
     0
 90
        2
176
     0
 62
     7
176
     0
 90
        5
176
     0
 90
        0
176
     0
 90
        0
176
     0
290
     0
176
     0
 90
        1
176
     0
 40
0.0
176
     0
 90
        0
176
     0
290
     0
176
     1
290
     1
176
     1
290
     1
176
     1
290
     0
176
     1
290
     0
176
     1
290
     0
176
     1
290
     0
176
     1
290
     0
176
     1
290
     0
176
     1
 90
       50
176
     0
 40
0.0
176
     0
 40
1.0
176
     0
 90
        0
176
     0
 62
    18
176
     0
 90
       50
176
     0
 90
        3
176
     0
 62
     5
420
      255
176
     0
290
     0
176
     1
 90
       50
176
     0
 90
       50
176
     0
 90
       50
176
     0
290
     0
176
     1
 90
       50
176
     0
 62
   256
176
     0
 40
1.0
176
     0
 90
        2
176
     0
  1
strokes_ogs.tif
176
     0
290
     0
176
     1
 40
1.0
176
     0
 40
1.0
176
     0
1001
ACAD
1000
AcDbSavedByObjectVersion
1070
     0
  0
VISUALSTYLE
  5
1002B
102
{ACAD_REACTORS
330
1001D
102
}
330
1001D
100
AcDbVisualStyle
  2

 70
    14
177
     3
291
     1
 70
    58
 90
        2
176
     1
 90
        2
176
     1
 90
        0
176
     1
 90
        0
176
     1
 40
0.6
176
     1
 40
30.0
176
     1
 62
     7
420
 16777215
176
     1
 90
        1
176
     1
 90
        4
176
     1
 62
     7
176
     1
 62
   257
176
     1
 90
        7
176
     1
 90
        7
176
     1
 40
1.0
176
     1
 90
        8
176
     1
 62
     7
176
     1
 40
1.0
176
     1
 90
        1
176
     1
 90
        6
176
     1
 90
        2
176
     1
 62
     7
176
     1
 90
        5
176
     1
 90
        0
176
     1
 90
        0
176
     1
290
     0
176
     1
 90
        1
176
     1
 40
0.0
176
     1
 90
        0
176
     1
290
     0
176
     1
290
     1
176
     1
290
     1
176
     1
290
     0
176
     1
290
     0
176
     1
290
     0
176
     1
290
     0
176
     1
290
     0
176
     1
290
     0
176
     1
 90
       50
176
     1
 40
0.0
176
     1
 40
1.0
176
     1
 90
        0
176
     1
 62
    18
176
     1
 90
       50
176
     1
 90
        3
176
     1
 62
     5
420
      255
176
     1
290
     0
176
     1
 90
       50
176
     1
 90
       50
176
     1
 90
       50
176
     1
290
     0
176
     1
 90
       50
176
     1
 62
   256
176
     0
 40
1.0
176
     0
 90
        2
176
     1
  1
strokes_ogs.tif
176
     1
290
     0
176
     1
 40
1.0
176
     1
 40
1.0
176
     1
1001
ACAD
1000
AcDbSavedByObjectVersion
1070
     0
  0
VISUALSTYLE
  5
10034
102
{ACAD_REACTORS
330
1001D
102
}
330
1001D
100
AcDbVisualStyle
  2

 70
    21
177
     3
291
     1
 70
    58
 90
        2
176
     0
 90
        2
176
     0
 90
        0
176
     0
 90
        0
176
     0
 40
0.6
176
     0
 40
30.0
176
     0
 62
     7
420
 16777215
176
     0
 90
        1
176
     0
 90
        4
176
     0
 62
     7
176
     0
 62
   257
176
     0
 90
        1
176
     0
 90
        1
176
     0
 40
1.0
176
     0
 90
        9
176
     2
 62
     7
176
     0
 40
1.0
176
     0
 90
        1
176
     0
 90
        6
176
     0
 90
        2
176
     0
 62
     7
176
     0
 90
        5
176
     0
 90
        0
176
     0
 90
        0
176
     0
290
     0
176
     0
 90
        1
176
     0
 40
0.0
176
     0
 90
        0
176
     0
290
     0
176
     1
290
     1
176
     1
290
     1
176
     1
290
     0
176
     1
290
     0
176
     1
290
     0
176
     1
290
     0
176
     1
290
     0
176
     1
290
     0
176
     1
 90
       50
176
     0
 40
0.0
176
     0
 40
1.0
176
     0
 90
        0
176
     0
 62
    18
176
     0
 90
       50
176
     0
 90
        3
176
     0
 62
     5
420
      255
176
     0
290
     0
176
     1
 90
       50
176
     0
 90
       50
176
     0
 90
       50
176
     0
290
     0
176
     1
 90
       50
176
     0
 62
   256
176
     0
 40
1.0
176
     0
 90
        2
176
     0
  1
strokes_ogs.tif
176
     0
290
     0
176
     1
 40
1.0
176
     0
 40
1.0
176
     0
1001
ACAD
1000
AcDbSavedByObjectVersion
1070
     0
  0
VISUALSTYLE
  5
10027
102
{ACAD_REACTORS
330
1001D
102
}
330
1001D
100
AcDbVisualStyle
  2

 70
     8
177
     3
291
     0
 70
    58
 90
        2
176
     1
 90
        3
176
     1
 90
        0
176
     1
 90
        2
176
     1
 40
0.6
176
     1
 40
30.0
176
     1
 62
     7
420
 16777215
176
     1
 90
        0
176
     1
 90
        0
176
     1
 62
     7
176
     1
 62
   257
176
     1
 90
        1
176
     1
 90
        1
176
     1
 40
1.0
176
     1
 90
        8
176
     1
 62
   257
176
     1
 40
1.0
176
     1
 90
        1
176
     1
 90
        6
176
     1
 90
        2
176
     1
 62
     7
176
     1
 90
        3
176
     1
 90
        0
176
     1
 90
        0
176
     1
290
     0
176
     1
 90
       13
176
     1
 40
0.0
176
     1
 90
        0
176
     1
290
     0
176
     1
290
     1
176
     1
290
     1
176
     1
290
     0
176
     1
290
     0
176
     1
290
     0
176
     1
290
     0
176
     1
290
     0
176
     1
290
     0
176
     1
 90
       50
176
     1
 40
0.0
176
     1
 40
1.0
176
     1
 90
        0
176
     1
 62
    18
176
     1
 90
       50
176
     1
 90
        3
176
     1
 62
     5
420
      255
176
     1
290
     0
176
     1
 90
       50
176
     1
 90
       50
176
     1
 90
       50
176
     1
290
     0
176
     1
 90
       50
176
     1
 62
   256
176
     0
 40
1.0
176
     0
 90
        2
176
     1
  1
strokes_ogs.tif
176
     1
290
     0
176
     1
 40
1.0
176
     1
 40
1.0
176
     1
1001
ACAD
1000
AcDbSavedByObjectVersion
1070
     0
  0
VISUALSTYLE
  5
10032
102
{ACAD_REACTORS
330
1001D
102
}
330
1001D
100
AcDbVisualStyle
  2

 70
    27
177
     3
291
     0
 70
    58
 90
        2
176
     1
 90
        2
176
     1
 90
        1
176
     1
 90
        2
176
     1
 40
0.6
176
     1
 40
30.0
176
     1
 62
     7
420
 16777215
176
     1
 90
        0
176
     1
 90
        4
176
     1
 62
     7
176
     1
 62
   257
176
     1
 90
        1
176
     1
 90
        1
176
     1
 40
1.0
176
     1
 90
        8
176
     1
 62
   257
176
     1
 40
1.0
176
     1
 90
        1
176
     1
 90
        6
176
     1
 90
        2
176
     1
 62
     8
420
  7895160
176
     1
 90
        3
176
     1
 90
        0
176
     1
 90
        0
176
     1
290
     0
176
     1
 90
        5
176
     1
 40
0.0
176
     1
 90
        0
176
     1
290
     0
176
     1
290
     1
176
     1
290
     1
176
     1
290
     0
176
     1
290
     0
176
     1
290
     0
176
     1
290
     0
176
     1
290
     0
176
     1
290
     0
176
     1
 90
       50
176
     1
 40
0.0
176
     1
 40
1.0
176
     1
 90
        0
176
     1
 62
    18
176
     1
 90
       50
176
     1
 90
        3
176
     1
 62
     5
420
      255
176
     1
290
     0
176
     1
 90
       50
176
     1
 90
       50
176
     1
 90
       50
176
     1
290
     0
176
     1
 90
       50
176
     1
 62
   256
176
     0
 40
1.0
176
     0
 90
        2
176
     1
  1
strokes_ogs.tif
176
     1
290
     0
176
     1
 40
1.0
176
     1
 40
1.0
176
     1
1001
ACAD
1000
AcDbSavedByObjectVersion
1070
     0
  0
VISUALSTYLE
  5
10031
102
{ACAD_REACTORS
330
1001D
102
}
330
1001D
100
AcDbVisualStyle
  2

 70
    26
177
     3
291
     0
 70
    58
 90
        2
176
     1
 90
        2
176
     1
 90
        1
176
     1
 90
        2
176
     1
 40
0.6
176
     1
 40
30.0
176
     1
 62
     7
420
 16777215
176
     1
 90
        1
176
     1
 90
        2
176
     1
 62
     7
176
     1
 62
   257
176
     1
 90
        2
176
     1
 90
        1
176
     1
 40
1.0
176
     1
 90
        8
176
     1
 62
   257
176
     1
 40
1.0
176
     1
 90
        1
176
     1
 90
        6
176
     1
 90
        2
176
     1
 62
     7
176
     1
 90
        3
176
     1
 90
        0
176
     1
 90
        0
176
     1
290
     0
176
     1
 90
        5
176
     1
 40
0.0
176
     1
 90
        0
176
     1
290
     0
176
     1
290
     1
176
     1
290
     1
176
     1
290
     0
176
     1
290
     0
176
     1
290
     0
176
     1
290
     0
176
     1
290
     0
176
     1
290
     0
176
     1
 90
       50
176
     1
 40
0.0
176
     1
 40
1.0
176
     1
 90
        0
176
     1
 62
    18
176
     1
 90
       50
176
     1
 90
        3
176
     1
 62
     5
420
      255
176
     1
290
     0
176
     1
 90
       50
176
     1
 90
       50
176
     1
 90
       50
176
     1
290
     0
176
     1
 90
       50
176
     1
 62
   256
176
     0
 40
1.0
176
     0
 90
        2
176
     1
  1
strokes_ogs.tif
176
     1
290
     0
176
     1
 40
1.0
176
     1
 40
1.0
176
     1
1001
ACAD
1000
AcDbSavedByObjectVersion
1070
     0
  0
VISUALSTYLE
  5
1002E
102
{ACAD_REACTORS
330
1001D
102
}
330
1001D
100
AcDbVisualStyle
  2

 70
    23
177
     3
291
     0
 70
    58
 90
        2
176
     1
 90
        2
176
     1
 90
        3
176
     1
 90
        0
176
     1
 40
0.6
176
     1
 40
30.0
176
     1
 62
     7
420
 16777215
176
     1
 90
        2
176
     1
 90
        2
176
     1
 62
     7
176
     1
 62
     7
176
     1
 90
        1
176
     1
 90
        1
176
     1
 40
40.0
176
     1
 90
        8
176
     1
 62
     7
176
     1
 40
1.0
176
     1
 90
        1
176
     1
 90
        6
176
     1
 90
        2
176
     1
 62
     7
176
     1
 90
        3
176
     1
 90
        0
176
     1
 90
        0
176
     1
290
     0
176
     1
 90
        1
176
     1
 40
0.0
176
     1
 90
        0
176
     1
290
     0
176
     1
290
     1
176
     1
290
     1
176
     1
290
     0
176
     1
290
     0
176
     1
290
     0
176
     1
290
     0
176
     1
290
     0
176
     1
290
     0
176
     1
 90
       50
176
     1
 40
0.0
176
     1
 40
1.0
176
     1
 90
        0
176
     1
 62
    18
176
     1
 90
       50
176
     1
 90
        3
176
     1
 62
     5
420
      255
176
     1
290
     0
176
     1
 90
       50
176
     1
 90
       50
176
     1
 90
       50
176
     1
290
     0
176
     1
 90
       50
176
     1
 62
   256
176
     0
 40
1.0
176
     0
 90
        2
176
     1
  1
strokes_ogs.tif
176
     1
290
     0
176
     1
 40
1.0
176
     1
 40
1.0
176
     1
1001
ACAD
1000
AcDbSavedByObjectVersion
1070
     0
  0
VISUALSTYLE
  5
1002F
102
{ACAD_REACTORS
330
1001D
102
}
330
1001D
100
AcDbVisualStyle
  2

 70
    24
177
     3
291
     0
 70
    58
 90
        1
176
     1
 90
        2
176
     1
 90
        2
176
     1
 90
        0
176
     1
 40
0.6
176
     1
 40
30.0
176
     1
 62
     7
420
 16777215
176
     1
 90
        2
176
     1
 90
        2
176
     1
 62
     7
176
     1
 62
     7
176
     1
 90
        1
176
     1
 90
        1
176
     1
 40
40.0
176
     1
 90
       11
176
     1
 62
     7
176
     1
 40
1.0
176
     1
 90
        1
176
     1
 90
        6
176
     1
 90
        2
176
     1
 62
     7
176
     1
 90
        6
176
     1
 90
        0
176
     1
 90
        0
176
     1
290
     0
176
     1
 90
        1
176
     1
 40
0.0
176
     1
 90
        0
176
     1
290
     0
176
     1
290
     1
176
     1
290
     1
176
     1
290
     0
176
     1
290
     0
176
     1
290
     0
176
     1
290
     0
176
     1
290
     0
176
     1
290
     0
176
     1
 90
       50
176
     1
 40
0.0
176
     1
 40
1.0
176
     1
 90
        0
176
     1
 62
    18
176
     1
 90
       50
176
     1
 90
        3
176
     1
 62
     5
420
      255
176
     1
290
     0
176
     1
 90
       50
176
     1
 90
       50
176
     1
 90
       50
176
     1
290
     0
176
     1
 90
       50
176
     1
 62
   256
176
     0
 40
1.0
176
     0
 90
        2
176
     1
  1
strokes_ogs.tif
176
     1
290
     0
176
     1
 40
1.0
176
     1
 40
1.0
176
     1
1001
ACAD
1000
AcDbSavedByObjectVersion
1070
     0
  0
VISUALSTYLE
  5
1002A
102
{ACAD_REACTORS
330
1001D
102
}
330
1001D
100
AcDbVisualStyle
  2

 70
    13
177
     3
291
     1
 70
    58
 90
        2
176
     1
 90
        2
176
     1
 90
        0
176
     1
 90
        0
176
     1
 40
0.6
176
     1
 40
30.0
176
     1
 62
     7
420
 16777215
176
     1
 90
        1
176
     1
 90
        4
176
     1
 62
     7
176
     1
 62
   257
176
     1
 90
        1
176
     1
 90
        1
176
     1
 40
1.0
176
     1
 90
       12
176
     1
 62
     7
176
     1
 40
1.0
176
     1
 90
        1
176
     1
 90
        6
176
     1
 90
        2
176
     1
 62
     7
176
     1
 90
        5
176
     1
 90
        0
176
     1
 90
        0
176
     1
290
     0
176
     1
 90
        1
176
     1
 40
0.0
176
     1
 90
        0
176
     1
290
     0
176
     1
290
     1
176
     1
290
     1
176
     1
290
     0
176
     1
290
     0
176
     1
290
     0
176
     1
290
     0
176
     1
290
     0
176
     1
290
     0
176
     1
 90
       50
176
     1
 40
0.0
176
     1
 40
1.0
176
     1
 90
        0
176
     1
 62
    18
176
     1
 90
       50
176
     1
 90
        3
176
     1
 62
     5
420
      255
176
     1
290
     0
176
     1
 90
       50
176
     1
 90
       50
176
     1
 90
       50
176
     1
290
     0
176
     1
 90
       50
176
     1
 62
   256
176
     0
 40
1.0
176
     0
 90
        2
176
     1
  1
strokes_ogs.tif
176
     1
290
     0
176
     1
 40
1.0
176
     1
 40
1.0
176
     1
1001
ACAD
1000
AcDbSavedByObjectVersion
1070
     0
  0
VISUALSTYLE
  5
10024
102
{ACAD_REACTORS
330
1001D
102
}
330
1001D
100
AcDbVisualStyle
  2

 70
     5
177
     3
291
     0
 70
    58
 90
        0
176
     1
 90
        2
176
     1
 90
        0
176
     1
 90
        0
176
     1
 40
0.6
176
     1
 40
30.0
176
     1
 62
     7
420
 16777215
176
     1
 90
        1
176
     1
 90
        4
176
     1
 62
     7
176
     1
 62
   257
176
     1
 90
        1
176
     1
 90
        1
176
     1
 40
1.0
176
     1
 90
        0
176
     1
 62
   257
176
     1
 40
1.0
176
     1
 90
        1
176
     1
 90
        6
176
     1
 90
        2
176
     1
 62
     7
176
     1
 90
        3
176
     1
 90
        0
176
     1
 90
        0
176
     1
290
     0
176
     1
 90
        1
176
     1
 40
0.0
176
     1
 90
        0
176
     1
290
     0
176
     1
290
     1
176
     1
290
     1
176
     1
290
     0
176
     1
290
     0
176
     1
290
     0
176
     1
290
     0
176
     1
290
     0
176
     1
290
     0
176
     1
 90
       50
176
     1
 40
0.0
176
     1
 40
1.0
176
     1
 90
        0
176
     1
 62
    18
176
     1
 90
       50
176
     1
 90
        3
176
     1
 62
     5
420
      255
176
     1
290
     0
176
     1
 90
       50
176
     1
 90
       50
176
     1
 90
       50
176
     1
290
     0
176
     1
 90
       50
176
     1
 62
   256
176
     0
 40
1.0
176
     0
 90
        2
176
     1
  1
strokes_ogs.tif
176
     1
290
     0
176
     1
 40
1.0
176
     1
 40
1.0
176
     1
1001
ACAD
1000
AcDbSavedByObjectVersion
1070
     0
  0
VISUALSTYLE
  5
10030
102
{ACAD_REACTORS
330
1001D
102
}
330
1001D
100
AcDbVisualStyle
  2

 70
    25
177
     3
291
     0
 70
    58
 90
        2
176
     1
 90
        2
176
     1
 90
        1
176
     1
 90
        1
176
     1
 40
0.5
176
     1
 40
30.0
176
     1
 62
     7
420
 16777215
176
     1
 90
        1
176
     1
 90
        0
176
     1
 62
     7
176
     1
 62
   257
176
     1
 90
        1
176
     1
 90
        1
176
     1
 40
1.0
176
     1
 90
        8
176
     1
 62
     7
176
     1
 40
1.0
176
     1
 90
        1
176
     1
 90
        6
176
     1
 90
        2
176
     1
 62
     7
176
     1
 90
        3
176
     1
 90
        0
176
     1
 90
        0
176
     1
290
     0
176
     1
 90
       13
176
     1
 40
0.0
176
     1
 90
        0
176
     1
290
     0
176
     1
290
     1
176
     1
290
     1
176
     1
290
     0
176
     1
290
     0
176
     1
290
     0
176
     1
290
     0
176
     1
290
     0
176
     1
290
     0
176
     1
 90
       50
176
     1
 40
0.0
176
     1
 40
1.0
176
     1
 90
        0
176
     1
 62
    18
176
     1
 90
       50
176
     1
 90
        3
176
     1
 62
     5
420
      255
176
     1
290
     0
176
     1
 90
       50
176
     1
 90
       50
176
     1
 90
       50
176
     1
290
     0
176
     1
 90
       50
176
     1
 62
   256
176
     0
 40
1.0
176
     0
 90
        2
176
     1
  1
strokes_ogs.tif
176
     1
290
     0
176
     1
 40
1.0
176
     1
 40
1.0
176
     1
1001
ACAD
1000
AcDbSavedByObjectVersion
1070
     0
  0
DICTIONARYVAR
  5
10374
102
{ACAD_REACTORS
330
1036E
102
}
330
1036E
100
DictionaryVariables
280
     0
  1
1:1
  0
DICTIONARYVAR
  5
10370
102
{ACAD_REACTORS
330
1036E
102
}
330
1036E
100
DictionaryVariables
280
     0
  1
STANDARD
  0
DICTIONARYVAR
  5
1036F
102
{ACAD_REACTORS
330
1036E
102
}
330
1036E
100
DictionaryVariables
280
     0
  1
STANDARD
  0
DICTIONARYVAR
  5
10371
102
{ACAD_REACTORS
330
1036E
102
}
330
1036E
100
DictionaryVariables
280
     0
  1
Imperial24
  0
DICTIONARYVAR
  5
10372
102
{ACAD_REACTORS
330
1036E
102
}
330
1036E
100
DictionaryVariables
280
     0
  1
Imperial24
  0
DICTIONARYVAR
  5
10376
102
{ACAD_REACTORS
330
1036E
102
}
330
1036E
100
DictionaryVariables
280
     0
  1
1
  0
DICTIONARYVAR
  5
10377
102
{ACAD_REACTORS
330
1036E
102
}
330
1036E
100
DictionaryVariables
280
     0
  1
15
  0
DICTIONARYVAR
  5
10375
102
{ACAD_REACTORS
330
1036E
102
}
330
1036E
100
DictionaryVariables
280
     0
  1
0
  0
DICTIONARYVAR
  5
10373
102
{ACAD_REACTORS
330
1036E
102
}
330
1036E
100
DictionaryVariables
280
     0
  1
0
  0
DICTIONARY
  5
10848
330
10052
100
AcDbDictionary
280
     1
281
     1
  3
ACAD_XREC_ROUNDTRIP
360
10849
  0
DICTIONARY
  5
1000E
330
1000D
100
AcDbDictionary
280
     1
281
     1
  3
ACAD_XREC_ROUNDTRIP
360
107EB
  3
BUMPTILE
360
10010
  3
DIFFUSETILE
360
1000F
  3
OPACITYTILE
360
10013
  3
REFLECTIONTILE
360
10012
  3
REFRACTIONTILE
360
10014
  3
SPECULARTILE
360
10011
  0
DICTIONARY
  5
10006
330
10005
100
AcDbDictionary
280
     1
281
     1
  3
ACAD_XREC_ROUNDTRIP
360
107EA
  3
BUMPTILE
360
10008
  3
DIFFUSETILE
360
10007
  3
OPACITYTILE
360
1000B
  3
REFLECTIONTILE
360
1000A
  3
REFRACTIONTILE
360
1000C
  3
SPECULARTILE
360
10009
  0
DICTIONARY
  5
10016
330
10015
100
AcDbDictionary
280
     1
281
     1
  3
ACAD_XREC_ROUNDTRIP
360
107EC
  3
BUMPTILE
360
10018
  3
DIFFUSETILE
360
10017
  3
OPACITYTILE
360
1001B
  3
REFLECTIONTILE
360
1001A
  3
REFRACTIONTILE
360
1001C
  3
SPECULARTILE
360
10019
  0
DICTIONARY
  5
10846
330
10050
100
AcDbDictionary
280
     1
281
     1
  3
ACAD_XREC_ROUNDTRIP
360
10847
  0
DICTIONARY
  5
10797
330
10039
100
AcDbDictionary
280
     1
281
     1
  3
ACAD_ROUNDTRIP_2008_TABLESTYLE_CELLSTYLEMAP
360
10844
  0
XRECORD
  5
10849
102
{ACAD_REACTORS
330
10848
102
}
330
10848
100
AcDbXrecord
280
     1
102
DISPLAYNAME
  1
Imperial24
102
FLAGS
 90
        0
  0
XRECORD
  5
107EB
102
{ACAD_REACTORS
330
1000E
102
}
330
1000E
100
AcDbXrecord
280
     1
102
MATERIAL
148
0.0
149
0.0
149
0.0
 93
        0
 94
      127
282
     0
 72
     0
 77
     0
171
     0
175
     0
179
     0
273
     0
  0
XRECORD
  5
10010
102
{ACAD_REACTORS
330
1000E
102
}
330
1000E
100
AcDbXrecord
280
     1
270
     1
271
     1
  0
XRECORD
  5
1000F
102
{ACAD_REACTORS
330
1000E
102
}
330
1000E
100
AcDbXrecord
280
     1
270
     1
271
     1
  0
XRECORD
  5
10013
102
{ACAD_REACTORS
330
1000E
102
}
330
1000E
100
AcDbXrecord
280
     1
270
     1
271
     1
  0
XRECORD
  5
10012
102
{ACAD_REACTORS
330
1000E
102
}
330
1000E
100
AcDbXrecord
280
     1
270
     1
271
     1
  0
XRECORD
  5
10014
102
{ACAD_REACTORS
330
1000E
102
}
330
1000E
100
AcDbXrecord
280
     1
270
     1
271
     1
  0
XRECORD
  5
10011
102
{ACAD_REACTORS
330
1000E
102
}
330
1000E
100
AcDbXrecord
280
     1
270
     1
271
     1
  0
XRECORD
  5
107EA
102
{ACAD_REACTORS
330
10006
102
}
330
10006
100
AcDbXrecord
280
     1
102
MATERIAL
148
0.0
149
0.0
149
0.0
 93
        0
 94
      127
282
     0
 72
     0
 77
     0
171
     0
175
     0
179
     0
273
     0
  0
XRECORD
  5
10008
102
{ACAD_REACTORS
330
10006
102
}
330
10006
100
AcDbXrecord
280
     1
270
     1
271
     1
  0
XRECORD
  5
10007
102
{ACAD_REACTORS
330
10006
102
}
330
10006
100
AcDbXrecord
280
     1
270
     1
271
     1
  0
XRECORD
  5
1000B
102
{ACAD_REACTORS
330
10006
102
}
330
10006
100
AcDbXrecord
280
     1
270
     1
271
     1
  0
XRECORD
  5
1000A
102
{ACAD_REACTORS
330
10006
102
}
330
10006
100
AcDbXrecord
280
     1
270
     1
271
     1
  0
XRECORD
  5
1000C
102
{ACAD_REACTORS
330
10006
102
}
330
10006
100
AcDbXrecord
280
     1
270
     1
271
     1
  0
XRECORD
  5
10009
102
{ACAD_REACTORS
330
10006
102
}
330
10006
100
AcDbXrecord
280
     1
270
     1
271
     1
  0
XRECORD
  5
107EC
102
{ACAD_REACTORS
330
10016
102
}
330
10016
100
AcDbXrecord
280
     1
102
MATERIAL
148
0.0
149
0.0
149
0.0
 93
        0
 94
      127
282
     0
 72
     0
 77
     0
171
     0
175
     0
179
     0
273
     0
  0
XRECORD
  5
10018
102
{ACAD_REACTORS
330
10016
102
}
330
10016
100
AcDbXrecord
280
     1
270
     1
271
     1
  0
XRECORD
  5
10017
102
{ACAD_REACTORS
330
10016
102
}
330
10016
100
AcDbXrecord
280
     1
270
     1
271
     1
  0
XRECORD
  5
1001B
102
{ACAD_REACTORS
330
10016
102
}
330
10016
100
AcDbXrecord
280
     1
270
     1
271
     1
  0
XRECORD
  5
1001A
102
{ACAD_REACTORS
330
10016
102
}
330
10016
100
AcDbXrecord
280
     1
270
     1
271
     1
  0
XRECORD
  5
1001C
102
{ACAD_REACTORS
330
10016
102
}
330
10016
100
AcDbXrecord
280
     1
270
     1
271
     1
  0
XRECORD
  5
10019
102
{ACAD_REACTORS
330
10016
102
}
330
10016
100
AcDbXrecord
280
     1
270
     1
271
     1
  0
XRECORD
  5
10847
102
{ACAD_REACTORS
330
10846
102
}
330
10846
100
AcDbXrecord
280
     1
102
DISPLAYNAME
  1
Imperial24
102
FLAGS
 90
        0
  0
CELLSTYLEMAP
  5
10844
102
{ACAD_REACTORS
330
10797
102
}
330
10797
100
AcDbCellStyleMap
 90
        3
300
CELLSTYLE
  1
TABLEFORMAT_BEGIN
 90
        5
170
     1
 91
        0
 92
    32768
 62
   257
 93
        1
300
CONTENTFORMAT
  1
CONTENTFORMAT_BEGIN
 90
        0
 91
        0
 92
      512
 93
        0
300

 40
0.0
140
1.0
 94
        5
 62
     0
340
11
144
0.25
309
CONTENTFORMAT_END
171
     1
301
MARGIN
  1
CELLMARGIN_BEGIN
 40
0.06
 40
0.06
 40
0.06
 40
0.06
 40
0.18
 40
0.18
309
CELLMARGIN_END
 94
        6
 95
        1
302
GRIDFORMAT
  1
GRIDFORMAT_BEGIN
 90
        0
 91
        1
 62
     0
 92
       -2
340
0
 93
        0
 40
0.045
309
GRIDFORMAT_END
 95
        2
302
GRIDFORMAT
  1
GRIDFORMAT_BEGIN
 90
        0
 91
        1
 62
     0
 92
       -2
340
0
 93
        0
 40
0.045
309
GRIDFORMAT_END
 95
        4
302
GRIDFORMAT
  1
GRIDFORMAT_BEGIN
 90
        0
 91
        1
 62
     0
 92
       -2
340
0
 93
        0
 40
0.045
309
GRIDFORMAT_END
 95
        8
302
GRIDFORMAT
  1
GRIDFORMAT_BEGIN
 90
        0
 91
        1
 62
     0
 92
       -2
340
0
 93
        0
 40
0.045
309
GRIDFORMAT_END
 95
       16
302
GRIDFORMAT
  1
GRIDFORMAT_BEGIN
 90
        0
 91
        1
 62
     0
 92
       -2
340
0
 93
        0
 40
0.045
309
GRIDFORMAT_END
 95
       32
302
GRIDFORMAT
  1
GRIDFORMAT_BEGIN
 90
        0
 91
        1
 62
     0
 92
       -2
340
0
 93
        0
 40
0.045
309
GRIDFORMAT_END
309
TABLEFORMAT_END
  1
CELLSTYLE_BEGIN
 90
        1
 91
        1
300
_TITLE
309
CELLSTYLE_END
300
CELLSTYLE
  1
TABLEFORMAT_BEGIN
 90
        5
170
     1
 91
        0
 92
        0
 62
   257
 93
        1
300
CONTENTFORMAT
  1
CONTENTFORMAT_BEGIN
 90
        0
 91
        0
 92
      512
 93
        0
300

 40
0.0
140
1.0
 94
        5
 62
     0
340
11
144
0.18
309
CONTENTFORMAT_END
171
     1
301
MARGIN
  1
CELLMARGIN_BEGIN
 40
0.06
 40
0.06
 40
0.06
 40
0.06
 40
0.18
 40
0.18
309
CELLMARGIN_END
 94
        6
 95
        1
302
GRIDFORMAT
  1
GRIDFORMAT_BEGIN
 90
        0
 91
        1
 62
     0
 92
       -2
340
0
 93
        0
 40
0.045
309
GRIDFORMAT_END
 95
        2
302
GRIDFORMAT
  1
GRIDFORMAT_BEGIN
 90
        0
 91
        1
 62
     0
 92
       -2
340
0
 93
        0
 40
0.045
309
GRIDFORMAT_END
 95
        4
302
GRIDFORMAT
  1
GRIDFORMAT_BEGIN
 90
        0
 91
        1
 62
     0
 92
       -2
340
0
 93
        0
 40
0.045
309
GRIDFORMAT_END
 95
        8
302
GRIDFORMAT
  1
GRIDFORMAT_BEGIN
 90
        0
 91
        1
 62
     0
 92
       -2
340
0
 93
        0
 40
0.045
309
GRIDFORMAT_END
 95
       16
302
GRIDFORMAT
  1
GRIDFORMAT_BEGIN
 90
        0
 91
        1
 62
     0
 92
       -2
340
0
 93
        0
 40
0.045
309
GRIDFORMAT_END
 95
       32
302
GRIDFORMAT
  1
GRIDFORMAT_BEGIN
 90
        0
 91
        1
 62
     0
 92
       -2
340
0
 93
        0
 40
0.045
309
GRIDFORMAT_END
309
TABLEFORMAT_END
  1
CELLSTYLE_BEGIN
 90
        2
 91
        1
300
_HEADER
309
CELLSTYLE_END
300
CELLSTYLE
  1
TABLEFORMAT_BEGIN
 90
        5
170
     1
 91
        0
 92
        0
 62
   257
 93
        1
300
CONTENTFORMAT
  1
CONTENTFORMAT_BEGIN
 90
        0
 91
        0
 92
      512
 93
        0
300

 40
0.0
140
1.0
 94
        2
 62
     0
340
11
144
0.18
309
CONTENTFORMAT_END
171
     1
301
MARGIN
  1
CELLMARGIN_BEGIN
 40
0.06
 40
0.06
 40
0.06
 40
0.06
 40
0.18
 40
0.18
309
CELLMARGIN_END
 94
        6
 95
        1
302
GRIDFORMAT
  1
GRIDFORMAT_BEGIN
 90
        0
 91
        1
 62
     0
 92
       -2
340
0
 93
        0
 40
0.045
309
GRIDFORMAT_END
 95
        2
302
GRIDFORMAT
  1
GRIDFORMAT_BEGIN
 90
        0
 91
        1
 62
     0
 92
       -2
340
0
 93
        0
 40
0.045
309
GRIDFORMAT_END
 95
        4
302
GRIDFORMAT
  1
GRIDFORMAT_BEGIN
 90
        0
 91
        1
 62
     0
 92
       -2
340
0
 93
        0
 40
0.045
309
GRIDFORMAT_END
 95
        8
302
GRIDFORMAT
  1
GRIDFORMAT_BEGIN
 90
        0
 91
        1
 62
     0
 92
       -2
340
0
 93
        0
 40
0.045
309
GRIDFORMAT_END
 95
       16
302
GRIDFORMAT
  1
GRIDFORMAT_BEGIN
 90
        0
 91
        1
 62
     0
 92
       -2
340
0
 93
        0
 40
0.045
309
GRIDFORMAT_END
 95
       32
302
GRIDFORMAT
  1
GRIDFORMAT_BEGIN
 90
        0
 91
        1
 62
     0
 92
       -2
340
0
 93
        0
 40
0.045
309
GRIDFORMAT_END
309
TABLEFORMAT_END
  1
CELLSTYLE_BEGIN
 90
        3
 91
        2
300
_DATA
309
CELLSTYLE_END
  0
ENDSEC
  0
EOF
